<svg width="24" height="24" viewBox="0 0 24 24" fill="none" xmlns="http://www.w3.org/2000/svg">
<path d="M4.87385 12.9302C4.72869 12.9302 4.58353 12.8643 4.47796 12.7587C3.77856 11.9669 3.42226 10.9508 3.48824 9.89509C3.55422 8.83939 4.01609 7.87606 4.80787 7.17665C6.41781 5.75146 8.83272 5.85703 10.2975 7.41419C10.4955 7.62533 10.4823 7.95523 10.2711 8.16637C10.06 8.36432 9.73007 8.35113 9.51893 8.13999C8.43683 6.99191 6.66853 6.92592 5.49407 7.96843C4.91343 8.48308 4.57034 9.19569 4.53075 9.96107C4.49116 10.7397 4.74189 11.4786 5.25654 12.0593C5.45449 12.2836 5.42809 12.6135 5.21695 12.7983C5.12457 12.8906 4.99261 12.9302 4.87385 12.9302Z" fill="black"/>
<path d="M5.68167 5.40802C5.64208 5.40802 5.6157 5.40802 5.57611 5.39482C5.53652 5.39482 5.51012 5.38163 5.47053 5.36843C5.44414 5.35524 5.40456 5.34204 5.37816 5.31565C5.35177 5.28925 5.32537 5.27606 5.29897 5.24966C5.2066 5.14409 5.14062 5.01213 5.14062 4.88017C5.14062 4.73501 5.1934 4.60305 5.29897 4.51068C5.32537 4.48428 5.35177 4.45789 5.37816 4.4447C5.40456 4.4315 5.43094 4.4051 5.47053 4.39191C5.49692 4.37871 5.53652 4.36551 5.57611 4.36551C5.74766 4.32592 5.9324 4.39191 6.05117 4.51068C6.14354 4.61625 6.20952 4.74821 6.20952 4.88017C6.20952 5.01213 6.15674 5.15729 6.05117 5.24966C5.9588 5.35523 5.81363 5.40802 5.68167 5.40802Z" fill="black"/>
<path d="M2.02785 11.7025C1.98826 11.7025 1.96186 11.7025 1.92227 11.6893C1.89588 11.6893 1.8563 11.6761 1.82991 11.6629C1.80351 11.6497 1.76392 11.6365 1.73752 11.6101C1.71113 11.5969 1.68474 11.5705 1.65835 11.5441C1.63196 11.5177 1.61876 11.4913 1.59237 11.4649C1.57917 11.4385 1.55278 11.399 1.53958 11.3726C1.52638 11.3462 1.51319 11.3066 1.51319 11.267C1.5 11.2274 1.5 11.201 1.5 11.1614C1.5 11.0295 1.55278 10.8843 1.65835 10.7919C1.68474 10.7655 1.71113 10.7391 1.73752 10.7259C1.76392 10.7127 1.79032 10.6863 1.82991 10.6731C1.8563 10.66 1.89588 10.6468 1.92227 10.6468C2.09383 10.6072 2.27857 10.6732 2.39734 10.7919C2.50291 10.8843 2.5557 11.0295 2.5557 11.1614C2.5557 11.201 2.5557 11.2274 2.54251 11.267C2.54251 11.3066 2.5293 11.333 2.51611 11.3726C2.50291 11.399 2.48971 11.4385 2.46332 11.4649C2.45012 11.4913 2.42373 11.5177 2.39734 11.5441C2.37094 11.5705 2.34455 11.5969 2.31816 11.6101C2.29177 11.6365 2.26538 11.6497 2.22579 11.6629C2.1994 11.6761 2.1598 11.6893 2.13341 11.6893C2.09382 11.6893 2.06744 11.7025 2.02785 11.7025Z" fill="black"/>
<path d="M9.5757 5.92339C9.43054 5.92339 9.29859 5.87061 9.20622 5.76504C9.11384 5.67266 9.04785 5.5275 9.04785 5.39554C9.04785 5.35595 9.04785 5.32956 9.06104 5.28997C9.07424 5.26357 9.07425 5.22399 9.08745 5.1844C9.10064 5.15801 9.11384 5.11842 9.14024 5.09202C9.15343 5.06563 9.17982 5.03924 9.20622 5.01285C9.31179 4.90728 9.44374 4.85449 9.5757 4.85449C9.72086 4.85449 9.85283 4.90728 9.9452 5.01285C9.9716 5.03924 9.98479 5.06563 10.0112 5.09202C10.0244 5.11842 10.0508 5.15801 10.064 5.1844C10.0772 5.21079 10.0904 5.25038 10.0904 5.28997C10.1036 5.32956 10.1036 5.35595 10.1036 5.39554C10.1036 5.43512 10.1036 5.46152 10.0904 5.50111C10.0904 5.52751 10.0772 5.56709 10.064 5.59348C10.0508 5.61987 10.0376 5.65946 10.0112 5.68586C9.98479 5.71225 9.9716 5.73865 9.9452 5.76504C9.85283 5.87061 9.72086 5.92339 9.5757 5.92339Z" fill="black"/>
<path d="M2.55569 7.79753C2.5161 7.79753 2.4897 7.79754 2.45012 7.78434C2.41053 7.77114 2.38414 7.77114 2.34456 7.75795C2.30497 7.74475 2.27856 7.73155 2.25217 7.70516C2.22578 7.69196 2.19939 7.66557 2.173 7.63918C2.08062 7.5468 2.01465 7.40164 2.01465 7.26968C2.01465 7.23009 2.01465 7.2037 2.02784 7.16411C2.04104 7.13772 2.04103 7.09813 2.05423 7.05854C2.06742 7.03215 2.08062 6.99256 2.10702 6.96617C2.12021 6.93978 2.1466 6.91339 2.173 6.88699C2.19939 6.8606 2.22578 6.83421 2.25217 6.82101C2.27856 6.80782 2.30497 6.78142 2.34456 6.76822C2.37095 6.75503 2.41053 6.74183 2.45012 6.74183C2.5161 6.72863 2.58208 6.72863 2.66125 6.74183C2.70084 6.75503 2.72724 6.75503 2.76683 6.76822C2.79322 6.78142 2.8328 6.79462 2.8592 6.82101C2.88559 6.83421 2.91199 6.8606 2.93839 6.88699C2.96478 6.91339 2.97798 6.93978 3.00437 6.96617C3.01756 6.99256 3.04394 7.03215 3.05714 7.05854C3.07034 7.08494 3.08354 7.12452 3.08354 7.16411C3.08354 7.2037 3.09674 7.23009 3.09674 7.26968C3.09674 7.41484 3.04396 7.5468 2.93839 7.63918C2.83282 7.74475 2.68765 7.79753 2.55569 7.79753Z" fill="black"/>
<path d="M7.30619 19.6461C7.293 19.6461 7.29299 19.6461 7.27979 19.6461C5.76222 19.5801 4.40301 18.7487 3.66402 17.4159C2.48956 15.3177 3.24174 12.6521 5.33994 11.4776C6.07893 11.0685 6.8839 10.8838 7.67568 10.9234C7.91321 8.32369 10.0774 6.33105 12.7167 6.33105C14.0627 6.33105 15.3427 6.85891 16.2928 7.80904C17.0978 8.61401 17.5993 9.65652 17.7312 10.7782C17.9292 10.765 18.1271 10.7518 18.3251 10.765C20.7268 10.8706 22.6007 12.916 22.4951 15.3177C22.3895 17.7194 20.3573 19.5801 17.9556 19.4877L7.30619 19.6461ZM7.46454 11.9659C6.92349 11.9659 6.36926 12.0978 5.8546 12.3881C4.25785 13.2855 3.6904 15.3045 4.57455 16.9013C5.14199 17.9042 6.15812 18.5376 7.30619 18.5904L17.9424 18.432C17.9556 18.432 17.9688 18.432 17.9688 18.432C19.7899 18.5112 21.347 17.0992 21.4262 15.2781C21.5054 13.457 20.0934 11.8999 18.2723 11.8207C17.9688 11.8075 17.6521 11.8339 17.3617 11.9131C17.2034 11.9527 17.045 11.9131 16.9131 11.8075C16.7811 11.7019 16.7151 11.5568 16.7151 11.3984C16.7151 10.3295 16.3061 9.3266 15.5407 8.56122C14.7885 7.80903 13.7856 7.38676 12.7167 7.38676C10.6053 7.38676 8.87654 9.00989 8.71819 11.0949C9.77389 11.4116 10.7108 12.111 11.2783 13.1403C11.4234 13.3911 11.3311 13.721 11.0803 13.8529C10.8296 13.9981 10.4997 13.9057 10.3677 13.655C9.76069 12.5729 8.62581 11.9659 7.46454 11.9659Z" fill="black"/>
</svg>
