<svg width="83" height="395" viewBox="0 0 83 395" fill="none" xmlns="http://www.w3.org/2000/svg">
<path d="M28 2C28 2 34.7042 20.589 39 32.5M39 32.5C28.4558 37.9673 18.1296 40.334 17.5 46C17 50.5 20.9745 61.8185 20.9745 66.3185M39 32.5C43 42.5 39 51 39 51M20.5 203.5C26.5 194.419 26.1377 189.025 29.75 179.75M20.5 203.5C27.7247 211.896 34.5 213 39 225M20.5 203.5C13.2753 214.435 2 231.5 2 231.5M20.5 385.5L45 369M20.9745 66.3185C28.1992 69.4427 35.3937 71.1456 37 76.5C38.5 81.5 29.6052 86.3185 29.75 90.5C29.9578 96.5 43.9524 95 45 106M20.9745 66.3185C16 75.5 5.97445 86.3185 5.97445 86.3185M45 106C45.781 114.201 44.816 124.159 46 128.5C47.5 134 54.75 143 54.75 143M45 106C38.3611 115.763 28 131 28 131M54.75 143C54.75 143 48.5 157.5 45 162.5C40.5395 168.872 32 172.5 29.75 179.75M54.75 143L72.75 160.5M29.75 179.75C36.4865 186.096 45 200 45 200M39 225C44.0768 237.106 46.3882 249.354 48.5 254C51 259.5 61.97 257 66 263.5M39 225C35.3877 235.642 29.75 252.25 29.75 252.25M66 263.5C62.6805 270.139 60.5 277.5 57.5 280.5C54.6496 283.35 41 282 40.5 292.5M66 263.5C72.0531 273.263 81.5 288.5 81.5 288.5M40.5 292.5C40.5 302.654 45 312 42 318.5C39.2681 324.419 36.5 332.5 32.5 336.5M40.5 292.5C52.8015 300.701 70.5 309.5 70.5 309.5M32.5 336.5C38.1626 343.139 45 348.842 45 354C45 357.5 45 369 45 369M32.5 336.5C22.9322 337.476 8.5 344 8.5 344M45 369L66 393.5" stroke="white" stroke-width="3" stroke-linecap="round" stroke-linejoin="round"/>
</svg>
