<svg width="24" height="24" viewBox="0 0 24 24" fill="none" xmlns="http://www.w3.org/2000/svg">
<path d="M22.0416 8.15288C21.5416 10.6529 19.1041 12.2779 16.6041 11.7779C14.1041 11.2779 12.4791 8.84038 12.9791 6.34038C13.4791 3.84038 15.9166 2.21538 18.4166 2.71538C18.6166 2.75288 18.8166 2.80288 19.0041 2.87788C17.9166 4.36538 18.2416 6.45288 19.7416 7.54038C20.4041 8.00288 21.2291 8.22788 22.0416 8.15288Z" fill="url(#paint0_linear_3783_14266)"/>
<path d="M2.37891 7.50309C2.25391 7.50309 2.11641 7.45309 2.02891 7.35309C2.00391 7.32809 1.97891 7.30309 1.96641 7.27809C1.95391 7.25309 1.92891 7.21559 1.91641 7.19059C1.90391 7.16559 1.89141 7.12809 1.89141 7.09059C1.89141 7.05309 1.87891 7.02809 1.87891 6.99059C1.87891 6.95309 1.87891 6.92809 1.89141 6.89059C1.89141 6.86559 1.90391 6.82809 1.91641 6.80309C1.92891 6.77809 1.94141 6.74059 1.96641 6.71559C1.97891 6.69059 2.00391 6.66559 2.02891 6.64059C2.05391 6.61559 2.07891 6.60309 2.10391 6.57809C2.12891 6.56559 2.15391 6.54059 2.19141 6.52809C2.21641 6.51559 2.25391 6.50309 2.29141 6.50309C2.45391 6.46559 2.62891 6.52809 2.74141 6.64059C2.76641 6.66559 2.77891 6.69059 2.80391 6.71559C2.81641 6.74059 2.84141 6.76559 2.85391 6.80309C2.86641 6.82809 2.87891 6.86559 2.87891 6.89059C2.87891 6.94059 2.87891 6.97809 2.87891 7.00309C2.87891 7.04059 2.87891 7.06559 2.86641 7.10309C2.86641 7.12809 2.85391 7.16559 2.84141 7.20309C2.82891 7.22809 2.81641 7.26559 2.79141 7.29059C2.77891 7.31559 2.75391 7.34059 2.72891 7.36559C2.70391 7.39059 2.67891 7.41559 2.65391 7.42809C2.62891 7.45309 2.59141 7.46559 2.56641 7.47809C2.54141 7.47809 2.50391 7.49059 2.47891 7.50309C2.44141 7.50309 2.41641 7.50309 2.37891 7.50309Z" fill="#9975FF"/>
<path d="M4.70391 7.91563C4.66641 7.91563 4.64141 7.91562 4.60391 7.90312C4.56641 7.90312 4.54141 7.89062 4.50391 7.87812C4.46641 7.86562 4.44141 7.85312 4.41641 7.82812C4.39141 7.81562 4.36641 7.79062 4.34141 7.76562C4.31641 7.74062 4.29141 7.71562 4.27891 7.69062C4.26641 7.66562 4.24141 7.62813 4.22891 7.60313C4.21641 7.57813 4.20391 7.54062 4.20391 7.50312C4.20391 7.46562 4.19141 7.44062 4.19141 7.40312C4.19141 7.26562 4.24141 7.14062 4.34141 7.05312C4.36641 7.02812 4.39141 7.01562 4.41641 6.99062C4.44141 6.97812 4.47891 6.95312 4.50391 6.94062C4.52891 6.92812 4.56641 6.91563 4.60391 6.91563C4.66641 6.90312 4.72891 6.90312 4.80391 6.91563C4.84141 6.91563 4.86641 6.92812 4.90391 6.94062C4.92891 6.95312 4.96641 6.96562 4.99141 6.99062C5.01641 7.01562 5.04141 7.02812 5.06641 7.05312C5.15391 7.14062 5.21641 7.27812 5.21641 7.40312C5.21641 7.44062 5.21641 7.46562 5.20391 7.50312C5.19141 7.52812 5.19141 7.56563 5.17891 7.60313C5.16641 7.64063 5.15391 7.66562 5.12891 7.69062C5.11641 7.71562 5.09141 7.74062 5.06641 7.76562C5.04141 7.79062 5.01641 7.81562 4.99141 7.82812C4.96641 7.85312 4.92891 7.86562 4.90391 7.87812C4.87891 7.89062 4.84141 7.90312 4.80391 7.90312C4.76641 7.91562 4.72891 7.91563 4.70391 7.91563Z" fill="white"/>
<path d="M6.00391 5.22789C5.87891 5.22789 5.74141 5.17789 5.65391 5.07789C5.55391 4.99039 5.50391 4.86539 5.50391 4.72789C5.50391 4.60289 5.55391 4.46539 5.65391 4.37789C5.67891 4.35289 5.70391 4.32789 5.72891 4.31539C5.75391 4.30289 5.79141 4.27789 5.81641 4.26539C5.84141 4.25289 5.87891 4.24039 5.91641 4.24039C6.07891 4.20289 6.25391 4.26539 6.36641 4.37789C6.46641 4.46539 6.51641 4.60289 6.51641 4.72789C6.51641 4.76539 6.51641 4.79039 6.50391 4.82789C6.50391 4.85289 6.49141 4.89039 6.47891 4.92789C6.46641 4.95289 6.45391 4.99039 6.42891 5.01539C6.40391 5.04039 6.39141 5.06539 6.36641 5.09039C6.34141 5.11539 6.31641 5.14039 6.29141 5.15289C6.26641 5.16539 6.24141 5.19039 6.20391 5.20289C6.17891 5.21539 6.14141 5.22789 6.10391 5.22789C6.06641 5.22789 6.04141 5.22789 6.00391 5.22789Z" fill="#9975FF"/>
<path d="M16.8919 17.4278C16.6669 17.4278 16.4669 17.2778 16.4044 17.0653C16.3294 16.8028 16.4919 16.5278 16.7544 16.4528C18.0419 16.0903 18.9544 14.9528 19.0169 13.6153C19.0544 12.7903 18.7669 12.0028 18.2044 11.3903C17.6419 10.7778 16.8919 10.4278 16.0669 10.3903C15.7794 10.3778 15.4919 10.4028 15.2169 10.4653C15.0669 10.5028 14.9169 10.4653 14.7919 10.3653C14.6669 10.2653 14.6044 10.1278 14.6044 9.97781C14.6044 7.97781 13.0419 6.32781 11.0294 6.24031C8.97943 6.15281 7.22943 7.75281 7.14193 9.81531L7.12943 10.1028C7.11693 10.3778 6.89193 10.5903 6.60443 10.5778C6.32943 10.5653 6.11693 10.3278 6.12943 10.0528L6.14193 9.75281C6.25443 7.15281 8.47943 5.12781 11.0794 5.24031C13.4169 5.34031 15.2919 7.12781 15.5669 9.39031C15.7544 9.37781 15.9294 9.36531 16.1169 9.37781C17.2044 9.42781 18.2169 9.90281 18.9544 10.7028C19.6919 11.5028 20.0669 12.5528 20.0169 13.6403C19.9419 15.4153 18.7294 16.9278 17.0294 17.4028C16.9794 17.4278 16.9419 17.4278 16.8919 17.4278Z" fill="white"/>
<path d="M5.8043 17.7026C5.7918 17.7026 5.7918 17.7026 5.7793 17.7026C4.6918 17.6526 3.6793 17.1776 2.9418 16.3776C2.2168 15.5776 1.8293 14.5276 1.8793 13.4401C1.9293 12.3526 2.4043 11.3401 3.2043 10.6026C4.0043 9.86507 5.0543 9.49007 6.1418 9.54007C7.5418 9.60257 8.8043 10.3651 9.5043 11.5776C9.6418 11.8151 9.5543 12.1276 9.3168 12.2651C9.0793 12.4026 8.7668 12.3151 8.6293 12.0776C8.1043 11.1526 7.1543 10.5776 6.0918 10.5401C5.2668 10.5026 4.4793 10.7901 3.8668 11.3526C3.2543 11.9151 2.9168 12.6526 2.8793 13.4776C2.8418 14.3026 3.1293 15.0901 3.6918 15.7026C4.2543 16.3151 5.0043 16.6651 5.8293 16.7026C6.1043 16.7151 6.3168 16.9526 6.3043 17.2276C6.2918 17.4901 6.0793 17.7026 5.8043 17.7026Z" fill="white"/>
<path d="M8.6168 17.9277L9.6168 18.9277C10.1668 19.4777 10.1668 20.3652 9.6168 20.9152C9.0668 21.4652 8.1793 21.4652 7.6293 20.9152C7.0793 20.3652 7.0793 19.4777 7.6293 18.9277L8.6168 17.9277Z" fill="url(#paint1_linear_3783_14266)"/>
<path d="M11.2418 14.7651L12.2418 15.7651C12.7918 16.3151 12.7918 17.2026 12.2418 17.7526C11.6918 18.3026 10.8043 18.3026 10.2543 17.7526C9.7043 17.2026 9.7043 16.3151 10.2543 15.7651L11.2418 14.7651Z" fill="url(#paint2_linear_3783_14266)"/>
<path d="M13.7916 17.9277L14.7916 18.9277C15.3416 19.4777 15.3416 20.3652 14.7916 20.9152C14.2416 21.4652 13.3541 21.4652 12.8041 20.9152C12.2541 20.3652 12.2541 19.4777 12.8041 18.9277L13.7916 17.9277Z" fill="url(#paint3_linear_3783_14266)"/>
<defs>
<linearGradient id="paint0_linear_3783_14266" x1="15.3341" y1="3.14276" x2="18.9466" y2="11.6532" gradientUnits="userSpaceOnUse">
<stop stop-color="#B9A0FF"/>
<stop offset="1" stop-color="#855AFF"/>
</linearGradient>
<linearGradient id="paint1_linear_3783_14266" x1="8.63754" y1="20.9852" x2="8.526" y2="18.3248" gradientUnits="userSpaceOnUse">
<stop stop-color="#409FFF"/>
<stop offset="1" stop-color="#86C2FF"/>
</linearGradient>
<linearGradient id="paint2_linear_3783_14266" x1="11.2708" y1="17.8118" x2="11.1593" y2="15.1515" gradientUnits="userSpaceOnUse">
<stop stop-color="#409FFF"/>
<stop offset="1" stop-color="#86C2FF"/>
</linearGradient>
<linearGradient id="paint3_linear_3783_14266" x1="13.8131" y1="20.9852" x2="13.7016" y2="18.3248" gradientUnits="userSpaceOnUse">
<stop stop-color="#409FFF"/>
<stop offset="1" stop-color="#86C2FF"/>
</linearGradient>
</defs>
</svg>
