<svg width="29" height="29" viewBox="0 0 29 29" fill="none" xmlns="http://www.w3.org/2000/svg">
<path fill-rule="evenodd" clip-rule="evenodd" d="M14.5 29C22.5081 29 29 22.5081 29 14.5C29 6.49187 22.5081 0 14.5 0C6.49187 0 0 6.49187 0 14.5C0 22.5081 6.49187 29 14.5 29ZM16.2071 9.29289C15.8166 8.90237 15.1834 8.90237 14.7929 9.29289C14.4024 9.68342 14.4024 10.3166 14.7929 10.7071L17.5858 13.5H9C8.44771 13.5 8 13.9477 8 14.5C8 15.0523 8.44771 15.5 9 15.5H17.5858L14.7929 18.2929C14.4024 18.6834 14.4024 19.3166 14.7929 19.7071C15.1834 20.0976 15.8166 20.0976 16.2071 19.7071L20.7071 15.2071C21.0976 14.8166 21.0976 14.1834 20.7071 13.7929L16.2071 9.29289Z" fill="#9975FF"/>
</svg>
