<svg width="25" height="25" viewBox="0 0 25 25" fill="none" xmlns="http://www.w3.org/2000/svg">
<path d="M12.5 23.4375L15.0635 19.5312H10.1562L12.7197 15.625" stroke="#212224" stroke-width="2" stroke-linecap="round" stroke-linejoin="round"/>
<path d="M8.5938 8.98438C8.5938 7.67099 8.98327 6.38709 9.71295 5.29504C10.4426 4.203 11.4798 3.35185 12.6932 2.84924C13.9066 2.34663 15.2418 2.21512 16.53 2.47135C17.8181 2.72758 19.0014 3.36004 19.9301 4.28875C20.8588 5.21746 21.4912 6.4007 21.7475 7.68886C22.0037 8.97701 21.8722 10.3122 21.3696 11.5256C20.867 12.7391 20.0158 13.7762 18.9238 14.5059C17.8317 15.2355 16.5478 15.625 15.2344 15.625H7.42193C6.79804 15.6245 6.18175 15.4881 5.61589 15.2253C5.05003 14.9626 4.54818 14.5798 4.14521 14.1035C3.74224 13.6272 3.44782 13.0689 3.28242 12.4673C3.11702 11.8657 3.0846 11.2354 3.18741 10.62C3.29023 10.0047 3.52581 9.41907 3.87779 8.90396C4.22977 8.38884 4.6897 7.95655 5.22562 7.63713C5.76153 7.31771 6.36058 7.11883 6.98112 7.0543C7.60166 6.98977 8.22881 7.06115 8.81898 7.26347" stroke="#212224" stroke-width="2" stroke-linecap="round" stroke-linejoin="round"/>
</svg>
