<svg width="24" height="24" viewBox="0 0 24 24" fill="none" xmlns="http://www.w3.org/2000/svg">
<path d="M2.88179 6.96132C2.75045 6.96132 2.60598 6.9088 2.51404 6.80373C2.42211 6.71179 2.35645 6.56732 2.35645 6.43598C2.35645 6.29152 2.40897 6.16017 2.51404 6.06824C2.61911 5.97631 2.75045 5.91064 2.88179 5.91064C3.02625 5.91064 3.15759 5.96317 3.24953 6.06824C3.34146 6.17331 3.40712 6.30465 3.40712 6.43598C3.40712 6.58045 3.3546 6.71179 3.24953 6.80373C3.15759 6.89566 3.01312 6.96132 2.88179 6.96132Z" fill="white"/>
<path d="M5.07612 7.31576C4.93165 7.31576 4.80034 7.26324 4.70841 7.15817C4.60334 7.0531 4.55078 6.92176 4.55078 6.79042C4.55078 6.75102 4.55079 6.72477 4.56393 6.68536C4.57706 6.64596 4.57705 6.61969 4.59019 6.58029C4.60332 6.55402 4.61647 6.51463 4.64274 6.48836C4.65587 6.4621 4.68214 6.43583 4.70841 6.40956C4.80034 6.31763 4.94479 6.25195 5.07612 6.25195C5.20746 6.25195 5.35193 6.3045 5.44387 6.40956C5.47013 6.43583 5.4964 6.4621 5.50953 6.48836C5.52267 6.51463 5.54895 6.54089 5.56209 6.58029C5.57522 6.60656 5.58835 6.64596 5.58835 6.68536C5.58835 6.72477 5.60146 6.75102 5.60146 6.79042C5.60146 6.93489 5.54893 7.06623 5.44387 7.15817C5.35193 7.26324 5.22059 7.31576 5.07612 7.31576Z" fill="white"/>
<path d="M6.33686 4.71551C6.19239 4.71551 6.06105 4.66296 5.96912 4.5579C5.86405 4.46596 5.81152 4.3215 5.81152 4.19017C5.81152 4.0457 5.86405 3.91436 5.96912 3.82242C6.08732 3.70422 6.2712 3.63856 6.44194 3.67796C6.4682 3.69109 6.50761 3.69109 6.54701 3.70422C6.57328 3.71735 6.61267 3.73049 6.63894 3.75676C6.66521 3.76989 6.69145 3.79616 6.71772 3.82242C6.80966 3.91436 6.87535 4.05883 6.87535 4.19017C6.87535 4.33464 6.82279 4.46596 6.71772 4.5579C6.61265 4.66296 6.48133 4.71551 6.33686 4.71551Z" fill="white"/>
<path d="M17.8545 16.9815C17.6575 16.9815 17.4605 16.8633 17.3817 16.6794C17.2635 16.4167 17.3817 16.1015 17.6443 15.9833C18.7213 15.4974 19.4173 14.4598 19.4699 13.2778C19.5487 11.5573 18.2091 10.0864 16.4754 10.0076C16.1865 9.99444 15.8976 10.0207 15.6086 10.0864C15.451 10.1258 15.2934 10.0864 15.1621 9.98132C15.0308 9.87625 14.9651 9.73178 14.9651 9.57418C14.9651 7.53849 13.376 5.87053 11.3403 5.79173C9.25204 5.69979 7.479 7.31521 7.38707 9.40344L7.37392 9.70552L6.32324 9.66611L6.33639 9.36405C6.38892 8.06383 6.95365 6.8818 7.89926 6.00186C8.85801 5.13505 10.0926 4.67538 11.3796 4.74105C13.7699 4.84612 15.6743 6.65855 15.9632 8.97004C16.1471 8.95691 16.331 8.9569 16.5017 8.9569C17.618 9.00943 18.6425 9.48224 19.4042 10.3097C20.1528 11.1371 20.5468 12.2009 20.4943 13.3172C20.4286 14.8932 19.483 16.2854 18.0515 16.9421C17.9989 16.9552 17.9201 16.9815 17.8545 16.9815Z" fill="white"/>
<path d="M4.01247 16.7309C3.90741 16.7309 3.78918 16.6915 3.69725 16.6258C2.5809 15.7984 1.95051 14.4719 2.00304 13.0798C2.05558 11.9634 2.52839 10.939 3.3558 10.1773C4.18321 9.42865 5.24701 9.03464 6.36336 9.08717C7.82117 9.15284 9.12141 9.95399 9.83062 11.2279C9.97509 11.4775 9.88315 11.8058 9.63362 11.9372C9.38408 12.0816 9.05572 11.9897 8.92439 11.7401C8.38591 10.7814 7.42718 10.1904 6.3371 10.1379C4.61661 10.0591 3.14567 11.3987 3.06687 13.1323C3.01433 14.1698 3.48712 15.168 4.32766 15.7853C4.56407 15.956 4.60347 16.2843 4.43274 16.5207C4.32767 16.6652 4.17008 16.7309 4.01247 16.7309Z" fill="white"/>
<path d="M13.7031 18.2944C13.4141 18.2944 13.1777 18.058 13.1777 17.769V16.1142C13.1777 15.8253 13.4141 15.5889 13.7031 15.5889C13.992 15.5889 14.2284 15.8253 14.2284 16.1142V17.769C14.2284 18.058 13.992 18.2944 13.7031 18.2944Z" fill="white"/>
<path d="M15.9765 20.3041C15.6876 20.3041 15.4512 20.0677 15.4512 19.7788V18.6362C15.4512 18.3472 15.6876 18.1108 15.9765 18.1108C16.2654 18.1108 16.5019 18.3472 16.5019 18.6362V19.7788C16.5019 20.0677 16.2654 20.3041 15.9765 20.3041Z" fill="white"/>
<path d="M10.8407 16.9289C10.5649 16.9289 10.3285 16.7056 10.3153 16.4167L10.2759 15.1953C10.2628 14.9063 10.4861 14.6568 10.7881 14.6568C11.0771 14.6437 11.3266 14.8669 11.3266 15.169L11.366 16.3904C11.3792 16.6794 11.1559 16.9289 10.8538 16.9289C10.8538 16.9289 10.8538 16.9289 10.8407 16.9289Z" fill="white"/>
<path d="M11.7597 21.0527C11.4708 21.0527 11.2344 20.8163 11.2344 20.5274V19.3979C11.2344 19.109 11.4708 18.8726 11.7597 18.8726C12.0487 18.8726 12.2851 19.109 12.2851 19.3979V20.5274C12.2851 20.8163 12.0487 21.0527 11.7597 21.0527Z" fill="white"/>
<path d="M8.24018 19.3722C7.95125 19.3722 7.71484 19.1358 7.71484 18.8469V17.2446C7.71484 16.9556 7.95125 16.7192 8.24018 16.7192C8.52912 16.7192 8.76552 16.9556 8.76552 17.2446V18.8469C8.76552 19.1358 8.52912 19.3722 8.24018 19.3722Z" fill="white"/>
<path d="M5.74409 20.488C5.45515 20.488 5.21875 20.2516 5.21875 19.9627V18.6362C5.21875 18.3472 5.45515 18.1108 5.74409 18.1108C6.03303 18.1108 6.26943 18.3472 6.26943 18.6362V19.9627C6.26943 20.2516 6.03303 20.488 5.74409 20.488Z" fill="white"/>
<path d="M19.4714 11.5047C19.2744 11.5047 19.0773 11.3865 18.9985 11.2026C18.8803 10.94 18.9985 10.6248 19.2612 10.5066C19.9573 10.1914 20.4826 9.58722 20.7847 8.79921C20.2068 8.73354 19.6421 8.51026 19.1693 8.16879C17.8559 7.21005 17.4226 5.47643 18.0398 4.03174C16.4901 3.80847 14.9272 4.66216 14.3099 6.14625C14.2048 6.40892 13.8896 6.54025 13.627 6.43518C13.3643 6.33011 13.233 6.01491 13.338 5.75224C14.2574 3.54582 16.7396 2.41634 18.9985 3.19121C19.1561 3.24375 19.2743 3.37508 19.3269 3.53268C19.3794 3.69028 19.3532 3.86101 19.2481 4.00548C18.4732 5.06929 18.7096 6.55339 19.7734 7.32826C20.2462 7.66973 20.8241 7.82732 21.4151 7.77479C21.5859 7.76165 21.7435 7.81419 21.8617 7.94553C21.9799 8.06373 22.0193 8.23447 21.993 8.4052C21.7041 9.82362 20.8767 10.9531 19.7078 11.4916C19.6158 11.4916 19.537 11.5047 19.4714 11.5047Z" fill="white"/>
</svg>
