<svg width="16" height="16" viewBox="0 0 16 16" fill="none" xmlns="http://www.w3.org/2000/svg">
<path fill-rule="evenodd" clip-rule="evenodd" d="M10.5875 1.46044C9.76579 1.15843 8.89059 1 8.00001 1C6.11959 1 4.30776 1.70634 2.92351 2.97907C1.53945 4.25162 0.683809 5.99758 0.526062 7.8711C0.508442 8.07768 0.533799 8.28567 0.600539 8.48197C0.667417 8.67867 0.774392 8.85935 0.914699 9.01257C1.055 9.1658 1.22559 9.28824 1.41565 9.37214C1.60572 9.45604 1.81113 9.49958 2.01888 9.5L3.65857 9.5L5.38226 7.5H2.59134C2.8072 6.33281 3.39623 5.26131 4.27717 4.45134C5.29231 3.51799 6.62101 3 8.00001 3C8.39103 3 8.778 3.04165 9.15493 3.1226L10.5875 1.46044ZM10.1499 7.5H13.4087C13.2415 6.59577 12.8503 5.74897 12.2729 5.03671L13.5939 3.50394C14.6734 4.71242 15.3371 6.24401 15.474 7.87186C15.4915 8.07819 15.4661 8.28591 15.3995 8.48197C15.3326 8.67867 15.2256 8.85935 15.0853 9.01257C14.945 9.1658 14.7744 9.28824 14.5844 9.37214C14.3943 9.45604 14.1889 9.49958 13.9811 9.5L9 9.5V12.5C9 12.6326 9.05268 12.7598 9.14645 12.8536C9.24021 12.9473 9.36739 13 9.5 13C9.63261 13 9.75979 12.9473 9.85355 12.8536C9.94732 12.7598 10 12.6326 10 12.5C10 11.9477 10.4477 11.5 11 11.5C11.5523 11.5 12 11.9477 12 12.5C12 13.163 11.7366 13.7989 11.2678 14.2678C10.7989 14.7366 10.163 15 9.5 15C8.83696 15 8.20107 14.7366 7.73223 14.2678C7.26339 13.7989 7 13.163 7 12.5V11.1548L10.1499 7.5ZM0.526062 7.8711L1.52248 7.95566L0.526171 7.86983L0.526062 7.8711Z" fill="white"/>
<path d="M12.4897 0.386154C12.8443 -0.037254 13.475 -0.0930299 13.8984 0.261575V0.261575C14.3218 0.616179 14.3776 1.24688 14.023 1.67029L3.17537 14.6226C2.82077 15.046 2.19007 15.1018 1.76666 14.7472V14.7472C1.34325 14.3926 1.28747 13.7619 1.64208 13.3385L12.4897 0.386154Z" fill="white"/>
</svg>
