<svg width="24" height="24" viewBox="0 0 24 24" fill="none" xmlns="http://www.w3.org/2000/svg">
<path d="M5.19782 10.7097C5.06035 10.7097 4.92287 10.6488 4.82289 10.5515C3.44817 9.05475 3.58565 6.74273 5.13533 5.40419C6.66002 4.08998 8.94705 4.18732 10.3343 5.62321C10.5217 5.81791 10.5092 6.12213 10.3093 6.31683C10.1093 6.49936 9.79689 6.48718 9.59693 6.29248C8.57214 5.23382 6.89748 5.17298 5.78521 6.1343C4.66044 7.10779 4.54795 8.79922 5.56025 9.90655C5.74771 10.1134 5.72271 10.4176 5.52275 10.588C5.43527 10.6732 5.3103 10.7097 5.19782 10.7097Z" fill="white"/>
<path d="M5.96161 3.7732C5.92412 3.7732 5.89913 3.7732 5.86164 3.76104C5.83665 3.76104 5.79915 3.74887 5.76166 3.7367C5.72416 3.72453 5.69917 3.71236 5.67418 3.68802C5.64918 3.67585 5.62419 3.65151 5.5992 3.62718C5.51172 3.52983 5.44922 3.40814 5.44922 3.28646C5.44922 3.1526 5.49922 3.03092 5.5992 2.94574C5.62419 2.9214 5.64918 2.89707 5.67418 2.8849C5.69917 2.87273 5.72416 2.84839 5.76166 2.83622C5.78665 2.82405 5.82415 2.81188 5.86164 2.81188C6.02411 2.77538 6.19907 2.83622 6.31155 2.94574C6.41153 3.04309 6.46151 3.16477 6.46151 3.28646C6.46151 3.40814 6.41153 3.542 6.31155 3.62718C6.22406 3.72453 6.08659 3.7732 5.96161 3.7732Z" fill="white"/>
<path d="M2.4999 9.57741C2.36243 9.57741 2.23745 9.52874 2.14996 9.43139C2.12497 9.40705 2.09997 9.38272 2.08748 9.35838C2.07498 9.33404 2.05 9.3097 2.0375 9.27319C2.025 9.24885 2.01249 9.21236 2.01249 9.17585C2.01249 9.13935 2 9.115 2 9.0785C2 9.04199 2 9.01766 2.01249 8.98116C2.02499 8.94465 2.025 8.92031 2.0375 8.8838C2.05 8.85947 2.06248 8.82297 2.08748 8.79863C2.09997 8.77429 2.12497 8.74994 2.14996 8.72561C2.23745 8.62826 2.37492 8.57959 2.4999 8.57959C2.62487 8.57959 2.76235 8.62826 2.84983 8.72561C2.87483 8.74994 2.89982 8.77429 2.91232 8.79863C2.92482 8.82297 2.9498 8.85947 2.9623 8.8838C2.9748 8.90814 2.9873 8.94465 2.9873 8.98116C2.9998 9.0055 2.9998 9.04199 2.9998 9.0785C2.9998 9.115 2.9998 9.13935 2.9873 9.17585C2.97481 9.20019 2.9748 9.23669 2.9623 9.27319C2.9498 9.29753 2.93732 9.33404 2.91232 9.35838C2.89982 9.38272 2.87483 9.40705 2.84983 9.43139C2.76235 9.51657 2.63737 9.57741 2.4999 9.57741Z" fill="white"/>
<path d="M9.64834 4.25953C9.51086 4.25953 9.3859 4.21085 9.29842 4.11351C9.21093 4.02833 9.14844 3.89447 9.14844 3.77279C9.14844 3.63893 9.19844 3.51725 9.29842 3.43207C9.41089 3.32255 9.58585 3.2617 9.74832 3.29821C9.77332 3.29821 9.81082 3.31038 9.84831 3.32255C9.8858 3.33472 9.91079 3.34689 9.93578 3.37123C9.96078 3.38339 9.98577 3.40773 10.0108 3.43207C10.0982 3.52942 10.1607 3.6511 10.1607 3.77279C10.1607 3.89447 10.1107 4.02833 10.0108 4.11351C9.91079 4.19869 9.78581 4.25953 9.64834 4.25953Z" fill="white"/>
<path d="M3.00088 5.97593C2.8634 5.97593 2.73842 5.92726 2.65094 5.82991C2.56346 5.74473 2.50098 5.61087 2.50098 5.48918C2.50098 5.35533 2.55096 5.23365 2.65094 5.14847C2.75092 5.06329 2.8759 5.00244 3.00088 5.00244C3.13835 5.00244 3.26333 5.05112 3.35081 5.14847C3.45079 5.24582 3.50077 5.3675 3.50077 5.48918C3.50077 5.62304 3.45079 5.74473 3.35081 5.82991C3.26333 5.92726 3.12585 5.97593 3.00088 5.97593Z" fill="white"/>
<path d="M17.6835 21.1987C17.521 21.1987 17.3585 21.1379 17.2461 21.0162C17.2211 20.9918 17.1961 20.9553 17.1711 20.9188C17.1461 20.8823 17.1336 20.8458 17.1086 20.8093C17.0961 20.7728 17.0836 20.7363 17.0711 20.6998C17.0586 20.6633 17.0586 20.6268 17.0586 20.5781C17.0586 20.5294 17.0586 20.5051 17.0711 20.4564C17.0836 20.4199 17.0961 20.3834 17.1086 20.3469C17.1211 20.3104 17.1461 20.2739 17.1711 20.2374C17.1961 20.2009 17.2211 20.1766 17.2461 20.14C17.3585 20.0305 17.521 19.9575 17.6835 19.9575C17.8459 19.9575 18.0084 20.0184 18.1209 20.14C18.1459 20.1644 18.1709 20.2009 18.1959 20.2374C18.2209 20.2739 18.2334 20.3104 18.2583 20.3469C18.2708 20.3834 18.2833 20.4199 18.2958 20.4564C18.3083 20.4929 18.3083 20.5294 18.3083 20.5781C18.3083 20.6268 18.3083 20.6633 18.2958 20.6998C18.2833 20.7363 18.2708 20.7728 18.2583 20.8093C18.2458 20.8458 18.2209 20.8823 18.1959 20.9188C18.1709 20.9553 18.1459 20.9797 18.1209 21.0162C18.0084 21.1379 17.8459 21.1987 17.6835 21.1987Z" fill="white"/>
<path d="M7.67272 21.1988C7.51026 21.1988 7.34779 21.138 7.23531 21.0163C7.21032 20.992 7.18533 20.9555 7.16033 20.919C7.13534 20.8825 7.12284 20.846 7.09784 20.8095C7.08535 20.7729 7.07284 20.7364 7.06035 20.6999C7.04785 20.6634 7.04785 20.6269 7.04785 20.5782C7.04785 20.5296 7.04785 20.5052 7.06035 20.4566C7.07284 20.4201 7.08535 20.3835 7.09784 20.347C7.11034 20.3105 7.13534 20.274 7.16033 20.2375C7.18533 20.201 7.21032 20.1767 7.23531 20.1402C7.26031 20.1158 7.29779 20.0915 7.33528 20.0672C7.37278 20.0428 7.41027 20.0307 7.44776 20.0063C7.48526 19.9942 7.52275 19.982 7.56024 19.9698C7.7602 19.9333 7.98516 19.9942 8.12263 20.1402C8.14763 20.1645 8.17262 20.201 8.19761 20.2375C8.22261 20.274 8.2351 20.3105 8.2601 20.347C8.2726 20.3835 8.2851 20.4201 8.2976 20.4566C8.3101 20.4931 8.31009 20.5296 8.31009 20.5782C8.31009 20.6269 8.3101 20.6634 8.2976 20.6999C8.2851 20.7364 8.2726 20.7729 8.2601 20.8095C8.2476 20.846 8.22261 20.8825 8.19761 20.919C8.17262 20.9555 8.14763 20.9798 8.12263 21.0163C7.99766 21.138 7.83519 21.1988 7.67272 21.1988Z" fill="white"/>
<path d="M12.6727 16.6236C12.5103 16.6236 12.3478 16.5627 12.2353 16.441C12.1228 16.3193 12.0479 16.1733 12.0479 16.0151C12.0479 15.9786 12.0478 15.9421 12.0603 15.8934C12.0728 15.8569 12.0853 15.8204 12.0978 15.7839C12.1103 15.7474 12.1353 15.7109 12.1603 15.6744C12.1853 15.6379 12.2103 15.6136 12.2353 15.5771C12.3478 15.4675 12.5103 15.3945 12.6727 15.3945C12.8352 15.3945 12.9977 15.4554 13.1101 15.5771C13.1351 15.6014 13.1601 15.6379 13.1851 15.6744C13.2101 15.7109 13.2226 15.7474 13.2476 15.7839C13.2601 15.8204 13.2726 15.8569 13.2851 15.8934C13.2976 15.9299 13.2976 15.9786 13.2976 16.0151C13.2976 16.1733 13.2351 16.3315 13.1101 16.441C12.9852 16.5505 12.8477 16.6236 12.6727 16.6236Z" fill="white"/>
<path d="M12.6727 21.1987C12.5103 21.1987 12.3478 21.1379 12.2353 21.0162C12.2103 20.9918 12.1853 20.9553 12.1603 20.9188C12.1353 20.8823 12.1228 20.8458 12.0978 20.8093C12.0853 20.7728 12.0728 20.7363 12.0603 20.6998C12.0478 20.6633 12.0479 20.6268 12.0479 20.5781C12.0479 20.5294 12.0478 20.5051 12.0603 20.4564C12.0728 20.4199 12.0853 20.3834 12.0978 20.3469C12.1103 20.3104 12.1353 20.2739 12.1603 20.2374C12.1853 20.2009 12.2103 20.1766 12.2353 20.14C12.3478 20.0305 12.5103 19.9575 12.6727 19.9575C12.8352 19.9575 12.9977 20.0184 13.1101 20.14C13.1351 20.1644 13.1601 20.2009 13.1851 20.2374C13.2101 20.2739 13.2226 20.3104 13.2476 20.3469C13.2601 20.3834 13.2726 20.4199 13.2851 20.4564C13.2976 20.4929 13.2976 20.5294 13.2976 20.5781C13.2976 20.6268 13.2976 20.6633 13.2851 20.6998C13.2726 20.7363 13.2601 20.7728 13.2476 20.8093C13.2351 20.8458 13.2101 20.8823 13.1851 20.9188C13.1601 20.9553 13.1351 20.9797 13.1101 21.0162C13.0102 21.1379 12.8477 21.1987 12.6727 21.1987Z" fill="white"/>
<path d="M15.1833 18.826C15.1458 18.826 15.0958 18.826 15.0583 18.8139C15.0208 18.8017 14.9833 18.7895 14.9458 18.7774C14.9083 18.7652 14.8708 18.7409 14.8333 18.7165C14.7958 18.6922 14.7709 18.6678 14.7334 18.6435C14.6959 18.6192 14.6834 18.5827 14.6584 18.5462C14.6334 18.5097 14.6209 18.4732 14.5959 18.4367C14.5834 18.4001 14.5709 18.3636 14.5584 18.3271C14.5459 18.2906 14.5459 18.2541 14.5459 18.2054C14.5459 18.1568 14.5459 18.1324 14.5584 18.0838C14.5709 18.0473 14.5834 18.0107 14.5959 17.9742C14.6084 17.9377 14.6334 17.9012 14.6584 17.8647C14.6834 17.8282 14.7084 17.8039 14.7334 17.7674C14.7584 17.7309 14.7958 17.7187 14.8333 17.6944C14.8708 17.67 14.9083 17.6579 14.9458 17.6335C14.9833 17.6214 15.0208 17.6092 15.0583 17.597C15.1333 17.5848 15.2208 17.5848 15.2957 17.597C15.3332 17.6092 15.3707 17.6214 15.4082 17.6335C15.4457 17.6457 15.4832 17.67 15.5207 17.6944C15.5582 17.7187 15.5832 17.743 15.6207 17.7674C15.6457 17.7917 15.6707 17.8282 15.6957 17.8647C15.7207 17.9012 15.7332 17.9377 15.7581 17.9742C15.7706 18.0107 15.7831 18.0473 15.7956 18.0838C15.8081 18.1203 15.8081 18.1568 15.8081 18.2054C15.8081 18.2541 15.8081 18.2906 15.7956 18.3271C15.7831 18.3636 15.7706 18.4001 15.7581 18.4367C15.7456 18.4732 15.7207 18.5097 15.6957 18.5462C15.6707 18.5827 15.6457 18.607 15.6207 18.6435C15.5957 18.68 15.5582 18.6922 15.5207 18.7165C15.4832 18.7409 15.4457 18.753 15.4082 18.7774C15.3707 18.7895 15.3332 18.8017 15.2957 18.8139C15.2583 18.826 15.2208 18.826 15.1833 18.826Z" fill="white"/>
<path d="M10.1715 18.826C10.1341 18.826 10.0841 18.826 10.0466 18.8139C10.0091 18.8017 9.97158 18.7895 9.93409 18.7774C9.8966 18.7652 9.8591 18.7409 9.82161 18.7165C9.78412 18.6922 9.75913 18.6678 9.72164 18.6435C9.68415 18.6192 9.67164 18.5827 9.64664 18.5462C9.62165 18.5097 9.60915 18.4732 9.58416 18.4367C9.57166 18.4001 9.55917 18.3636 9.54667 18.3271C9.53418 18.2906 9.53418 18.2541 9.53418 18.2054C9.53418 18.1568 9.53418 18.1324 9.54667 18.0838C9.55917 18.0473 9.57166 18.0107 9.58416 17.9742C9.59665 17.9377 9.62165 17.9012 9.64664 17.8647C9.67164 17.8282 9.69665 17.8039 9.72164 17.7674C9.74664 17.743 9.78412 17.7187 9.82161 17.6944C9.8591 17.67 9.8966 17.6579 9.93409 17.6335C9.97158 17.6214 10.0091 17.6092 10.0466 17.597C10.1216 17.5848 10.209 17.5848 10.2965 17.597C10.334 17.6092 10.3715 17.6214 10.409 17.6335C10.4465 17.6457 10.484 17.67 10.5215 17.6944C10.559 17.7187 10.584 17.743 10.6215 17.7674C10.6464 17.7917 10.6714 17.8282 10.6964 17.8647C10.7214 17.9012 10.7339 17.9377 10.7589 17.9742C10.7714 18.0107 10.7839 18.0473 10.7964 18.0838C10.8089 18.1203 10.8089 18.1568 10.8089 18.2054C10.8089 18.2541 10.8089 18.2906 10.7964 18.3271C10.7839 18.3636 10.7714 18.4001 10.7589 18.4367C10.7464 18.4732 10.7214 18.5097 10.6964 18.5462C10.6714 18.5827 10.6464 18.607 10.6215 18.6435C10.5965 18.68 10.559 18.6922 10.5215 18.7165C10.484 18.7409 10.4465 18.753 10.409 18.7774C10.3715 18.7895 10.334 18.8017 10.2965 18.8139C10.259 18.826 10.209 18.826 10.1715 18.826Z" fill="white"/>
<path d="M17.846 16.8662C17.7835 16.8662 17.721 16.8662 17.6585 16.8662C17.3836 16.8541 17.1711 16.6229 17.1836 16.3551C17.1961 16.0874 17.4335 15.8806 17.7085 15.8927C19.4456 15.9657 20.9079 14.6515 20.9953 12.9723C21.0703 11.2809 19.7206 9.85714 17.9959 9.77196C17.7085 9.75979 17.4086 9.78412 17.1336 9.85713C16.9836 9.89364 16.8337 9.85713 16.7087 9.75978C16.5837 9.66243 16.5212 9.52858 16.5212 9.38256C16.5212 7.39908 14.9216 5.76849 12.8845 5.68331C10.7849 5.58596 9.01027 7.18004 8.91029 9.21219L8.89778 9.50424C8.88528 9.77195 8.64784 9.97882 8.37289 9.96665C8.09795 9.95448 7.88549 9.72327 7.89799 9.45556L7.91049 9.16353C8.02297 6.5838 10.2725 4.58814 12.922 4.69766C15.2965 4.80718 17.1961 6.55946 17.4711 8.81064C17.6585 8.79847 17.846 8.78631 18.0334 8.79847C20.3205 8.89582 22.0951 10.7819 21.9951 13.0088C21.8952 15.1748 20.058 16.8662 17.846 16.8662Z" fill="white"/>
<path d="M7.57373 17.0126C7.56123 17.0126 7.56124 17.0126 7.54874 17.0126C5.2617 16.9153 3.48705 15.0291 3.58703 12.8023C3.68701 10.5754 5.63663 8.84749 7.91117 8.94484C9.33588 9.00568 10.6106 9.76013 11.323 10.9648C11.4604 11.196 11.373 11.5002 11.1355 11.6341C10.8981 11.7679 10.5856 11.6828 10.4481 11.4516C9.91075 10.5389 8.94845 9.967 7.86117 9.91832C6.12403 9.84531 4.66182 11.1595 4.57434 12.8388C4.49935 14.5302 5.84908 15.9539 7.57373 16.0391C7.84867 16.0513 8.06113 16.2825 8.04864 16.5502C8.04864 16.8057 7.83617 17.0126 7.57373 17.0126Z" fill="white"/>
</svg>
