<svg width="24" height="24" viewBox="0 0 24 24" fill="none" xmlns="http://www.w3.org/2000/svg">
<path d="M22.0377 7.40288C21.5377 9.90288 19.1001 11.5279 16.6001 11.0279C14.1001 10.5279 12.4751 8.09038 12.9751 5.59038C13.4751 3.09038 15.9127 1.46538 18.4127 1.96538C18.6127 2.00288 18.8126 2.05288 19.0001 2.12788C17.9126 3.61538 18.2376 5.70288 19.7376 6.79038C20.4001 7.25288 21.2252 7.47788 22.0377 7.40288Z" fill="url(#paint0_linear_3783_14591)"/>
<path d="M2.375 6.75254C2.2375 6.75254 2.1125 6.70254 2.025 6.60254C2 6.57754 1.975 6.55254 1.9625 6.52754C1.95 6.50254 1.925 6.46504 1.9125 6.44004C1.9 6.41504 1.8875 6.37754 1.8875 6.34004C1.8875 6.30254 1.875 6.27754 1.875 6.24004C1.875 6.10254 1.925 5.97754 2.025 5.89004C2.05 5.86504 2.075 5.85254 2.1 5.82754C2.125 5.81504 2.1625 5.79004 2.1875 5.77754C2.2125 5.76504 2.25 5.75254 2.2875 5.75254C2.35 5.74004 2.425 5.74004 2.4875 5.75254C2.525 5.75254 2.55 5.76504 2.575 5.77754C2.6 5.79004 2.6375 5.80254 2.6625 5.82754C2.6875 5.85254 2.7125 5.86504 2.7375 5.89004C2.825 6.00254 2.875 6.12754 2.875 6.25254C2.875 6.29004 2.875 6.31504 2.8625 6.35254C2.85 6.37754 2.85 6.41504 2.8375 6.45254C2.825 6.49004 2.8125 6.51504 2.7875 6.54004C2.775 6.56504 2.75 6.59004 2.725 6.61504C2.6375 6.70254 2.5 6.75254 2.375 6.75254Z" fill="#9975FF"/>
<path d="M4.7002 7.16504C4.5752 7.16504 4.4377 7.11504 4.3502 7.01504C4.2627 6.91504 4.2002 6.79004 4.2002 6.66504C4.2002 6.62754 4.2002 6.60254 4.2127 6.56504C4.2127 6.54004 4.2252 6.50254 4.2377 6.47754C4.2502 6.45254 4.2627 6.41504 4.2877 6.39004C4.3002 6.36504 4.3252 6.34004 4.3502 6.31504C4.4502 6.21504 4.5752 6.16504 4.7002 6.16504C4.8252 6.16504 4.9627 6.21504 5.0502 6.31504C5.0752 6.34004 5.1002 6.36504 5.1127 6.39004C5.1252 6.41504 5.1502 6.44004 5.1627 6.47754C5.1752 6.50254 5.1877 6.54004 5.1877 6.56504C5.2002 6.60254 5.2002 6.62754 5.2002 6.66504C5.2002 6.80254 5.1502 6.92754 5.0502 7.01504C4.9502 7.11504 4.8252 7.16504 4.7002 7.16504Z" fill="#2F2F2F"/>
<path d="M5.9998 4.4777C5.9623 4.4777 5.9373 4.4777 5.8998 4.4652C5.8748 4.4652 5.8373 4.4527 5.7998 4.4402C5.7748 4.4277 5.7373 4.4152 5.7123 4.3902C5.6873 4.3777 5.6623 4.3527 5.6373 4.3277C5.6123 4.3027 5.5873 4.2777 5.5748 4.2527C5.5623 4.2277 5.5373 4.1902 5.5248 4.1652C5.5123 4.1402 5.4998 4.1027 5.4998 4.0652C5.4998 4.0277 5.4873 4.0027 5.4873 3.9652C5.4873 3.8277 5.5373 3.7027 5.6373 3.6152C5.7498 3.5027 5.9248 3.4402 6.0873 3.4777C6.1248 3.4902 6.1498 3.4902 6.1873 3.5027C6.2123 3.5152 6.2498 3.5277 6.2748 3.5527C6.2998 3.5777 6.3248 3.5902 6.3498 3.6152C6.3748 3.6402 6.3998 3.6652 6.4123 3.6902C6.4248 3.7152 6.4498 3.7402 6.4623 3.7777C6.4748 3.8027 6.4873 3.8402 6.4873 3.8652C6.4873 3.9027 6.4998 3.9277 6.4998 3.9652C6.4998 4.0027 6.4998 4.0277 6.4873 4.0652C6.4748 4.0902 6.4748 4.1277 6.4623 4.1652C6.4498 4.1902 6.4373 4.2277 6.4123 4.2527C6.3998 4.2777 6.3748 4.3027 6.3498 4.3277C6.3248 4.3527 6.2998 4.3777 6.2748 4.3902C6.2498 4.4152 6.2123 4.4277 6.1873 4.4402C6.1623 4.4527 6.1248 4.4652 6.0873 4.4652C6.0623 4.4777 6.0373 4.4777 5.9998 4.4777Z" fill="#9975FF"/>
<path d="M16.0998 16.9527C16.0373 16.9527 15.9748 16.9527 15.9123 16.9527C15.6373 16.9402 15.4248 16.7027 15.4373 16.4277C15.4498 16.1527 15.6748 15.9402 15.9623 15.9527C17.6873 16.0277 19.1498 14.6902 19.2373 12.9652C19.2748 12.1277 18.9873 11.3277 18.4248 10.7152C17.8623 10.1027 17.0873 9.74018 16.2498 9.70268C15.9623 9.69018 15.6748 9.71518 15.3873 9.79018C15.2373 9.82768 15.0873 9.79018 14.9623 9.69018C14.8373 9.59018 14.7748 9.45268 14.7748 9.30268C14.7498 7.25268 13.1623 5.59018 11.1373 5.49018C10.1248 5.45268 9.1498 5.80268 8.4123 6.47768C7.6748 7.15268 7.2248 8.09018 7.1873 9.10268L7.1748 9.40268L6.1748 9.36518L6.1873 9.06518C6.2373 7.79018 6.7873 6.60268 7.7373 5.74018C8.6748 4.87768 9.8998 4.44018 11.1748 4.49018C13.5498 4.59018 15.4373 6.39018 15.7123 8.69018C15.8998 8.67768 16.0873 8.66518 16.2748 8.67768C17.3748 8.72768 18.3998 9.20268 19.1373 10.0152C19.8873 10.8277 20.2623 11.8902 20.2123 12.9902C20.1623 14.0902 19.6873 15.1152 18.8748 15.8527C18.1123 16.5652 17.1248 16.9527 16.0998 16.9527Z" fill="#2F2F2F"/>
<path d="M5.84973 17.0898C5.83723 17.0898 5.83723 17.0898 5.82473 17.0898C4.72473 17.0398 3.69973 16.5648 2.96223 15.7523C2.21223 14.9398 1.83723 13.8773 1.88723 12.7773C1.98723 10.5023 3.92473 8.72727 6.19973 8.82727C7.61223 8.88977 8.88723 9.66477 9.59973 10.8898C9.73723 11.1273 9.64973 11.4398 9.41223 11.5773C9.17473 11.7148 8.86223 11.6273 8.72473 11.3898C8.18723 10.4523 7.22473 9.87727 6.14973 9.82727C4.42473 9.75227 2.94973 11.1023 2.87473 12.8273C2.83723 13.6648 3.12473 14.4648 3.68723 15.0773C4.24973 15.6898 5.02473 16.0523 5.86223 16.0898C6.13723 16.1023 6.34973 16.3398 6.33723 16.6148C6.33723 16.8773 6.11223 17.0898 5.84973 17.0898Z" fill="#2F2F2F"/>
<path d="M10.2119 13.6523H13.5869L11.4619 16.5773H13.9244L9.19941 22.1398L10.2994 17.9023H8.33691L10.2119 13.6523Z" fill="url(#paint1_linear_3783_14591)"/>
<defs>
<linearGradient id="paint0_linear_3783_14591" x1="15.3333" y1="2.3955" x2="18.9457" y2="10.9059" gradientUnits="userSpaceOnUse">
<stop stop-color="#B9A0FF"/>
<stop offset="1" stop-color="#855AFF"/>
</linearGradient>
<linearGradient id="paint1_linear_3783_14591" x1="11.1314" y1="13.6556" x2="11.1314" y2="22.1369" gradientUnits="userSpaceOnUse">
<stop stop-color="#FF8D55"/>
<stop offset="1" stop-color="#FF6B57"/>
</linearGradient>
</defs>
</svg>
