<svg width="24" height="25" viewBox="0 0 24 25" fill="none" xmlns="http://www.w3.org/2000/svg">
<path d="M19.4926 12.8538C19.4547 12.8538 19.4293 12.8537 19.3914 12.8411C19.3661 12.8284 19.3281 12.8284 19.3028 12.8158C19.2775 12.8031 19.2395 12.7905 19.2142 12.7651C19.1889 12.7525 19.1635 12.7272 19.1382 12.7019C19.1129 12.6765 19.1002 12.6512 19.0749 12.6259C19.0623 12.6006 19.037 12.5626 19.0243 12.5373C19.0116 12.512 18.999 12.474 18.999 12.436C18.9863 12.3981 18.9863 12.3727 18.9863 12.3348C18.9863 12.1955 19.037 12.069 19.1382 11.9804C19.1635 11.955 19.1889 11.9297 19.2142 11.9171C19.2395 11.9044 19.2648 11.8791 19.3028 11.8664C19.3281 11.8538 19.3661 11.8411 19.3914 11.8411C19.5559 11.8031 19.7331 11.8664 19.8471 11.9804C19.9483 12.069 19.999 12.2082 19.999 12.3348C19.999 12.3727 19.999 12.3981 19.9863 12.436C19.9736 12.4614 19.9736 12.4993 19.961 12.5373C19.9483 12.5626 19.9357 12.6006 19.9104 12.6259C19.8977 12.6512 19.8724 12.6765 19.8471 12.7019C19.7585 12.8031 19.6192 12.8538 19.4926 12.8538Z" fill="black"/>
<path d="M12.0024 5.36025C11.8632 5.36025 11.7366 5.30962 11.648 5.20835C11.5467 5.10709 11.4961 4.98051 11.4961 4.85393C11.4961 4.81596 11.4961 4.79064 11.5087 4.75267C11.5214 4.7147 11.5214 4.68938 11.5341 4.65141C11.5467 4.62609 11.5594 4.58812 11.5847 4.5628C11.5974 4.53749 11.6227 4.51217 11.648 4.48685C11.7366 4.39824 11.8758 4.33496 12.0024 4.33496C12.1416 4.33496 12.2682 4.38559 12.3568 4.48685C12.3821 4.51217 12.4075 4.53749 12.4201 4.5628C12.4454 4.58812 12.4581 4.62609 12.4708 4.65141C12.4834 4.67672 12.4961 4.7147 12.4961 4.75267C12.4961 4.79064 12.5087 4.81596 12.5087 4.85393C12.5087 4.98051 12.4581 5.11975 12.3568 5.20835C12.2682 5.30962 12.129 5.36025 12.0024 5.36025Z" fill="black"/>
<path d="M12.0024 20.3494C11.9644 20.3494 11.9391 20.3494 11.9011 20.3367C11.8631 20.3367 11.8378 20.3241 11.7998 20.3114C11.7619 20.2988 11.7366 20.2861 11.7112 20.2608C11.6859 20.2481 11.6606 20.2228 11.6353 20.1975C11.534 20.1089 11.4834 19.9697 11.4834 19.8431C11.4834 19.7038 11.534 19.5773 11.6353 19.4887C11.6606 19.4633 11.6859 19.438 11.7112 19.4254C11.7366 19.4127 11.7619 19.3874 11.7998 19.3747C11.8252 19.3621 11.8631 19.3494 11.9011 19.3494C12.0657 19.3114 12.2429 19.3747 12.3568 19.4887C12.3821 19.514 12.4074 19.5393 12.4201 19.5646C12.4454 19.5899 12.4581 19.6279 12.4707 19.6532C12.4834 19.6785 12.496 19.7165 12.496 19.7418C12.496 19.7798 12.5087 19.8051 12.5087 19.8431C12.5087 19.9697 12.4581 20.1089 12.3568 20.1975C12.2682 20.2988 12.129 20.3494 12.0024 20.3494Z" fill="black"/>
<path d="M4.50632 12.8554C4.36708 12.8554 4.2405 12.8047 4.1519 12.7035C4.12658 12.6782 4.11392 12.6528 4.08861 12.6275C4.07595 12.6022 4.05063 12.5642 4.03797 12.5389C4.02531 12.5136 4.01265 12.4756 4.01265 12.4377C4 12.3997 4 12.3744 4 12.3364C4 12.1972 4.05063 12.0706 4.1519 11.982C4.25316 11.8807 4.37974 11.8301 4.50632 11.8301C4.6329 11.8301 4.77213 11.8807 4.86074 11.982C4.94934 12.0706 5.01263 12.2098 5.01263 12.3364C5.01263 12.3744 5.01264 12.3997 4.99998 12.4377C4.99998 12.463 4.98732 12.501 4.97466 12.5389C4.962 12.5642 4.94934 12.6022 4.92403 12.6275C4.89871 12.6528 4.88605 12.6782 4.86074 12.7035C4.77213 12.8047 4.6329 12.8554 4.50632 12.8554Z" fill="black"/>
<path d="M17.3022 7.54992C17.2642 7.54992 17.2389 7.54992 17.2009 7.53726C17.1629 7.53726 17.1376 7.5246 17.0997 7.51195C17.0617 7.49929 17.0364 7.48663 17.011 7.46131C16.9857 7.44865 16.9604 7.42334 16.9351 7.39802C16.9098 7.37271 16.8971 7.34739 16.8718 7.32208C16.8592 7.29676 16.8338 7.25879 16.8212 7.23347C16.8085 7.20815 16.7959 7.17018 16.7959 7.13221C16.7832 7.09423 16.7832 7.06892 16.7832 7.03095C16.7832 6.99297 16.7832 6.96766 16.7959 6.92968C16.8085 6.89171 16.8085 6.86639 16.8212 6.82842C16.8338 6.8031 16.8465 6.76513 16.8718 6.73982C16.8971 6.7145 16.9098 6.68918 16.9351 6.66386C16.9604 6.63855 16.9857 6.61323 17.011 6.60057C17.0364 6.58792 17.0617 6.56261 17.0997 6.54995C17.1376 6.53729 17.1629 6.52463 17.2009 6.52463C17.2642 6.51197 17.3275 6.51197 17.4034 6.52463C17.4288 6.52463 17.4667 6.53729 17.5047 6.54995C17.5427 6.56261 17.568 6.57526 17.5933 6.60057C17.6186 6.61323 17.6439 6.63855 17.6693 6.66386C17.6946 6.68918 17.7072 6.7145 17.7325 6.73982C17.7452 6.76513 17.7705 6.79044 17.7832 6.82842C17.7958 6.85373 17.8085 6.89171 17.8085 6.92968C17.8085 6.96766 17.8212 6.99297 17.8212 7.03095C17.8212 7.06892 17.8211 7.09423 17.8085 7.13221C17.7958 7.17018 17.7958 7.1955 17.7832 7.23347C17.7705 7.25879 17.7579 7.29676 17.7325 7.32208C17.7199 7.34739 17.6946 7.37271 17.6693 7.39802C17.6439 7.42334 17.6186 7.44865 17.5933 7.46131C17.568 7.48663 17.5427 7.49929 17.5047 7.51195C17.4667 7.5246 17.4414 7.53726 17.4034 7.53726C17.3655 7.54992 17.3275 7.54992 17.3022 7.54992Z" fill="black"/>
<path d="M6.69577 18.1584C6.55653 18.1584 6.42995 18.1078 6.34135 18.0065C6.25274 17.9179 6.18945 17.7787 6.18945 17.6521C6.18945 17.5128 6.24009 17.3863 6.34135 17.2977C6.36667 17.2723 6.39198 17.247 6.41729 17.2344C6.44261 17.2217 6.46793 17.1964 6.5059 17.1837C6.54387 17.1711 6.56919 17.1584 6.60716 17.1584C6.67045 17.1458 6.73375 17.1458 6.80969 17.1584C6.84767 17.1584 6.87298 17.1711 6.91096 17.1837C6.94893 17.1964 6.97425 17.209 6.99956 17.2344C7.02488 17.247 7.05019 17.2723 7.07551 17.2977C7.16411 17.3863 7.2274 17.5255 7.2274 17.6521C7.2274 17.7787 7.17677 17.9179 7.07551 18.0065C6.96159 18.0951 6.83501 18.1584 6.69577 18.1584Z" fill="black"/>
<path d="M17.3032 18.1584C17.164 18.1584 17.0374 18.1078 16.9488 18.0065C16.8475 17.9179 16.7969 17.7787 16.7969 17.6521C16.7969 17.5128 16.8475 17.3863 16.9488 17.2977C16.9741 17.2723 16.9994 17.247 17.0247 17.2344C17.05 17.2217 17.0753 17.1964 17.1133 17.1837C17.1513 17.1711 17.1766 17.1584 17.2146 17.1584C17.2779 17.1458 17.3412 17.1458 17.4171 17.1584C17.4424 17.1584 17.4804 17.1711 17.5184 17.1837C17.5564 17.1964 17.5817 17.209 17.607 17.2344C17.6323 17.247 17.6576 17.2723 17.6829 17.2977C17.7715 17.3863 17.8348 17.5255 17.8348 17.6521C17.8348 17.7787 17.7842 17.9179 17.6829 18.0065C17.5563 18.0951 17.4298 18.1584 17.3032 18.1584Z" fill="black"/>
<path d="M6.69577 7.55C6.55653 7.55 6.42995 7.49937 6.34135 7.3981C6.31603 7.37279 6.29072 7.34747 6.27806 7.32216C6.2654 7.29684 6.24008 7.25887 6.22743 7.23355C6.21477 7.20824 6.20212 7.17026 6.20212 7.13229C6.20212 7.09432 6.18945 7.069 6.18945 7.03103C6.18945 6.99305 6.18946 6.96774 6.20212 6.92977C6.21477 6.89179 6.21477 6.86647 6.22743 6.8285C6.24008 6.80318 6.25274 6.76521 6.27806 6.7399C6.29072 6.71458 6.31603 6.68926 6.34135 6.66395C6.45527 6.55002 6.63248 6.48674 6.79703 6.52471C6.835 6.52471 6.86033 6.53737 6.8983 6.55003C6.93627 6.56269 6.96158 6.57534 6.9869 6.60066C7.01222 6.61331 7.03754 6.63863 7.06285 6.66395C7.08817 6.68926 7.11348 6.71458 7.12614 6.7399C7.1388 6.76521 7.16411 6.79052 7.17677 6.8285C7.18943 6.85381 7.20209 6.89179 7.20209 6.92977C7.20209 6.96774 7.21475 6.99305 7.21475 7.03103C7.21475 7.069 7.21474 7.09432 7.20209 7.13229C7.18943 7.17026 7.18943 7.19558 7.17677 7.23355C7.16411 7.25887 7.15146 7.29684 7.12614 7.32216C7.11348 7.34747 7.08817 7.37279 7.06285 7.3981C7.03754 7.42342 7.01222 7.44873 6.9869 7.46139C6.96158 7.48671 6.93627 7.49937 6.8983 7.51203C6.86033 7.52469 6.835 7.53734 6.79703 7.53734C6.77172 7.55 6.73374 7.55 6.69577 7.55Z" fill="black"/>
<path d="M12.0005 17.4488C9.19049 17.4488 6.89941 15.1578 6.89941 12.3477C6.89941 9.53766 9.19049 7.24658 12.0005 7.24658C14.8106 7.24658 17.1017 9.53766 17.1017 12.3477C17.1017 15.1578 14.8106 17.4488 12.0005 17.4488ZM12.0005 8.25921C9.74744 8.25921 7.91205 10.0946 7.91205 12.3477C7.91205 14.6008 9.74744 16.4362 12.0005 16.4362C14.2537 16.4362 16.0891 14.6008 16.0891 12.3477C16.0891 10.0946 14.2537 8.25921 12.0005 8.25921Z" fill="black"/>
</svg>
