<svg width="24" height="24" viewBox="0 0 24 24" fill="none" xmlns="http://www.w3.org/2000/svg">
<path d="M17.9154 16.8947C17.8538 16.8947 17.7922 16.8947 17.7305 16.8947C17.4593 16.8823 17.2497 16.6481 17.2621 16.3769C17.2744 16.1057 17.5086 15.8961 17.7798 15.9084C19.4934 15.9824 20.9358 14.6633 21.0098 12.9497C21.0837 11.2485 19.7646 9.79381 18.0511 9.71984C17.7675 9.70751 17.4716 9.73216 17.2004 9.80613C17.0525 9.84311 16.9046 9.80612 16.7813 9.7075C16.658 9.60888 16.5964 9.47327 16.5964 9.32534C16.5964 8.32678 16.2142 7.38986 15.4992 6.67484C14.7965 5.97215 13.8472 5.57766 12.8487 5.57766C10.8392 5.57766 9.19964 7.1433 9.11335 9.15275L9.10101 9.44862C9.08868 9.71983 8.85445 9.92941 8.58324 9.91708C8.31203 9.90476 8.10245 9.67052 8.11477 9.3993L8.12711 9.10345C8.23807 6.5639 10.3091 4.5791 12.8487 4.5791C15.2649 4.5791 17.2621 6.40364 17.5456 8.73361C17.7305 8.72128 17.9154 8.70894 18.1004 8.72127C20.344 8.81989 22.0946 10.7307 21.996 12.9867C21.885 15.1811 20.0728 16.8947 17.9154 16.8947Z" fill="white"/>
<path d="M7.78301 17.0419C7.77068 17.0419 7.77068 17.0419 7.75836 17.0419C6.35298 16.9803 5.10784 16.2159 4.40515 15.0078C3.28331 13.06 3.94903 10.5574 5.89683 9.43561C6.84608 8.89318 7.94327 8.74524 8.99114 9.02878C10.039 9.31232 10.9266 9.99036 11.469 10.9273C11.6046 11.1615 11.5183 11.4697 11.2841 11.6053C11.0499 11.7409 10.7417 11.6546 10.6061 11.4204C9.75546 9.94105 7.85695 9.43561 6.37761 10.2862C4.89826 11.1369 4.39282 13.0353 5.24345 14.5147C5.77355 15.4393 6.72281 16.0187 7.78301 16.0557C8.05422 16.068 8.2638 16.3022 8.25147 16.5735C8.2638 16.8323 8.04189 17.0419 7.78301 17.0419Z" fill="white"/>
<path d="M11.3323 21.1456C11.2583 21.1456 11.172 21.1333 11.1104 21.084C10.9008 20.973 10.8022 20.7388 10.8638 20.5169L11.6035 17.6938H10.6542C10.4817 17.6938 10.3337 17.6075 10.2351 17.4719C10.1488 17.3363 10.1241 17.1514 10.1981 17.0034L11.7144 13.5639C11.7884 13.3913 11.9733 13.2681 12.1706 13.2681H14.9074C15.0923 13.2681 15.2649 13.3667 15.3512 13.5393C15.4375 13.6996 15.4251 13.9091 15.3142 14.0571L14.1554 15.635H15.1786C15.3758 15.635 15.5484 15.746 15.6224 15.9186C15.7087 16.0912 15.6717 16.3007 15.5484 16.4487L11.7144 20.9607C11.6158 21.084 11.4679 21.1456 11.3323 21.1456ZM11.3939 16.7199H12.2322C12.3801 16.7199 12.5281 16.7938 12.6267 16.9171C12.7253 17.0404 12.75 17.2007 12.713 17.3486L12.3678 18.6923L14.1184 16.6336H13.1815C12.9965 16.6336 12.8239 16.535 12.7376 16.3624C12.6514 16.2021 12.6637 15.9925 12.7746 15.8446L13.9334 14.2666H12.4911L11.3939 16.7199Z" fill="white"/>
<path d="M5.15716 10.8782C5.02155 10.8782 4.88594 10.8165 4.78732 10.7179C4.13394 9.97824 3.80109 9.02898 3.86273 8.04275C3.92437 7.05652 4.35584 6.15659 5.09552 5.50321C6.59952 4.1718 8.85554 4.27043 10.2239 5.72512C10.4088 5.92236 10.3965 6.23055 10.1993 6.4278C10.002 6.61272 9.69381 6.6004 9.49657 6.40315C8.48568 5.33062 6.83374 5.26898 5.73656 6.24288C5.19413 6.72367 4.8736 7.38937 4.83662 8.10439C4.79964 8.83174 5.03387 9.5221 5.51465 10.0645C5.69957 10.2741 5.67494 10.5823 5.47769 10.7549C5.3914 10.8412 5.26811 10.8782 5.15716 10.8782Z" fill="white"/>
<path d="M5.90878 3.85148C5.87179 3.85148 5.84713 3.85147 5.81015 3.83914C5.77316 3.83914 5.7485 3.82682 5.71152 3.81449C5.67453 3.80217 5.64988 3.78983 5.62523 3.76518C5.60057 3.74052 5.5759 3.7282 5.55125 3.70354C5.46495 3.60492 5.40332 3.48164 5.40332 3.35836C5.40332 3.32138 5.40333 3.29672 5.41566 3.25974C5.42799 3.22275 5.42798 3.19809 5.44031 3.16111C5.45264 3.13645 5.46495 3.09948 5.48961 3.07482C5.50194 3.05016 5.52659 3.0255 5.55125 3.00085C5.5759 2.97619 5.60057 2.95154 5.62523 2.93921C5.64988 2.92688 5.67453 2.90223 5.71152 2.8899C5.73617 2.87757 5.77316 2.86524 5.81015 2.86524C5.97041 2.82826 6.14298 2.8899 6.25393 3.00085C6.27859 3.0255 6.30324 3.05016 6.31557 3.07482C6.3279 3.09948 6.35257 3.13645 6.3649 3.16111C6.37723 3.18577 6.38955 3.22275 6.38955 3.25974C6.38955 3.29672 6.40189 3.32138 6.40189 3.35836C6.40189 3.48164 6.35256 3.61724 6.25393 3.70354C6.16764 3.80216 6.03205 3.85148 5.90878 3.85148Z" fill="white"/>
<path d="M2.49312 9.73132C2.35751 9.73132 2.23425 9.682 2.14796 9.58337C2.04934 9.48475 2 9.36148 2 9.2382C2 9.20122 2.00001 9.17656 2.01234 9.13957C2.02467 9.10259 2.02466 9.07794 2.03699 9.04096C2.04932 9.0163 2.06166 8.97931 2.08632 8.95465C2.09865 8.93 2.1233 8.90535 2.14796 8.88069C2.17261 8.85603 2.19725 8.83138 2.22191 8.81905C2.24656 8.80672 2.27121 8.78206 2.3082 8.76974C2.33285 8.75741 2.36984 8.74509 2.40683 8.74509C2.46847 8.73276 2.54245 8.73276 2.60408 8.74509C2.62874 8.74509 2.66572 8.75741 2.69037 8.76974C2.71503 8.78206 2.75201 8.79439 2.77666 8.81905C2.80132 8.83138 2.82599 8.85603 2.85064 8.88069C2.94927 8.96698 2.99857 9.1026 2.99857 9.22588C2.99857 9.34916 2.94927 9.48475 2.85064 9.57105C2.82599 9.5957 2.80132 9.62036 2.77666 9.63269C2.75201 9.64502 2.72736 9.66967 2.69037 9.682C2.66572 9.69433 2.62874 9.70665 2.60408 9.70665C2.55477 9.71898 2.5301 9.73132 2.49312 9.73132Z" fill="white"/>
<path d="M9.54256 4.3319C9.50558 4.3319 9.48092 4.33191 9.44394 4.31958C9.41928 4.30725 9.38229 4.30725 9.34531 4.29492C9.32065 4.28259 9.28367 4.27027 9.25902 4.24561C9.23436 4.22096 9.20969 4.20863 9.18504 4.18397C9.16038 4.15932 9.14805 4.13466 9.1234 4.11C9.11107 4.08535 9.08643 4.06069 9.0741 4.02371C9.06177 3.99905 9.04945 3.96207 9.04945 3.92508C9.03712 3.90043 9.03711 3.86345 9.03711 3.82646C9.03711 3.69086 9.08641 3.56758 9.18504 3.48128C9.20969 3.45663 9.23436 3.43197 9.25902 3.41964C9.28367 3.40732 9.30832 3.38266 9.34531 3.37033C9.38229 3.358 9.40695 3.34567 9.44394 3.34567C9.50558 3.33334 9.57952 3.33334 9.64116 3.34567C9.67815 3.34567 9.70281 3.358 9.73979 3.37033C9.77678 3.38266 9.80143 3.39499 9.82608 3.41964C9.85074 3.43197 9.87541 3.45663 9.90006 3.48128C9.99868 3.57991 10.048 3.70318 10.048 3.82646C10.048 3.86345 10.048 3.8881 10.0357 3.92508C10.0357 3.96207 10.0233 3.98672 10.011 4.02371C9.99867 4.04836 9.98636 4.08535 9.9617 4.11C9.93705 4.13466 9.92472 4.15932 9.90006 4.18397C9.80144 4.2826 9.67817 4.3319 9.54256 4.3319Z" fill="white"/>
<path d="M2.98687 6.08292C2.94989 6.08292 2.92526 6.08291 2.88827 6.07058C2.85129 6.05825 2.82663 6.05826 2.78964 6.04593C2.75266 6.0336 2.72801 6.02127 2.70335 5.99662C2.6787 5.98429 2.65403 5.95963 2.62937 5.93498C2.54308 5.84868 2.48145 5.71308 2.48145 5.58981C2.48145 5.55282 2.48143 5.52816 2.49376 5.49118C2.50608 5.46652 2.50611 5.42953 2.51844 5.39255C2.53076 5.36789 2.54308 5.33091 2.56773 5.30626C2.59239 5.2816 2.60472 5.25695 2.62937 5.23229C2.65403 5.20764 2.6787 5.18298 2.70335 5.17065C2.72801 5.15833 2.75266 5.13367 2.78964 5.12134C2.8143 5.10901 2.85129 5.09669 2.88827 5.09669C3.04853 5.05971 3.22111 5.12134 3.33206 5.23229C3.35671 5.25695 3.36904 5.2816 3.3937 5.30626C3.40602 5.33091 3.4307 5.36789 3.44303 5.39255C3.45535 5.4172 3.46768 5.45419 3.46768 5.49118C3.48 5.52816 3.47999 5.55282 3.47999 5.58981C3.47999 5.72541 3.43068 5.84868 3.33206 5.93498C3.24576 6.0336 3.11015 6.08292 2.98687 6.08292Z" fill="white"/>
</svg>
