<svg width="24" height="24" viewBox="0 0 24 24" fill="none" xmlns="http://www.w3.org/2000/svg">
<path d="M15.0551 12.7252C14.7676 12.7252 14.4926 12.7127 14.2176 12.7127C13.9551 12.7127 13.6926 12.7002 13.4551 12.7002C13.1801 12.7002 12.9551 12.4752 12.9551 12.2002C12.9551 11.9252 13.1801 11.7002 13.4551 11.7002C13.7176 11.7002 13.9801 11.7002 14.2426 11.7127C15.5551 11.7377 16.9051 11.7752 17.9176 11.1002C18.4801 10.7252 18.7926 10.1002 18.7176 9.45023C18.6551 8.90023 18.3301 8.46273 17.8176 8.27523C17.2801 8.10023 16.7676 8.17523 16.4051 8.47523C16.0551 8.77523 15.9051 9.25023 15.9926 9.76273C16.0426 10.0377 15.8551 10.2877 15.5801 10.3377C15.3051 10.3877 15.0551 10.2002 15.0051 9.92524C14.8551 9.06274 15.1426 8.23773 15.7551 7.71273C16.3926 7.16273 17.2676 7.02523 18.1426 7.32523H18.1551C19.0176 7.65023 19.6051 8.38773 19.7051 9.32523C19.8176 10.3502 19.3426 11.3502 18.4676 11.9252C17.4426 12.6252 16.2176 12.7252 15.0551 12.7252Z" fill="white"/>
<path d="M11.4803 12.8501H6.84277C6.56777 12.8501 6.34277 12.6251 6.34277 12.3501C6.34277 12.0751 6.56777 11.8501 6.84277 11.8501H11.4803C11.7553 11.8501 11.9803 12.0751 11.9803 12.3501C11.9803 12.6251 11.7553 12.8501 11.4803 12.8501Z" fill="white"/>
<path d="M12.8671 18.7627C12.7296 18.7627 12.5796 18.7502 12.4421 18.7127C11.9296 18.5752 11.4921 18.2002 11.2921 17.7127C11.1921 17.4627 11.3046 17.1627 11.5671 17.0627C11.8171 16.9502 12.1171 17.0752 12.2171 17.3377C12.3046 17.5377 12.4796 17.7002 12.6921 17.7627C13.0421 17.8502 13.3921 17.6627 13.5171 17.3127C13.6421 16.9502 13.4546 16.5377 13.2546 16.2877C12.9171 15.8627 12.1921 15.6002 11.1296 15.5127C8.81706 15.3127 6.45456 15.6752 4.41706 16.0377C4.14206 16.0877 3.89206 15.9002 3.84206 15.6252C3.79206 15.3502 3.97956 15.1002 4.25456 15.0502C6.35456 14.6877 8.79206 14.3127 11.2296 14.5252C12.5796 14.6377 13.5296 15.0252 14.0546 15.6752C14.5296 16.2752 14.6921 17.0252 14.4796 17.6502C14.2171 18.3252 13.5796 18.7627 12.8671 18.7627Z" fill="white"/>
<path d="M19.6795 15.4873H16.3545C16.0795 15.4873 15.8545 15.2623 15.8545 14.9873C15.8545 14.7123 16.0795 14.4873 16.3545 14.4873H19.6795C19.9545 14.4873 20.1795 14.7123 20.1795 14.9873C20.1795 15.2623 19.9545 15.4873 19.6795 15.4873Z" fill="white"/>
<path d="M8.69246 10.0625C8.00496 10.0625 7.31747 9.9 6.67997 9.75L6.44246 9.6875C5.92996 9.5625 5.56747 9.4625 5.20497 9.3625C4.89247 9.275 4.56746 9.175 4.12996 9.075C3.86746 9.0125 3.69247 8.73749 3.76747 8.47499C3.82997 8.21249 4.10497 8.0375 4.36747 8.1125C4.81747 8.225 5.15496 8.32499 5.47996 8.41249C5.84246 8.51249 6.17996 8.61249 6.66746 8.72499L6.91746 8.78749C7.67996 8.97499 8.46747 9.16249 9.15497 9.03749C9.81747 8.92499 10.4925 8.375 10.4925 7.575C10.4925 7.1875 10.3425 6.825 10.0675 6.55C9.79246 6.275 9.42996 6.125 9.04246 6.125C8.42996 6.125 7.94246 6.62499 7.94246 7.22499V7.25C7.94246 7.525 7.71746 7.75 7.44246 7.75C7.16746 7.75 6.94246 7.525 6.94246 7.25V7.22499C6.94246 6.06249 7.89246 5.125 9.04246 5.125C9.69246 5.125 10.305 5.37499 10.7675 5.83749C11.23 6.29999 11.48 6.9125 11.48 7.5625C11.48 8.7625 10.5675 9.7875 9.30497 10.0125C9.11747 10.05 8.90496 10.0625 8.69246 10.0625Z" fill="white"/>
</svg>
