<svg width="24" height="24" viewBox="0 0 24 24" fill="none" xmlns="http://www.w3.org/2000/svg">
<path d="M17.0289 16.1419C16.9664 16.1419 16.9039 16.1419 16.8414 16.1419C16.5664 16.1294 16.3539 15.8919 16.3664 15.6169C16.3789 15.3419 16.6039 15.1294 16.8914 15.1419C18.6289 15.2169 20.1039 13.8669 20.1789 12.1419C20.2539 10.4044 18.9039 8.92939 17.1789 8.85439C16.8914 8.84189 16.5914 8.86689 16.3164 8.94189C16.1664 8.97939 16.0164 8.94189 15.8914 8.84189C15.7664 8.74189 15.7039 8.60439 15.7039 8.45439C15.6914 6.39189 14.0914 4.72939 12.0539 4.62939C9.95391 4.52939 8.17891 6.16689 8.07891 8.26689L8.06641 8.56689L7.06641 8.52939L7.07891 8.22939C7.20391 5.57939 9.45391 3.51689 12.0914 3.62939C14.4664 3.72939 16.3789 5.54189 16.6539 7.85439C16.8414 7.84189 17.0289 7.82939 17.2164 7.84189C19.5039 7.94189 21.2789 9.87939 21.1789 12.1669C21.1289 13.2794 20.6539 14.2919 19.8289 15.0419C19.0539 15.7544 18.0789 16.1419 17.0289 16.1419Z" fill="white"/>
<path d="M6.74153 16.2796C6.72903 16.2796 6.72903 16.2796 6.71653 16.2796C4.42903 16.1796 2.65403 14.2421 2.75403 11.9546C2.80403 10.8421 3.27903 9.82959 4.10403 9.07959C4.91653 8.32959 5.97903 7.94209 7.09153 7.99209C8.51653 8.05459 9.79153 8.82959 10.504 10.0671C10.6415 10.3046 10.554 10.6171 10.3165 10.7546C10.079 10.8921 9.76653 10.8046 9.62903 10.5671C9.09153 9.62959 8.12903 9.04209 7.04153 8.99209C6.20403 8.95459 5.39153 9.24209 4.77903 9.81709C4.16653 10.3921 3.79153 11.1546 3.75403 11.9921C3.67903 13.7296 5.02903 15.2046 6.75403 15.2796C7.02903 15.2921 7.24153 15.5296 7.22903 15.8046C7.22903 16.0671 7.00403 16.2796 6.74153 16.2796Z" fill="white"/>
<path d="M7.45117 19.9426C7.32617 19.9426 7.20117 19.8926 7.10117 19.7926C6.90117 19.5926 6.90117 19.2801 7.10117 19.0801L8.40117 17.7926C8.60117 17.5926 8.91367 17.5926 9.11367 17.7926C9.31367 17.9926 9.31367 18.3051 9.11367 18.5051L7.81367 19.7926C7.71367 19.8926 7.58867 19.9426 7.45117 19.9426Z" fill="#57AAFF"/>
<path d="M8.75117 19.9426C8.62617 19.9426 8.50117 19.8926 8.40117 19.7926L7.10117 18.5051C6.90117 18.3051 6.90117 17.9926 7.10117 17.7926C7.30117 17.5926 7.61367 17.5926 7.81367 17.7926L9.11367 19.0926C9.31367 19.2926 9.31367 19.6051 9.11367 19.8051C9.01367 19.8926 8.88867 19.9426 8.75117 19.9426Z" fill="#57AAFF"/>
<path d="M11.251 16.8928C11.126 16.8928 11.001 16.8428 10.901 16.7428C10.701 16.5428 10.701 16.2303 10.901 16.0303L12.1885 14.7428C12.3885 14.5428 12.701 14.5428 12.901 14.7428C13.101 14.9428 13.101 15.2553 12.901 15.4553L11.601 16.7553C11.501 16.8428 11.376 16.8928 11.251 16.8928Z" fill="#57AAFF"/>
<path d="M12.5383 16.8928C12.4133 16.8928 12.2883 16.8428 12.1883 16.7428L10.8883 15.4553C10.6883 15.2553 10.6883 14.9428 10.8883 14.7428C11.0883 14.5428 11.4008 14.5428 11.6008 14.7428L12.9008 16.0428C13.1008 16.2428 13.1008 16.5553 12.9008 16.7553C12.8008 16.8428 12.6758 16.8928 12.5383 16.8928Z" fill="#57AAFF"/>
<path d="M15.6008 20.293C15.4758 20.293 15.3508 20.243 15.2508 20.143L13.9508 18.843C13.7508 18.643 13.7508 18.3305 13.9508 18.1305C14.1508 17.9305 14.4633 17.9305 14.6633 18.1305L15.9633 19.4305C16.1633 19.6305 16.1633 19.943 15.9633 20.143C15.8633 20.243 15.7383 20.293 15.6008 20.293Z" fill="#57AAFF"/>
<path d="M14.3135 20.293C14.1885 20.293 14.0635 20.243 13.9635 20.143C13.7635 19.943 13.7635 19.6305 13.9635 19.4305L15.2635 18.1305C15.4635 17.9305 15.776 17.9305 15.976 18.1305C16.176 18.3305 16.176 18.643 15.976 18.843L14.6635 20.143C14.5635 20.243 14.4385 20.293 14.3135 20.293Z" fill="#57AAFF"/>
</svg>
