<svg width="24" height="24" viewBox="0 0 24 24" fill="none" xmlns="http://www.w3.org/2000/svg">
<path d="M9.7252 15.8124C9.7252 15.3624 10.1252 14.9499 10.7752 14.6374C8.6127 14.1499 7.1377 13.1749 7.1377 12.0624C7.1377 10.4624 10.1627 9.1499 13.8877 9.1499C17.6127 9.1499 20.6377 10.4499 20.6377 12.0624C20.6377 13.2124 19.0877 14.2124 16.8252 14.6749C17.4252 14.9749 17.7877 15.3749 17.7877 15.8124C17.7877 16.7749 15.9877 17.5499 13.7502 17.5499C11.5127 17.5499 9.7252 16.7749 9.7252 15.8124Z" fill="#50495B"/>
<path d="M11.6125 13.2624C7.625 13.2624 4.625 11.8624 4.625 9.9874C4.625 8.1124 7.625 6.7124 11.6125 6.7124C15.6 6.7124 18.6 8.1249 18.6 9.9874C18.6 11.8499 15.5875 13.2624 11.6125 13.2624ZM11.6125 7.7124C8.075 7.7124 5.625 8.9124 5.625 9.9874C5.625 11.0624 8.0875 12.2624 11.6125 12.2624C15.1375 12.2624 17.6 11.0624 17.6 9.9874C17.6 8.9124 15.1375 7.7124 11.6125 7.7124Z" fill="white"/>
<path d="M11.3873 17.125C8.5248 17.125 6.3623 16.075 6.3623 14.6875C6.3623 13.3 8.5248 12.25 11.3873 12.25C11.6623 12.25 11.8873 12.475 11.8873 12.75C11.8873 13.025 11.6623 13.25 11.3873 13.25C8.9248 13.25 7.3623 14.1 7.3623 14.6875C7.3623 15.275 8.9373 16.125 11.3873 16.125C12.6373 16.125 13.7998 15.9 14.5998 15.5C14.8498 15.375 15.1498 15.475 15.2748 15.725C15.3998 15.975 15.2998 16.275 15.0498 16.4C14.1248 16.8625 12.7873 17.125 11.3873 17.125Z" fill="white"/>
<path d="M11.5621 19.6623C11.5496 19.6623 11.5371 19.6623 11.5121 19.6623C9.78711 19.6623 8.03711 19.0498 8.03711 17.8873C8.03711 17.0123 9.22461 16.1123 11.5121 16.1123C11.7871 16.1123 12.0121 16.3373 12.0121 16.6123C12.0121 16.8873 11.7871 17.1123 11.5121 17.1123C9.89961 17.1123 9.03711 17.6623 9.03711 17.8873C9.03711 18.1123 9.89961 18.6623 11.5121 18.6623C11.9871 18.6748 12.4621 18.6123 12.9371 18.4873C13.1996 18.4248 13.4746 18.5873 13.5371 18.8498C13.5996 19.1123 13.4371 19.3873 13.1746 19.4498C12.6496 19.5873 12.0996 19.6623 11.5621 19.6623Z" fill="white"/>
<path d="M17.3125 14.7248C17.175 14.7248 17.05 14.6748 16.9625 14.5748C16.9375 14.5498 16.9125 14.5248 16.9 14.4998C16.875 14.4748 16.8625 14.4373 16.85 14.4123C16.8375 14.3873 16.825 14.3498 16.825 14.3123C16.825 14.2748 16.8125 14.2498 16.8125 14.2123C16.8125 14.0748 16.8625 13.9498 16.9625 13.8623C17.075 13.7498 17.25 13.6873 17.4125 13.7248C17.4375 13.7373 17.475 13.7373 17.5 13.7498C17.525 13.7623 17.5625 13.7748 17.5875 13.7998C17.6125 13.8248 17.6375 13.8373 17.6625 13.8623C17.7625 13.9498 17.8125 14.0873 17.8125 14.2123C17.8125 14.2498 17.8125 14.2748 17.8 14.3123C17.7875 14.3373 17.7875 14.3748 17.775 14.4123C17.7625 14.4373 17.75 14.4748 17.725 14.4998C17.7125 14.5248 17.6875 14.5498 17.6625 14.5748C17.6375 14.5998 17.6125 14.6248 17.5875 14.6373C17.5625 14.6623 17.5375 14.6748 17.5 14.6873C17.475 14.6998 17.4375 14.7123 17.4125 14.7123C17.3875 14.7123 17.35 14.7248 17.3125 14.7248Z" fill="white"/>
<path d="M3.875 13.2625C3.7375 13.2625 3.6125 13.2125 3.525 13.1125C3.425 13.025 3.375 12.9 3.375 12.7625C3.375 12.725 3.375 12.7 3.3875 12.6625C3.4 12.6375 3.4 12.6 3.4125 12.575C3.425 12.55 3.4375 12.5125 3.4625 12.4875C3.475 12.4625 3.5 12.4375 3.525 12.4125C3.55 12.3875 3.575 12.3625 3.6 12.35C3.625 12.3375 3.6625 12.3125 3.6875 12.3C3.7125 12.2875 3.75 12.275 3.7875 12.275C3.85 12.2625 3.925 12.2625 3.9875 12.275C4.025 12.275 4.05 12.2875 4.0875 12.3C4.1125 12.3125 4.15 12.325 4.175 12.35C4.2 12.3625 4.225 12.3875 4.25 12.4125C4.275 12.4375 4.3 12.4625 4.3125 12.4875C4.325 12.5125 4.35 12.5375 4.3625 12.575C4.375 12.6 4.3875 12.6375 4.3875 12.6625C4.375 12.7 4.375 12.7375 4.375 12.7625C4.375 12.9 4.325 13.025 4.225 13.1125C4.1375 13.2125 4 13.2625 3.875 13.2625Z" fill="white"/>
<path d="M16.1748 5.375C16.0498 5.375 15.9123 5.325 15.8248 5.225C15.7998 5.2 15.7748 5.175 15.7623 5.15C15.7373 5.125 15.7248 5.0875 15.7123 5.0625C15.6998 5.0375 15.6873 5 15.6873 4.9625C15.6873 4.925 15.6748 4.9 15.6748 4.8625C15.6748 4.7375 15.7248 4.6 15.8248 4.5125C15.9123 4.425 16.0373 4.375 16.1748 4.375C16.3123 4.375 16.4373 4.425 16.5248 4.525C16.5498 4.55 16.5748 4.575 16.5873 4.6C16.5998 4.625 16.6248 4.6625 16.6373 4.6875C16.6498 4.7125 16.6623 4.75 16.6623 4.7875C16.6748 4.825 16.6748 4.85 16.6748 4.8875C16.6748 4.925 16.6748 4.95 16.6623 4.9875C16.6498 5.025 16.6498 5.05 16.6373 5.0875C16.6248 5.1125 16.6123 5.15 16.5873 5.175C16.5748 5.2 16.5498 5.225 16.5248 5.25C16.4373 5.325 16.2998 5.375 16.1748 5.375Z" fill="white"/>
</svg>
