<svg width="24" height="24" viewBox="0 0 24 24" fill="none" xmlns="http://www.w3.org/2000/svg">
<path d="M7.3252 3.6234C7.1877 3.6234 7.0627 3.5734 6.9752 3.4734C6.8877 3.3734 6.8252 3.2484 6.8252 3.1234C6.8252 2.9984 6.8752 2.8609 6.9752 2.7734C7.0877 2.6609 7.2627 2.5984 7.4252 2.6359C7.4627 2.6359 7.48769 2.6484 7.52519 2.6609C7.55019 2.6734 7.5877 2.6859 7.6127 2.7109C7.6377 2.7234 7.6627 2.7484 7.6877 2.7734C7.7752 2.8734 7.83769 2.9984 7.83769 3.1234C7.83769 3.1609 7.8377 3.1859 7.8252 3.2234C7.8252 3.2609 7.8127 3.2859 7.8002 3.3234C7.7877 3.3484 7.7752 3.3859 7.7502 3.4109C7.7377 3.4359 7.7127 3.4609 7.6877 3.4859C7.6627 3.5109 7.6377 3.5234 7.6127 3.5484C7.5877 3.5609 7.55019 3.5859 7.52519 3.5984C7.50019 3.6109 7.4627 3.6234 7.4252 3.6234C7.3877 3.6234 7.3627 3.6234 7.3252 3.6234Z" fill="#FFC44C"/>
<path d="M2.0125 8.93594C1.975 8.93594 1.95001 8.93594 1.91251 8.92344C1.87501 8.92344 1.85 8.91094 1.8125 8.89844C1.7875 8.88594 1.75001 8.87344 1.72501 8.84844C1.70001 8.83594 1.67499 8.81094 1.64999 8.78594C1.62499 8.76094 1.59999 8.73594 1.58749 8.71094C1.57499 8.68594 1.55001 8.64844 1.53751 8.62344C1.52501 8.59844 1.5125 8.56094 1.5125 8.52344C1.5125 8.48594 1.5 8.46094 1.5 8.42344C1.5 8.38594 1.5 8.36094 1.5125 8.32344C1.5125 8.28594 1.52501 8.26094 1.53751 8.22344C1.55001 8.19844 1.56249 8.16094 1.58749 8.13594C1.59999 8.11094 1.62499 8.08594 1.64999 8.06094C1.67499 8.03594 1.70001 8.02344 1.72501 7.99844C1.75001 7.97344 1.775 7.96094 1.8125 7.94844C1.8375 7.93594 1.87501 7.92344 1.91251 7.92344C1.97501 7.91094 2.0375 7.91094 2.1125 7.92344C2.15 7.92344 2.17499 7.93594 2.21249 7.94844C2.23749 7.96094 2.275 7.97344 2.3 7.99844C2.325 8.01094 2.35 8.03594 2.375 8.06094C2.4 8.08594 2.4125 8.11094 2.4375 8.13594C2.4625 8.16094 2.475 8.19844 2.4875 8.22344C2.5 8.24844 2.5125 8.28594 2.5125 8.32344C2.5125 8.36094 2.52499 8.38594 2.52499 8.42344C2.52499 8.46094 2.525 8.48594 2.5125 8.52344C2.5 8.56094 2.5 8.58594 2.4875 8.62344C2.475 8.64844 2.4625 8.68594 2.4375 8.71094C2.425 8.73594 2.4 8.76094 2.375 8.78594C2.35 8.81094 2.325 8.83594 2.3 8.84844C2.275 8.86094 2.23749 8.88594 2.21249 8.89844C2.18749 8.91094 2.15 8.92344 2.1125 8.92344C2.075 8.93594 2.05 8.93594 2.0125 8.93594Z" fill="#FFC44C"/>
<path d="M11.0879 5.18604C10.9629 5.18604 10.8254 5.13603 10.7379 5.03603C10.6379 4.94853 10.5879 4.81104 10.5879 4.68604C10.5879 4.54854 10.6379 4.42354 10.7379 4.33604C10.8254 4.23604 10.9629 4.18604 11.0879 4.18604C11.2129 4.18604 11.3504 4.23604 11.4379 4.33604C11.5254 4.42354 11.5879 4.56104 11.5879 4.68604C11.5879 4.81104 11.5379 4.94853 11.4379 5.03603C11.3504 5.12353 11.2254 5.18604 11.0879 5.18604Z" fill="#FFC44C"/>
<path d="M3.5752 5.18613C3.4377 5.18613 3.3127 5.13613 3.2252 5.03613C3.2002 5.01113 3.1752 4.98614 3.1627 4.96114C3.1377 4.93614 3.1252 4.89863 3.1127 4.87363C3.1002 4.84863 3.08769 4.81114 3.08769 4.77364C3.07519 4.74864 3.0752 4.71113 3.0752 4.67363C3.0752 4.63613 3.07519 4.61114 3.08769 4.57364C3.08769 4.54864 3.1002 4.51113 3.1127 4.47363C3.1252 4.43613 3.1377 4.41114 3.1627 4.38614C3.1752 4.36114 3.2002 4.33613 3.2252 4.31113C3.3127 4.21113 3.4502 4.16113 3.5752 4.16113C3.7127 4.16113 3.8377 4.21113 3.9252 4.31113C3.9502 4.33613 3.9752 4.36114 3.9877 4.38614C4.0002 4.41114 4.0252 4.44863 4.0377 4.47363C4.0502 4.49863 4.0627 4.53614 4.0627 4.57364C4.0627 4.61114 4.0752 4.63613 4.0752 4.67363C4.0752 4.71113 4.0752 4.73614 4.0627 4.77364C4.0502 4.81114 4.0502 4.83613 4.0377 4.87363C4.0252 4.89863 4.0127 4.93614 3.9877 4.96114C3.9752 4.98614 3.9502 5.01113 3.9252 5.03613C3.8377 5.12363 3.7002 5.18613 3.5752 5.18613Z" fill="#FFC44C"/>
<path d="M7.3252 3.6234C7.1877 3.6234 7.0627 3.5734 6.9752 3.4734C6.8877 3.3734 6.8252 3.2484 6.8252 3.1234C6.8252 2.9984 6.8752 2.8609 6.9752 2.7734C7.0877 2.6609 7.2627 2.5984 7.4252 2.6359C7.4627 2.6359 7.48769 2.6484 7.52519 2.6609C7.55019 2.6734 7.5877 2.6859 7.6127 2.7109C7.6377 2.7234 7.6627 2.7484 7.6877 2.7734C7.7752 2.8734 7.83769 2.9984 7.83769 3.1234C7.83769 3.1609 7.8377 3.1859 7.8252 3.2234C7.8252 3.2609 7.8127 3.2859 7.8002 3.3234C7.7877 3.3484 7.7752 3.3859 7.7502 3.4109C7.7377 3.4359 7.7127 3.4609 7.6877 3.4859C7.6627 3.5109 7.6377 3.5234 7.6127 3.5484C7.5877 3.5609 7.55019 3.5859 7.52519 3.5984C7.50019 3.6109 7.4627 3.6234 7.4252 3.6234C7.3877 3.6234 7.3627 3.6234 7.3252 3.6234Z" fill="#FFC44C"/>
<path d="M2.0125 8.93594C1.975 8.93594 1.95001 8.93594 1.91251 8.92344C1.87501 8.92344 1.85 8.91094 1.8125 8.89844C1.7875 8.88594 1.75001 8.87344 1.72501 8.84844C1.70001 8.83594 1.67499 8.81094 1.64999 8.78594C1.62499 8.76094 1.59999 8.73594 1.58749 8.71094C1.57499 8.68594 1.55001 8.64844 1.53751 8.62344C1.52501 8.59844 1.5125 8.56094 1.5125 8.52344C1.5125 8.48594 1.5 8.46094 1.5 8.42344C1.5 8.38594 1.5 8.36094 1.5125 8.32344C1.5125 8.28594 1.52501 8.26094 1.53751 8.22344C1.55001 8.19844 1.56249 8.16094 1.58749 8.13594C1.59999 8.11094 1.62499 8.08594 1.64999 8.06094C1.67499 8.03594 1.70001 8.02344 1.72501 7.99844C1.75001 7.97344 1.775 7.96094 1.8125 7.94844C1.8375 7.93594 1.87501 7.92344 1.91251 7.92344C1.97501 7.91094 2.0375 7.91094 2.1125 7.92344C2.15 7.92344 2.17499 7.93594 2.21249 7.94844C2.23749 7.96094 2.275 7.97344 2.3 7.99844C2.325 8.01094 2.35 8.03594 2.375 8.06094C2.4 8.08594 2.4125 8.11094 2.4375 8.13594C2.4625 8.16094 2.475 8.19844 2.4875 8.22344C2.5 8.24844 2.5125 8.28594 2.5125 8.32344C2.5125 8.36094 2.52499 8.38594 2.52499 8.42344C2.52499 8.46094 2.525 8.48594 2.5125 8.52344C2.5 8.56094 2.5 8.58594 2.4875 8.62344C2.475 8.64844 2.4625 8.68594 2.4375 8.71094C2.425 8.73594 2.4 8.76094 2.375 8.78594C2.35 8.81094 2.325 8.83594 2.3 8.84844C2.275 8.86094 2.23749 8.88594 2.21249 8.89844C2.18749 8.91094 2.15 8.92344 2.1125 8.92344C2.075 8.93594 2.05 8.93594 2.0125 8.93594Z" fill="#FFC44C"/>
<path d="M11.0879 5.18604C10.9629 5.18604 10.8254 5.13603 10.7379 5.03603C10.6379 4.94853 10.5879 4.81104 10.5879 4.68604C10.5879 4.54854 10.6379 4.42354 10.7379 4.33604C10.8254 4.23604 10.9629 4.18604 11.0879 4.18604C11.2129 4.18604 11.3504 4.23604 11.4379 4.33604C11.5254 4.42354 11.5879 4.56104 11.5879 4.68604C11.5879 4.81104 11.5379 4.94853 11.4379 5.03603C11.3504 5.12353 11.2254 5.18604 11.0879 5.18604Z" fill="#FFC44C"/>
<path d="M3.5752 5.18613C3.4377 5.18613 3.3127 5.13613 3.2252 5.03613C3.2002 5.01113 3.1752 4.98614 3.1627 4.96114C3.1377 4.93614 3.1252 4.89863 3.1127 4.87363C3.1002 4.84863 3.08769 4.81114 3.08769 4.77364C3.07519 4.74864 3.0752 4.71113 3.0752 4.67363C3.0752 4.63613 3.07519 4.61114 3.08769 4.57364C3.08769 4.54864 3.1002 4.51113 3.1127 4.47363C3.1252 4.43613 3.1377 4.41114 3.1627 4.38614C3.1752 4.36114 3.2002 4.33613 3.2252 4.31113C3.3127 4.21113 3.4502 4.16113 3.5752 4.16113C3.7127 4.16113 3.8377 4.21113 3.9252 4.31113C3.9502 4.33613 3.9752 4.36114 3.9877 4.38614C4.0002 4.41114 4.0252 4.44863 4.0377 4.47363C4.0502 4.49863 4.0627 4.53614 4.0627 4.57364C4.0627 4.61114 4.0752 4.63613 4.0752 4.67363C4.0752 4.71113 4.0752 4.73614 4.0627 4.77364C4.0502 4.81114 4.0502 4.83613 4.0377 4.87363C4.0252 4.89863 4.0127 4.93614 3.9877 4.96114C3.9752 4.98614 3.9502 5.01113 3.9252 5.03613C3.8377 5.12363 3.7002 5.18613 3.5752 5.18613Z" fill="#FFC44C"/>
<path d="M2.9502 12.5735C2.8127 12.5735 2.6877 12.5235 2.6002 12.4235C2.5002 12.336 2.4502 12.1985 2.4502 12.0735C2.4502 11.9485 2.5002 11.811 2.6002 11.7235C2.6252 11.6985 2.6502 11.6735 2.6752 11.661C2.7002 11.6485 2.7377 11.6235 2.7627 11.611C2.7877 11.5985 2.8252 11.586 2.8502 11.586C2.9127 11.5735 2.9752 11.5735 3.0502 11.586C3.0752 11.5985 3.1127 11.5985 3.1377 11.611C3.1627 11.6235 3.2002 11.636 3.2252 11.661C3.2502 11.6735 3.2752 11.6985 3.3002 11.7235C3.3252 11.7485 3.3502 11.7735 3.3627 11.7985C3.3752 11.8235 3.4002 11.8485 3.4127 11.886C3.4252 11.911 3.4377 11.9485 3.4377 11.9735C3.4377 12.011 3.4502 12.036 3.4502 12.0735C3.4502 12.1985 3.4002 12.336 3.3002 12.4235C3.2127 12.5235 3.0752 12.5735 2.9502 12.5735Z" fill="#FFC44C"/>
<path d="M7.3123 12.3111C9.42479 12.3111 11.1373 10.5706 11.1373 8.42363C11.1373 6.27663 9.42479 4.53613 7.3123 4.53613C5.19981 4.53613 3.4873 6.27663 3.4873 8.42363C3.4873 10.5706 5.19981 12.3111 7.3123 12.3111Z" fill="url(#paint0_linear_3783_14283)"/>
<path d="M18.7027 9.8312C18.5277 9.8187 18.3527 9.8312 18.1902 9.8437C17.9152 7.6312 16.1027 5.9187 13.8277 5.8062C12.5902 5.7562 11.4152 6.1812 10.5152 7.0187C9.66518 7.7937 9.14018 8.8312 9.04018 9.9687C6.85268 9.8687 4.99018 11.5812 4.89018 13.7687C4.82768 15.0937 5.42768 16.3562 6.50268 17.1437C6.59018 17.2062 6.69018 17.2437 6.80268 17.2437C6.95268 17.2437 7.10268 17.1687 7.20268 17.0437C7.36518 16.8187 7.31518 16.5062 7.10268 16.3437C6.30268 15.7437 5.85268 14.8062 5.89018 13.8062C5.96518 12.1687 7.35268 10.8937 9.00268 10.9562C10.0402 11.0062 10.9652 11.5687 11.4652 12.4812C11.6027 12.7187 11.9027 12.8062 12.1402 12.6687C12.3777 12.5312 12.4652 12.2312 12.3277 11.9937C11.8152 11.0812 10.9777 10.4187 10.0027 10.1312C10.0777 9.2187 10.4777 8.3687 11.1652 7.7562C11.8902 7.1062 12.8152 6.7687 13.7777 6.8062C15.7152 6.8937 17.2277 8.4812 17.2277 10.4062C17.2277 10.5562 17.3027 10.7062 17.4152 10.7937C17.5402 10.8937 17.6902 10.9187 17.8402 10.8937C18.1152 10.8312 18.3902 10.8062 18.6652 10.8187C20.3027 10.8937 21.5777 12.2812 21.5152 13.9312C21.4652 15.0562 20.8027 16.0437 19.7777 16.5062C19.5277 16.6187 19.4152 16.9187 19.5277 17.1687C19.6152 17.3562 19.7902 17.4562 19.9777 17.4562C20.0527 17.4562 20.1152 17.4437 20.1902 17.4062C21.5527 16.7812 22.4527 15.4687 22.5152 13.9562C22.6027 11.7812 20.9027 9.9187 18.7027 9.8312Z" fill="white"/>
<path d="M16.0273 18.7312C15.7523 18.7312 15.5273 18.5062 15.5273 18.2312V16.6562C15.5273 16.3812 15.7523 16.1562 16.0273 16.1562C16.3023 16.1562 16.5273 16.3812 16.5273 16.6562V18.2312C16.5273 18.5062 16.3023 18.7312 16.0273 18.7312Z" fill="#57AAFF"/>
<path d="M18.1904 20.6437C17.9154 20.6437 17.6904 20.4187 17.6904 20.1437V19.0562C17.6904 18.7812 17.9154 18.5562 18.1904 18.5562C18.4654 18.5562 18.6904 18.7812 18.6904 19.0562V20.1437C18.6904 20.4187 18.4654 20.6437 18.1904 20.6437Z" fill="#57AAFF"/>
<path d="M13.3027 17.4186C13.0402 17.4186 12.8152 17.2061 12.8027 16.9311L12.7652 15.7811C12.7527 15.5061 12.9652 15.2686 13.2527 15.2686C13.5277 15.2561 13.7652 15.4686 13.7652 15.7561L13.8027 16.9186C13.8152 17.1936 13.6027 17.4311 13.3152 17.4311C13.3152 17.4186 13.3152 17.4186 13.3027 17.4186Z" fill="#57AAFF"/>
<path d="M14.1777 21.3562C13.9027 21.3562 13.6777 21.1312 13.6777 20.8562V19.7812C13.6777 19.5062 13.9027 19.2812 14.1777 19.2812C14.4527 19.2812 14.6777 19.5062 14.6777 19.7812V20.8562C14.6777 21.1312 14.4527 21.3562 14.1777 21.3562Z" fill="#57AAFF"/>
<path d="M10.8281 19.7437C10.5531 19.7437 10.3281 19.5187 10.3281 19.2437V17.7187C10.3281 17.4437 10.5531 17.2188 10.8281 17.2188C11.1031 17.2188 11.3281 17.4437 11.3281 17.7187V19.2437C11.3281 19.5187 11.1031 19.7437 10.8281 19.7437Z" fill="#57AAFF"/>
<path d="M8.45312 20.8064C8.17812 20.8064 7.95312 20.5814 7.95312 20.3064V19.0439C7.95312 18.7689 8.17812 18.5439 8.45312 18.5439C8.72813 18.5439 8.95312 18.7689 8.95312 19.0439V20.3064C8.95312 20.5814 8.72813 20.8064 8.45312 20.8064Z" fill="#57AAFF"/>
<defs>
<linearGradient id="paint0_linear_3783_14283" x1="7.31358" y1="12.304" x2="7.31358" y2="4.53622" gradientUnits="userSpaceOnUse">
<stop stop-color="#FFC14C"/>
<stop offset="1" stop-color="#FFD04D"/>
</linearGradient>
</defs>
</svg>
