<svg width="20" height="20" viewBox="0 0 20 20" fill="none" xmlns="http://www.w3.org/2000/svg">
<path fill-rule="evenodd" clip-rule="evenodd" d="M16.64 8.27258C17.6682 8.27258 18.5 9.10434 18.5 10.1326C18.5 10.8929 18.0433 11.5435 17.3978 11.8344C17.4258 12.018 17.4411 12.2043 17.4411 12.3931C17.4411 15.2557 14.109 17.575 9.9987 17.575C5.88839 17.575 2.55627 15.2557 2.55627 12.3931C2.55627 12.2017 2.57158 12.013 2.59959 11.8292C1.95161 11.5384 1.5 10.8877 1.5 10.1326C1.5 9.1068 2.33176 8.27258 3.36002 8.27258C3.86002 8.27258 4.31163 8.46907 4.64587 8.7906C5.9369 7.85935 7.72286 7.26481 9.71038 7.21384C9.71038 7.18829 10.6392 2.7641 10.6392 2.7641C10.6569 2.67733 10.708 2.6034 10.782 2.55489C10.856 2.50652 10.9453 2.49108 11.032 2.50898L14.1243 3.16721C14.3412 2.72843 14.7877 2.4248 15.3108 2.4248C16.0456 2.4248 16.6401 3.01935 16.6401 3.7541C16.6401 4.48885 16.0456 5.08339 15.3108 5.08339C14.5989 5.08339 14.0224 4.52205 13.9892 3.81791L11.2209 3.22842L10.3738 7.2163C12.3256 7.28517 14.0784 7.87712 15.3491 8.79565C15.6832 8.47153 16.1374 8.27258 16.64 8.27258ZM11.5918 11.4621C11.5918 12.1944 12.1888 12.7914 12.9211 12.7914C13.6534 12.7914 14.2504 12.1944 14.2504 11.4621C14.2504 10.7298 13.6534 10.1328 12.9211 10.1328C12.1888 10.1328 11.5918 10.7298 11.5918 11.4621ZM13.1558 14.9726C12.2475 15.8783 10.5099 15.9497 9.99966 15.9497C9.48942 15.9497 7.74937 15.8783 6.84355 14.9726C6.7084 14.8373 6.7084 14.6204 6.84355 14.4851C6.97882 14.35 7.19568 14.35 7.33096 14.4851C7.90242 15.0567 9.12458 15.2609 9.99966 15.2609C10.8723 15.2609 12.0969 15.0567 12.6685 14.4851C12.8036 14.35 13.0205 14.35 13.1558 14.4851C13.2885 14.6204 13.2885 14.8373 13.1558 14.9726ZM7.07343 10.1328C6.34115 10.1328 5.74414 10.7298 5.74414 11.4621C5.74414 12.1943 6.34115 12.7913 7.07343 12.7914C7.80572 12.7914 8.40273 12.1943 8.40273 11.4621C8.40273 10.7298 7.80572 10.1328 7.07343 10.1328Z" fill="#F59300"/>
</svg>
