<svg width="32" height="32" viewBox="0 0 32 32" fill="none" xmlns="http://www.w3.org/2000/svg">
<path d="M27.7266 5.94552L20.401 27.1084C20.332 27.3077 20.2018 27.4801 20.0289 27.6009C19.8561 27.7218 19.6495 27.7849 19.4386 27.7812C19.2278 27.7775 19.0235 27.7073 18.8549 27.5805C18.6864 27.4538 18.5622 27.277 18.5002 27.0754L15.5558 17.506C15.5078 17.3501 15.4224 17.2083 15.3071 17.0929C15.1918 16.9776 15.05 16.8922 14.8941 16.8443L5.32461 13.8998C5.12304 13.8378 4.94625 13.7136 4.81949 13.5451C4.69274 13.3766 4.62251 13.1723 4.61884 12.9614C4.61518 12.7506 4.67827 12.5439 4.7991 12.3711C4.91992 12.1983 5.0923 12.068 5.29158 11.9991L26.4545 4.67342C26.6318 4.61204 26.8229 4.60179 27.0058 4.64385C27.1887 4.68592 27.356 4.7786 27.4887 4.9113C27.6214 5.044 27.7141 5.21136 27.7562 5.39425C27.7982 5.57714 27.788 5.76818 27.7266 5.94552V5.94552Z" stroke="white" stroke-width="2" stroke-linecap="round" stroke-linejoin="round"/>
</svg>
