<svg width="20" height="20" viewBox="0 0 20 20" fill="none" xmlns="http://www.w3.org/2000/svg">
<path d="M4.16667 2.5H2.5V17.5H4.16667V2.5Z" fill="#3DD9EB"/>
<path d="M17.5 15.8335H2.5V17.5002H17.5V15.8335Z" fill="#3DD9EB"/>
<path d="M4.16667 15.8335H2.5V17.5002H4.16667V15.8335Z" fill="#00B3D7"/>
<path d="M17.4997 12.9165H15.833V17.4998H17.4997V12.9165Z" fill="#3DD9EB"/>
<path d="M17.4997 15.8335H15.833V17.5002H17.4997V15.8335Z" fill="#00B3D7"/>
<path d="M5.83301 14.1668V10.8335C5.83301 7.38183 8.63134 4.5835 12.083 4.5835H14.583V7.0835H12.083C10.0118 7.0835 8.33301 8.76225 8.33301 10.8335V14.1668H5.83301Z" fill="#6C19FF"/>
<path d="M17.4997 5.83333L13.333 9.16667V2.5L17.4997 5.83333Z" fill="#6C19FF"/>
<path d="M14.5668 4.5835H13.333V7.0835H14.5668V4.5835Z" fill="#2100C4"/>
</svg>
