<svg width="134" height="387" viewBox="0 0 134 387" fill="none" xmlns="http://www.w3.org/2000/svg">
<path d="M108.5 98C104.79 108.935 105.5 121.5 105.5 121.5M108.5 98C110.5 87 98.5 86 93 78.5M108.5 98C97.7606 108.935 91 118 87.5 120.5C84.2197 122.843 71.7368 127 67 134.5M67 134.5C59.9706 145.63 48.5 162 48.5 162M67 134.5C70.0266 148.071 73.5 162 74.25 168.25C74.8352 173.127 74.75 197 72.5 203M72.5 203C78.3579 217.449 83.5 233.5 87.5 240C90.5 244.875 104.259 253.449 105.5 258C107 263.5 96.9486 276.5 96 281.5C95.0514 286.5 102 308 98.5 315M72.5 203C66.0563 220.183 56 247 56 247M44 385C44 385 59 347 56 338.5C53.3688 331.045 43.201 324.177 35 315M105.5 121.5C105.5 121.5 96.5 148.5 97 155C97.6154 163 113.489 177.202 115 184C116 188.5 105.5 203 105.5 203M105.5 121.5L132 155.5M93 78.5C87.5327 68.9322 83 58.0463 83 53.5C83 47.5 96 39.5 98.5 33M93 78.5C83.8227 84.5531 72.5 93.5 72.5 93.5M105.5 2C105.5 2 101.234 20.8937 98.5 33M56 247C56 247 34.2162 262.47 31 268.5C27 276 29 309 35 315M56 247L66.5 274M115 332C115 332 104.944 321.639 98.5 315M35 315C22.1127 328.668 2 350 2 350M98.5 315C89.0298 328.668 74.25 350 74.25 350M98.5 33C103.186 41.0057 110.5 53.5 110.5 53.5" stroke="white" stroke-width="3" stroke-linecap="round" stroke-linejoin="round"/>
</svg>
