<svg width="114" height="389" viewBox="0 0 114 389" fill="none" xmlns="http://www.w3.org/2000/svg">
<path d="M43.5 2C43.5 2 34.3076 10 33.5 15C32.5 21.1909 41.9444 26.5 43.5 33.5M43.5 33.5C39.2042 50.2925 39.75 66 32.5 76.5M43.5 33.5C45.4526 42.2868 46.0202 47.1213 47.5 56C48.5 62 50 68.5 51 73.5C52 78.5 67.5 92 67.5 92M32.5 76.5C38.7484 88.6063 45.3478 93 48.5 107.5M32.5 76.5C26.8374 84.701 19.5 93.8158 18 97.5C16 102.412 17 128 15.5 134.5C14.3462 139.5 2 161 2 161M48.5 107.5C42.6421 123.707 33.5 131.5 33.5 149M48.5 107.5C50.4526 116.482 53.5 130.5 53.5 130.5M33.5 149C45.0205 167.745 53 173 58 194M33.5 149C33.5 158.177 36.8524 173.274 33.5 179.5C30 186 18.5 199.5 18.5 206.5C18.5 211.281 28.3675 217.073 29 221.5C30 228.5 13 259 13 259M58 194C46.4795 220.165 33.5 264 33.5 264M58 194C60.619 205 66.1667 210 63 223.5M33.5 264C33.5 264 50.5 315 63 325.5M33.5 264C33.5 264 25.7009 296.444 25 301C24 307.5 26.6375 319 25 325.5C22.6092 334.99 13 347.5 13 347.5M63 325.5C55.3848 337.997 43.5 348 43.5 357.5M63 325.5C68.2721 330.382 75.0084 333.525 76.5 338C78 342.5 74.7828 352.778 76.5 357.5C78.5 363 100 387 100 387M43.5 357.5C43.5 369.02 43.5 387 43.5 387M43.5 357.5C47.5 364.3 58.1667 375 63 379.5M63 223.5C59.29 239.316 53.833 257.008 53.5 264C53 274.5 76.5 301 76.5 301M63 223.5C72.7631 228.772 85.7333 231.333 88 237C90 242 87.4158 254.034 88 259C89 267.5 112 301 112 301" stroke="white" stroke-width="3" stroke-linecap="round" stroke-linejoin="round"/>
</svg>
