<svg width="84" height="84" viewBox="0 0 84 84" fill="none" xmlns="http://www.w3.org/2000/svg">
<path d="M74.0222 41.9947C74.0233 48.3237 72.1477 54.5108 68.6324 59.7738C65.117 65.0368 60.12 69.1392 54.2732 71.5622C48.4263 73.9852 41.9923 74.62 35.7847 73.3863C29.5771 72.1526 23.8747 69.1059 19.3987 64.6314C14.9226 60.1569 11.8739 54.4555 10.6382 48.2483C9.40238 42.0411 10.035 35.6069 12.456 29.7592C14.877 23.9116 18.9777 18.9131 24.2395 15.396C29.5013 11.8789 35.6878 10.0011 42.0168 10C50.5033 10 58.6424 13.3705 64.6443 19.3704C70.6462 25.3702 74.0193 33.5082 74.0222 41.9947V41.9947Z" fill="white" fill-opacity="0.1"/>
<g filter="url(#filter0_d_84_1072)">
<path d="M10.0222 41.9947C10.0237 50.4821 13.3961 58.6214 19.3982 64.6224C25.4002 70.6235 33.5403 73.9947 42.0278 73.9947C46.6559 73.9947 52.2684 59.6643 52.2684 41.9947C52.2684 24.325 47.7599 10 42.0278 10C37.8255 9.99929 33.6642 10.8263 29.7815 12.4338C25.8988 14.0413 22.3705 16.3978 19.3985 19.3688C16.4265 22.3398 14.0691 25.867 12.4603 29.7492C10.8515 33.6314 10.0229 37.7924 10.0222 41.9947V41.9947Z" fill="white"/>
</g>
<defs>
<filter id="filter0_d_84_1072" x="0.0222168" y="0" width="62.2461" height="83.9946" filterUnits="userSpaceOnUse" color-interpolation-filters="sRGB">
<feFlood flood-opacity="0" result="BackgroundImageFix"/>
<feColorMatrix in="SourceAlpha" type="matrix" values="0 0 0 0 0 0 0 0 0 0 0 0 0 0 0 0 0 0 127 0" result="hardAlpha"/>
<feOffset/>
<feGaussianBlur stdDeviation="5"/>
<feComposite in2="hardAlpha" operator="out"/>
<feColorMatrix type="matrix" values="0 0 0 0 1 0 0 0 0 1 0 0 0 0 1 0 0 0 0.4 0"/>
<feBlend mode="normal" in2="BackgroundImageFix" result="effect1_dropShadow_84_1072"/>
<feBlend mode="normal" in="SourceGraphic" in2="effect1_dropShadow_84_1072" result="shape"/>
</filter>
</defs>
</svg>
