<svg width="20" height="20" viewBox="0 0 20 20" fill="none" xmlns="http://www.w3.org/2000/svg">
<path d="M15.8337 13.3332V8.74984C15.8337 5.52817 13.222 2.9165 10.0003 2.9165C6.77866 2.9165 4.16699 5.52817 4.16699 8.74984V13.3332H2.91699V15.8332H17.0837V13.3332H15.8337Z" fill="#F5BC00"/>
<path d="M10 18.3335C11.3807 18.3335 12.5 17.2142 12.5 15.8335C12.5 14.4528 11.3807 13.3335 10 13.3335C8.61929 13.3335 7.5 14.4528 7.5 15.8335C7.5 17.2142 8.61929 18.3335 10 18.3335Z" fill="#F5BC00"/>
<path d="M10.8337 1.6665H9.16699V5.19484H10.8337V1.6665Z" fill="#F5BC00"/>
<path d="M10 13.3335C8.61917 13.3335 7.5 14.4527 7.5 15.8335H12.5C12.5 14.4527 11.3808 13.3335 10 13.3335Z" fill="#EB7900"/>
</svg>
