<svg width="24" height="24" viewBox="0 0 24 24" fill="none" xmlns="http://www.w3.org/2000/svg">
<path d="M19.1302 16.3889C18.9274 16.3889 18.7247 16.2673 18.6436 16.078C18.5219 15.8077 18.6436 15.4833 18.9139 15.3617C20.0899 14.821 20.8603 13.6991 20.9144 12.4015C20.9955 10.5227 19.5357 8.91427 17.6569 8.83317C17.346 8.81965 17.0216 8.84668 16.7107 8.92778C16.5485 8.96832 16.3863 8.92777 16.2511 8.81964C16.116 8.7115 16.0484 8.56284 16.0484 8.40064C16.0484 6.18392 14.3183 4.3727 12.1015 4.27808C10.9932 4.22401 9.93889 4.61599 9.12789 5.35941C8.31689 6.10282 7.84383 7.11656 7.78976 8.22492L7.77623 8.5493C7.76271 8.84667 7.51942 9.07646 7.20854 9.06294C6.91118 9.04942 6.68139 8.79262 6.6949 8.49525L6.70843 8.17083C6.83008 5.2918 9.27658 3.06159 12.1421 3.19675C14.7238 3.3184 16.7918 5.27829 17.0892 7.77886C17.2919 7.76535 17.4947 7.75182 17.6974 7.76533C20.171 7.87347 22.1038 9.98208 21.9957 12.4556C21.9146 14.1587 20.9144 15.6455 19.36 16.3484C19.2789 16.3754 19.2113 16.3889 19.1302 16.3889Z" fill="white"/>
<path d="M4.14026 16.1321C4.03212 16.1321 3.91047 16.0915 3.81586 16.024C2.61288 15.1319 1.93705 13.7126 2.00463 12.2123C2.11276 9.73874 4.22134 7.80586 6.69488 7.91399C8.26281 7.98158 9.65503 8.84664 10.4255 10.2118C10.5742 10.4686 10.4795 10.8065 10.2227 10.9417C9.96591 11.0904 9.62799 10.9958 9.49283 10.7389C8.91161 9.69817 7.85731 9.04939 6.66785 8.99532C4.78905 8.91422 3.18057 10.374 3.09947 12.2528C3.0454 13.3882 3.55904 14.4695 4.47817 15.1454C4.72147 15.3211 4.76201 15.659 4.58629 15.9023C4.47816 16.051 4.31597 16.1321 4.14026 16.1321Z" fill="white"/>
<path d="M14.6442 17.8219C14.3468 17.8219 14.1035 17.5786 14.1035 17.2812V15.4835C14.1035 15.1862 14.3468 14.9429 14.6442 14.9429C14.9415 14.9429 15.1848 15.1862 15.1848 15.4835V17.2812C15.1848 17.5786 14.9415 17.8219 14.6442 17.8219Z" fill="white"/>
<path d="M17.1032 19.9983C16.8058 19.9983 16.5625 19.755 16.5625 19.4577V18.2277C16.5625 17.9303 16.8058 17.687 17.1032 17.687C17.4005 17.687 17.6438 17.9303 17.6438 18.2277V19.4577C17.6438 19.755 17.4005 19.9983 17.1032 19.9983Z" fill="white"/>
<path d="M11.5484 16.3348C11.2646 16.3348 11.0213 16.1049 11.0078 15.8076L10.9537 14.483C10.9402 14.1856 11.17 13.9288 11.4808 13.9288C11.7782 13.9153 12.035 14.145 12.035 14.4559L12.0891 15.7806C12.1026 16.0779 11.8728 16.3348 11.5619 16.3348C11.5619 16.3348 11.5484 16.3348 11.5484 16.3348Z" fill="white"/>
<path d="M12.5348 20.8095C12.2374 20.8095 11.9941 20.5662 11.9941 20.2689V19.0524C11.9941 18.755 12.2374 18.5117 12.5348 18.5117C12.8322 18.5117 13.0755 18.755 13.0755 19.0524V20.2689C13.0755 20.5662 12.8457 20.8095 12.5348 20.8095Z" fill="white"/>
<path d="M8.73598 18.9848C8.43861 18.9848 8.19531 18.7415 8.19531 18.4441V16.714C8.19531 16.4166 8.43861 16.1733 8.73598 16.1733C9.03334 16.1733 9.27664 16.4166 9.27664 16.714V18.4441C9.27664 18.7415 9.03334 18.9848 8.73598 18.9848Z" fill="white"/>
<path d="M6.02113 20.1874C5.72377 20.1874 5.48047 19.9441 5.48047 19.6468V18.214C5.48047 17.9166 5.72377 17.6733 6.02113 17.6733C6.3185 17.6733 6.5618 17.9166 6.5618 18.214V19.6468C6.5618 19.9441 6.3185 20.1874 6.02113 20.1874Z" fill="white"/>
</svg>
