<svg width="24" height="24" viewBox="0 0 24 24" fill="none" xmlns="http://www.w3.org/2000/svg">
<path d="M12.0581 19.2706C11.7667 19.2706 11.5283 19.0322 11.5283 18.7408V6.84717C11.5283 6.55579 11.7667 6.31738 12.0581 6.31738C12.3495 6.31738 12.5879 6.55579 12.5879 6.84717V18.7408C12.5879 19.0322 12.3495 19.2706 12.0581 19.2706Z" fill="white"/>
<path d="M7.0002 16.4498C6.82802 16.4498 6.64259 16.3571 6.54988 16.1982C6.39095 15.9465 6.47041 15.6287 6.72206 15.4697L16.8542 9.23152C17.1058 9.07259 17.4237 9.15206 17.5826 9.40371C17.7416 9.65535 17.6621 9.97322 17.4105 10.1322L7.27834 16.3703C7.18562 16.4233 7.09291 16.4498 7.0002 16.4498Z" fill="white"/>
<path d="M17.1186 16.4493C17.0259 16.4493 16.9332 16.4228 16.8405 16.3699L6.70839 10.1317C6.45674 9.97274 6.37728 9.65487 6.53621 9.40322C6.69515 9.15157 7.01302 9.0721 7.26466 9.23103L17.3968 15.4693C17.6484 15.6282 17.7279 15.9461 17.569 16.1977C17.4763 16.3566 17.3041 16.4493 17.1186 16.4493Z" fill="white"/>
<path d="M12.0597 9.77418C11.9273 9.77418 11.7948 9.72117 11.6889 9.61522L9.74194 7.66827C9.53003 7.45635 9.53003 7.12524 9.74194 6.91333C9.95386 6.70142 10.285 6.70142 10.4969 6.91333L12.073 8.48942L13.6491 6.91333C13.861 6.70142 14.1921 6.70142 14.404 6.91333C14.616 7.12524 14.616 7.45635 14.404 7.66827L12.4571 9.61522C12.3246 9.72117 12.1922 9.77418 12.0597 9.77418Z" fill="white"/>
<path d="M14.0073 18.7273C13.8748 18.7273 13.7424 18.6743 13.6364 18.5683L12.0603 16.9922L10.4842 18.5683C10.2723 18.7803 9.94116 18.7803 9.72925 18.5683C9.51733 18.3564 9.51733 18.0253 9.72925 17.8134L11.6762 15.8665C11.8881 15.6545 12.2192 15.6545 12.4179 15.8665L14.3649 17.8134C14.5768 18.0253 14.5768 18.3564 14.3649 18.5683C14.2721 18.6743 14.1397 18.7273 14.0073 18.7273Z" fill="white"/>
<path d="M17.7276 12.1452C17.6879 12.1452 17.6349 12.1452 17.5952 12.132L14.9198 11.4565C14.6416 11.3903 14.4694 11.0989 14.5357 10.8208L15.1979 8.14536C15.2641 7.86722 15.5555 7.69502 15.8336 7.76124C16.1118 7.82747 16.2839 8.11887 16.2177 8.41025L15.6747 10.5691L17.8336 11.1121C18.1117 11.1784 18.2839 11.4698 18.2177 11.7611C18.1912 11.9863 17.966 12.1452 17.7276 12.1452Z" fill="white"/>
<path d="M8.3783 17.7471C8.33857 17.7471 8.29884 17.7471 8.24586 17.7338C7.96772 17.6676 7.79555 17.3762 7.86177 17.0848L8.40479 14.926L6.24593 14.3829C5.96779 14.3167 5.79561 14.0253 5.86183 13.734C5.92805 13.4426 6.21944 13.2837 6.51082 13.3499L9.18623 14.0253C9.46437 14.0916 9.63654 14.3829 9.57032 14.6611L8.90809 17.3365C8.82862 17.5881 8.61671 17.7471 8.3783 17.7471Z" fill="white"/>
<path d="M15.7271 17.7473C15.4887 17.7473 15.2768 17.5883 15.2106 17.3499L14.5484 14.6745C14.4821 14.3964 14.6543 14.105 14.9324 14.0388L17.6079 13.3633C17.886 13.2971 18.1774 13.4693 18.2568 13.7474C18.3231 14.0255 18.1509 14.3169 17.8727 14.3964L15.7139 14.9394L16.2437 17.0983C16.3099 17.3764 16.1377 17.6678 15.8596 17.734C15.8066 17.7473 15.7669 17.7473 15.7271 17.7473Z" fill="white"/>
<path d="M6.37837 12.1447C6.13997 12.1447 5.92805 11.9858 5.86183 11.7474C5.79561 11.4693 5.96779 11.1779 6.24593 11.0984L8.40479 10.5554L7.87501 8.3965C7.80879 8.11837 7.98097 7.82698 8.25911 7.76075C8.53724 7.69453 8.82862 7.86673 8.89485 8.14487L9.55708 10.8203C9.6233 11.0984 9.45112 11.3898 9.17298 11.456L6.49758 12.1315C6.45784 12.1315 6.41811 12.1447 6.37837 12.1447Z" fill="white"/>
<path d="M14.1631 3.73477C14.1234 3.73477 14.0969 3.73475 14.0572 3.72151C14.0175 3.70826 13.991 3.70827 13.9512 3.69503C13.9247 3.68178 13.885 3.66855 13.8585 3.64206C13.832 3.61557 13.8055 3.60233 13.7791 3.57584C13.7526 3.54935 13.7393 3.52285 13.7128 3.49636C13.6996 3.46987 13.6731 3.44339 13.6598 3.40365C13.6466 3.37716 13.6334 3.33742 13.6334 3.29769C13.6201 3.25795 13.6201 3.23146 13.6201 3.19172C13.6201 3.15199 13.6201 3.12553 13.6334 3.08579C13.6334 3.04606 13.6466 3.01956 13.6598 2.97983C13.6731 2.95334 13.6863 2.91361 13.7128 2.88712C13.7393 2.86064 13.7526 2.83413 13.7791 2.80764C13.8055 2.78116 13.832 2.75467 13.8585 2.74142C13.885 2.72818 13.9115 2.7017 13.9512 2.68846C13.9777 2.67521 14.0175 2.66194 14.0572 2.66194C14.2294 2.62221 14.4148 2.68844 14.534 2.80764C14.6267 2.9136 14.6929 3.04605 14.6929 3.1785C14.6929 3.31095 14.6399 3.45664 14.534 3.54936C14.4413 3.6818 14.2956 3.73477 14.1631 3.73477Z" fill="white"/>
<path d="M17.0913 6.54273C16.9456 6.54273 16.8132 6.48976 16.7205 6.3838C16.6277 6.29109 16.5615 6.14539 16.5615 6.01294C16.5615 5.86725 16.6145 5.7348 16.7205 5.64209C16.7469 5.6156 16.7734 5.58911 16.7999 5.57586C16.8264 5.56262 16.8529 5.53614 16.8926 5.5229C16.9324 5.50965 16.9589 5.49642 16.9986 5.49642C17.1708 5.45668 17.3562 5.52289 17.4754 5.64209C17.5681 5.7348 17.6343 5.8805 17.6343 6.01294C17.6343 6.05268 17.6343 6.07917 17.6211 6.11891C17.6078 6.1454 17.6078 6.18512 17.5946 6.21161C17.5814 6.2381 17.5681 6.27783 17.5416 6.30432C17.5284 6.33081 17.5019 6.35731 17.4754 6.3838C17.4489 6.41029 17.4224 6.42353 17.3959 6.45002C17.3694 6.46327 17.343 6.48974 17.3032 6.50299C17.2767 6.51623 17.237 6.5295 17.1973 6.5295C17.1708 6.54275 17.131 6.54273 17.0913 6.54273Z" fill="white"/>
<path d="M3.52978 13.3102C3.38409 13.3102 3.25165 13.2572 3.15894 13.1512C3.13245 13.1248 3.1192 13.0983 3.09271 13.0718C3.07947 13.0453 3.05298 13.0055 3.03973 12.9791C3.02649 12.9526 3.01324 12.9128 3.01324 12.8731C3 12.8466 3 12.8069 3 12.7671C3 12.7274 3 12.7009 3.01324 12.6612C3.02649 12.6214 3.02649 12.595 3.03973 12.5552C3.05298 12.5287 3.06622 12.489 3.09271 12.4625C3.1192 12.436 3.13245 12.4095 3.15894 12.383C3.26489 12.2903 3.39734 12.2241 3.52978 12.2241C3.66223 12.2241 3.80792 12.2771 3.90063 12.383C3.92712 12.4095 3.94037 12.436 3.96685 12.4625C3.9801 12.489 4.00659 12.5155 4.01984 12.5552C4.03308 12.5817 4.04633 12.6214 4.04633 12.6612C4.05957 12.7009 4.05957 12.7274 4.05957 12.7671C4.05957 12.9128 4.00659 13.0453 3.90063 13.138C3.80792 13.2439 3.66223 13.3102 3.52978 13.3102Z" fill="white"/>
<path d="M4.99908 6.39665C4.95935 6.39665 4.93286 6.39664 4.89312 6.38339C4.85339 6.37015 4.8269 6.37015 4.78717 6.35691C4.76068 6.34367 4.72095 6.3304 4.69446 6.30391C4.66797 6.29067 4.64148 6.26418 4.61499 6.23769C4.5885 6.2112 4.57526 6.18473 4.54877 6.15824C4.53552 6.13175 4.50903 6.10527 4.49579 6.06553C4.48254 6.03905 4.4693 5.99929 4.4693 5.9728C4.45605 5.93306 4.45605 5.9066 4.45605 5.86687C4.45605 5.82713 4.45605 5.80064 4.4693 5.7609C4.48254 5.73441 4.48254 5.69467 4.49579 5.65494C4.50903 5.62845 4.52228 5.58872 4.54877 5.56223C4.57526 5.53574 4.5885 5.50924 4.61499 5.48275C4.64148 5.45626 4.66797 5.42977 4.69446 5.41653C4.72095 5.39004 4.76068 5.37681 4.78717 5.36356C4.81366 5.35032 4.85339 5.33708 4.89312 5.33708C4.95935 5.32384 5.02558 5.32384 5.10504 5.33708C5.14478 5.33708 5.17126 5.35032 5.211 5.36356C5.25073 5.37681 5.27722 5.39004 5.30371 5.41653C5.3302 5.42977 5.35669 5.45626 5.38318 5.48275C5.47589 5.57547 5.54211 5.72116 5.54211 5.85361C5.54211 5.9993 5.48913 6.13175 5.38318 6.22446C5.35669 6.25095 5.3302 6.27744 5.30371 6.29069C5.27722 6.30393 5.23749 6.33041 5.211 6.34365C5.18451 6.3569 5.14478 6.37013 5.10504 6.37013C5.07855 6.39662 5.03881 6.39665 4.99908 6.39665Z" fill="white"/>
<path d="M20.4575 18.6868C20.3118 18.6868 20.1794 18.6339 20.0867 18.5279C20.0602 18.5014 20.0469 18.475 20.0204 18.4485C20.0072 18.422 19.9807 18.3822 19.9675 18.3557C19.9542 18.3292 19.941 18.2895 19.941 18.2498C19.9277 18.2101 19.9277 18.1836 19.9277 18.1438C19.9277 18.1041 19.9277 18.0776 19.941 18.0379C19.9542 18.0114 19.9542 17.9717 19.9675 17.9452C19.9807 17.9187 19.994 17.8789 20.0204 17.8525C20.0469 17.826 20.0602 17.7995 20.0867 17.773C20.2059 17.6538 20.3913 17.5875 20.5635 17.6273C20.59 17.6405 20.6297 17.6405 20.6694 17.6538C20.6959 17.667 20.7357 17.6803 20.7621 17.7068C20.7886 17.7332 20.8151 17.7465 20.8416 17.773C20.8681 17.7995 20.8946 17.826 20.9078 17.8525C20.9343 17.8789 20.9476 17.9054 20.9608 17.9452C20.9741 17.9717 20.9873 18.0114 20.9873 18.0379C21.0005 18.0776 21.0006 18.1041 21.0006 18.1438C21.0006 18.1836 21.0005 18.2101 20.9873 18.2498C20.9873 18.2763 20.9741 18.316 20.9608 18.3557C20.9476 18.3822 20.9343 18.422 20.9078 18.4485C20.8946 18.475 20.8681 18.5014 20.8416 18.5279C20.8151 18.5544 20.7886 18.5809 20.7621 18.5941C20.7357 18.6074 20.6959 18.6339 20.6694 18.6471C20.6429 18.6604 20.6032 18.6736 20.5635 18.6736C20.5237 18.6869 20.484 18.6868 20.4575 18.6868Z" fill="white"/>
<path d="M8.41706 21.3497C8.37732 21.3497 8.35083 21.3497 8.31109 21.3365C8.27136 21.3232 8.24487 21.3232 8.20514 21.31C8.17865 21.2967 8.13891 21.2835 8.11242 21.257C8.08594 21.2305 8.05945 21.2173 8.03296 21.1908C8.00647 21.1643 7.99323 21.1378 7.96674 21.1113C7.95349 21.0848 7.927 21.0583 7.91376 21.0186C7.90051 20.9921 7.88727 20.9524 7.88727 20.9126C7.87403 20.8729 7.87402 20.8464 7.87402 20.8067C7.87402 20.7669 7.87403 20.7405 7.88727 20.7008C7.88727 20.661 7.90051 20.6345 7.91376 20.5948C7.927 20.5683 7.94025 20.5286 7.96674 20.5021C7.99323 20.4756 8.00647 20.4491 8.03296 20.4226C8.12567 20.3299 8.27136 20.2637 8.40381 20.2637C8.5495 20.2637 8.68194 20.3166 8.77465 20.4226C8.80114 20.4491 8.81439 20.4756 8.84088 20.5021C8.85412 20.5286 8.88061 20.5683 8.89386 20.5948C8.9071 20.6213 8.92035 20.661 8.92035 20.7008C8.92035 20.7405 8.93359 20.7669 8.93359 20.8067C8.93359 20.8464 8.93359 20.8729 8.92035 20.9126C8.90711 20.9524 8.9071 20.9789 8.89386 21.0186C8.88061 21.0451 8.86737 21.0848 8.84088 21.1113C8.81439 21.1378 8.80114 21.1643 8.77465 21.1908C8.69519 21.2968 8.56275 21.3497 8.41706 21.3497Z" fill="white"/>
</svg>
