<svg width="24" height="24" viewBox="0 0 24 24" fill="none" xmlns="http://www.w3.org/2000/svg">
<path d="M19.7754 8.4486C19.6379 8.4486 19.5129 8.3986 19.4254 8.2986C19.3254 8.1986 19.2754 8.0736 19.2754 7.9486C19.2754 7.9111 19.2754 7.8861 19.2879 7.8486C19.3004 7.8236 19.3004 7.7861 19.3129 7.7611C19.3254 7.7361 19.3379 7.6986 19.3629 7.6736C19.3754 7.6486 19.4004 7.6236 19.4254 7.5986C19.5379 7.4861 19.7129 7.4236 19.8754 7.4611C19.9004 7.4736 19.9379 7.4736 19.9629 7.4861C19.9879 7.4986 20.0254 7.5111 20.0504 7.5361C20.0754 7.5486 20.1004 7.5736 20.1254 7.5986C20.1504 7.6236 20.1754 7.6486 20.1879 7.6736C20.2004 7.6986 20.2254 7.7361 20.2379 7.7611C20.2504 7.7861 20.2629 7.8236 20.2629 7.8486C20.2629 7.8861 20.2754 7.9111 20.2754 7.9486C20.2754 8.0736 20.2254 8.2111 20.1254 8.2986C20.0254 8.3986 19.9004 8.4486 19.7754 8.4486Z" fill="#9975FF"/>
<path d="M17.9754 12.3983C17.9379 12.3983 17.9129 12.3983 17.8754 12.3858C17.8379 12.3858 17.8129 12.3733 17.7754 12.3608C17.7504 12.3483 17.7129 12.3358 17.6879 12.3108C17.6629 12.2983 17.6379 12.2733 17.6129 12.2483C17.5879 12.2233 17.5629 12.1983 17.5504 12.1733C17.5379 12.1483 17.5129 12.1108 17.5004 12.0858C17.4879 12.0608 17.4754 12.0233 17.4754 11.9858C17.4629 11.9483 17.4629 11.9233 17.4629 11.8858C17.4629 11.8483 17.4629 11.8233 17.4754 11.7858C17.4754 11.7483 17.4879 11.7233 17.5004 11.6858C17.5129 11.6608 17.5254 11.6233 17.5504 11.5983C17.5629 11.5733 17.5879 11.5483 17.6129 11.5233C17.6379 11.4983 17.6629 11.4733 17.6879 11.4608C17.7129 11.4483 17.7504 11.4233 17.7754 11.4108C17.8004 11.3983 17.8379 11.3858 17.8754 11.3858C17.9379 11.3733 18.0004 11.3733 18.0754 11.3858C18.1004 11.3858 18.1379 11.3983 18.1754 11.4108C18.2004 11.4233 18.2379 11.4358 18.2629 11.4608C18.2879 11.4733 18.3129 11.4983 18.3379 11.5233C18.3629 11.5483 18.3879 11.5733 18.4004 11.5983C18.4254 11.6233 18.4379 11.6483 18.4504 11.6858C18.4629 11.7233 18.4754 11.7483 18.4754 11.7858C18.4879 11.8233 18.4879 11.8483 18.4879 11.8858C18.4879 12.0108 18.4379 12.1483 18.3379 12.2358C18.3129 12.2608 18.2879 12.2733 18.2629 12.2983C18.2379 12.3233 18.2004 12.3358 18.1754 12.3483C18.1504 12.3608 18.1129 12.3733 18.0754 12.3733C18.0379 12.3858 18.0129 12.3983 17.9754 12.3983Z" fill="white"/>
<path d="M7.40039 5.8984C7.27539 5.8984 7.13789 5.8484 7.05039 5.7484C7.02539 5.7234 7.00039 5.6984 6.98789 5.6734C6.97539 5.6484 6.95039 5.6109 6.93789 5.5859C6.92539 5.5609 6.91289 5.5234 6.91289 5.4859C6.90039 5.4484 6.90039 5.4234 6.90039 5.3859C6.90039 5.3484 6.90039 5.3234 6.91289 5.2859C6.92539 5.2484 6.92539 5.2234 6.93789 5.1859C6.95039 5.1484 6.96289 5.1234 6.98789 5.0984C7.00039 5.0734 7.02539 5.0484 7.05039 5.0234C7.07539 4.9984 7.10039 4.9734 7.12539 4.9609C7.15039 4.9484 7.17539 4.9234 7.21289 4.9109C7.23789 4.8984 7.27539 4.8859 7.31289 4.8859C7.47539 4.8484 7.65039 4.9109 7.76289 5.0234C7.78789 5.0484 7.81289 5.0734 7.82539 5.0984C7.83789 5.1234 7.86289 5.1609 7.87539 5.1859C7.86289 5.2359 7.87539 5.2734 7.88789 5.2984C7.88789 5.3359 7.90039 5.3609 7.90039 5.3984C7.90039 5.4359 7.90039 5.4609 7.88789 5.4984C7.87539 5.5234 7.86289 5.5609 7.86289 5.5859C7.85039 5.6109 7.83789 5.6484 7.81289 5.6734C7.80039 5.6984 7.77539 5.7234 7.75039 5.7484C7.72539 5.7734 7.70039 5.7859 7.67539 5.8109C7.65039 5.8234 7.61289 5.8484 7.58789 5.8609C7.56289 5.8734 7.52539 5.8859 7.48789 5.8859C7.46289 5.8984 7.42539 5.8984 7.40039 5.8984Z" fill="white"/>
<path d="M4.25 15.2484C4.2125 15.2484 4.1875 15.2484 4.15 15.2359C4.1125 15.2234 4.0875 15.2234 4.05 15.2109C4.025 15.1984 3.9875 15.1859 3.9625 15.1609C3.9375 15.1484 3.9125 15.1234 3.8875 15.0984C3.8 15.0109 3.75 14.8859 3.75 14.7609C3.75 14.7234 3.75 14.6984 3.7625 14.6609C3.7625 14.6359 3.775 14.5984 3.7875 14.5609C3.8 14.5359 3.8125 14.4984 3.8375 14.4734C3.85 14.4484 3.875 14.4234 3.9 14.3984C3.925 14.3734 3.95 14.3484 3.975 14.3359C4 14.3234 4.0375 14.2984 4.0625 14.2859C4.0875 14.2734 4.125 14.2609 4.1625 14.2609C4.325 14.2234 4.5 14.2859 4.6125 14.3984C4.6375 14.4234 4.65 14.4484 4.675 14.4734C4.6875 14.4984 4.7125 14.5359 4.725 14.5609C4.7375 14.5859 4.75 14.6234 4.75 14.6609C4.75 14.6859 4.75 14.7234 4.75 14.7609C4.75 14.8984 4.7 15.0234 4.6 15.1109C4.5125 15.1984 4.3875 15.2484 4.25 15.2484Z" fill="white"/>
<path d="M17 18.9983C16.8625 18.9983 16.7375 18.9483 16.65 18.8483C16.5625 18.7608 16.5 18.6233 16.5 18.4983C16.5 18.4608 16.5 18.4358 16.5125 18.3983C16.5125 18.3733 16.525 18.3358 16.5375 18.2983C16.55 18.2733 16.5625 18.2358 16.5875 18.2108C16.6 18.1858 16.625 18.1608 16.65 18.1358C16.7375 18.0358 16.875 17.9858 17 17.9858C17.125 17.9858 17.2625 18.0358 17.35 18.1358C17.375 18.1608 17.3875 18.1858 17.4125 18.2108C17.425 18.2358 17.45 18.2733 17.4625 18.2983C17.475 18.3233 17.4875 18.3608 17.4875 18.3983C17.4875 18.4358 17.5 18.4608 17.5 18.4983C17.5 18.6358 17.45 18.7608 17.35 18.8483C17.25 18.9483 17.125 18.9983 17 18.9983Z" fill="#9975FF"/>
<path d="M6.71289 19.0235C6.58789 19.0235 6.45039 18.9735 6.36289 18.8735C6.33789 18.8485 6.31289 18.8235 6.30039 18.7985C6.28789 18.7735 6.26289 18.7485 6.25039 18.711C6.23789 18.6735 6.22539 18.6485 6.22539 18.611C6.22539 18.5735 6.21289 18.5485 6.21289 18.511C6.21289 18.4735 6.21289 18.4485 6.22539 18.411C6.23789 18.3735 6.23789 18.3485 6.25039 18.311C6.26289 18.286 6.27539 18.2485 6.30039 18.2235C6.31289 18.1985 6.33789 18.1735 6.36289 18.1485C6.46289 18.061 6.58789 17.9985 6.71289 17.9985C6.85039 17.9985 6.97539 18.0485 7.06289 18.1485C7.08789 18.1735 7.11289 18.1985 7.12539 18.2235C7.13789 18.2485 7.16289 18.286 7.17539 18.311C7.18789 18.336 7.20039 18.3735 7.20039 18.411C7.20039 18.4485 7.21289 18.4735 7.21289 18.511C7.21289 18.5485 7.21289 18.5735 7.20039 18.611C7.18789 18.6485 7.18789 18.6735 7.17539 18.711C7.16289 18.736 7.15039 18.7735 7.12539 18.7985C7.11289 18.8235 7.08789 18.8485 7.06289 18.8735C7.03789 18.8985 7.01289 18.911 6.98789 18.936C6.96289 18.9485 6.92539 18.9735 6.90039 18.986C6.87539 18.9985 6.83789 19.011 6.80039 19.011C6.77539 19.011 6.73789 19.0235 6.71289 19.0235Z" fill="#9975FF"/>
<path d="M16.9998 15.236C16.0498 16.636 14.5248 17.561 12.8373 17.761C9.61232 18.1485 6.67482 15.8485 6.27482 12.611C5.88732 9.37352 8.19982 6.44852 11.4248 6.04852C13.1123 5.84852 14.7998 6.37352 16.0623 7.51102C14.6248 8.38602 13.8248 10.011 14.0248 11.6735C14.2248 13.3485 15.3873 14.736 16.9998 15.236Z" fill="url(#paint0_linear_3783_14524)"/>
<defs>
<linearGradient id="paint0_linear_3783_14524" x1="11.619" y1="6.00216" x2="11.619" y2="17.7893" gradientUnits="userSpaceOnUse">
<stop stop-color="#B9A0FF"/>
<stop offset="1" stop-color="#855AFF"/>
</linearGradient>
</defs>
</svg>
