<svg width="84" height="84" viewBox="0 0 84 84" fill="none" xmlns="http://www.w3.org/2000/svg">
<g filter="url(#filter0_d_2576_9049)">
<path d="M73.9989 41.9946C74 48.3236 72.1244 54.5107 68.6091 59.7737C65.0938 65.0367 60.0968 69.1391 54.25 71.5621C48.4031 73.9851 41.9691 74.6198 35.7615 73.3862C29.5539 72.1525 23.8516 69.1058 19.3755 64.6313C14.8995 60.1568 11.8508 54.4554 10.615 48.2482C9.37924 42.0411 10.0119 35.6068 12.4329 29.7592C14.8539 23.9116 18.9546 18.9131 24.2164 15.396C29.4781 11.8789 35.6646 10.0011 41.9936 10C50.4801 10 58.6192 13.3705 64.621 19.3704C70.6229 25.3702 73.9961 33.5081 73.9989 41.9946Z" fill="white" fill-opacity="0.1"/>
<path d="M37.2615 41.9973C37.2643 35.9247 38.9966 29.9785 42.2558 24.8546C45.5151 19.7308 50.1664 15.6412 55.6653 13.0646C50.788 10.7612 45.4076 9.72802 40.0241 10.0611C34.6405 10.3941 29.4285 12.0826 24.8723 14.9696C20.3161 17.8566 16.5637 21.8484 13.9635 26.5742C11.3634 31.2999 10 36.6062 10 42C10 47.3938 11.3634 52.7002 13.9635 57.4259C16.5637 62.1516 20.3161 66.1435 24.8723 69.0305C29.4285 71.9174 34.6405 73.6059 40.0241 73.9389C45.4076 74.272 50.788 73.2388 55.6653 70.9355C50.166 68.3579 45.5145 64.2674 42.2553 59.1426C38.996 54.0178 37.2639 48.0707 37.2615 41.9973Z" fill="white"/>
</g>
<defs>
<filter id="filter0_d_2576_9049" x="-0.000915527" y="0" width="83.9999" height="84" filterUnits="userSpaceOnUse" color-interpolation-filters="sRGB">
<feFlood flood-opacity="0" result="BackgroundImageFix"/>
<feColorMatrix in="SourceAlpha" type="matrix" values="0 0 0 0 0 0 0 0 0 0 0 0 0 0 0 0 0 0 127 0" result="hardAlpha"/>
<feOffset/>
<feGaussianBlur stdDeviation="5"/>
<feComposite in2="hardAlpha" operator="out"/>
<feColorMatrix type="matrix" values="0 0 0 0 1 0 0 0 0 1 0 0 0 0 1 0 0 0 0.4 0"/>
<feBlend mode="normal" in2="BackgroundImageFix" result="effect1_dropShadow_2576_9049"/>
<feBlend mode="normal" in="SourceGraphic" in2="effect1_dropShadow_2576_9049" result="shape"/>
</filter>
</defs>
</svg>
