<svg width="24" height="24" viewBox="0 0 24 24" fill="none" xmlns="http://www.w3.org/2000/svg">
<path d="M15.093 18.2588C14.8055 18.2588 14.5703 18.0236 14.5703 17.7361V16.0896C14.5703 15.8021 14.8055 15.5669 15.093 15.5669C15.3805 15.5669 15.6157 15.8021 15.6157 16.0896V17.7361C15.6157 18.0236 15.3805 18.2588 15.093 18.2588Z" fill="black"/>
<path d="M17.3538 20.2584C17.0663 20.2584 16.8311 20.0232 16.8311 19.7357V18.5989C16.8311 18.3114 17.0663 18.0762 17.3538 18.0762C17.6412 18.0762 17.8764 18.3114 17.8764 18.5989V19.7357C17.8764 20.0232 17.6412 20.2584 17.3538 20.2584Z" fill="black"/>
<path d="M12.2441 16.8994C11.9697 16.8994 11.7345 16.6772 11.7214 16.3898L11.6822 15.1745C11.6691 14.887 11.8913 14.6387 12.1918 14.6387C12.4793 14.6257 12.7276 14.8478 12.7276 15.1484L12.7668 16.3636C12.7799 16.6511 12.5577 16.8994 12.2571 16.8994C12.2571 16.8994 12.2572 16.8994 12.2441 16.8994Z" fill="black"/>
<path d="M13.1594 21.0032C12.8719 21.0032 12.6367 20.768 12.6367 20.4805V19.3567C12.6367 19.0692 12.8719 18.834 13.1594 18.834C13.4469 18.834 13.6821 19.0692 13.6821 19.3567V20.4805C13.6821 20.768 13.4469 21.0032 13.1594 21.0032Z" fill="black"/>
<path d="M9.65648 19.33C9.369 19.33 9.13379 19.0948 9.13379 18.8073V17.2131C9.13379 16.9256 9.369 16.6904 9.65648 16.6904C9.94397 16.6904 10.1792 16.9256 10.1792 17.2131V18.8073C10.1792 19.0948 9.94397 19.33 9.65648 19.33Z" fill="black"/>
<path d="M7.17309 20.4414C6.8856 20.4414 6.65039 20.2062 6.65039 19.9187V18.5989C6.65039 18.3114 6.8856 18.0762 7.17309 18.0762C7.46057 18.0762 7.69578 18.3114 7.69578 18.5989V19.9187C7.69578 20.2062 7.46057 20.4414 7.17309 20.4414Z" fill="black"/>
<path d="M5.24051 11.1885C5.09677 11.1885 4.95303 11.1232 4.84849 11.0056C3.47641 9.43747 3.63321 7.04614 5.2013 5.67407C6.71712 4.3412 9.00393 4.44574 10.4152 5.89622C10.6112 6.10529 10.6112 6.43198 10.4021 6.64106C10.193 6.83707 9.86637 6.83706 9.65729 6.62799C8.63804 5.56953 6.99154 5.50419 5.89388 6.47118C4.75702 7.4643 4.63941 9.18919 5.63253 10.3261C5.82854 10.5482 5.80242 10.8749 5.58027 11.0578C5.47574 11.1493 5.35812 11.1885 5.24051 11.1885Z" fill="black"/>
<path d="M5.99926 4.04079C5.85552 4.04079 5.72484 3.98852 5.63336 3.88398C5.54189 3.77944 5.47656 3.64877 5.47656 3.5181C5.47656 3.37436 5.52883 3.24368 5.63336 3.15221C5.75097 3.03461 5.93393 2.96926 6.1038 3.00847C6.14301 3.00847 6.16915 3.02154 6.20835 3.0346C6.23448 3.04767 6.27368 3.06074 6.29981 3.08688C6.32595 3.09994 6.35206 3.12608 6.3782 3.15221C6.46967 3.25675 6.53503 3.38742 6.53503 3.5181C6.53503 3.5573 6.53502 3.58343 6.52195 3.62264C6.52195 3.66184 6.50889 3.68797 6.49582 3.72717C6.48276 3.75331 6.46967 3.79251 6.44354 3.81865C6.4174 3.84478 6.40433 3.87092 6.3782 3.89706C6.35206 3.92319 6.32595 3.93626 6.29981 3.96239C6.27368 3.97546 6.24755 4.00159 6.20835 4.01466C6.18221 4.02772 6.14301 4.04079 6.1038 4.04079C6.0646 4.04079 6.03846 4.04079 5.99926 4.04079Z" fill="black"/>
<path d="M2.53578 10.0122C2.49657 10.0122 2.47043 10.0122 2.43123 9.99917C2.4051 9.99917 2.36589 9.98611 2.32668 9.97304C2.30055 9.95997 2.26135 9.9469 2.23522 9.92077C2.20908 9.89463 2.18297 9.88157 2.15683 9.85543C2.1307 9.8293 2.10456 9.80317 2.0915 9.77703C2.07843 9.7509 2.05228 9.72476 2.03921 9.68556C2.02614 9.65942 2.01308 9.62022 2.01308 9.58102C2.01308 9.54182 2 9.51568 2 9.47647C2 9.43727 2.00001 9.41114 2.01308 9.37194C2.02615 9.33274 2.02614 9.3066 2.03921 9.2674C2.05228 9.24126 2.06536 9.20206 2.0915 9.17593C2.10456 9.14979 2.1307 9.12366 2.15683 9.09753C2.18297 9.07139 2.20908 9.04526 2.23522 9.03219C2.26135 9.01912 2.28748 8.99298 2.32668 8.97992C2.35282 8.96685 2.39203 8.95378 2.43123 8.95378C2.60111 8.91458 2.78406 8.97992 2.90167 9.09753C2.9278 9.12366 2.95394 9.14979 2.96701 9.17593C2.98007 9.20206 3.00619 9.24126 3.01926 9.2674C3.03233 9.29353 3.04539 9.33274 3.04539 9.37194C3.05846 9.41114 3.05847 9.43727 3.05847 9.47647C3.05847 9.51568 3.05846 9.54182 3.04539 9.58102C3.03232 9.62022 3.03233 9.64636 3.01926 9.68556C3.00619 9.71169 2.99314 9.7509 2.96701 9.77703C2.95394 9.80317 2.9278 9.8293 2.90167 9.85543C2.8102 9.95997 2.66645 10.0122 2.53578 10.0122Z" fill="black"/>
<path d="M9.7086 4.53726C9.66939 4.53726 9.64328 4.53726 9.60408 4.52419C9.57795 4.51112 9.53874 4.51112 9.49954 4.49806C9.4734 4.48499 9.43421 4.47192 9.40807 4.44578C9.38194 4.43272 9.35579 4.40658 9.32965 4.38045C9.23818 4.28897 9.17285 4.14523 9.17285 4.01456C9.17285 3.97536 9.17283 3.94923 9.1859 3.91002C9.1859 3.88389 9.19899 3.84469 9.21206 3.80549C9.22513 3.77935 9.23818 3.74015 9.26432 3.71401C9.27738 3.68788 9.30352 3.66175 9.32965 3.63561C9.35579 3.60948 9.38194 3.59641 9.40807 3.57027C9.43421 3.55721 9.4734 3.53107 9.49954 3.518C9.52567 3.50493 9.56488 3.49187 9.60408 3.49187C9.77396 3.45266 9.95688 3.518 10.0745 3.63561C10.1006 3.66175 10.1268 3.68788 10.1398 3.71401C10.1529 3.74015 10.179 3.76628 10.1921 3.80549C10.2052 3.83162 10.2182 3.87082 10.2182 3.91002C10.2182 3.94923 10.2313 3.97536 10.2313 4.01456C10.2313 4.1583 10.179 4.28897 10.0745 4.38045C9.98302 4.48498 9.83927 4.53726 9.7086 4.53726Z" fill="black"/>
<path d="M3.03246 6.3146C2.88872 6.3146 2.75804 6.26233 2.66657 6.15779C2.64043 6.13166 2.6143 6.10552 2.60123 6.07938C2.58816 6.05325 2.56204 6.02712 2.54897 5.98792C2.53591 5.96178 2.52281 5.92257 2.52281 5.88337C2.50975 5.84417 2.50977 5.81804 2.50977 5.77883C2.50977 5.63509 2.56203 5.50442 2.66657 5.41295C2.78417 5.29534 2.96713 5.23001 3.13701 5.26921C3.16314 5.28228 3.20234 5.28227 3.22847 5.29534C3.25461 5.30841 3.2938 5.32148 3.31994 5.34761C3.34607 5.36068 3.37222 5.38681 3.39835 5.41295C3.50289 5.50442 3.55516 5.64816 3.55516 5.77883C3.55516 5.81804 3.55514 5.84417 3.54208 5.88337C3.52901 5.90951 3.52902 5.94871 3.51595 5.98792C3.50288 6.01405 3.48983 6.05325 3.46369 6.07938C3.43756 6.10552 3.42449 6.13166 3.39835 6.15779C3.37222 6.18393 3.34607 6.21006 3.31994 6.22313C3.2938 6.23619 3.26767 6.26232 3.22847 6.27539C3.20234 6.28846 3.16314 6.30153 3.13701 6.30153C3.0978 6.30153 3.0586 6.3146 3.03246 6.3146Z" fill="black"/>
<path d="M19.3403 17.0948C19.1443 17.0948 18.9483 16.9772 18.8699 16.7943C18.7523 16.5329 18.8699 16.2193 19.1312 16.1017C19.8891 15.762 20.4641 15.1347 20.7646 14.3507C21.0652 13.5667 21.026 12.7173 20.6862 11.9594C20.0721 10.6004 18.5693 9.86858 17.1189 10.2083C16.962 10.2475 16.8052 10.2083 16.6745 10.1038C16.5439 9.99926 16.4785 9.85551 16.4785 9.6987C16.4785 8.69251 16.0865 7.73859 15.3678 7.01989C14.6491 6.30118 13.7083 5.90916 12.689 5.90916C10.6636 5.90916 9.00401 7.49032 8.91253 9.52883L8.89945 9.82938C8.88639 10.1169 8.65118 10.339 8.35063 10.3259C8.06315 10.3129 7.841 10.0646 7.85406 9.77711L7.86714 9.47656C7.98475 6.88921 10.1017 4.86377 12.689 4.86377C13.9827 4.86377 15.1849 5.3734 16.0996 6.27505C16.8706 7.04602 17.341 8.02608 17.4717 9.08453C19.2096 8.94079 20.8823 9.89472 21.6271 11.5151C22.0845 12.5343 22.1236 13.6581 21.7316 14.7035C21.3396 15.7489 20.5686 16.5721 19.5494 17.0426C19.484 17.0818 19.4187 17.0948 19.3403 17.0948Z" fill="black"/>
<path d="M5.52755 16.8466C5.42301 16.8466 5.30542 16.8074 5.21395 16.7421C4.73046 16.3893 4.3515 15.945 4.06401 15.4223C2.94022 13.4099 3.65893 10.8748 5.67131 9.75103C7.68368 8.62723 10.2187 9.34594 11.3425 11.3583C11.4863 11.6066 11.3948 11.9333 11.1465 12.064C10.8982 12.2077 10.5716 12.1162 10.4409 11.8679C9.60459 10.3652 7.69675 9.82943 6.194 10.6657C4.69125 11.5021 4.1555 13.4099 4.99181 14.9126C5.21396 15.3047 5.50142 15.6314 5.85424 15.8927C6.08945 16.0626 6.12866 16.3893 5.95878 16.6245C5.85424 16.7813 5.69743 16.8466 5.52755 16.8466Z" fill="black"/>
</svg>
