<svg width="18" height="18" viewBox="0 0 18 18" fill="none" xmlns="http://www.w3.org/2000/svg">
<g clip-path="url(#clip0_4189_13966)">
<path fill-rule="evenodd" clip-rule="evenodd" d="M9.23842 0.775026C8.87595 0.86311 8.31089 1.16581 7.91715 1.48292C7.55111 1.77782 7.30229 2.12436 6.90911 2.88704C6.68628 3.31925 6.6312 3.36631 5.93071 3.72355C4.2396 4.58597 3.18977 5.7256 2.64521 7.29012C2.40488 7.98039 2.34615 8.07813 2.08776 8.21738C1.80515 8.36973 1.3373 8.80396 1.16137 9.07714C0.554759 10.0194 0.548204 11.6268 1.1472 12.5769C1.38161 12.9488 1.91539 13.399 2.29075 13.5414C2.59255 13.6558 2.67898 13.7467 2.92271 14.2053C3.51984 15.3292 4.46259 16.3217 5.47193 16.8891C7.74163 18.1651 11.1566 17.9547 13.186 16.4139C13.8551 15.906 14.2308 15.5138 14.7519 14.7798C15.243 14.088 15.6824 13.6144 16.3376 13.0705C16.7145 12.7575 16.8384 12.5862 17.0461 12.0906C17.2567 11.5882 17.2979 11.3844 17.2979 10.8439C17.2979 9.85896 17.0995 9.41556 16.309 8.63382C15.5416 7.87477 15.5027 7.81838 15.233 7.07333C14.8611 6.046 14.2868 5.2353 13.5314 4.6714C13.1207 4.36476 12.6172 4.07726 11.5469 3.5383C10.2237 2.87191 9.84713 2.3422 9.9645 1.31198C10.0345 0.698124 9.9159 0.610522 9.23842 0.775026ZM8.87392 5.66921C8.05607 5.62971 7.61292 5.45612 7.10213 4.97491C6.90733 4.79142 6.72508 4.64228 6.69713 4.64357C6.66927 4.64486 6.39128 4.77912 6.07943 4.94201C5.33699 5.32966 4.36823 6.27526 4.02924 6.94333C3.89187 7.21394 3.68515 7.76851 3.56989 8.17563C3.45463 8.58266 3.31677 8.98512 3.26347 9.06982C3.15882 9.23626 2.65201 9.46777 2.39232 9.46777C2.28759 9.46777 2.23194 9.52191 2.23194 9.62399C2.23194 9.73862 2.57093 9.98928 3.50769 10.5673C4.20931 11.0003 5.02036 11.51 5.30993 11.7001C5.94384 12.1161 6.15987 12.1829 6.34592 12.0206C6.42214 11.9542 6.64845 11.8141 6.84893 11.7095C7.19877 11.5267 7.28212 11.519 8.91847 11.519H10.6235L11.2505 11.8267L11.8775 12.1344L12.178 11.96C13.1926 11.3711 15.7589 9.75237 15.7589 9.70129C15.7589 9.55851 15.4813 9.38371 15.1779 9.33552C14.7715 9.27101 14.6226 9.04979 14.3787 8.14836C14.0603 6.97133 13.4303 5.95076 12.6907 5.41372C12.2761 5.11263 11.5006 4.72168 11.3181 4.72168C11.2535 4.72168 11.0477 4.86157 10.8609 5.03259C10.3394 5.51001 9.71567 5.70983 8.87392 5.66921ZM6.23155 9.34204C5.88463 9.49198 5.71493 9.76227 5.71493 10.165C5.71493 10.408 5.77049 10.5687 5.91038 10.7302C6.08186 10.9282 6.16237 10.956 6.56543 10.956C6.96848 10.956 7.049 10.9282 7.22048 10.7302C7.36036 10.5687 7.41593 10.408 7.41593 10.165C7.41593 9.75495 7.24396 9.48901 6.88141 9.33858C6.55692 9.20392 6.55101 9.204 6.23155 9.34204ZM11.0386 9.34059C10.7104 9.51539 10.5789 9.66928 10.5238 9.94278C10.4068 10.5237 10.7873 10.9962 11.3719 10.9962C11.6656 10.9962 11.7715 10.9501 12.0005 10.7227C12.3763 10.3495 12.3802 9.97882 12.0127 9.58707C11.7045 9.2587 11.3573 9.17078 11.0386 9.34059ZM3.88102 11.5605C4.88728 12.2248 5.74539 12.833 5.78791 12.9118C5.94554 13.2044 5.98151 14.0021 5.85102 14.3122C5.70919 14.6495 5.18989 14.9631 4.84078 14.9225C4.55291 14.889 4.08473 14.2653 3.76535 13.4899C3.49773 12.8401 3.22387 12.5246 2.9279 12.5246C2.65582 12.5246 2.22903 12.2089 1.95687 11.8066C1.7632 11.5202 1.71897 11.3698 1.71897 10.9981C1.71897 10.5087 1.77332 10.3526 1.94391 10.3526C2.00304 10.3526 2.87468 10.8962 3.88102 11.5605ZM15.7033 12.2864C16.0192 11.9135 16.1763 11.4147 16.1482 10.8729C16.13 10.5225 16.0908 10.3896 16.0019 10.3761C15.9351 10.3661 15.4935 10.622 15.0207 10.9447C14.548 11.2674 13.7725 11.7775 13.2975 12.0783C12.1498 12.8049 12.1139 12.8549 12.1139 13.7267C12.1139 14.1619 12.152 14.4734 12.2152 14.5545C12.3819 14.7689 12.9811 15.0366 13.1645 14.9788C13.3869 14.9087 14.0645 13.8746 14.2894 13.2622C14.4999 12.6887 14.6942 12.5246 15.1623 12.5246C15.4388 12.5246 15.5388 12.4805 15.7033 12.2864ZM6.44053 15.3727C6.95002 15.8592 8.10953 16.1112 9.52192 16.0423C10.4584 15.9967 11.0177 15.8319 11.652 15.4146C12.0134 15.1768 12.0304 15.1738 12.2762 15.3C12.4318 15.3799 12.5191 15.4805 12.5034 15.5617C12.4692 15.7384 11.2315 16.3547 10.5749 16.5221C9.79335 16.7213 8.14079 16.6978 7.30252 16.4755C6.59434 16.2877 5.52402 15.7559 5.49218 15.5761C5.47234 15.4637 5.91775 15.0987 6.07489 15.0987C6.11815 15.0987 6.28274 15.222 6.44053 15.3727ZM11.3783 13.6508C11.3852 12.7782 11.2631 12.477 10.8012 12.2271C10.5778 12.1061 10.3105 12.0804 9.15742 12.0684C8.40007 12.0606 7.70752 12.0715 7.61843 12.0928C7.22614 12.1863 6.9944 12.3217 6.82657 12.5553C6.66506 12.7801 6.64643 12.9034 6.64643 13.746C6.64643 14.6731 6.64959 14.6893 6.88084 14.9289C7.0098 15.0626 7.28317 15.2287 7.48834 15.2982C8.34362 15.5877 10.5299 15.5198 10.9798 15.1898C11.2585 14.9854 11.3714 14.5493 11.3783 13.6508ZM7.44379 12.7293C7.41665 12.7996 7.42929 12.8918 7.47181 12.934C7.51717 12.9791 8.16858 13.0018 9.04183 12.989C10.473 12.9679 10.5344 12.9604 10.5344 12.8061C10.5344 12.6518 10.4731 12.6444 9.01381 12.6234C7.68574 12.6042 7.48696 12.6176 7.44379 12.7293ZM7.41593 13.7312C7.41593 13.8866 7.46995 13.8921 8.99542 13.8921C10.5209 13.8921 10.5749 13.8866 10.5749 13.7312C10.5749 13.5758 10.5209 13.5703 8.99542 13.5703C7.46995 13.5703 7.41593 13.5758 7.41593 13.7312ZM7.44387 14.5793C7.41746 14.6476 7.4216 14.729 7.45295 14.7603C7.52439 14.8315 10.1269 14.8856 10.3851 14.8212C10.5043 14.7915 10.5749 14.7146 10.5749 14.6145C10.5749 14.4613 10.5159 14.4552 9.03341 14.4552C7.7187 14.4552 7.48477 14.4734 7.44387 14.5793Z" fill="#212224"/>
</g>
<defs>
<clipPath id="clip0_4189_13966">
<rect width="18" height="18" fill="white"/>
</clipPath>
</defs>
</svg>
