<svg width="28" height="27" viewBox="0 0 28 27" fill="none" xmlns="http://www.w3.org/2000/svg">
<path d="M15.5577 19.8921C18.9816 18.9747 21.067 15.3779 20.1497 11.9544C19.2291 8.51866 15.6247 6.44645 12.2008 7.36389C8.77698 8.28129 6.69149 11.8781 7.61209 15.3138C8.52941 18.7373 12.1339 20.8096 15.5577 19.8921ZM11.6049 5.09053C12.1837 4.93542 12.5358 4.32818 12.3779 3.7392L11.671 1.10103C11.5132 0.512042 10.9047 0.162173 10.3259 0.317281C9.73477 0.475667 9.38263 1.08293 9.54045 1.67192L10.2473 4.31009C10.4052 4.89908 11.0138 5.24891 11.6049 5.09053ZM18.3138 5.98894C18.841 6.28168 19.5216 6.11245 19.8285 5.58306L21.2099 3.20074C21.5078 2.68694 21.3236 1.99978 20.8055 1.69146C20.2905 1.39544 19.6132 1.57694 19.303 2.09407L17.9126 4.49194C17.618 5.01805 17.7988 5.69294 18.3138 5.98894ZM22.4282 11.3439C22.5828 11.9206 23.2036 12.2671 23.7824 12.112L26.4304 11.4025C27.0092 11.2474 27.3613 10.6402 27.2067 10.0635C27.0522 9.48674 26.4405 9.12462 25.8616 9.27973L23.2137 9.98924C22.6348 10.1443 22.2737 10.7671 22.4282 11.3439ZM21.5425 18.0386C21.2478 18.5648 21.4286 19.2397 21.9436 19.5356L24.3499 20.9294C24.8738 21.2098 25.5478 21.016 25.8491 20.5144C26.1437 19.9884 25.9628 19.3135 25.448 19.0174L23.045 17.636C22.5333 17.3522 21.8559 17.5337 21.5425 18.0386ZM16.1816 22.1712C15.5905 22.3295 15.2383 22.9367 15.3929 23.5135L16.1031 26.1639C16.2576 26.7407 16.8662 27.0904 17.4573 26.932C18.0362 26.7769 18.3882 26.1698 18.2337 25.593L17.5235 22.9426C17.3689 22.3658 16.7605 22.016 16.1816 22.1712ZM9.46043 21.276C8.93648 20.9955 8.24679 21.1803 7.94557 21.6819L6.56429 24.0642C6.26635 24.578 6.44718 25.2529 6.9531 25.5645C7.46473 25.8483 8.1577 25.6757 8.47123 25.1708L9.84924 22.7763C10.1472 22.2625 9.96636 21.5876 9.46043 21.276ZM5.34595 15.9211C5.19141 15.3443 4.56727 14.9855 3.98841 15.1406L1.34048 15.8501C0.761629 16.0052 0.412817 16.6247 0.567352 17.2015C0.721888 17.7782 1.33042 18.128 1.90927 17.9729L4.5572 17.2634C5.13606 17.1083 5.50048 16.4978 5.34595 15.9211ZM6.21943 9.22961C6.52064 8.72805 6.33323 8.02863 5.83062 7.72931L3.43994 6.34455C2.92831 6.06079 2.23532 6.23332 1.9374 6.74716C1.64275 7.27326 1.82688 7.96041 2.3262 8.24747L4.71688 9.63222C5.23181 9.92825 5.90919 9.74674 6.21943 9.22961Z" fill="#FFC14C"/>
</svg>
