<svg width="18" height="18" viewBox="0 0 18 18" fill="none" xmlns="http://www.w3.org/2000/svg">
<g clip-path="url(#clip0_4189_13960)">
<path fill-rule="evenodd" clip-rule="evenodd" d="M7.13345 0.845371C6.50088 1.01715 5.82476 1.32848 5.27784 1.69976C4.37618 2.31197 3.3415 3.69889 2.98178 4.77746C2.64493 5.78736 2.63818 5.86822 2.63818 8.90136C2.63818 11.7013 2.64442 11.832 2.8069 12.4374C3.13935 13.6757 3.84964 14.9298 4.60627 15.6145C4.72234 15.7196 4.85784 15.8489 4.90726 15.9019C5.2895 16.3115 6.51811 16.9483 7.34586 17.1658C8.07998 17.3587 9.43361 17.3374 10.1905 17.121C11.5619 16.7288 12.7444 15.8902 13.5235 14.7571C14.0074 14.0534 14.3085 13.4224 14.5365 12.6339C14.7271 11.9751 14.7301 11.9281 14.7566 9.18779C14.7793 6.83804 14.7648 6.31085 14.6626 5.7696C14.2263 3.45781 12.7081 1.66589 10.5572 0.923714C9.8116 0.666447 7.94947 0.623857 7.13345 0.845371ZM11.4239 7.12179C11.1155 6.93367 10.6083 6.52341 10.2966 6.21004C9.98508 5.89666 9.68526 5.64042 9.63034 5.64049C9.57549 5.64049 9.31967 5.85447 9.06179 6.1159C7.78896 7.40648 6.33282 8.03943 4.39795 8.14308L3.44475 8.19415L3.42392 9.68715C3.40786 10.8409 3.4303 11.3141 3.52276 11.7695C3.89848 13.6212 4.82653 14.9751 6.23105 15.7207C6.8785 16.0644 7.09363 16.136 7.95416 16.2938C9.44278 16.567 10.767 16.1878 11.9715 15.1432C12.8314 14.3976 13.5069 13.3071 13.7934 12.2017C13.949 11.6017 14.0323 8.29497 13.8962 8.11927C13.8497 8.05916 13.6746 7.98521 13.5072 7.95488C12.9583 7.85548 11.9951 7.47036 11.4239 7.12179ZM5.71683 8.79253C5.63566 8.83481 5.49114 8.99165 5.39567 9.14087C5.25731 9.35736 5.22945 9.48214 5.25834 9.75654C5.31788 10.3229 5.67797 10.6694 6.20707 10.6694C6.44222 10.6694 6.86083 10.3704 6.98049 10.117C7.19247 9.66798 6.98599 8.98741 6.57721 8.78782C6.36897 8.68614 5.91612 8.68857 5.71683 8.79253ZM10.6289 8.96588C10.4893 9.11549 10.3648 9.34479 10.337 9.5032C10.2348 10.0874 10.6894 10.6684 11.2492 10.6691C11.516 10.6694 11.9087 10.4289 12.0571 10.1741C12.1694 9.98143 12.1721 9.40026 12.0618 9.17922C11.9296 8.91472 11.5456 8.70555 11.1914 8.70523C10.9277 8.705 10.8302 8.75018 10.6289 8.96588Z" fill="#212224"/>
<path fill-rule="evenodd" clip-rule="evenodd" d="M8.70205 14.6384C7.45337 14.6384 6.47991 14.1699 6.05054 13.944L6.50251 12.9924C6.88165 13.192 7.68691 13.5746 8.70205 13.5746C9.7172 13.5746 10.5225 13.192 10.9016 12.9924L11.3536 13.944C10.9242 14.1699 9.95074 14.6384 8.70205 14.6384Z" fill="#212224"/>
</g>
<defs>
<clipPath id="clip0_4189_13960">
<rect width="18" height="18" fill="white"/>
</clipPath>
</defs>
</svg>
