<svg width="84" height="84" viewBox="0 0 84 84" fill="none" xmlns="http://www.w3.org/2000/svg">
<path d="M73.9992 41.9946C74.0003 48.3236 72.1247 54.5107 68.6093 59.7737C65.094 65.0367 60.097 69.1391 54.2502 71.5621C48.4034 73.9851 41.9693 74.6198 35.7617 73.3862C29.5541 72.1525 23.8518 69.1058 19.3758 64.6313C14.8997 60.1568 11.8511 54.4554 10.6153 48.2482C9.37949 42.0411 10.0121 35.6068 12.4331 29.7592C14.8541 23.9116 18.9548 18.9131 24.2166 15.396C29.4784 11.8789 35.6649 10.0011 41.9939 10C50.4804 10 58.6194 13.3705 64.6213 19.3704C70.6231 25.3702 73.9963 33.5081 73.9992 41.9946V41.9946Z" fill="white" fill-opacity="0.1"/>
<g filter="url(#filter0_d_82_1047)">
</g>
<defs>
<filter id="filter0_d_82_1047" x="-0.000671387" y="0" width="57.4358" height="83.9945" filterUnits="userSpaceOnUse" color-interpolation-filters="sRGB">
<feFlood flood-opacity="0" result="BackgroundImageFix"/>
<feColorMatrix in="SourceAlpha" type="matrix" values="0 0 0 0 0 0 0 0 0 0 0 0 0 0 0 0 0 0 127 0" result="hardAlpha"/>
<feOffset/>
<feGaussianBlur stdDeviation="5"/>
<feComposite in2="hardAlpha" operator="out"/>
<feColorMatrix type="matrix" values="0 0 0 0 1 0 0 0 0 1 0 0 0 0 1 0 0 0 0.4 0"/>
<feBlend mode="normal" in2="BackgroundImageFix" result="effect1_dropShadow_82_1047"/>
<feBlend mode="normal" in="SourceGraphic" in2="effect1_dropShadow_82_1047" result="shape"/>
</filter>
</defs>
</svg>
