<svg width="20" height="20" viewBox="0 0 20 20" fill="none" xmlns="http://www.w3.org/2000/svg">
<path d="M1.75066 14.7139L5.28613 18.2495L18.25 5.28611L14.7145 1.75052L1.75066 14.7139Z" fill="#F5BC00"/>
<path d="M4.09239 12.3486L2.91406 13.5273L4.38743 15.0003L5.56576 13.8216L4.09239 12.3486Z" fill="#EB7900"/>
<path d="M6.47946 9.99597L5.30078 11.1743L6.77371 12.6477L7.95239 11.4693L6.47946 9.99597Z" fill="#EB7900"/>
<path d="M11.193 5.29005L10.0146 6.46875L11.488 7.94166L12.6663 6.76296L11.193 5.29005Z" fill="#EB7900"/>
<path d="M13.5205 2.93689L12.3418 4.11523L13.8147 5.58858L14.9934 4.41023L13.5205 2.93689Z" fill="#EB7900"/>
<path d="M8.80642 7.64325L7.62793 8.82178L9.10109 10.2949L10.2796 9.11636L8.80642 7.64325Z" fill="#EB7900"/>
</svg>
