<svg width="24" height="24" viewBox="0 0 24 24" fill="none" xmlns="http://www.w3.org/2000/svg">
<path d="M22.0416 7.77788C21.5416 10.2779 19.1041 11.9029 16.6041 11.4029C14.1041 10.9029 12.4791 8.46538 12.9791 5.96538C13.4791 3.46538 15.9166 1.84038 18.4166 2.34038C18.6166 2.37788 18.8166 2.42788 19.0041 2.50288C17.9166 3.99038 18.2416 6.07788 19.7416 7.16538C20.4041 7.62788 21.2291 7.85288 22.0416 7.77788Z" fill="url(#paint0_linear_3783_14169)"/>
<path d="M2.37891 7.12773C2.24141 7.12773 2.11641 7.07773 2.02891 6.97773C1.92891 6.89023 1.87891 6.76523 1.87891 6.62773C1.87891 6.59023 1.87891 6.56523 1.89141 6.52773C1.89141 6.49023 1.90391 6.46523 1.91641 6.42773C1.92891 6.40273 1.94141 6.36523 1.96641 6.34023C1.97891 6.31523 2.00391 6.29023 2.02891 6.26523C2.12891 6.16523 2.25391 6.11523 2.37891 6.11523C2.50391 6.11523 2.64141 6.16523 2.72891 6.26523C2.75391 6.29023 2.76641 6.31523 2.79141 6.34023C2.80391 6.36523 2.82891 6.39023 2.84141 6.42773C2.85391 6.45273 2.86641 6.49023 2.86641 6.52773C2.87891 6.56523 2.87891 6.60273 2.87891 6.62773C2.87891 6.76523 2.82891 6.89023 2.72891 6.97773C2.64141 7.07773 2.50391 7.12773 2.37891 7.12773Z" fill="#9975FF"/>
<path d="M4.70391 7.54049C4.66641 7.54049 4.64141 7.54049 4.60391 7.52799C4.56641 7.52799 4.54141 7.51549 4.50391 7.50299C4.47891 7.49049 4.44141 7.47799 4.41641 7.45299C4.39141 7.44049 4.36641 7.41549 4.34141 7.39049C4.31641 7.36549 4.29141 7.34049 4.27891 7.31549C4.26641 7.29049 4.24141 7.25299 4.22891 7.22799C4.21641 7.20299 4.20391 7.16549 4.20391 7.12799C4.19141 7.09049 4.19141 7.06549 4.19141 7.02799C4.19141 6.99049 4.19141 6.96549 4.20391 6.92799C4.20391 6.89049 4.21641 6.86549 4.22891 6.82799C4.24141 6.80299 4.25391 6.76549 4.27891 6.74049C4.29141 6.71549 4.31641 6.69049 4.34141 6.66549C4.45391 6.55299 4.62891 6.49049 4.79141 6.52799C4.82891 6.54049 4.85391 6.54049 4.89141 6.55299C4.91641 6.56549 4.95391 6.57799 4.97891 6.60299C5.00391 6.62799 5.02891 6.64049 5.05391 6.66549C5.07891 6.69049 5.10391 6.71549 5.11641 6.74049C5.12891 6.76549 5.15391 6.79049 5.16641 6.82799C5.17891 6.85299 5.19141 6.89049 5.19141 6.92799C5.20391 6.95299 5.20391 6.99049 5.20391 7.02799C5.20391 7.06549 5.20391 7.09049 5.19141 7.12799C5.19141 7.15299 5.17891 7.19049 5.16641 7.22799C5.15391 7.25299 5.14141 7.29049 5.11641 7.31549C5.10391 7.34049 5.07891 7.36549 5.05391 7.39049C4.95391 7.49049 4.82891 7.54049 4.70391 7.54049Z" fill="white"/>
<path d="M6.00371 4.8527C5.96621 4.8527 5.94121 4.8527 5.90371 4.8402C5.87871 4.8277 5.84121 4.8277 5.80371 4.8152C5.77871 4.8027 5.74121 4.7902 5.71621 4.7652C5.69121 4.7527 5.66621 4.7277 5.64121 4.7027C5.61621 4.6777 5.60371 4.6527 5.57871 4.6277C5.56621 4.6027 5.54121 4.5652 5.52871 4.5402C5.51621 4.5152 5.50371 4.4777 5.50371 4.4527C5.50371 4.4152 5.49121 4.3902 5.49121 4.3527C5.49121 4.3152 5.49121 4.2902 5.50371 4.2527C5.50371 4.2277 5.51621 4.1902 5.52871 4.1527C5.54121 4.1277 5.55371 4.0902 5.57871 4.0652C5.59121 4.0402 5.61621 4.0152 5.64121 3.9902C5.66621 3.9652 5.69121 3.9527 5.71621 3.9277C5.74121 3.9152 5.76621 3.8902 5.80371 3.8777C5.82871 3.8652 5.86621 3.8527 5.90371 3.8527C6.06621 3.8152 6.24121 3.8777 6.35371 3.9902C6.45371 4.0777 6.50371 4.2152 6.50371 4.3402C6.50371 4.3777 6.50371 4.4027 6.49121 4.4402C6.47871 4.4652 6.47871 4.5027 6.46621 4.5277C6.45371 4.5527 6.44121 4.5902 6.41621 4.6152C6.40371 4.6402 6.37871 4.6652 6.35371 4.6902C6.32871 4.7152 6.30371 4.7402 6.27871 4.7527C6.25371 4.7777 6.21621 4.7902 6.19121 4.8027C6.16621 4.8152 6.12871 4.8277 6.09121 4.8277C6.06621 4.8527 6.04121 4.8527 6.00371 4.8527Z" fill="#9975FF"/>
<path d="M16.1539 17.6277C16.0914 17.6277 16.0289 17.6277 15.9664 17.6277C15.6914 17.6152 15.4789 17.3777 15.4914 17.1027C15.5039 16.8277 15.7414 16.6152 16.0164 16.6277C17.7539 16.7027 19.2289 15.3527 19.3039 13.6277C19.3789 11.8902 18.0289 10.4152 16.3039 10.3402C16.0164 10.3277 15.7164 10.3527 15.4414 10.4277C15.2914 10.4652 15.1414 10.4277 15.0164 10.3277C14.8914 10.2277 14.8289 10.0902 14.8289 9.94023C14.8164 7.87773 13.2164 6.21523 11.1789 6.11523C9.07891 6.01523 7.30391 7.65273 7.20391 9.75273L7.19141 10.0527L6.19141 10.0152L6.20391 9.71523C6.32891 7.06523 8.57891 5.00273 11.2164 5.11523C13.5914 5.21523 15.5039 7.02773 15.7789 9.34023C15.9664 9.32773 16.1539 9.31523 16.3414 9.32773C18.6289 9.42773 20.4039 11.3652 20.3039 13.6527C20.2539 14.7652 19.7789 15.7777 18.9539 16.5277C18.1789 17.2402 17.2039 17.6277 16.1539 17.6277Z" fill="white"/>
<path d="M5.86653 17.7654C5.85403 17.7654 5.85403 17.7654 5.84153 17.7654C3.55403 17.6654 1.77903 15.7279 1.87903 13.4404C1.92903 12.3279 2.40403 11.3154 3.22903 10.5654C4.04153 9.81543 5.10403 9.42793 6.21653 9.47793C7.64153 9.54043 8.91653 10.3154 9.62903 11.5529C9.76653 11.7904 9.67903 12.1029 9.44153 12.2404C9.20403 12.3779 8.89153 12.2904 8.75403 12.0529C8.21653 11.1154 7.25403 10.5279 6.16653 10.4779C5.32903 10.4404 4.51653 10.7279 3.90403 11.3029C3.27903 11.8654 2.91653 12.6404 2.87903 13.4779C2.80403 15.2154 4.15403 16.6904 5.87903 16.7654C6.15403 16.7779 6.36653 17.0154 6.35403 17.2904C6.35403 17.5529 6.12903 17.7654 5.86653 17.7654Z" fill="white"/>
<path d="M14.7539 21.1777C14.7539 20.8027 15.0664 20.4902 15.4414 20.4902C15.8164 20.4902 16.1289 20.8027 16.1289 21.1777C16.1289 21.5527 15.8164 21.8652 15.4414 21.8652C15.0664 21.8652 14.7539 21.5527 14.7539 21.1777ZM5.75391 21.1777C5.75391 20.8027 6.06641 20.4902 6.44141 20.4902C6.81641 20.4902 7.12891 20.8027 7.12891 21.1777C7.12891 21.5527 6.81641 21.8652 6.44141 21.8652C6.06641 21.8652 5.75391 21.5527 5.75391 21.1777ZM10.3789 21.1777C10.3789 20.8652 10.6289 20.6152 10.9414 20.6152C11.2539 20.6152 11.5039 20.8652 11.5039 21.1777C11.5039 21.4902 11.2539 21.7402 10.9414 21.7402C10.6289 21.7402 10.3789 21.4902 10.3789 21.1777ZM12.7539 19.1152C12.7539 18.8402 12.9789 18.6152 13.2539 18.6152C13.5289 18.6152 13.7539 18.8402 13.7539 19.1152C13.7539 19.3902 13.5289 19.6152 13.2539 19.6152C12.9789 19.6152 12.7539 19.3902 12.7539 19.1152ZM8.00391 19.1152C8.00391 18.8402 8.22891 18.6152 8.50391 18.6152C8.77891 18.6152 9.00391 18.8402 9.00391 19.1152C9.00391 19.3902 8.77891 19.6152 8.50391 19.6152C8.22891 19.6152 8.00391 19.3902 8.00391 19.1152ZM10.3789 17.1777C10.3789 16.8027 10.6914 16.4902 11.0664 16.4902C11.4414 16.4902 11.7539 16.8027 11.7539 17.1777C11.7539 17.5527 11.4414 17.8652 11.0664 17.8652C10.6914 17.8652 10.3789 17.5527 10.3789 17.1777Z" fill="#57AAFF"/>
<defs>
<linearGradient id="paint0_linear_3783_14169" x1="15.3401" y1="2.77155" x2="18.9525" y2="11.282" gradientUnits="userSpaceOnUse">
<stop stop-color="#B9A0FF"/>
<stop offset="1" stop-color="#855AFF"/>
</linearGradient>
</defs>
</svg>
