<svg width="24" height="24" viewBox="0 0 24 24" fill="none" xmlns="http://www.w3.org/2000/svg">
<path d="M6.80038 18.7946C5.36629 18.7946 4.04066 18.0113 3.34169 16.758C2.83554 15.8301 2.70298 14.7696 3.00426 13.7573C3.30554 12.745 3.96835 11.9014 4.88424 11.3952C5.54706 11.0216 6.27013 10.877 6.98115 10.9011C7.21012 8.56319 9.1624 6.76758 11.5365 6.76758C13.8744 6.76758 15.8026 8.52704 16.0798 10.7806C17.4657 10.648 18.8154 11.2627 19.6469 12.4196C20.9123 14.1911 20.5026 16.6616 18.731 17.927C17.6826 18.6741 16.4052 18.6862 15.2723 18.6982H15.0313C14.1154 18.7103 13.1996 18.7223 12.2837 18.7344C10.488 18.7585 8.63216 18.7826 6.80038 18.7946C6.81243 18.7946 6.81243 18.7946 6.80038 18.7946ZM6.80038 11.8652C6.30629 11.8652 5.81219 11.9857 5.35424 12.2388C4.65527 12.6245 4.14912 13.2632 3.9322 14.0224C3.71528 14.7937 3.79963 15.589 4.18527 16.288C4.71552 17.24 5.71578 17.8305 6.80038 17.8305H6.81243C8.63216 17.8185 10.488 17.7944 12.2837 17.7703C13.1996 17.7582 14.1154 17.7462 15.0313 17.7341H15.2723C16.3088 17.7221 17.3813 17.7221 18.1767 17.1436C19.5144 16.1795 19.8277 14.3116 18.8636 12.9739C18.1526 11.9857 16.9354 11.5278 15.7423 11.805C15.5977 11.8411 15.4531 11.805 15.3326 11.7086C15.2121 11.6121 15.1518 11.4796 15.1518 11.335C15.1518 9.34653 13.537 7.71962 11.5365 7.71962C9.6324 7.71962 8.0778 9.17781 7.93318 11.0578C8.88522 11.347 9.72882 11.9857 10.247 12.9257C10.3796 13.1547 10.2952 13.456 10.0542 13.5765C9.82523 13.7091 9.52395 13.6247 9.40343 13.3837C8.96959 12.6003 8.22242 12.0821 7.40294 11.9134C7.35474 11.9134 7.31858 11.9014 7.28243 11.8893C7.12576 11.8773 6.95705 11.8652 6.80038 11.8652Z" fill="white"/>
<path d="M19.1788 13.0573C18.998 13.0573 18.8172 12.9489 18.7449 12.7801C18.6365 12.5391 18.7449 12.2499 18.9859 12.1414C19.6246 11.8522 20.1067 11.2978 20.3839 10.5748C19.8536 10.5145 19.3354 10.3096 18.9016 9.9963C17.6965 9.11657 17.2988 7.52581 17.8652 6.20018C16.4431 5.99531 15.009 6.77865 14.4426 8.14043C14.3462 8.38146 14.057 8.50196 13.816 8.40555C13.575 8.30914 13.4545 8.01992 13.5509 7.7789C14.3944 5.7543 16.6721 4.7179 18.7449 5.42892C18.8895 5.47713 18.998 5.59763 19.0462 5.74225C19.0944 5.88686 19.0703 6.04352 18.9739 6.17609C18.2629 7.15223 18.4798 8.51402 19.4559 9.22504C19.8898 9.53837 20.42 9.68297 20.9623 9.63477C21.119 9.62272 21.2636 9.67093 21.3721 9.79144C21.4805 9.8999 21.5167 10.0566 21.4926 10.2132C21.2274 11.5148 20.4682 12.5512 19.3957 13.0453C19.3113 13.0453 19.239 13.0573 19.1788 13.0573Z" fill="white"/>
<path d="M2.98205 9.24925C2.86154 9.24925 2.72898 9.20105 2.64462 9.10464C2.56026 9.02028 2.5 8.88771 2.5 8.7672C2.5 8.73105 2.5 8.70694 2.51205 8.67079C2.5241 8.64669 2.52411 8.61054 2.53616 8.58644C2.54821 8.56233 2.56026 8.52619 2.58437 8.50208C2.59642 8.47798 2.62052 8.45387 2.64462 8.42976C2.72898 8.33336 2.86154 8.28516 2.98205 8.28516C3.11461 8.28516 3.23513 8.33336 3.31949 8.42976C3.34359 8.45387 3.36769 8.47798 3.37974 8.50208C3.39179 8.52619 3.4159 8.55028 3.42795 8.58644C3.44 8.61054 3.45205 8.64669 3.45205 8.67079C3.45205 8.70694 3.46409 8.73105 3.46409 8.7672C3.46409 8.89977 3.41589 9.02028 3.31949 9.10464C3.23513 9.20105 3.10256 9.24925 2.98205 9.24925Z" fill="white"/>
<path d="M5.15099 9.59821C5.01843 9.59821 4.89793 9.55 4.81357 9.45359C4.72921 9.35718 4.66895 9.23668 4.66895 9.11617C4.66895 9.08001 4.66894 9.0559 4.68099 9.01975C4.69304 8.9836 4.69305 8.9595 4.7051 8.92335C4.71716 8.89925 4.72921 8.86308 4.75331 8.83898C4.76536 8.81488 4.78947 8.79078 4.81357 8.76668C4.89793 8.68232 5.03048 8.62207 5.15099 8.62207C5.28356 8.62207 5.40407 8.67027 5.48843 8.76668C5.51253 8.79078 5.52458 8.81488 5.54869 8.83898C5.56074 8.86308 5.58484 8.8872 5.59689 8.92335C5.60895 8.94745 5.62099 8.9836 5.62099 9.01975C5.62099 9.0559 5.63304 9.08001 5.63304 9.11617C5.63304 9.24873 5.58484 9.36923 5.48843 9.45359C5.40407 9.55 5.28356 9.59821 5.15099 9.59821Z" fill="white"/>
<path d="M6.40685 7.04141C6.27429 7.04141 6.15377 6.99321 6.06941 6.8968C6.04531 6.8727 6.03326 6.8486 6.00916 6.8245C5.99711 6.8004 5.97302 6.77629 5.96096 6.74013C5.94891 6.71603 5.93685 6.67989 5.93685 6.64373C5.9248 6.61963 5.9248 6.58347 5.9248 6.54732C5.9248 6.51116 5.9248 6.48707 5.93685 6.45092C5.93685 6.42681 5.94891 6.39066 5.96096 6.3545C5.97302 6.3304 5.98505 6.29425 6.00916 6.27015C6.02121 6.24605 6.04531 6.22193 6.06941 6.19783C6.16582 6.11347 6.28634 6.05322 6.40685 6.05322C6.53941 6.05322 6.65993 6.10142 6.74429 6.19783C6.76839 6.22193 6.78044 6.24605 6.80455 6.27015C6.8166 6.29425 6.84069 6.3304 6.85274 6.3545C6.86479 6.3786 6.87685 6.41476 6.87685 6.45092C6.8889 6.48707 6.8889 6.51116 6.8889 6.54732C6.8889 6.67988 6.8407 6.8004 6.74429 6.88476C6.65993 6.99322 6.52736 7.04141 6.40685 7.04141Z" fill="white"/>
</svg>
