<svg width="26" height="24" viewBox="0 0 26 24" fill="none" xmlns="http://www.w3.org/2000/svg">
<path fill-rule="evenodd" clip-rule="evenodd" d="M8.17316 2.76121C10.0004 2.00433 12.0111 1.8063 13.9509 2.19215C15.8907 2.578 17.6725 3.53041 19.0711 4.92894L21.6065 7.46436H19.0205C18.4682 7.46436 18.0205 7.91207 18.0205 8.46436C18.0205 9.01664 18.4682 9.46436 19.0205 9.46436H24.0056C24.2666 9.4683 24.5288 9.37071 24.7279 9.17158C24.9295 8.97001 25.027 8.7038 25.0205 8.43968V3.46436C25.0205 2.91207 24.5728 2.46436 24.0205 2.46436C23.4682 2.46436 23.0205 2.91207 23.0205 3.46436V6.04995L20.4853 3.51472C18.8071 1.83649 16.6689 0.693605 14.3411 0.230582C12.0133 -0.23244 9.60051 0.00519943 7.4078 0.913451C5.21509 1.8217 3.34094 3.35977 2.02236 5.33316C0.703788 7.30655 0 9.62663 0 12C0 14.3734 0.703788 16.6935 2.02236 18.6668C3.34094 20.6402 5.21509 22.1783 7.4078 23.0866C9.60051 23.9948 12.0133 24.2325 14.3411 23.7694C14.8828 23.6617 15.2345 23.1352 15.1268 22.5936C15.019 22.0519 14.4926 21.7001 13.9509 21.8079C12.0111 22.1937 10.0004 21.9957 8.17316 21.2388C6.3459 20.4819 4.78412 19.2002 3.6853 17.5557C2.58649 15.9112 2 13.9778 2 12C2 10.0222 2.58649 8.08879 3.6853 6.4443C4.78412 4.79981 6.3459 3.51809 8.17316 2.76121ZM19.6797 20C19.123 20 18.8477 19.6895 18.8477 19.2441C18.8477 18.9102 18.9766 18.6875 19.334 18.3594L21.8535 15.9512C22.8965 14.9492 23.166 14.5391 23.166 13.9297C23.166 13.2324 22.627 12.7344 21.8711 12.7344C21.1914 12.7344 20.7227 13.0742 20.418 13.7539C20.2188 14.1055 20.0137 14.2695 19.6328 14.2695C19.1582 14.2695 18.877 13.9883 18.877 13.5488C18.877 13.4141 18.9004 13.291 18.9414 13.168C19.2285 12.2305 20.2891 11.3574 21.8887 11.3574C23.6816 11.3574 24.8887 12.3652 24.8887 13.8184C24.8887 14.8496 24.3848 15.4941 23.002 16.8008L21.1738 18.5586V18.5938H24.3613C24.8184 18.5938 25.0938 18.8691 25.0938 19.2969C25.0938 19.7129 24.8184 20 24.3613 20H19.6797ZM15.2031 19.2383C15.2031 19.7715 15.5605 20.123 16.082 20.123C16.6035 20.123 16.9551 19.7715 16.9551 19.2383V12.4063C16.9551 11.7969 16.5801 11.416 15.9531 11.416C15.5898 11.416 15.3086 11.4688 14.8984 11.75L13.2227 12.9102C12.9473 13.1035 12.8418 13.3027 12.8418 13.5723C12.8418 13.9473 13.1055 14.2051 13.4629 14.2051C13.6445 14.2051 13.7676 14.1641 13.9316 14.0469L15.168 13.1855H15.2031V19.2383Z" fill="#212224"/>
</svg>
