<svg width="24" height="24" viewBox="0 0 24 24" fill="none" xmlns="http://www.w3.org/2000/svg">
<path d="M7.0625 3.25938C6.925 3.25938 6.80001 3.20937 6.71251 3.10937C6.68751 3.08437 6.66251 3.05938 6.65001 3.03438C6.63751 3.00938 6.61251 2.97188 6.60001 2.94688C6.58751 2.92188 6.575 2.88438 6.575 2.84688C6.575 2.80938 6.5625 2.78437 6.5625 2.74687C6.5625 2.62187 6.61251 2.48438 6.71251 2.39688C6.73751 2.37188 6.76251 2.34688 6.78751 2.33438C6.81251 2.32188 6.85 2.29688 6.875 2.28438C6.9 2.27188 6.93751 2.25938 6.97501 2.25938C7.03751 2.24687 7.1125 2.24687 7.175 2.25938C7.2125 2.25938 7.23751 2.27188 7.27501 2.28438C7.30001 2.29688 7.3375 2.30938 7.3625 2.33438C7.3875 2.34688 7.4125 2.37188 7.4375 2.39688C7.525 2.49688 7.58751 2.62187 7.58751 2.74687C7.58751 2.78437 7.5875 2.80938 7.575 2.84688C7.5625 2.88438 7.5625 2.90938 7.55 2.94688C7.5375 2.97188 7.525 3.00938 7.5 3.03438C7.4875 3.05938 7.4625 3.08437 7.4375 3.10937C7.325 3.20937 7.2 3.25938 7.0625 3.25938Z" fill="#FFC44C"/>
<path d="M1.75 8.57188C1.6125 8.57188 1.48751 8.52188 1.40001 8.42188C1.37501 8.39687 1.35001 8.37188 1.33751 8.34688C1.32501 8.32188 1.30001 8.28438 1.28751 8.25938C1.27501 8.23438 1.2625 8.19688 1.2625 8.15938C1.25 8.12188 1.25 8.09688 1.25 8.05938C1.25 8.02188 1.25 7.99688 1.2625 7.95938C1.2625 7.92188 1.27501 7.89688 1.28751 7.85938C1.30001 7.83437 1.31251 7.79688 1.33751 7.77188C1.35001 7.74688 1.37501 7.72188 1.40001 7.69688C1.50001 7.60938 1.625 7.54688 1.75 7.54688C1.875 7.54688 2.01251 7.59688 2.10001 7.69688C2.12501 7.72188 2.13751 7.74688 2.16251 7.77188C2.17501 7.79688 2.20001 7.83437 2.21251 7.85938C2.22501 7.88438 2.2375 7.92188 2.2375 7.95938C2.2375 7.99688 2.25 8.02188 2.25 8.05938C2.25 8.09688 2.25 8.12188 2.2375 8.15938C2.225 8.19688 2.22501 8.22188 2.21251 8.25938C2.20001 8.29688 2.18751 8.32188 2.16251 8.34688C2.13751 8.37188 2.12501 8.39687 2.10001 8.42188C2.01251 8.52188 1.8875 8.57188 1.75 8.57188Z" fill="#FFC44C"/>
<path d="M10.8252 4.82178C10.6877 4.82178 10.5627 4.77178 10.4752 4.67178C10.4502 4.64678 10.4252 4.62178 10.4127 4.59678C10.4002 4.57178 10.3752 4.54678 10.3627 4.50928C10.3502 4.48428 10.3377 4.44678 10.3377 4.42178C10.3252 4.38428 10.3252 4.35928 10.3252 4.32178C10.3252 4.18428 10.3752 4.05928 10.4752 3.97178C10.5627 3.87178 10.7002 3.82178 10.8252 3.82178C10.9502 3.82178 11.0877 3.87178 11.1752 3.97178C11.2627 4.05928 11.3252 4.19678 11.3252 4.32178C11.3252 4.35928 11.3252 4.38428 11.3127 4.42178C11.3127 4.44678 11.3002 4.48428 11.2877 4.50928C11.2752 4.53428 11.2627 4.57178 11.2377 4.59678C11.2252 4.62178 11.2002 4.64678 11.1752 4.67178C11.0877 4.75928 10.9627 4.82178 10.8252 4.82178Z" fill="#FFC44C"/>
<path d="M3.3125 4.82164C3.275 4.82164 3.25001 4.82164 3.21251 4.80914C3.18751 4.79664 3.15 4.79664 3.125 4.78414C3.1 4.77164 3.06251 4.75914 3.03751 4.73414C3.01251 4.70914 2.98751 4.69664 2.96251 4.67164C2.93751 4.64664 2.91251 4.62164 2.90001 4.59664C2.88751 4.57164 2.86251 4.54664 2.85001 4.50914C2.83751 4.48414 2.825 4.44664 2.825 4.42164C2.825 4.38414 2.8125 4.35914 2.8125 4.32164C2.8125 4.18414 2.86251 4.05914 2.96251 3.97164C2.98751 3.94664 3.01251 3.92164 3.03751 3.90914C3.06251 3.88414 3.0875 3.87164 3.125 3.85914C3.15 3.84664 3.18751 3.83414 3.21251 3.83414C3.37501 3.79664 3.55001 3.85914 3.66251 3.97164C3.76251 4.05914 3.8125 4.19664 3.8125 4.32164C3.8125 4.35914 3.8125 4.38414 3.8 4.42164C3.8 4.44664 3.78751 4.48414 3.77501 4.50914C3.76251 4.53414 3.75001 4.57164 3.72501 4.59664C3.71251 4.62164 3.68751 4.64664 3.66251 4.67164C3.63751 4.69664 3.61251 4.70914 3.58751 4.73414C3.56251 4.74664 3.5375 4.77164 3.5 4.78414C3.475 4.79664 3.43751 4.80914 3.41251 4.80914C3.37501 4.80914 3.3375 4.82164 3.3125 4.82164Z" fill="#FFC44C"/>
<path d="M7.0625 3.25938C6.925 3.25938 6.80001 3.20937 6.71251 3.10937C6.68751 3.08437 6.66251 3.05938 6.65001 3.03438C6.63751 3.00938 6.61251 2.97188 6.60001 2.94688C6.58751 2.92188 6.575 2.88438 6.575 2.84688C6.575 2.80938 6.5625 2.78437 6.5625 2.74687C6.5625 2.62187 6.61251 2.48438 6.71251 2.39688C6.73751 2.37188 6.76251 2.34688 6.78751 2.33438C6.81251 2.32188 6.85 2.29688 6.875 2.28438C6.9 2.27188 6.93751 2.25938 6.97501 2.25938C7.03751 2.24687 7.1125 2.24687 7.175 2.25938C7.2125 2.25938 7.23751 2.27188 7.27501 2.28438C7.30001 2.29688 7.3375 2.30938 7.3625 2.33438C7.3875 2.34688 7.4125 2.37188 7.4375 2.39688C7.525 2.49688 7.58751 2.62187 7.58751 2.74687C7.58751 2.78437 7.5875 2.80938 7.575 2.84688C7.5625 2.88438 7.5625 2.90938 7.55 2.94688C7.5375 2.97188 7.525 3.00938 7.5 3.03438C7.4875 3.05938 7.4625 3.08437 7.4375 3.10937C7.325 3.20937 7.2 3.25938 7.0625 3.25938Z" fill="#FFC44C"/>
<path d="M1.75 8.57188C1.6125 8.57188 1.48751 8.52188 1.40001 8.42188C1.37501 8.39687 1.35001 8.37188 1.33751 8.34688C1.32501 8.32188 1.30001 8.28438 1.28751 8.25938C1.27501 8.23438 1.2625 8.19688 1.2625 8.15938C1.25 8.12188 1.25 8.09688 1.25 8.05938C1.25 8.02188 1.25 7.99688 1.2625 7.95938C1.2625 7.92188 1.27501 7.89688 1.28751 7.85938C1.30001 7.83437 1.31251 7.79688 1.33751 7.77188C1.35001 7.74688 1.37501 7.72188 1.40001 7.69688C1.50001 7.60938 1.625 7.54688 1.75 7.54688C1.875 7.54688 2.01251 7.59688 2.10001 7.69688C2.12501 7.72188 2.13751 7.74688 2.16251 7.77188C2.17501 7.79688 2.20001 7.83437 2.21251 7.85938C2.22501 7.88438 2.2375 7.92188 2.2375 7.95938C2.2375 7.99688 2.25 8.02188 2.25 8.05938C2.25 8.09688 2.25 8.12188 2.2375 8.15938C2.225 8.19688 2.22501 8.22188 2.21251 8.25938C2.20001 8.29688 2.18751 8.32188 2.16251 8.34688C2.13751 8.37188 2.12501 8.39687 2.10001 8.42188C2.01251 8.52188 1.8875 8.57188 1.75 8.57188Z" fill="#FFC44C"/>
<path d="M10.8252 4.82178C10.6877 4.82178 10.5627 4.77178 10.4752 4.67178C10.4502 4.64678 10.4252 4.62178 10.4127 4.59678C10.4002 4.57178 10.3752 4.54678 10.3627 4.50928C10.3502 4.48428 10.3377 4.44678 10.3377 4.42178C10.3252 4.38428 10.3252 4.35928 10.3252 4.32178C10.3252 4.18428 10.3752 4.05928 10.4752 3.97178C10.5627 3.87178 10.7002 3.82178 10.8252 3.82178C10.9502 3.82178 11.0877 3.87178 11.1752 3.97178C11.2627 4.05928 11.3252 4.19678 11.3252 4.32178C11.3252 4.35928 11.3252 4.38428 11.3127 4.42178C11.3127 4.44678 11.3002 4.48428 11.2877 4.50928C11.2752 4.53428 11.2627 4.57178 11.2377 4.59678C11.2252 4.62178 11.2002 4.64678 11.1752 4.67178C11.0877 4.75928 10.9627 4.82178 10.8252 4.82178Z" fill="#FFC44C"/>
<path d="M3.3125 4.82164C3.275 4.82164 3.25001 4.82164 3.21251 4.80914C3.18751 4.79664 3.15 4.79664 3.125 4.78414C3.1 4.77164 3.06251 4.75914 3.03751 4.73414C3.01251 4.70914 2.98751 4.69664 2.96251 4.67164C2.93751 4.64664 2.91251 4.62164 2.90001 4.59664C2.88751 4.57164 2.86251 4.54664 2.85001 4.50914C2.83751 4.48414 2.825 4.44664 2.825 4.42164C2.825 4.38414 2.8125 4.35914 2.8125 4.32164C2.8125 4.18414 2.86251 4.05914 2.96251 3.97164C2.98751 3.94664 3.01251 3.92164 3.03751 3.90914C3.06251 3.88414 3.0875 3.87164 3.125 3.85914C3.15 3.84664 3.18751 3.83414 3.21251 3.83414C3.37501 3.79664 3.55001 3.85914 3.66251 3.97164C3.76251 4.05914 3.8125 4.19664 3.8125 4.32164C3.8125 4.35914 3.8125 4.38414 3.8 4.42164C3.8 4.44664 3.78751 4.48414 3.77501 4.50914C3.76251 4.53414 3.75001 4.57164 3.72501 4.59664C3.71251 4.62164 3.68751 4.64664 3.66251 4.67164C3.63751 4.69664 3.61251 4.70914 3.58751 4.73414C3.56251 4.74664 3.5375 4.77164 3.5 4.78414C3.475 4.79664 3.43751 4.80914 3.41251 4.80914C3.37501 4.80914 3.3375 4.82164 3.3125 4.82164Z" fill="#FFC44C"/>
<path d="M2.6875 12.2091C2.55 12.2091 2.42501 12.1591 2.33751 12.0591C2.31251 12.0341 2.28751 12.0091 2.27501 11.9841C2.26251 11.9591 2.23751 11.9216 2.22501 11.8966C2.21251 11.8716 2.2 11.8341 2.2 11.7966C2.2 11.7591 2.1875 11.7341 2.1875 11.6966C2.1875 11.6591 2.1875 11.6341 2.2 11.5966C2.2125 11.5716 2.21251 11.5341 2.22501 11.5091C2.23751 11.4841 2.25001 11.4466 2.27501 11.4216C2.28751 11.3966 2.31251 11.3716 2.33751 11.3466C2.36251 11.3216 2.38751 11.3091 2.41251 11.2841C2.43751 11.2716 2.4625 11.2466 2.5 11.2341C2.525 11.2216 2.56251 11.2091 2.60001 11.2091C2.76251 11.1716 2.9375 11.2341 3.05 11.3466C3.075 11.3716 3.1 11.3966 3.1125 11.4216C3.125 11.4466 3.15001 11.4716 3.16251 11.5091C3.17501 11.5341 3.1875 11.5716 3.1875 11.5966C3.1875 11.6341 3.2 11.6591 3.2 11.6966C3.2 11.7341 3.2 11.7591 3.1875 11.7966C3.175 11.8216 3.17501 11.8591 3.16251 11.8966C3.15001 11.9216 3.1375 11.9591 3.1125 11.9841C3.1 12.0091 3.075 12.0341 3.05 12.0591C2.95 12.1591 2.8125 12.2091 2.6875 12.2091Z" fill="#FFC44C"/>
<path d="M7.04961 11.9469C9.1621 11.9469 10.8746 10.2064 10.8746 8.05938C10.8746 5.91237 9.1621 4.17188 7.04961 4.17188C4.93712 4.17188 3.22461 5.91237 3.22461 8.05938C3.22461 10.2064 4.93712 11.9469 7.04961 11.9469Z" fill="url(#paint0_linear_3783_14577)"/>
<path d="M18.527 18.1468C18.4645 18.1468 18.402 18.1468 18.3395 18.1468C18.0645 18.1343 17.852 17.8968 17.8645 17.6218C17.877 17.3468 18.1145 17.1343 18.3895 17.1468C20.127 17.2218 21.602 15.8718 21.677 14.1468C21.752 12.4093 20.402 10.9343 18.677 10.8593C18.3895 10.8468 18.0895 10.8718 17.8145 10.9468C17.6645 10.9843 17.5145 10.9468 17.3895 10.8468C17.2645 10.7468 17.202 10.6093 17.202 10.4593C17.1895 8.39677 15.5895 6.73427 13.552 6.63427C11.452 6.54677 9.67695 8.17177 9.57695 10.2718L9.56445 10.5718L8.56445 10.5343L8.57695 10.2343C8.70195 7.58427 10.952 5.52177 13.5895 5.63427C15.9645 5.73427 17.877 7.54677 18.152 9.85927C18.3395 9.84677 18.527 9.83428 18.7145 9.84678C21.002 9.94678 22.777 11.8843 22.677 14.1718C22.627 15.2843 22.152 16.2968 21.327 17.0468C20.552 17.7593 19.577 18.1468 18.527 18.1468Z" fill="#2F2F2F"/>
<path d="M8.23957 18.2845C8.22707 18.2845 8.22707 18.2845 8.21457 18.2845C5.92707 18.1845 4.15207 16.247 4.25207 13.9595C4.30207 12.847 4.77707 11.8345 5.60207 11.0845C6.41457 10.3345 7.47707 9.94698 8.58957 9.99698C10.0146 10.0595 11.2896 10.8345 12.0021 12.072C12.1396 12.3095 12.0521 12.622 11.8146 12.7595C11.5771 12.897 11.2646 12.8095 11.1271 12.572C10.5896 11.6345 9.62707 11.047 8.53957 10.997C7.70207 10.9595 6.88957 11.247 6.27707 11.822C5.65207 12.3845 5.28957 13.1595 5.25207 13.997C5.17707 15.7345 6.52707 17.2095 8.25207 17.2845C8.52707 17.297 8.73957 17.5345 8.72707 17.8095C8.72707 18.072 8.50207 18.2845 8.23957 18.2845Z" fill="#2F2F2F"/>
<path d="M17.127 20.9468C17.127 20.5718 17.4395 20.2593 17.8145 20.2593C18.1895 20.2593 18.502 20.5718 18.502 20.9468C18.502 21.3218 18.1895 21.6343 17.8145 21.6343C17.4395 21.6343 17.127 21.3218 17.127 20.9468ZM8.12695 20.9468C8.12695 20.5718 8.43945 20.2593 8.81445 20.2593C9.18945 20.2593 9.50195 20.5718 9.50195 20.9468C9.50195 21.3218 9.18945 21.6343 8.81445 21.6343C8.43945 21.6343 8.12695 21.3218 8.12695 20.9468ZM12.752 20.9468C12.752 20.6343 13.002 20.3843 13.3145 20.3843C13.627 20.3843 13.877 20.6343 13.877 20.9468C13.877 21.2593 13.627 21.5093 13.3145 21.5093C13.002 21.5093 12.752 21.2593 12.752 20.9468ZM15.127 18.8843C15.127 18.6093 15.352 18.3843 15.627 18.3843C15.902 18.3843 16.127 18.6093 16.127 18.8843C16.127 19.1593 15.902 19.3843 15.627 19.3843C15.352 19.3843 15.127 19.1593 15.127 18.8843ZM10.377 18.8843C10.377 18.6093 10.602 18.3843 10.877 18.3843C11.152 18.3843 11.377 18.6093 11.377 18.8843C11.377 19.1593 11.152 19.3843 10.877 19.3843C10.602 19.3843 10.377 19.1593 10.377 18.8843ZM12.752 16.9468C12.752 16.5718 13.0645 16.2593 13.4395 16.2593C13.8145 16.2593 14.127 16.5718 14.127 16.9468C14.127 17.3218 13.8145 17.6343 13.4395 17.6343C13.0645 17.6343 12.752 17.3218 12.752 16.9468Z" fill="#57AAFF"/>
<defs>
<linearGradient id="paint0_linear_3783_14577" x1="7.05088" y1="11.9399" x2="7.05088" y2="4.17215" gradientUnits="userSpaceOnUse">
<stop stop-color="#FFC14C"/>
<stop offset="1" stop-color="#FFD04D"/>
</linearGradient>
</defs>
</svg>
