<svg width="26" height="25" viewBox="0 0 26 25" fill="none" xmlns="http://www.w3.org/2000/svg">
<path d="M9.5938 14.4531C9.5938 13.1397 9.98327 11.8558 10.713 10.7638C11.4426 9.67175 12.4798 8.8206 13.6932 8.31799C14.9066 7.81538 16.2418 7.68387 17.53 7.9401C18.8181 8.19633 20.0014 8.82879 20.9301 9.7575C21.8588 10.6862 22.4912 11.8695 22.7475 13.1576C23.0037 14.4458 22.8722 15.781 22.3696 16.9944C21.867 18.2078 21.0158 19.2449 19.9238 19.9746C18.8317 20.7043 17.5478 21.0938 16.2344 21.0938H8.42193C7.79804 21.0932 7.18175 20.9569 6.61589 20.6941C6.05003 20.4313 5.54818 20.0485 5.14521 19.5722C4.74224 19.0959 4.44782 18.5376 4.28242 17.9361C4.11702 17.3345 4.0846 16.7041 4.18741 16.0888C4.29023 15.4734 4.52581 14.8878 4.87779 14.3727C5.22977 13.8576 5.6897 13.4253 6.22562 13.1059C6.76153 12.7865 7.36058 12.5876 7.98112 12.523C8.60166 12.4585 9.22881 12.5299 9.81898 12.7322" stroke="#212224" stroke-width="2" stroke-linecap="round" stroke-linejoin="round"/>
<path d="M5.58894 13.5673C4.68093 13.181 3.87707 12.5855 3.2429 11.8294C2.60873 11.0734 2.1622 10.1782 1.9397 9.21682L1.93972 9.21672C2.97247 9.45362 4.04848 9.4243 5.0668 9.13152C6.08512 8.83874 7.01239 8.2921 7.76162 7.54287C8.51085 6.79363 9.05749 5.86637 9.35027 4.84804C9.64305 3.82972 9.67237 2.75372 9.43547 1.72097L9.43555 1.72095C10.813 2.03899 12.0419 2.81441 12.922 3.92072C13.802 5.02703 14.2812 6.39892 14.2813 7.81257C14.2813 7.91116 14.2791 8.00919 14.2745 8.10668" stroke="#212224" stroke-width="2" stroke-linecap="round" stroke-linejoin="round"/>
</svg>
