<svg width="32" height="32" viewBox="0 0 32 32" fill="none" xmlns="http://www.w3.org/2000/svg">
<path d="M16 30L19.2813 25" stroke="#212224" stroke-width="2" stroke-linecap="round" stroke-linejoin="round"/>
<path d="M12.3438 27L16.2813 21" stroke="#212224" stroke-width="2" stroke-linecap="round" stroke-linejoin="round"/>
<path d="M9.99673 11.7692C9.99673 10.0348 10.4953 8.3394 11.4295 6.89731C12.3637 5.45522 13.6915 4.33124 15.2449 3.66752C16.7984 3.0038 18.5078 2.83014 20.1569 3.1685C21.8061 3.50686 23.321 4.34205 24.5099 5.56845C25.6989 6.79485 26.5086 8.35738 26.8366 10.0584C27.1647 11.7595 26.9963 13.5227 26.3528 15.1251C25.7094 16.7274 24.6197 18.097 23.2216 19.0606C21.8235 20.0242 20.1798 20.5385 18.4984 20.5385H8.49644C7.69771 20.5378 6.90871 20.3577 6.18427 20.0107C5.45983 19.6637 4.81733 19.1582 4.30143 18.5292C3.78553 17.9003 3.40861 17.163 3.19685 16.3686C2.98509 15.5742 2.94359 14.7418 3.07521 13.9292C3.20684 13.1166 3.50845 12.3433 3.95907 11.663C4.40969 10.9828 4.99851 10.4119 5.68462 9.99013C6.37072 9.56833 7.13765 9.30569 7.9321 9.22048C8.72654 9.13527 9.52945 9.22953 10.285 9.4967" stroke="#212224" stroke-width="2" stroke-linecap="round" stroke-linejoin="round"/>
</svg>
