<svg width="20" height="20" viewBox="0 0 20 20" fill="none" xmlns="http://www.w3.org/2000/svg">
<path d="M10 7.125V10.25" stroke="white" stroke-width="1.5" stroke-linecap="round" stroke-linejoin="round"/>
<path d="M8.91826 2.12381L2.04511 13.9982C1.93513 14.1882 1.87714 14.4038 1.87695 14.6234C1.87677 14.8429 1.93441 15.0586 2.04408 15.2488C2.15374 15.439 2.31156 15.5969 2.50166 15.7068C2.69175 15.8166 2.90742 15.8744 3.12696 15.8744H16.8732C17.0928 15.8744 17.3084 15.8166 17.4985 15.7068C17.6886 15.5969 17.8465 15.439 17.9561 15.2488C18.0658 15.0586 18.1234 14.8429 18.1232 14.6234C18.1231 14.4038 18.0651 14.1882 17.9551 13.9982L11.0819 2.12381C10.9721 1.93411 10.8144 1.77661 10.6245 1.66712C10.4346 1.55763 10.2193 1.5 10.0001 1.5C9.78091 1.5 9.56558 1.55763 9.3757 1.66712C9.18581 1.77661 9.02806 1.93411 8.91826 2.12381V2.12381Z" stroke="white" stroke-width="1.5" stroke-linecap="round" stroke-linejoin="round"/>
<path d="M10 14C10.5178 14 10.9375 13.5803 10.9375 13.0625C10.9375 12.5447 10.5178 12.125 10 12.125C9.48223 12.125 9.0625 12.5447 9.0625 13.0625C9.0625 13.5803 9.48223 14 10 14Z" fill="white"/>
</svg>
