<svg width="24" height="24" viewBox="0 0 24 24" fill="none" xmlns="http://www.w3.org/2000/svg">
<path d="M11.7848 17.0805C11.5143 17.0805 11.293 16.8591 11.293 16.5886V7.12121C11.293 6.85071 11.5143 6.62939 11.7848 6.62939C12.0553 6.62939 12.2766 6.85071 12.2766 7.12121V16.5886C12.2766 16.8591 12.0553 17.0805 11.7848 17.0805Z" fill="white"/>
<path d="M7.75306 14.8304C7.59322 14.8304 7.42108 14.7443 7.33501 14.5968C7.18747 14.3632 7.26124 14.0681 7.49486 13.9205L15.5606 8.95318C15.7942 8.80563 16.0893 8.87941 16.2369 9.11302C16.3844 9.34663 16.3106 9.64172 16.077 9.78927L8.01126 14.7566C7.92519 14.8058 7.83912 14.8304 7.75306 14.8304Z" fill="white"/>
<path d="M15.8051 14.8309C15.7191 14.8309 15.633 14.8063 15.5469 14.7571L7.48118 9.78975C7.24757 9.64221 7.17379 9.34712 7.32134 9.11351C7.46888 8.8799 7.76397 8.80612 7.99758 8.95366L16.0633 13.921C16.297 14.0686 16.3707 14.3636 16.2232 14.5973C16.1371 14.7448 15.9773 14.8309 15.8051 14.8309Z" fill="white"/>
<path d="M11.7735 9.50657C11.6505 9.50657 11.5275 9.45739 11.4292 9.35903L9.87997 7.80983C9.68324 7.6131 9.68324 7.3057 9.87997 7.10897C10.0767 6.91224 10.3841 6.91224 10.5808 7.10897L11.7857 8.31392L12.9907 7.10897C13.1874 6.91224 13.4948 6.91224 13.6915 7.10897C13.8883 7.3057 13.8883 7.6131 13.6915 7.80983L12.1423 9.35903C12.0194 9.46969 11.8964 9.50657 11.7735 9.50657Z" fill="white"/>
<path d="M13.3223 16.6506C13.1993 16.6506 13.0764 16.6014 12.978 16.5031L11.7731 15.2981L10.5681 16.5031C10.3714 16.6998 10.064 16.6998 9.86727 16.5031C9.67055 16.3063 9.67055 15.999 9.86727 15.8022L11.4165 14.253C11.6132 14.0563 11.9206 14.0563 12.1173 14.253L13.6665 15.8022C13.8633 15.999 13.8633 16.3063 13.6665 16.5031C13.5805 16.6014 13.4575 16.6506 13.3223 16.6506Z" fill="white"/>
<path d="M16.2965 11.4123C16.2596 11.4123 16.2105 11.4123 16.1736 11.4L14.0465 10.859C13.7883 10.7975 13.6284 10.527 13.6899 10.2688L14.2186 8.14171C14.2801 7.88351 14.5506 7.72365 14.8211 7.78513C15.0793 7.84661 15.2391 8.11712 15.1777 8.38762L14.7596 10.0352L16.4072 10.4532C16.6654 10.5147 16.8252 10.7852 16.7638 11.0557C16.7146 11.2524 16.5178 11.4123 16.2965 11.4123Z" fill="white"/>
<path d="M8.84734 15.863C8.81045 15.863 8.77357 15.863 8.72439 15.8507C8.46618 15.7893 8.30634 15.5188 8.36782 15.2483L8.78586 13.6007L7.13828 13.1827C6.88008 13.1212 6.72024 12.8507 6.78171 12.5802C6.84319 12.322 7.11369 12.1621 7.38419 12.2236L9.51129 12.7646C9.76949 12.8261 9.92934 13.0966 9.86786 13.3548L9.33915 15.4819C9.26538 15.7155 9.06866 15.863 8.84734 15.863Z" fill="white"/>
<path d="M14.6981 15.876C14.4768 15.876 14.2801 15.7285 14.2186 15.5072L13.6899 13.3801C13.6284 13.1219 13.7883 12.8514 14.0465 12.7899L16.1736 12.2612C16.4318 12.1997 16.7023 12.3596 16.776 12.6178C16.8375 12.876 16.6777 13.1465 16.4195 13.2202L14.7719 13.6383L15.1777 15.2858C15.2391 15.5441 15.0793 15.8146 14.8211 15.876C14.7719 15.8637 14.735 15.876 14.6981 15.876Z" fill="white"/>
<path d="M7.24854 11.4005C7.02722 11.4005 6.83049 11.253 6.76902 11.0317C6.70754 10.7735 6.86738 10.503 7.12559 10.4292L8.77317 10.0112L8.36741 8.3636C8.30594 8.10539 8.46578 7.83489 8.72398 7.77341C8.98219 7.71194 9.25269 7.87176 9.31417 8.12997L9.84286 10.2571C9.90434 10.5153 9.74449 10.7858 9.48629 10.8473L7.3592 11.376C7.33461 11.4006 7.28543 11.4005 7.24854 11.4005Z" fill="white"/>
<path d="M19.2968 11.4741C19.1862 11.4741 19.0755 11.4373 18.9895 11.3512C18.8173 11.1791 18.8173 10.9086 18.9895 10.7364L20.2682 9.45771C20.4403 9.28558 20.7108 9.28558 20.8706 9.45771C21.0428 9.62985 21.0428 9.90035 20.8706 10.0725L19.5919 11.3512C19.5182 11.425 19.4075 11.4741 19.2968 11.4741Z" fill="white"/>
<path d="M20.5755 11.4741C20.4649 11.4741 20.3542 11.4373 20.2682 11.3512L18.9895 10.0725C18.8173 9.90035 18.8173 9.62985 18.9895 9.45771C19.1616 9.28558 19.4321 9.28558 19.5919 9.45771L20.8706 10.7364C21.0428 10.9086 21.0428 11.1791 20.8706 11.3512C20.7969 11.425 20.6862 11.4741 20.5755 11.4741Z" fill="white"/>
<path d="M3.43649 15.04C3.32583 15.04 3.21517 15.0031 3.1291 14.917C2.95697 14.7449 2.95697 14.4744 3.1291 14.3145L4.40782 13.0358C4.57996 12.8637 4.85046 12.8637 5.0103 13.0358C5.18243 13.208 5.18243 13.4785 5.0103 13.6383L3.73158 14.917C3.65781 14.9908 3.54714 15.04 3.43649 15.04Z" fill="white"/>
<path d="M4.71521 15.0401C4.60455 15.0401 4.49389 15.0032 4.40782 14.9171L3.1291 13.6384C2.95697 13.4663 2.95697 13.1958 3.1291 13.0236C3.30124 12.8515 3.57174 12.8515 3.73158 13.0236L5.0103 14.3023C5.18243 14.4745 5.18243 14.745 5.0103 14.9171C4.93653 14.9909 4.82586 15.0401 4.71521 15.0401Z" fill="white"/>
<path d="M8.59957 5.57268C8.48891 5.57268 8.37825 5.53579 8.29219 5.44972C8.12005 5.27759 8.12005 5.0071 8.29219 4.84726L9.57091 3.56855C9.74304 3.39642 10.0135 3.39642 10.1734 3.56855C10.3455 3.74069 10.3455 4.01118 10.1734 4.17102L8.89466 5.44972C8.82089 5.52349 8.71023 5.57268 8.59957 5.57268Z" fill="white"/>
<path d="M9.87829 5.57229C9.76763 5.57229 9.65698 5.5354 9.57091 5.44933L8.29219 4.17063C8.12005 3.99849 8.12005 3.72799 8.29219 3.55586C8.46432 3.38372 8.73482 3.38372 8.89466 3.55586L10.1734 4.83457C10.3455 5.0067 10.3455 5.2772 10.1734 5.44933C10.0996 5.52311 9.98895 5.57229 9.87829 5.57229Z" fill="white"/>
<path d="M13.2744 20.5732C13.1637 20.5732 13.0531 20.5363 12.967 20.4502C12.7949 20.2781 12.7949 20.0076 12.967 19.8477L14.2457 18.569C14.4178 18.3969 14.6883 18.3969 14.8482 18.569C15.0203 18.7412 15.0203 19.0117 14.8482 19.1715L13.5695 20.4502C13.4957 20.524 13.385 20.5732 13.2744 20.5732Z" fill="white"/>
<path d="M14.5531 20.5723C14.4424 20.5723 14.3318 20.5354 14.2457 20.4493L12.967 19.1706C12.7949 18.9985 12.7949 18.728 12.967 18.5559C13.1391 18.3837 13.4096 18.3837 13.5695 18.5559L14.8482 19.8346C15.0203 20.0067 15.0203 20.2772 14.8482 20.4493C14.7744 20.5231 14.6638 20.5723 14.5531 20.5723Z" fill="white"/>
<path d="M15.7926 5.9532C15.6573 5.9532 15.5344 5.90402 15.4483 5.80566C15.3623 5.71959 15.3008 5.58434 15.3008 5.46138C15.3008 5.33843 15.35 5.20318 15.4483 5.11711C15.4729 5.09252 15.4975 5.06793 15.5221 5.05563C15.5467 5.04334 15.5713 5.01876 15.6082 5.00646C15.6328 4.99417 15.6696 4.98188 15.7065 4.98188C15.768 4.96958 15.8295 4.96958 15.9033 4.98188C15.9401 4.98188 15.9647 4.99417 16.0016 5.00646C16.0262 5.01876 16.0631 5.03104 16.0877 5.05563C16.1123 5.06793 16.1369 5.09252 16.1615 5.11711C16.2475 5.20318 16.309 5.33843 16.309 5.46138C16.309 5.59663 16.2598 5.71959 16.1615 5.80566C16.0508 5.90402 15.9155 5.9532 15.7926 5.9532Z" fill="white"/>
<path d="M18.5842 16.011C18.5473 16.011 18.5227 16.011 18.4858 15.9987C18.4489 15.9864 18.4243 15.9864 18.3875 15.9741C18.3506 15.9618 18.326 15.9495 18.3014 15.9249C18.2768 15.9126 18.2522 15.888 18.2276 15.8634C18.1293 15.7651 18.0801 15.6421 18.0801 15.5192C18.0801 15.3839 18.1293 15.2609 18.2276 15.1749C18.3137 15.0888 18.4489 15.0273 18.5719 15.0273C18.6948 15.0273 18.8301 15.0765 18.9162 15.1749C19.0022 15.2609 19.0637 15.3962 19.0637 15.5192C19.0637 15.6421 19.0145 15.7774 18.9162 15.8634C18.8424 15.9495 18.7194 16.011 18.5842 16.011Z" fill="white"/>
<path d="M8.90743 19.9698C8.87054 19.9698 8.84594 19.9698 8.80906 19.9575C8.77217 19.9575 8.74759 19.9452 8.7107 19.9329C8.67382 19.9206 8.64922 19.9083 8.62463 19.8837C8.60004 19.8714 8.57545 19.8469 8.55086 19.8223C8.46479 19.7239 8.40332 19.6009 8.40332 19.478C8.40332 19.355 8.4525 19.2198 8.55086 19.1337C8.57545 19.1091 8.60004 19.0845 8.62463 19.0722C8.64922 19.0599 8.67382 19.0354 8.7107 19.0231C8.7353 19.0108 8.77217 18.9985 8.80906 18.9985C8.87054 18.9862 8.94432 18.9862 9.0058 18.9985C9.04268 18.9985 9.06726 19.0108 9.10415 19.0231C9.12874 19.0354 9.16564 19.0476 9.19023 19.0722C9.21482 19.0845 9.23941 19.1091 9.264 19.1337C9.28859 19.1583 9.31318 19.1829 9.32547 19.2075C9.35006 19.2321 9.36236 19.2567 9.37466 19.2936C9.38695 19.3181 9.39924 19.355 9.39924 19.3919C9.41154 19.4165 9.41153 19.4534 9.41153 19.4903C9.41153 19.6255 9.36236 19.7485 9.264 19.8345C9.23941 19.8591 9.21482 19.8837 9.19023 19.896C9.16564 19.9206 9.14104 19.9329 9.10415 19.9452C9.06726 19.9575 9.04268 19.9698 9.0058 19.9698C8.96891 19.9698 8.94431 19.9698 8.90743 19.9698Z" fill="white"/>
<path d="M4.77657 7.97001C4.73968 7.97001 4.71509 7.97003 4.6782 7.95773C4.65361 7.95773 4.61673 7.94544 4.57985 7.93315C4.54296 7.92085 4.51836 7.90854 4.49377 7.88395C4.46918 7.87165 4.44459 7.84706 4.42 7.82247C4.39541 7.79788 4.37082 7.77331 4.35852 7.74872C4.33393 7.72413 4.32163 7.68722 4.30934 7.66263C4.29704 7.63804 4.28475 7.60117 4.28475 7.56429C4.27246 7.5274 4.27246 7.50281 4.27246 7.46592C4.27246 7.42903 4.27246 7.40444 4.28475 7.36755C4.29705 7.33066 4.29704 7.30607 4.30934 7.26918C4.32163 7.24459 4.33393 7.20771 4.35852 7.18312C4.37082 7.15853 4.39541 7.13393 4.42 7.10934C4.44459 7.08474 4.46918 7.06015 4.49377 7.04786C4.51836 7.02327 4.54296 7.01098 4.57985 6.99869C4.61673 6.98639 4.64131 6.9741 4.6782 6.9741C4.83804 6.93722 5.01017 6.99868 5.12083 7.10934C5.14542 7.13393 5.17001 7.15853 5.18231 7.18312C5.1946 7.20771 5.2192 7.24459 5.23149 7.26918C5.24379 7.29377 5.25609 7.33066 5.25609 7.36755C5.26839 7.40444 5.26838 7.42903 5.26838 7.46592C5.26838 7.50281 5.26839 7.5274 5.25609 7.56429C5.24379 7.60117 5.24379 7.62574 5.23149 7.66263C5.2192 7.68722 5.2069 7.72413 5.18231 7.74872C5.17001 7.77331 5.14542 7.79788 5.12083 7.82247C5.03476 7.90854 4.89952 7.97001 4.77657 7.97001Z" fill="white"/>
</svg>
