<svg width="24" height="24" viewBox="0 0 24 24" fill="none" xmlns="http://www.w3.org/2000/svg">
<path d="M2.51252 6.21842C2.37265 6.21842 2.24549 6.16754 2.15648 6.06582C2.06748 5.96409 2.00391 5.83697 2.00391 5.70981C2.00391 5.67167 2.0039 5.64623 2.01662 5.60809C2.02933 5.56994 2.02934 5.5445 2.04206 5.50636C2.05477 5.48093 2.06748 5.44279 2.09291 5.41736C2.10562 5.39193 2.13105 5.36648 2.15648 5.34105C2.25821 5.25205 2.38536 5.18848 2.51252 5.18848C2.63967 5.18848 2.77954 5.23933 2.86855 5.34105C2.89398 5.36648 2.91941 5.39193 2.93213 5.41736C2.95756 5.44279 2.97026 5.48093 2.98297 5.50636C2.99569 5.53179 3.00841 5.56994 3.00841 5.60809C3.02113 5.64623 3.02113 5.67167 3.02113 5.70981C3.02113 5.83697 2.97027 5.97681 2.86855 6.06582C2.77954 6.16754 2.65238 6.21842 2.51252 6.21842Z" fill="black"/>
<path d="M4.87775 6.63768C4.73788 6.63768 4.61074 6.58683 4.52173 6.48511C4.43273 6.3961 4.36914 6.25623 4.36914 6.12907C4.36914 6.09093 4.36914 6.06552 4.38185 6.02738C4.39457 5.98923 4.39458 5.96379 4.40729 5.92565C4.42001 5.90022 4.43273 5.86208 4.45816 5.83665C4.47087 5.81122 4.4963 5.78577 4.52173 5.76034C4.63617 5.64591 4.81418 5.58232 4.97948 5.62046C5.00491 5.62046 5.04305 5.6332 5.08119 5.64592C5.10662 5.65863 5.14478 5.67134 5.17021 5.69677C5.19564 5.70948 5.22107 5.73491 5.2465 5.76034C5.27193 5.78577 5.29736 5.81122 5.31007 5.83665C5.3355 5.86208 5.34822 5.90022 5.36094 5.92565C5.37365 5.95108 5.38636 5.98923 5.38636 6.02738C5.39908 6.06552 5.39907 6.09093 5.39907 6.12907C5.39907 6.26894 5.34822 6.3961 5.2465 6.48511C5.22107 6.51054 5.19564 6.52325 5.17021 6.54868C5.14478 6.5614 5.10662 6.58685 5.08119 6.59956C5.05576 6.61228 5.01762 6.62499 4.97948 6.62499C4.94133 6.6377 4.90318 6.63768 4.87775 6.63768Z" fill="black"/>
<path d="M6.20003 3.9042C6.16189 3.9042 6.13645 3.90422 6.0983 3.8915C6.07287 3.87879 6.03474 3.87879 5.99659 3.86608C5.97116 3.85336 5.93301 3.84063 5.90758 3.8152C5.88215 3.80248 5.85672 3.77705 5.83129 3.75162C5.80586 3.72619 5.78043 3.70078 5.76771 3.67535C5.755 3.64992 5.72956 3.62446 5.71685 3.58632C5.70413 3.56089 5.69142 3.52277 5.69142 3.48462C5.69142 3.44647 5.67871 3.42104 5.67871 3.38289C5.67871 3.34475 5.67871 3.31931 5.69142 3.28116C5.70414 3.24302 5.70413 3.21758 5.71685 3.17944C5.72956 3.15401 5.74228 3.11587 5.76771 3.09044C5.78043 3.06501 5.80586 3.03956 5.83129 3.01413C5.85672 2.9887 5.88215 2.96327 5.90758 2.95056C5.93301 2.93784 5.95845 2.91242 5.99659 2.89971C6.02202 2.88699 6.06016 2.87428 6.0983 2.87428C6.16188 2.86157 6.23819 2.86157 6.30176 2.87428C6.33991 2.887 6.36533 2.88699 6.40347 2.89971C6.4289 2.91242 6.46706 2.92512 6.49249 2.95056C6.51792 2.96327 6.54335 2.9887 6.56878 3.01413C6.59421 3.03956 6.61964 3.06501 6.63235 3.09044C6.64507 3.11587 6.6705 3.15401 6.68322 3.17944C6.69593 3.20487 6.70864 3.24302 6.70864 3.28116C6.72136 3.31931 6.72136 3.34475 6.72136 3.38289C6.72136 3.42104 6.72136 3.44647 6.70864 3.48462C6.69593 3.52277 6.69593 3.54817 6.68322 3.58632C6.6705 3.61175 6.65779 3.64992 6.63235 3.67535C6.61964 3.70078 6.59421 3.72619 6.56878 3.75162C6.54335 3.77705 6.51792 3.80248 6.49249 3.8152C6.46706 3.82791 6.44162 3.85336 6.40347 3.86608C6.37804 3.87879 6.33991 3.8915 6.30176 3.8915C6.26362 3.90422 6.23818 3.9042 6.20003 3.9042Z" fill="black"/>
<path d="M16.5247 16.8993C16.4611 16.8993 16.3975 16.8993 16.3339 16.8993C16.0542 16.8866 15.838 16.645 15.8508 16.3652C15.8635 16.0855 16.1051 15.8694 16.3848 15.8821C17.2367 15.9202 18.0632 15.6278 18.6862 15.0429C19.322 14.4707 19.6908 13.6823 19.7289 12.8177C19.8052 11.0503 18.432 9.54988 16.6772 9.47358C16.3848 9.46087 16.0796 9.48629 15.7999 9.56259C15.6473 9.60073 15.4947 9.56261 15.3676 9.46089C15.2404 9.35917 15.1768 9.21929 15.1768 9.0667C15.1768 6.99412 13.5493 5.29029 11.4767 5.20128C9.34055 5.11227 7.53497 6.76524 7.43325 8.9014L7.42054 9.20658L6.40332 9.16843L6.41603 8.86325C6.47961 7.55358 7.03908 6.35835 8.00544 5.46828C8.9718 4.59093 10.2179 4.13318 11.5276 4.19676C13.9435 4.29848 15.8889 6.1422 16.1686 8.49452C16.3594 8.4818 16.5501 8.46907 16.7408 8.48179C17.8725 8.53265 18.9024 9.01584 19.6653 9.85504C20.4282 10.6815 20.8224 11.7623 20.7716 12.894C20.7207 14.0257 20.2375 15.0556 19.3983 15.8185C18.5845 16.5051 17.5927 16.8993 16.5247 16.8993Z" fill="black"/>
<path d="M6.06026 17.0391C6.04755 17.0391 6.04754 17.0391 6.03482 17.0391C3.70793 16.9374 1.90237 14.9665 2.0041 12.6396C2.05496 11.508 2.53814 10.478 3.37735 9.71512C4.20384 8.9522 5.28462 8.558 6.41628 8.60887C7.86582 8.67244 9.16278 9.4608 9.88755 10.7196C10.0274 10.9612 9.93841 11.2791 9.69682 11.4189C9.45523 11.5588 9.13735 11.4698 8.99748 11.2282C8.45073 10.2746 7.45894 9.67695 6.36543 9.62609C5.51351 9.58794 4.68701 9.8804 4.06396 10.4653C3.4282 11.0375 3.05946 11.8258 3.02132 12.6905C2.94502 14.4579 4.31827 15.9583 6.07298 16.0346C6.35271 16.0473 6.56888 16.2889 6.55616 16.5686C6.55616 16.8229 6.32728 17.0391 6.06026 17.0391Z" fill="black"/>
<path d="M19.5513 11.0501C19.3605 11.0501 19.1698 10.9356 19.0935 10.7576C18.9791 10.5033 19.0935 10.1981 19.3478 10.0837C20.0217 9.77854 20.5303 9.19363 20.8228 8.43072C20.2633 8.36714 19.7165 8.15098 19.2588 7.82038C17.9873 6.89217 17.5677 5.21375 18.1653 3.81508C16.6649 3.59892 15.1518 4.42542 14.5542 5.86224C14.4524 6.11655 14.1473 6.2437 13.893 6.14197C13.6387 6.04025 13.5115 5.73509 13.6132 5.48079C14.5033 3.34463 16.9065 2.25111 19.0935 3.00131C19.2461 3.05218 19.3605 3.17931 19.4114 3.33189C19.4623 3.48447 19.4368 3.64979 19.3351 3.78965C18.5849 4.81959 18.8138 6.25642 19.8437 7.00662C20.3015 7.33721 20.8609 7.48978 21.4331 7.43892C21.5984 7.42621 21.751 7.47708 21.8654 7.60423C21.9799 7.71867 22.018 7.88396 21.9926 8.04926C21.7128 9.42251 20.9118 10.516 19.7801 11.0373C19.6911 11.0373 19.6148 11.0501 19.5513 11.0501Z" fill="black"/>
<path d="M16.5127 21.2347C16.4746 21.2347 16.4237 21.2347 16.3856 21.222C16.3474 21.2093 16.3093 21.1965 16.2711 21.1838C16.233 21.1711 16.1949 21.1457 16.1567 21.1202C16.1186 21.0948 16.0931 21.0694 16.055 21.0439C16.0296 21.0185 16.0041 20.9804 15.9787 20.9422C15.9533 20.9041 15.9406 20.8659 15.9151 20.8278C15.9024 20.7896 15.8897 20.7515 15.877 20.7134C15.8643 20.6752 15.8643 20.6371 15.8643 20.5862C15.8643 20.4209 15.9278 20.2556 16.055 20.1412C16.0804 20.1158 16.1186 20.0903 16.1567 20.0649C16.1949 20.0394 16.233 20.0267 16.2711 20.0013C16.3093 19.9886 16.3474 19.9759 16.3856 19.9631C16.4746 19.9504 16.5509 19.9504 16.6399 19.9631C16.678 19.9759 16.7162 19.9886 16.7543 20.0013C16.7925 20.014 16.8306 20.0394 16.8688 20.0649C16.9069 20.0903 16.9323 20.1158 16.9705 20.1412C17.0849 20.2556 17.1612 20.4209 17.1612 20.5862C17.1612 20.6244 17.1612 20.6625 17.1485 20.7134C17.1358 20.7515 17.1231 20.7896 17.1104 20.8278C17.0976 20.8659 17.0722 20.9041 17.0468 20.9422C17.0214 20.9804 16.9959 21.0058 16.9705 21.0439C16.945 21.0821 16.9069 21.0948 16.8688 21.1202C16.8306 21.1457 16.7925 21.1584 16.7543 21.1838C16.7162 21.1965 16.678 21.2093 16.6399 21.222C16.6017 21.2347 16.5509 21.2347 16.5127 21.2347Z" fill="black"/>
<path d="M6.32717 21.2349C6.16187 21.2349 5.99657 21.1713 5.88214 21.0442C5.8567 21.0187 5.83128 20.9806 5.80585 20.9424C5.78042 20.9043 5.7677 20.8662 5.74227 20.828C5.72956 20.7899 5.71683 20.7517 5.70412 20.7136C5.6914 20.6755 5.69141 20.6373 5.69141 20.5864C5.69141 20.4211 5.75498 20.2558 5.88214 20.1414C5.99657 20.027 6.16187 19.9507 6.32717 19.9507C6.49247 19.9507 6.65777 20.0143 6.7722 20.1414C6.88664 20.2558 6.96293 20.4211 6.96293 20.5864C6.96293 20.6246 6.96293 20.6627 6.95022 20.7136C6.9375 20.7517 6.92478 20.7899 6.91207 20.828C6.89935 20.8662 6.87392 20.9043 6.84849 20.9424C6.82306 20.9806 6.79763 21.006 6.7722 21.0442C6.65777 21.1713 6.49247 21.2349 6.32717 21.2349Z" fill="black"/>
<path d="M11.4258 16.4538C11.2605 16.4538 11.0952 16.3902 10.9808 16.263C10.9553 16.2376 10.9299 16.1994 10.9045 16.1613C10.879 16.1232 10.8663 16.085 10.8409 16.0468C10.8282 16.0087 10.8155 15.9706 10.8028 15.9324C10.79 15.8943 10.79 15.8434 10.79 15.8053C10.79 15.7671 10.79 15.7163 10.8028 15.6781C10.8155 15.64 10.8282 15.6018 10.8409 15.5637C10.8536 15.5255 10.879 15.4874 10.9045 15.4492C10.9299 15.4111 10.9553 15.3857 10.9808 15.3475C11.1334 15.1949 11.3495 15.1314 11.553 15.1695C11.5911 15.1822 11.6292 15.1949 11.6674 15.2077C11.7055 15.2204 11.7437 15.2458 11.7818 15.2712C11.82 15.2967 11.8454 15.3221 11.8835 15.3475C11.909 15.3729 11.9344 15.4111 11.9599 15.4492C11.9853 15.4874 11.998 15.5255 12.0234 15.5637C12.0361 15.6018 12.0488 15.64 12.0616 15.6781C12.0743 15.7163 12.0743 15.7671 12.0743 15.8053C12.0743 15.8434 12.0743 15.8943 12.0616 15.9324C12.0488 15.9706 12.0361 16.0087 12.0234 16.0468C12.0107 16.085 11.9853 16.1232 11.9599 16.1613C11.9344 16.1994 11.909 16.2249 11.8835 16.263C11.8581 16.3012 11.82 16.3139 11.7818 16.3393C11.7437 16.3647 11.7055 16.3774 11.6674 16.4029C11.6292 16.4156 11.5911 16.4283 11.553 16.441C11.5021 16.441 11.4639 16.4538 11.4258 16.4538Z" fill="black"/>
<path d="M11.4258 21.235C11.2605 21.235 11.0952 21.1714 10.9808 21.0442C10.9553 21.0188 10.9299 20.9807 10.9045 20.9425C10.879 20.9044 10.8663 20.8662 10.8409 20.8281C10.8282 20.7899 10.8155 20.7518 10.8028 20.7137C10.79 20.6755 10.79 20.6374 10.79 20.5865C10.79 20.4212 10.8536 20.2559 10.9808 20.1415C11.1334 19.9889 11.3495 19.9253 11.553 19.9634C11.5911 19.9762 11.6292 19.9889 11.6674 20.0016C11.7055 20.0143 11.7437 20.0397 11.7818 20.0652C11.82 20.0906 11.8454 20.1161 11.8835 20.1415C11.998 20.2559 12.0743 20.4212 12.0743 20.5865C12.0743 20.6247 12.0743 20.6628 12.0616 20.7137C12.0488 20.7518 12.0361 20.7899 12.0234 20.8281C12.0107 20.8662 11.9853 20.9044 11.9599 20.9425C11.9344 20.9807 11.909 21.0061 11.8835 21.0442C11.8581 21.0824 11.82 21.0951 11.7818 21.1205C11.7437 21.146 11.7055 21.1587 11.6674 21.1841C11.6292 21.1968 11.5911 21.2096 11.553 21.2223C11.5021 21.235 11.4639 21.235 11.4258 21.235Z" fill="black"/>
<path d="M13.9698 18.7555C13.9316 18.7555 13.8935 18.7555 13.8426 18.7428C13.8045 18.7301 13.7663 18.7173 13.7282 18.7046C13.69 18.6919 13.6519 18.6665 13.6137 18.6411C13.5756 18.6156 13.5502 18.5902 13.512 18.5648C13.3976 18.4503 13.3213 18.285 13.3213 18.1197C13.3213 18.0816 13.3213 18.0307 13.334 17.9926C13.3467 17.9544 13.3594 17.9163 13.3722 17.8781C13.3849 17.84 13.4103 17.8018 13.4357 17.7637C13.4612 17.7255 13.4866 17.7001 13.512 17.662C13.5374 17.6366 13.5756 17.6111 13.6137 17.5857C13.6519 17.5603 13.69 17.5475 13.7282 17.5221C13.7663 17.5094 13.8045 17.4967 13.8426 17.484C14.0461 17.4458 14.2749 17.5094 14.4148 17.662C14.5292 17.7764 14.6055 17.9417 14.6055 18.107C14.6055 18.2723 14.5419 18.4376 14.4148 18.5521C14.3004 18.6919 14.1351 18.7555 13.9698 18.7555Z" fill="black"/>
<path d="M8.87014 18.7555C8.70484 18.7555 8.53954 18.6919 8.4251 18.5648C8.31067 18.4376 8.23438 18.285 8.23438 18.1197C8.23438 18.0816 8.23437 18.0307 8.24709 17.9926C8.2598 17.9544 8.27252 17.9163 8.28524 17.8781C8.29795 17.84 8.32338 17.8018 8.34882 17.7637C8.37425 17.7255 8.39967 17.7001 8.4251 17.662C8.57769 17.5094 8.79385 17.4458 8.99729 17.484C9.03544 17.4967 9.07358 17.5094 9.11173 17.5221C9.14988 17.5348 9.18802 17.5603 9.22617 17.5857C9.26432 17.6111 9.28974 17.6366 9.32788 17.662C9.35331 17.6874 9.37874 17.7255 9.40417 17.7637C9.4296 17.8018 9.44232 17.84 9.46775 17.8781C9.48046 17.9163 9.49318 17.9544 9.5059 17.9926C9.51862 18.0307 9.51861 18.0816 9.51861 18.1197C9.51861 18.285 9.45504 18.4503 9.32788 18.5648C9.30245 18.5902 9.26432 18.6156 9.22617 18.6411C9.18802 18.6665 9.14988 18.6792 9.11173 18.7046C9.07358 18.7173 9.03544 18.7301 8.99729 18.7428C8.95914 18.7555 8.90828 18.7555 8.87014 18.7555Z" fill="black"/>
</svg>
