<svg width="84" height="84" viewBox="0 0 84 84" fill="none" xmlns="http://www.w3.org/2000/svg">
<path d="M42 74C59.6731 74 74 59.6731 74 42C74 24.3269 59.6731 10 42 10C24.3269 10 10 24.3269 10 42C10 59.6731 24.3269 74 42 74Z" fill="#D7691A"/>
<path d="M42.2496 67.6501C56.2776 67.6501 67.6496 56.2781 67.6496 42.2501C67.6496 28.2221 56.2776 16.8501 42.2496 16.8501C28.2216 16.8501 16.8496 28.2221 16.8496 42.2501C16.8496 56.2781 28.2216 67.6501 42.2496 67.6501Z" fill="#C54D1D"/>
<path d="M42.5 59.5C51.8888 59.5 59.5 51.8888 59.5 42.5C59.5 33.1112 51.8888 25.5 42.5 25.5C33.1112 25.5 25.5 33.1112 25.5 42.5C25.5 51.8888 33.1112 59.5 42.5 59.5Z" fill="#9B3B34"/>
</svg>
