<svg width="20" height="20" viewBox="0 0 20 20" fill="none" xmlns="http://www.w3.org/2000/svg">
<path d="M7.93736 3.81292L5.875 1.75049L3.81257 3.81285L5.87493 5.87528L7.93736 3.81292Z" fill="#3DD9EB"/>
<path d="M9.99986 5.87542L7.9375 3.81299L5.87507 5.87535L7.93743 7.93778L9.99986 5.87542Z" fill="#00B3D7"/>
<path d="M3.81264 7.93708L5.875 9.99951L7.93743 7.93715L5.87507 5.87472L3.81264 7.93708Z" fill="#3DD9EB"/>
<path d="M1.75014 5.87458L3.8125 7.93701L5.87493 5.87465L3.81257 3.81222L1.75014 5.87458Z" fill="#00B3D7"/>
<path d="M14.1251 14.1256L16.1875 16.188L18.2499 14.1256L16.1876 12.0632L14.1251 14.1256Z" fill="#3DD9EB"/>
<path d="M12.0626 12.0626L14.125 14.125L16.1874 12.0626L14.1251 10.0002L12.0626 12.0626Z" fill="#00B3D7"/>
<path d="M14.1249 14.1249L12.0625 12.0625L10.0001 14.1249L12.0624 16.1873L14.1249 14.1249Z" fill="#3DD9EB"/>
<path d="M16.1874 16.1869L14.125 14.1245L12.0626 16.1869L14.1249 18.2493L16.1874 16.1869Z" fill="#00B3D7"/>
<path d="M15.3034 8.82115L11.1787 4.69629L4.99142 10.8834L9.11614 15.0082L15.3034 8.82115Z" fill="#6C19FF"/>
<path d="M10.5892 6.46427L10 5.875L5.87514 9.99972L6.46438 10.589L10.5892 6.46427Z" fill="#2100C4"/>
<path d="M14.1244 9.99991L13.5352 9.41064L9.41029 13.5354L9.99954 14.1246L14.1244 9.99991Z" fill="#2100C4"/>
<path d="M7.6425 18.2495C8.72708 16.6524 8.52167 14.4149 7.05333 12.9462C5.585 11.4778 3.34708 11.272 1.75 12.357L2.91625 13.5233V15.9449C2.85458 15.9808 2.79625 16.0245 2.74375 16.0774C2.41833 16.4028 2.41833 16.9303 2.74375 17.2558C3.06917 17.5812 3.59667 17.5812 3.92208 17.2558C3.975 17.2033 4.01917 17.1449 4.05458 17.0833H6.47625L7.6425 18.2495ZM4.05458 16.2499C4.01875 16.1883 3.975 16.1299 3.92208 16.0774C3.86917 16.0249 3.81125 15.9803 3.74958 15.9449V14.3566L5.64292 16.2499H4.05458Z" fill="#6C19FF"/>
</svg>
