<svg width="24" height="24" viewBox="0 0 24 24" fill="none" xmlns="http://www.w3.org/2000/svg">
<path d="M20.6714 15.3937C20.5611 15.3937 20.437 15.3523 20.3405 15.2834C20.0923 15.1042 20.051 14.7595 20.2302 14.5113C20.63 13.9598 20.8644 13.3118 20.892 12.6363C20.9747 10.7612 19.5133 9.16192 17.6382 9.0792C17.3211 9.06541 17.004 9.093 16.7007 9.16193C16.5352 9.20329 16.3698 9.16193 16.2319 9.05163C16.0941 8.94133 16.0251 8.78966 16.0251 8.62422C16.0251 6.41828 14.3017 4.59839 12.082 4.50188C10.979 4.44673 9.93122 4.83278 9.11778 5.57728C8.30434 6.32179 7.83558 7.32824 7.78043 8.43121L7.76663 8.76209C7.75285 9.0654 7.4909 9.29979 7.18758 9.286C6.88426 9.27222 6.64988 9.01027 6.66366 8.70695L6.67746 8.37604C6.7464 6.98354 7.33925 5.68758 8.37329 4.75006C9.40732 3.81253 10.7447 3.32996 12.1372 3.38511C14.7154 3.49541 16.7834 5.46696 17.0867 7.96243C17.2798 7.94864 17.4865 7.93487 17.6934 7.94866C20.175 8.05896 22.1053 10.1684 21.995 12.65C21.9536 13.5462 21.6503 14.4148 21.1126 15.1317C21.0023 15.311 20.8368 15.3937 20.6714 15.3937Z" fill="white"/>
<path d="M4.80349 16.7729C4.72077 16.7729 4.63806 16.7591 4.56912 16.7178C2.92845 15.9319 1.92201 14.2637 2.00474 12.4438C2.11503 9.96209 4.22444 8.0319 6.70612 8.1422C8.26407 8.21113 9.69792 9.1073 10.4562 10.4584C10.6079 10.7204 10.5114 11.0651 10.2356 11.2029C9.97368 11.3546 9.62898 11.2581 9.49111 10.9824C8.92584 9.94832 7.83666 9.27276 6.66475 9.2314C4.78971 9.14868 3.19043 10.6101 3.10771 12.4851C3.05256 13.8501 3.81083 15.1185 5.05167 15.7113C5.32741 15.8354 5.43773 16.1663 5.31364 16.442C5.20335 16.6488 5.0103 16.7729 4.80349 16.7729Z" fill="white"/>
<path d="M16.3972 19.9716C16.2593 19.9716 16.1214 19.9165 16.0111 19.8062C15.7906 19.5856 15.7906 19.2409 16.0111 19.0203L18.6031 16.4008C18.8237 16.1802 19.1684 16.1802 19.389 16.4008C19.6096 16.6214 19.6096 16.9661 19.389 17.1867L16.797 19.8062C16.6867 19.9165 16.5351 19.9716 16.3972 19.9716Z" fill="white"/>
<path d="M15.1861 16.7865C15.0482 16.7865 14.9103 16.7313 14.8 16.6348C14.5794 16.428 14.5794 16.0696 14.7862 15.849L16.7164 13.8498C16.9232 13.6292 17.2817 13.6292 17.5023 13.836C17.7229 14.0428 17.7229 14.4013 17.5161 14.6219L15.5859 16.621C15.4756 16.7313 15.3377 16.7865 15.1861 16.7865Z" fill="white"/>
<path d="M11.4214 20.619C11.2835 20.619 11.1457 20.5639 11.0354 20.4674C10.8148 20.2606 10.8148 19.9021 11.0216 19.6815L12.9518 17.6823C13.1586 17.4617 13.517 17.4618 13.7376 17.6686C13.9582 17.8754 13.9582 18.2338 13.7514 18.4544L11.8212 20.4536C11.6972 20.5639 11.5593 20.619 11.4214 20.619Z" fill="white"/>
<path d="M11.4898 16.8143C11.3519 16.8143 11.214 16.7592 11.1037 16.6627C10.8831 16.4558 10.8831 16.0974 11.0899 15.8768L13.0201 13.8777C13.2269 13.6571 13.5854 13.6571 13.806 13.8639C14.0266 14.0707 14.0266 14.4291 13.8198 14.6497L11.8896 16.6489C11.7793 16.7592 11.6414 16.8143 11.4898 16.8143Z" fill="white"/>
<path d="M7.14761 20.4122C7.00974 20.4122 6.87189 20.357 6.76159 20.2468C6.541 20.0262 6.541 19.6815 6.76159 19.4609L8.34711 17.8616L6.41692 17.7375C6.21011 17.7237 6.01707 17.5858 5.94813 17.3928C5.86541 17.1998 5.90678 16.9654 6.05844 16.8138L8.49875 14.1666C8.70556 13.946 9.05023 13.9322 9.28461 14.1391C9.5052 14.3459 9.51902 14.6905 9.31221 14.9249L7.64396 16.731L9.62929 16.8689C9.84988 16.8827 10.0291 17.0206 10.1118 17.2274C10.1946 17.4342 10.1394 17.6548 9.98777 17.8064L7.54745 20.2743C7.42337 20.357 7.28548 20.4122 7.14761 20.4122Z" fill="white"/>
</svg>
