<svg width="84" height="84" viewBox="0 0 84 84" fill="none" xmlns="http://www.w3.org/2000/svg">
<g filter="url(#filter0_d_2581_9025)">
<path d="M31.8385 42C31.8425 35.4254 33.8725 29.0118 37.6522 23.6322C41.4319 18.2527 46.7776 14.1687 52.9616 11.9361C48.127 10.1734 42.9386 9.60249 37.8365 10.272C32.7343 10.9415 27.8689 12.8315 23.6528 15.7819C19.4366 18.7323 15.9943 22.6559 13.6175 27.22C11.2408 31.7841 9.99973 36.8541 9.99973 42C9.99973 47.1459 11.2408 52.2159 13.6175 56.78C15.9943 61.3441 19.4366 65.2677 23.6528 68.2181C27.8689 71.1684 32.7343 73.0585 37.8365 73.728C42.9386 74.3975 48.127 73.8267 52.9616 72.0639C46.7785 69.83 41.4336 65.7457 37.6542 60.3664C33.8747 54.9872 31.8441 48.5743 31.8385 42Z" fill="white"/>
<path d="M73.9995 41.9946C74.0005 48.3236 72.1249 54.5107 68.6096 59.7737C65.0943 65.0367 60.0973 69.1391 54.2505 71.5621C48.4037 73.9851 41.9696 74.6198 35.762 73.3862C29.5544 72.1525 23.8521 69.1058 19.3761 64.6313C14.9 60.1568 11.8513 54.4554 10.6155 48.2482C9.37976 42.0411 10.0124 35.6068 12.4334 29.7592C14.8544 23.9116 18.9551 18.9131 24.2169 15.396C29.4786 11.8789 35.6652 10.0011 41.9942 10C50.4806 10 58.6197 13.3705 64.6216 19.3704C70.6234 25.3702 73.9966 33.5081 73.9995 41.9946Z" fill="white" fill-opacity="0.1"/>
</g>
<defs>
<filter id="filter0_d_2581_9025" x="-0.000396729" y="0" width="83.9999" height="84" filterUnits="userSpaceOnUse" color-interpolation-filters="sRGB">
<feFlood flood-opacity="0" result="BackgroundImageFix"/>
<feColorMatrix in="SourceAlpha" type="matrix" values="0 0 0 0 0 0 0 0 0 0 0 0 0 0 0 0 0 0 127 0" result="hardAlpha"/>
<feOffset/>
<feGaussianBlur stdDeviation="5"/>
<feComposite in2="hardAlpha" operator="out"/>
<feColorMatrix type="matrix" values="0 0 0 0 1 0 0 0 0 1 0 0 0 0 1 0 0 0 0.4 0"/>
<feBlend mode="normal" in2="BackgroundImageFix" result="effect1_dropShadow_2581_9025"/>
<feBlend mode="normal" in="SourceGraphic" in2="effect1_dropShadow_2581_9025" result="shape"/>
</filter>
</defs>
</svg>
