<svg width="16" height="16" viewBox="0 0 16 16" fill="none" xmlns="http://www.w3.org/2000/svg">
<path fill-rule="evenodd" clip-rule="evenodd" d="M7 9.5L2.01888 9.5C1.81113 9.49958 1.60572 9.45604 1.41565 9.37214C1.22559 9.28824 1.055 9.1658 0.914699 9.01257C0.774392 8.85935 0.667417 8.67867 0.600539 8.48197C0.533799 8.28567 0.508442 8.07768 0.526062 7.8711L0.526171 7.86983L1.52248 7.95566L0.526062 7.8711C0.683809 5.99758 1.53945 4.25162 2.92351 2.97907C4.30776 1.70634 6.11959 1 8.00001 1C9.88043 1 11.6923 1.70634 13.0765 2.97907C14.4608 4.2518 15.3164 5.99806 15.474 7.87186C15.4915 8.07819 15.4661 8.28591 15.3995 8.48197C15.3326 8.67867 15.2256 8.85935 15.0853 9.01257C14.945 9.1658 14.7744 9.28824 14.5844 9.37214C14.3943 9.45604 14.1889 9.49958 13.9811 9.5L9 9.5V12.5C9 12.6326 9.05268 12.7598 9.14645 12.8536C9.24021 12.9473 9.36739 13 9.5 13C9.63261 13 9.75979 12.9473 9.85355 12.8536C9.94732 12.7598 10 12.6326 10 12.5C10 11.9477 10.4477 11.5 11 11.5C11.5523 11.5 12 11.9477 12 12.5C12 13.163 11.7366 13.7989 11.2678 14.2678C10.7989 14.7366 10.163 15 9.5 15C8.83696 15 8.20107 14.7366 7.73223 14.2678C7.26339 13.7989 7 13.163 7 12.5V9.5ZM4.27717 4.45134C5.29231 3.51799 6.62101 3 8.00001 3C9.37902 3 10.7077 3.51799 11.7228 4.45134C12.6038 5.26131 13.1928 6.33281 13.4087 7.5H8.00312C8.00208 7.5 8.00104 7.5 8 7.5C7.99896 7.5 7.99792 7.5 7.99688 7.5H2.59134C2.8072 6.33281 3.39623 5.26131 4.27717 4.45134Z" fill="white"/>
</svg>
