<svg width="18" height="18" viewBox="0 0 18 18" fill="none" xmlns="http://www.w3.org/2000/svg">
<g clip-path="url(#clip0_4189_13972)">
<path fill-rule="evenodd" clip-rule="evenodd" d="M7.63756 0.7482C5.34085 1.14377 3.51798 2.88281 2.83695 5.32816C2.68925 5.85849 2.67403 6.11072 2.64601 8.49584C2.62611 10.1901 2.64433 11.2987 2.69868 11.6979C3.06301 14.3761 4.88493 16.5115 7.35912 17.1603C8.12223 17.3605 9.37864 17.3398 10.1998 17.1138C11.9046 16.6443 13.3299 15.4121 14.1164 13.7277C14.6987 12.4808 14.7194 12.3312 14.7527 9.13208C14.7808 6.43655 14.7748 6.27254 14.6225 5.59392C14.2886 4.10647 13.6578 3.02984 12.5401 2.03963C12.0666 1.62016 11.076 1.08495 10.4219 0.895307C9.84458 0.727912 8.24586 0.64347 7.63756 0.7482ZM13.1261 7.83908C11.9636 7.52174 10.9964 6.95493 10.1726 6.10829C9.9162 5.84481 9.66776 5.62922 9.62042 5.62922C9.57316 5.62922 9.40432 5.77507 9.24527 5.95331C8.94745 6.28708 8.10109 6.98323 7.7116 7.21471C7.3589 7.4244 6.4167 7.8103 5.91074 7.9523C5.65433 8.02424 5.00008 8.10601 4.45688 8.13384L3.46925 8.18456L3.44899 9.30498C3.43436 10.11 3.45235 10.4254 3.51286 10.4254C3.55916 10.4254 3.84104 10.5846 4.13931 10.7792C4.4375 10.9738 4.6975 11.133 4.71696 11.133C4.73649 11.133 4.88281 11.2215 5.04214 11.3296C5.41561 11.5829 5.58256 11.5773 5.9095 11.3002C6.05611 11.176 6.35715 10.9902 6.57846 10.8874C6.96414 10.7083 7.05054 10.7007 8.66345 10.7035C10.2335 10.7062 10.3737 10.7182 10.7599 10.8833C10.9875 10.9806 11.2838 11.1645 11.4183 11.2919C11.5529 11.4194 11.7282 11.5242 11.808 11.5249C11.8878 11.5256 12.405 11.2873 12.9574 10.9954L13.9617 10.4647L13.9645 9.31457C13.9666 8.48279 13.9421 8.14438 13.8759 8.09162C13.8257 8.0516 13.4882 7.93791 13.1261 7.83908ZM5.54561 9.00085C5.30083 9.26402 5.26162 9.35443 5.26162 9.65612C5.26162 9.94075 5.30785 10.0636 5.50933 10.314C5.74234 10.6038 5.78118 10.622 6.16628 10.622C6.52732 10.622 6.60267 10.5929 6.80451 10.376C7.12487 10.0316 7.17996 9.51389 6.93678 9.13248C6.7288 8.80626 6.52381 8.69563 6.12744 8.69563C5.87907 8.69563 5.7825 8.74626 5.54561 9.00085ZM10.7203 8.8598C10.1789 9.31748 10.1882 10.0753 10.7403 10.4978C10.9763 10.6784 11.3975 10.7128 11.6495 10.572C11.9735 10.3909 12.0934 10.1763 12.1233 9.72397C12.148 9.3494 12.1272 9.25513 11.9807 9.07869C11.8864 8.96508 11.7373 8.83244 11.6495 8.78385C11.3891 8.64012 10.9364 8.67707 10.7203 8.8598ZM10.1186 11.3713C10.5944 11.4497 10.985 11.6928 11.123 11.9965C11.2744 12.3297 11.2979 13.8356 11.158 14.2296C10.9031 14.9467 10.4383 15.0903 8.49541 15.052C7.19649 15.0264 7.11046 15.015 6.79793 14.8284C6.37061 14.5733 6.21018 14.2199 6.15926 13.4214C6.10359 12.5489 6.17806 12.1243 6.44377 11.7991C6.70282 11.482 6.97204 11.3896 7.91358 11.2944C8.61751 11.2232 9.38149 11.2499 10.1186 11.3713ZM7.02947 12.2039C7.01491 12.1226 7.0474 12.0254 7.10168 11.988C7.15589 11.9506 7.9081 11.9286 8.77319 11.9393L10.3461 11.9586V12.1552V12.3517H8.70105C7.14909 12.3517 7.05449 12.3434 7.02947 12.2039ZM7.18201 13.375C7.00409 13.328 6.9531 13.0616 7.10885 12.9927C7.15918 12.9705 7.9081 12.9587 8.77319 12.9665L10.3461 12.9807V13.1773V13.3739L8.84634 13.3961C8.02149 13.4084 7.27258 13.3989 7.18201 13.375ZM8.84634 14.4183C7.17323 14.4431 7.0174 14.4243 7.0174 14.1979C7.0174 14.0472 7.07161 14.0422 8.70515 14.0422H10.3928L10.3695 14.2191C10.3462 14.3951 10.3388 14.3961 8.84634 14.4183ZM12.9109 14.0931C13.366 13.5273 13.7835 12.4214 13.9322 11.3886C13.9686 11.1353 13.9566 11.0554 13.8824 11.0586C13.7192 11.0655 12.1816 11.9185 12.0836 12.0565C11.9602 12.2303 11.9617 13.7764 12.0855 14.0395C12.1387 14.1523 12.2811 14.2656 12.4257 14.3101C12.6593 14.3822 12.6892 14.3688 12.9109 14.0931ZM5.70802 14.8669C6.67978 15.6318 6.90079 15.6933 8.67772 15.6933C10.3502 15.6933 10.8689 15.5576 11.5338 14.946C11.8246 14.6784 12.0774 14.607 12.2695 14.7381C12.4685 14.8737 11.2039 15.8025 10.4454 16.0779C10.2036 16.1656 9.74413 16.2804 9.42429 16.3331C8.0896 16.5526 6.21157 15.9643 5.23148 15.0194C5.06051 14.8546 5.03885 14.8003 5.12174 14.7438C5.29183 14.6282 5.4459 14.6605 5.70802 14.8669ZM5.28196 12.106C5.25064 12.0574 4.84374 11.8009 4.37765 11.536C3.91164 11.2711 3.51044 11.0544 3.48608 11.0544C3.43019 11.0544 3.48864 11.5065 3.6234 12.1159C3.74586 12.6696 4.29447 13.9228 4.53004 14.1868C4.66648 14.3396 4.73883 14.3616 4.95955 14.3173C5.10557 14.2881 5.2415 14.2467 5.26162 14.2254C5.32366 14.16 5.34246 12.2 5.28196 12.106Z" fill="#212224"/>
</g>
<defs>
<clipPath id="clip0_4189_13972">
<rect width="18" height="18" fill="white"/>
</clipPath>
</defs>
</svg>
