<svg width="25" height="25" viewBox="0 0 25 25" fill="none" xmlns="http://www.w3.org/2000/svg">
<path d="M21.1584 14.9071C19.6248 15.3333 18.0056 15.3445 16.4662 14.9396C14.9268 14.5348 13.5226 13.7284 12.3971 12.6029C11.2716 11.4774 10.4652 10.0731 10.0603 8.53378C9.65545 6.99442 9.66667 5.37516 10.0928 3.84155L10.0931 3.84163C8.58043 4.26243 7.20446 5.07222 6.10222 6.19033C4.99998 7.30844 4.20995 8.69585 3.81082 10.2143C3.41169 11.7328 3.4174 13.3294 3.82738 14.845C4.23736 16.3606 5.0373 17.7423 6.14751 18.8525C7.25772 19.9627 8.63945 20.7626 10.155 21.1726C11.6706 21.5826 13.2672 21.5883 14.7857 21.1891C16.3042 20.79 17.6916 19.9999 18.8097 18.8977C19.9278 17.7954 20.7376 16.4194 21.1583 14.9068L21.1584 14.9071Z" stroke="#212224" stroke-width="2" stroke-linecap="round" stroke-linejoin="round"/>
</svg>
