<svg width="33" height="33" viewBox="0 0 33 33" fill="none" xmlns="http://www.w3.org/2000/svg">
<path d="M11.929 27.0711C13.8043 28.9464 16.3479 30 19 30C21.6522 30 24.1957 28.9464 26.0711 27.0711C27.9465 25.1957 29 22.6522 29 20C29 11 19 4 19 4C19 4 14.8799 6.88406 11.929 11.3299" stroke="#9975FF" stroke-width="2" stroke-linecap="round" stroke-linejoin="round"/>
<path fill-rule="evenodd" clip-rule="evenodd" d="M4.0001 15.0082L3.44328 14.1776C2.98453 14.4851 2.86195 15.1063 3.16948 15.5651C3.47694 16.0237 4.09792 16.1463 4.55663 15.8391C4.55662 15.8391 4.55665 15.8391 4.55663 15.8391L4.56142 15.8359L4.58376 15.8212C4.60443 15.8077 4.63645 15.787 4.67882 15.7601C4.76363 15.7062 4.88951 15.628 5.04845 15.5338C5.36737 15.345 5.81415 15.0953 6.32557 14.8514C7.39729 14.3403 8.56858 13.9459 9.43071 14.0058C10.0733 14.0505 10.5079 14.3417 11.1654 14.8159C11.1816 14.8276 11.198 14.8394 11.2145 14.8514C11.8412 15.3039 12.6851 15.9133 13.926 16.0055C15.1841 16.099 16.6156 15.6461 17.6303 15.2448C18.1591 15.0357 18.6186 14.8223 18.9461 14.6612C19.1103 14.5804 19.2425 14.5123 19.3349 14.4635C19.3811 14.4392 19.4175 14.4196 19.4431 14.4058L19.4732 14.3893L19.4819 14.3845L19.4857 14.3824C19.4858 14.3823 19.4864 14.382 19.0002 13.5084L19.4857 14.3824C19.9683 14.1139 20.1425 13.5046 19.8739 13.022C19.6054 12.5395 18.9966 12.3659 18.5141 12.6343L18.5099 12.6366L18.4895 12.6477C18.4706 12.658 18.4412 12.6738 18.4024 12.6942C18.3246 12.7352 18.2091 12.7948 18.0634 12.8665C17.7711 13.0103 17.3618 13.2003 16.8947 13.385C15.9176 13.7714 14.8491 14.0686 14.0742 14.011C13.43 13.9631 12.9946 13.6693 12.3353 13.1938C12.321 13.1834 12.3065 13.173 12.292 13.1625C11.663 12.7084 10.8165 12.0974 9.5695 12.0106C8.15165 11.912 6.57294 12.5176 5.46466 13.0461C4.88608 13.3221 4.38535 13.6021 4.02926 13.813C3.85071 13.9188 3.70721 14.0079 3.60701 14.0715C3.55688 14.1033 3.5175 14.1288 3.48989 14.1469L3.4574 14.1682L3.448 14.1745L3.44504 14.1764L3.44328 14.1776C3.4431 14.1777 3.44328 14.1776 4.0001 15.0082Z" fill="#9975FF"/>
<path fill-rule="evenodd" clip-rule="evenodd" d="M4.0001 20.0082L3.44328 19.1776C2.98453 19.4851 2.86195 20.1063 3.16948 20.5651C3.47694 21.0237 4.09792 21.1463 4.55663 20.8391C4.55662 20.8391 4.55665 20.8391 4.55663 20.8391L4.56142 20.8359L4.58376 20.8212C4.60443 20.8077 4.63645 20.787 4.67882 20.7601C4.76363 20.7062 4.88951 20.628 5.04845 20.5338C5.36737 20.345 5.81415 20.0953 6.32557 19.8514C7.39729 19.3403 8.56858 18.9459 9.43071 19.0058C10.0733 19.0505 10.5079 19.3417 11.1654 19.8159C11.1816 19.8276 11.198 19.8394 11.2145 19.8514C11.8412 20.3039 12.6851 20.9133 13.926 21.0055C15.1841 21.099 16.6156 20.6461 17.6303 20.2448C18.1591 20.0357 18.6186 19.8223 18.9461 19.6612C19.1103 19.5804 19.2425 19.5123 19.3349 19.4635C19.3811 19.4392 19.4175 19.4196 19.4431 19.4058L19.4732 19.3893L19.4819 19.3845L19.4857 19.3824C19.4858 19.3823 19.4864 19.382 19.0002 18.5084L19.4857 19.3824C19.9683 19.1139 20.1425 18.5046 19.8739 18.022C19.6054 17.5395 18.9966 17.3659 18.5141 17.6343L18.5099 17.6366L18.4895 17.6477C18.4706 17.658 18.4412 17.6738 18.4024 17.6942C18.3246 17.7352 18.2091 17.7948 18.0634 17.8665C17.7711 18.0103 17.3618 18.2003 16.8947 18.385C15.9176 18.7714 14.8491 19.0686 14.0742 19.011C13.43 18.9631 12.9946 18.6693 12.3353 18.1938C12.321 18.1834 12.3065 18.173 12.292 18.1625C11.663 17.7084 10.8165 17.0974 9.5695 17.0106C8.15165 16.912 6.57294 17.5176 5.46466 18.0461C4.88608 18.3221 4.38535 18.6021 4.02926 18.813C3.85071 18.9188 3.70721 19.0079 3.60701 19.0715C3.55688 19.1033 3.5175 19.1288 3.48989 19.1469L3.4574 19.1682L3.448 19.1745L3.44504 19.1764L3.44328 19.1776C3.4431 19.1777 3.44328 19.1776 4.0001 20.0082Z" fill="#9975FF"/>
<path fill-rule="evenodd" clip-rule="evenodd" d="M4.0001 25.0082L3.44328 24.1776C2.98453 24.4851 2.86195 25.1063 3.16948 25.5651C3.47694 26.0237 4.09792 26.1463 4.55663 25.8391C4.55662 25.8391 4.55665 25.8391 4.55663 25.8391L4.56142 25.8359L4.58376 25.8212C4.60443 25.8077 4.63645 25.787 4.67882 25.7601C4.76363 25.7062 4.88951 25.628 5.04845 25.5338C5.36737 25.345 5.81415 25.0953 6.32557 24.8514C7.39729 24.3403 8.56858 23.9459 9.43071 24.0058C10.0733 24.0505 10.5079 24.3417 11.1654 24.8159C11.1816 24.8276 11.198 24.8394 11.2145 24.8514C11.8412 25.3039 12.6851 25.9133 13.926 26.0055C15.1841 26.099 16.6156 25.6461 17.6303 25.2448C18.1591 25.0357 18.6186 24.8223 18.9461 24.6612C19.1103 24.5804 19.2425 24.5123 19.3349 24.4635C19.3811 24.4392 19.4175 24.4196 19.4431 24.4058L19.4732 24.3893L19.4819 24.3845L19.4857 24.3824C19.4858 24.3823 19.4864 24.382 19.0002 23.5084L19.4857 24.3824C19.9683 24.1139 20.1425 23.5046 19.8739 23.022C19.6054 22.5395 18.9966 22.3659 18.5141 22.6343L18.5099 22.6366L18.4895 22.6477C18.4706 22.658 18.4412 22.6738 18.4024 22.6942C18.3246 22.7352 18.2091 22.7948 18.0634 22.8665C17.7711 23.0103 17.3618 23.2003 16.8947 23.385C15.9176 23.7714 14.8491 24.0686 14.0742 24.011C13.43 23.9631 12.9946 23.6693 12.3353 23.1938C12.321 23.1834 12.3065 23.173 12.292 23.1625C11.663 22.7084 10.8165 22.0974 9.5695 22.0106C8.15165 21.912 6.57294 22.5176 5.46466 23.0461C4.88608 23.3221 4.38535 23.6021 4.02926 23.813C3.85071 23.9188 3.70721 24.0079 3.60701 24.0715C3.55688 24.1033 3.5175 24.1288 3.48989 24.1469L3.4574 24.1682L3.448 24.1745L3.44504 24.1764L3.44328 24.1776C3.4431 24.1777 3.44328 24.1776 4.0001 25.0082Z" fill="#9975FF"/>
</svg>
