<svg width="22" height="22" viewBox="0 0 22 22" fill="none" xmlns="http://www.w3.org/2000/svg">
<path d="M19.0449 12.8352C19.1868 12.2099 19.2555 11.5703 19.2497 10.9292C19.2116 6.38918 15.4551 2.70469 10.9152 2.75042C8.97613 2.77069 7.10616 3.47324 5.63344 4.73477C4.16072 5.99629 3.17936 7.73621 2.86157 9.64915C2.54378 11.5621 2.90988 13.5259 3.89561 15.1958C4.88133 16.8657 6.42372 18.1352 8.25207 18.7813C8.56315 18.8909 8.89598 18.9242 9.22262 18.8786C9.54927 18.833 9.86022 18.7097 10.1294 18.5191C10.3985 18.3285 10.6181 18.0761 10.7696 17.7832C10.9211 17.4902 11.0001 17.1652 11 16.8354V16.5C11 15.953 11.2173 15.4284 11.6041 15.0416C11.9909 14.6548 12.5155 14.4375 13.0625 14.4375H17.0336C17.5008 14.4378 17.9543 14.2794 18.3197 13.9883C18.6851 13.6972 18.9408 13.2906 19.0449 12.8352V12.8352Z" stroke="white" stroke-width="1.5" stroke-linecap="round" stroke-linejoin="round"/>
<path d="M11 7.5625C11.5695 7.5625 12.0312 7.10079 12.0312 6.53125C12.0312 5.96171 11.5695 5.5 11 5.5C10.4305 5.5 9.96875 5.96171 9.96875 6.53125C9.96875 7.10079 10.4305 7.5625 11 7.5625Z" fill="white"/>
<path d="M7.12988 9.79688C7.69943 9.79688 8.16113 9.33517 8.16113 8.76562C8.16113 8.19608 7.69943 7.73438 7.12988 7.73438C6.56034 7.73438 6.09863 8.19608 6.09863 8.76562C6.09863 9.33517 6.56034 9.79688 7.12988 9.79688Z" fill="white"/>
<path d="M7.12988 14.2656C7.69943 14.2656 8.16113 13.8039 8.16113 13.2344C8.16113 12.6648 7.69943 12.2031 7.12988 12.2031C6.56034 12.2031 6.09863 12.6648 6.09863 13.2344C6.09863 13.8039 6.56034 14.2656 7.12988 14.2656Z" fill="white"/>
<path d="M14.8701 9.79688C15.4397 9.79688 15.9014 9.33517 15.9014 8.76562C15.9014 8.19608 15.4397 7.73438 14.8701 7.73438C14.3006 7.73438 13.8389 8.19608 13.8389 8.76562C13.8389 9.33517 14.3006 9.79688 14.8701 9.79688Z" fill="white"/>
</svg>
