<svg width="20" height="20" viewBox="0 0 20 20" fill="none" xmlns="http://www.w3.org/2000/svg">
<path d="M18.3337 9.99984C18.3337 14.6019 14.6024 18.3332 10.0003 18.3332C5.39824 18.3332 1.66699 14.6019 1.66699 9.99984C1.66699 5.39775 5.39824 1.6665 10.0003 1.6665C14.6024 1.6665 18.3337 5.39775 18.3337 9.99984Z" fill="#6C19FF"/>
<path d="M10.8337 5H9.16699V6.66667H10.8337V5Z" fill="#7DEBF5"/>
<path d="M10.8337 7.9165H7.91699V9.58317H10.8337V7.9165Z" fill="#7DEBF5"/>
<path d="M10.8337 7.9165H9.16699V14.9998H10.8337V7.9165Z" fill="#7DEBF5"/>
<path d="M12.5 13.3335H7.5V15.0002H12.5V13.3335Z" fill="#7DEBF5"/>
<path d="M10.8337 7.9165H9.16699V9.58317H10.8337V7.9165Z" fill="#7DEBF5"/>
<path d="M10.8337 13.3335H9.16699V15.0002H10.8337V13.3335Z" fill="#3DD9EB"/>
</svg>
