<svg width="24" height="24" viewBox="0 0 24 24" fill="none" xmlns="http://www.w3.org/2000/svg">
<path d="M19.3682 15.9787C19.2611 15.9787 19.1406 15.9385 19.0469 15.8716C18.8059 15.6976 18.7657 15.3629 18.9398 15.1219C19.4351 14.4525 19.6494 13.6224 19.5289 12.7924C19.4084 11.9623 18.9665 11.226 18.2971 10.7306C17.5474 10.1817 16.6103 9.98088 15.6999 10.1951C15.5392 10.2353 15.3786 10.1951 15.2447 10.088C15.1108 9.98088 15.0439 9.83361 15.0439 9.67296C15.0439 7.58443 13.3436 5.87076 11.2417 5.87076C9.2067 5.87076 7.53321 7.46393 7.4395 9.4989L7.42609 9.79345C7.41271 10.088 7.17173 10.3156 6.8638 10.3022C6.56927 10.2888 6.34167 10.0478 6.35505 9.7399L6.36845 9.43196C6.48895 6.8213 8.61765 4.77295 11.2283 4.77295C13.7051 4.77295 15.7534 6.63388 16.0614 9.01694C17.0788 8.93661 18.083 9.21776 18.913 9.8336C19.81 10.503 20.3991 11.4803 20.5731 12.5915C20.7472 13.7028 20.466 14.8139 19.7966 15.7109C19.6895 15.9118 19.5288 15.9787 19.3682 15.9787Z" fill="black"/>
<path d="M4.01245 16.8887C3.90534 16.8887 3.78486 16.8485 3.69115 16.7816C3.20918 16.4201 2.82093 15.9783 2.5264 15.4428C1.4018 13.4078 2.13812 10.8507 4.1731 9.7261C6.20807 8.60151 8.76521 9.33784 9.8898 11.3728C10.0371 11.6272 9.94334 11.9619 9.67558 12.0958C9.42121 12.243 9.08652 12.1493 8.95264 11.8816C8.10919 10.3687 6.20808 9.81982 4.68185 10.6499C3.169 11.4933 2.6201 13.3944 3.45016 14.9206C3.66436 15.3089 3.9589 15.6436 4.32038 15.9114C4.56136 16.0854 4.60153 16.4201 4.42749 16.6611C4.33377 16.8083 4.1731 16.8887 4.01245 16.8887Z" fill="black"/>
<path d="M19.5824 11.8147C19.3816 11.8147 19.1808 11.6942 19.1005 11.5068C18.98 11.2391 19.1005 10.9178 19.3682 10.7973C19.9975 10.5161 20.4794 9.96721 20.7606 9.25764C20.2251 9.1907 19.7163 8.98988 19.2611 8.65518C18.0161 7.7448 17.601 6.12485 18.1633 4.75928C16.7308 4.57184 15.3116 5.36173 14.7494 6.74069C14.6422 7.00845 14.3209 7.14234 14.0532 7.03524C13.7854 6.92813 13.6516 6.60681 13.7587 6.33905C14.6289 4.23713 16.9986 3.1661 19.154 3.90244C19.3147 3.95599 19.4352 4.08987 19.4887 4.25053C19.5423 4.41118 19.5155 4.58522 19.4084 4.73249C18.6988 5.70981 18.913 7.08878 19.8904 7.81173C20.3322 8.13304 20.8677 8.28031 21.4032 8.22676C21.5773 8.21337 21.7379 8.26693 21.8584 8.40081C21.9789 8.5213 22.0191 8.69534 21.9923 8.86939C21.7245 10.2216 20.9212 11.2926 19.81 11.8014C19.7297 11.8014 19.6628 11.8147 19.5824 11.8147Z" fill="black"/>
<path d="M15.2855 20.2761C15.1516 20.2761 15.0178 20.2226 14.9107 20.1155C14.6964 19.9013 14.6964 19.5666 14.9107 19.3524L17.1063 17.1567C17.3205 16.9425 17.6552 16.9425 17.8694 17.1567C18.0836 17.371 18.0836 17.7057 17.8694 17.9199L15.6738 20.1155C15.5667 20.2226 15.4328 20.2761 15.2855 20.2761Z" fill="black"/>
<path d="M5.31088 19.7679C5.177 19.7679 5.04315 19.7143 4.93605 19.6072C4.72184 19.393 4.72184 19.0583 4.93605 18.8441L7.13167 16.6484C7.34587 16.4342 7.68057 16.4342 7.89478 16.6484C8.10898 16.8627 8.10898 17.1974 7.89478 17.4116L5.69916 19.6072C5.59205 19.7143 5.44476 19.7679 5.31088 19.7679Z" fill="black"/>
<path d="M13.9874 17.411C13.8535 17.411 13.7197 17.3575 13.6126 17.2638C13.3983 17.0629 13.3984 16.7149 13.5992 16.5006L15.3932 14.6531C15.594 14.4389 15.9421 14.4389 16.1563 14.6397C16.3705 14.8405 16.3705 15.1886 16.1697 15.4028L14.3757 17.2504C14.2686 17.3575 14.1213 17.411 13.9874 17.411Z" fill="black"/>
<path d="M10.4266 20.3296C10.2927 20.3296 10.1454 20.2761 10.0383 20.169C9.83749 19.9548 9.83749 19.6201 10.0383 19.4059L11.1763 18.2947C11.3905 18.0938 11.7252 18.0938 11.9394 18.2947C12.1402 18.5089 12.1402 18.8436 11.9394 19.0578L10.8014 20.169C10.6943 20.2761 10.5605 20.3296 10.4266 20.3296Z" fill="black"/>
<path d="M9.52843 17.8124C9.39455 17.8124 9.26069 17.7588 9.15359 17.6651C8.93938 17.4643 8.93937 17.1162 9.14019 16.902L10.9342 15.0545C11.135 14.8403 11.4831 14.8403 11.6973 15.0411C11.9115 15.2419 11.9115 15.59 11.7107 15.8042L9.9167 17.6517C9.80959 17.7588 9.67569 17.8124 9.52843 17.8124Z" fill="black"/>
<path d="M2.84873 7.12893C2.80856 7.12893 2.78178 7.12894 2.74162 7.11555C2.70145 7.11555 2.67467 7.10215 2.6345 7.08876C2.60773 7.07537 2.56757 7.062 2.5408 7.03522C2.51402 7.02184 2.48726 6.99506 2.46049 6.96828C2.43371 6.94151 2.40693 6.91472 2.39355 6.88794C2.38016 6.86117 2.35336 6.82101 2.33998 6.79423C2.32659 6.76746 2.31321 6.72729 2.31321 6.68712C2.29982 6.66035 2.2998 6.62019 2.2998 6.58003C2.2998 6.44615 2.35338 6.29887 2.46049 6.20516C2.48726 6.17838 2.51402 6.16499 2.5408 6.13822C2.56757 6.12483 2.60773 6.09805 2.6345 6.08466C2.66128 6.07127 2.70145 6.05789 2.74162 6.05789C2.80856 6.0445 2.8889 6.0445 2.95584 6.05789C2.996 6.07128 3.02278 6.07127 3.06295 6.08466C3.08972 6.09805 3.12988 6.11144 3.15666 6.13822C3.18343 6.15161 3.21019 6.17838 3.23696 6.20516C3.33068 6.31226 3.39765 6.44615 3.39765 6.58003C3.39765 6.62019 3.39763 6.64696 3.38425 6.68712C3.38425 6.72729 3.37086 6.75407 3.35748 6.79423C3.34409 6.82101 3.33068 6.86117 3.3039 6.88794C3.27713 6.91472 3.26374 6.94151 3.23696 6.96828C3.21019 6.99506 3.18343 7.02184 3.15666 7.03522C3.12988 7.04861 3.10311 7.07537 3.06295 7.08876C3.03617 7.10215 2.996 7.11555 2.95584 7.11555C2.91567 7.12894 2.88889 7.12893 2.84873 7.12893Z" fill="black"/>
<path d="M5.13877 7.5041C5.0986 7.5041 5.07182 7.50409 5.03165 7.4907C4.99149 7.4907 4.96471 7.47732 4.92454 7.46393C4.89777 7.45055 4.85761 7.43715 4.83083 7.41038C4.80406 7.39699 4.77727 7.37021 4.75049 7.34344C4.72372 7.31666 4.69694 7.28989 4.68355 7.26311C4.67017 7.23634 4.6434 7.19618 4.63001 7.1694C4.61663 7.14263 4.60324 7.10246 4.60324 7.06229C4.58986 7.03552 4.58984 6.99535 4.58984 6.95518C4.58984 6.8213 4.64339 6.67404 4.75049 6.58033C4.77727 6.55355 4.80406 6.52678 4.83083 6.51339C4.85761 6.5 4.89777 6.47322 4.92454 6.45983C4.95132 6.44645 4.99149 6.43306 5.03165 6.43306C5.2057 6.3929 5.39311 6.45984 5.5136 6.58033C5.60732 6.68743 5.67429 6.8213 5.67429 6.95518C5.67429 6.99535 5.67427 7.02213 5.66088 7.06229C5.6475 7.10246 5.6475 7.12924 5.63411 7.1694C5.62073 7.19618 5.60732 7.23634 5.58054 7.26311C5.56716 7.28989 5.54038 7.31666 5.5136 7.34344C5.4065 7.45054 5.27265 7.5041 5.13877 7.5041Z" fill="black"/>
<path d="M6.41025 4.87969C6.37009 4.87969 6.3433 4.8797 6.30314 4.86631C6.27636 4.85292 6.23619 4.85293 6.19603 4.83954C6.16925 4.82615 6.12909 4.81276 6.10232 4.78598C6.07554 4.77259 6.04875 4.74582 6.02198 4.71904C5.91487 4.61194 5.86133 4.47805 5.86133 4.34417C5.86133 4.21029 5.91487 4.06303 6.02198 3.96932C6.04875 3.94254 6.07554 3.91577 6.10232 3.90238C6.12909 3.88899 6.16925 3.86221 6.19603 3.84882C6.2228 3.83543 6.26297 3.82205 6.30314 3.82205C6.37008 3.80866 6.45039 3.80866 6.51733 3.82205C6.5441 3.83544 6.58429 3.83543 6.61107 3.84882C6.63785 3.86221 6.678 3.8756 6.70478 3.90238C6.73155 3.91577 6.75831 3.94254 6.78509 3.96932C6.89219 4.06303 6.94577 4.21029 6.94577 4.34417C6.94577 4.49144 6.89219 4.62533 6.78509 4.71904C6.75831 4.74582 6.73155 4.77259 6.70478 4.78598C6.678 4.79937 6.65123 4.82615 6.61107 4.83954C6.58429 4.85293 6.5441 4.86631 6.51733 4.86631C6.47716 4.8797 6.45041 4.87969 6.41025 4.87969Z" fill="black"/>
</svg>
