<svg width="24" height="24" viewBox="0 0 24 24" fill="none" xmlns="http://www.w3.org/2000/svg">
<path d="M12.6633 13.3114C8.47628 13.3114 5.32617 11.8282 5.32617 9.87248C5.32617 7.91678 8.47628 6.43359 12.6633 6.43359C16.8503 6.43359 20.0005 7.91678 20.0005 9.87248C20.0005 11.8282 16.8372 13.3114 12.6633 13.3114ZM12.6633 7.48363C8.96192 7.48363 6.37621 8.74369 6.37621 9.87248C6.37621 11.0013 8.96192 12.2613 12.6633 12.2613C16.3647 12.2613 18.9504 11.0013 18.9504 9.87248C18.9504 8.74369 16.3647 7.48363 12.6633 7.48363Z" fill="white"/>
<path d="M12.4269 17.367C9.42113 17.367 7.15039 16.2644 7.15039 14.8075C7.15039 13.3506 9.42113 12.248 12.4269 12.248C12.7156 12.248 12.9519 12.4843 12.9519 12.7731C12.9519 13.0618 12.7156 13.2981 12.4269 13.2981C9.84114 13.2981 8.20043 14.1906 8.20043 14.8075C8.20043 15.4244 9.84114 16.317 12.4269 16.317C13.7394 16.317 14.9601 16.0807 15.8001 15.6607C16.0626 15.5294 16.3776 15.6344 16.5089 15.8969C16.6401 16.1595 16.5351 16.4745 16.2726 16.6057C15.3013 17.0913 13.8969 17.367 12.4269 17.367Z" fill="white"/>
<path d="M12.6096 20.0314C12.5965 20.0314 12.5833 20.0314 12.5571 20.0314C10.7458 20.0314 8.9082 19.3882 8.9082 18.1675C8.9082 17.2487 10.1551 16.3037 12.5571 16.3037C12.8459 16.3037 13.0821 16.54 13.0821 16.8287C13.0821 17.1175 12.8459 17.3538 12.5571 17.3538C10.8639 17.3538 9.95824 17.9313 9.95824 18.1675C9.95824 18.4038 10.8639 18.9813 12.5571 18.9813C13.0559 18.9813 13.5546 18.9288 14.0534 18.7976C14.329 18.7319 14.6178 18.9026 14.6834 19.1782C14.749 19.4538 14.5784 19.7426 14.3028 19.8082C13.7515 19.9526 13.174 20.0314 12.6096 20.0314Z" fill="white"/>
<path d="M18.6475 14.8472C18.6082 14.8472 18.5819 14.8472 18.5425 14.8341C18.5163 14.8209 18.4769 14.8209 18.4375 14.8078C18.3981 14.7947 18.3719 14.7816 18.3456 14.7553C18.3194 14.7422 18.2932 14.7159 18.2669 14.6897C18.175 14.5847 18.1094 14.4534 18.1094 14.3222C18.1094 14.1778 18.1619 14.0465 18.2669 13.9547C18.2932 13.9284 18.3194 13.9022 18.3456 13.889C18.3719 13.8759 18.4113 13.8496 18.4375 13.8365C18.4638 13.8234 18.5031 13.8103 18.5425 13.8103C18.7132 13.7709 18.8969 13.8365 19.0151 13.9547C19.1201 14.0465 19.1726 14.1909 19.1726 14.3222C19.1726 14.4534 19.1201 14.5978 19.0151 14.6897C18.9232 14.7816 18.7919 14.8472 18.6475 14.8472Z" fill="white"/>
<path d="M4.53816 13.3112C4.49878 13.3112 4.47252 13.3112 4.43315 13.2981C4.39377 13.285 4.36751 13.285 4.32814 13.2718C4.30189 13.2587 4.26252 13.2456 4.23627 13.2193C4.21001 13.2062 4.18378 13.18 4.15753 13.1537C4.06565 13.0618 4 12.9174 4 12.7862C4 12.7468 4.00001 12.7206 4.01314 12.6812C4.02626 12.6549 4.02626 12.6156 4.03938 12.5762C4.05251 12.5499 4.06565 12.5106 4.0919 12.4843C4.10503 12.4581 4.13128 12.4318 4.15753 12.4055C4.26254 12.3005 4.39376 12.248 4.52502 12.248C4.65627 12.248 4.80066 12.3005 4.89254 12.4055C4.91879 12.4318 4.94504 12.4581 4.95817 12.4843C4.97129 12.5106 4.99756 12.5499 5.01069 12.5762C5.02381 12.6024 5.03693 12.6418 5.03693 12.6812C5.05006 12.7206 5.05004 12.7468 5.05004 12.7862C5.05004 12.9306 4.99754 13.0618 4.89254 13.1537C4.81379 13.2587 4.66941 13.3112 4.53816 13.3112Z" fill="white"/>
<path d="M17.4537 5.02926C17.3094 5.02926 17.1781 4.97677 17.0862 4.87176C16.9944 4.76676 16.9287 4.6355 16.9287 4.50424C16.9287 4.46486 16.9287 4.43861 16.9418 4.39923C16.955 4.35985 16.955 4.33361 16.9681 4.29424C16.9812 4.26799 16.9944 4.2286 17.0206 4.20235C17.0337 4.1761 17.06 4.14985 17.0862 4.1236C17.2044 4.00547 17.3881 3.93984 17.5587 3.97922C17.5981 3.97922 17.6244 3.99234 17.6638 4.00547C17.69 4.01859 17.7294 4.03172 17.7556 4.05797C17.7819 4.0711 17.8081 4.09735 17.8344 4.1236C17.8606 4.14985 17.8869 4.1761 17.9 4.20235C17.9131 4.2286 17.9394 4.26799 17.9525 4.29424C17.9656 4.32049 17.9788 4.35985 17.9788 4.39923C17.9788 4.43861 17.9919 4.46486 17.9919 4.50424C17.9919 4.6355 17.9394 4.77988 17.8344 4.87176C17.8081 4.89801 17.7819 4.91114 17.7556 4.93739C17.7294 4.95051 17.7031 4.97675 17.6638 4.98988C17.6244 5.003 17.5981 5.01614 17.5587 5.01614C17.5194 5.02926 17.48 5.02926 17.4537 5.02926Z" fill="white"/>
</svg>
