<svg width="25" height="25" viewBox="0 0 25 25" fill="none" xmlns="http://www.w3.org/2000/svg">
<path fill-rule="evenodd" clip-rule="evenodd" d="M15.7413 5.97138L9.82719 3.0143C9.63019 2.91432 9.39938 2.87882 9.16819 2.92785C9.15442 2.93076 9.1407 2.93396 9.12704 2.93746L2.88246 4.4986C2.4373 4.60989 2.125 5.00987 2.125 5.46874V19.5312C2.125 19.8392 2.26687 20.1299 2.50959 20.3194C2.7523 20.509 3.06879 20.5761 3.36754 20.5014L9.25866 19.0286L15.1727 21.9856C15.3698 22.0857 15.6006 22.1212 15.8318 22.0721C15.8456 22.0692 15.8593 22.066 15.873 22.0625L22.1175 20.5014C22.5627 20.3901 22.875 19.9901 22.875 19.5312V5.46874C22.875 5.16081 22.7331 4.87004 22.4904 4.68054C22.2477 4.49103 21.9312 4.42391 21.6325 4.4986L15.7413 5.97138ZM16.625 7.81202V19.813L20.875 18.7505V6.74952L16.625 7.81202ZM8.375 5.18702V17.188L4.125 18.2505V6.24952L8.375 5.18702ZM10.375 5.52428V17.3507L14.625 19.4757V7.64928L10.375 5.52428Z" fill="black"/>
</svg>
