<svg width="24" height="24" viewBox="0 0 24 24" fill="none" xmlns="http://www.w3.org/2000/svg">
<path d="M5.125 5.3859C4.9875 5.3859 4.86249 5.3359 4.77499 5.2359C4.74999 5.2109 4.72499 5.1859 4.71249 5.1609C4.69999 5.1359 4.67499 5.1109 4.66249 5.0734C4.64999 5.0484 4.6375 5.0109 4.6375 4.9859C4.625 4.9484 4.625 4.9234 4.625 4.8859C4.625 4.8484 4.625 4.8234 4.6375 4.7859C4.6375 4.7609 4.64999 4.7234 4.66249 4.6859C4.67499 4.6609 4.68749 4.6234 4.71249 4.5984C4.72499 4.5734 4.74999 4.5484 4.77499 4.5234C4.79999 4.4984 4.82499 4.4734 4.84999 4.4609C4.87499 4.4484 4.9125 4.4234 4.9375 4.4109C4.9625 4.3984 4.99999 4.3859 5.03749 4.3859C5.19999 4.3484 5.375 4.4109 5.4875 4.5234C5.5125 4.5484 5.525 4.5734 5.55 4.5984C5.5625 4.6234 5.58749 4.6609 5.59999 4.6859C5.61249 4.7109 5.625 4.7484 5.625 4.7859C5.625 4.8234 5.6375 4.8484 5.6375 4.8859C5.6375 4.9234 5.6375 4.9484 5.625 4.9859C5.625 5.0109 5.61249 5.0484 5.59999 5.0734C5.58749 5.0984 5.575 5.1359 5.55 5.1609C5.525 5.1859 5.5125 5.2109 5.4875 5.2359C5.3875 5.3359 5.25 5.3859 5.125 5.3859Z" fill="#FFC44C"/>
<path d="M1.875 13.0482C1.75 13.0482 1.61249 12.9982 1.52499 12.8982C1.43749 12.7982 1.375 12.6732 1.375 12.5482C1.375 12.4232 1.42499 12.2857 1.52499 12.1982C1.54999 12.1732 1.57499 12.1482 1.59999 12.1357C1.62499 12.1107 1.65 12.0982 1.6875 12.0857C1.7125 12.0732 1.74999 12.0607 1.78749 12.0607C1.94999 12.0232 2.125 12.0857 2.2375 12.1982C2.325 12.2982 2.3875 12.4232 2.3875 12.5482C2.3875 12.6732 2.3375 12.8107 2.2375 12.8982C2.2125 12.9232 2.18749 12.9357 2.16249 12.9607C2.13749 12.9732 2.1 12.9982 2.075 13.0107C2.05 13.0232 2.01249 13.0357 1.97499 13.0357C1.93749 13.0482 1.9 13.0482 1.875 13.0482Z" fill="#FFC44C"/>
<path d="M9.625 5.436C9.5 5.436 9.36249 5.386 9.27499 5.286C9.24999 5.261 9.23749 5.236 9.21249 5.211C9.19999 5.186 9.17499 5.1485 9.16249 5.1235C9.14999 5.0985 9.1375 5.061 9.1375 5.0235C9.125 4.986 9.125 4.961 9.125 4.9235C9.125 4.886 9.125 4.861 9.1375 4.8235C9.15 4.786 9.14999 4.761 9.16249 4.7235C9.17499 4.6985 9.18749 4.661 9.21249 4.636C9.23749 4.611 9.24999 4.586 9.27499 4.561C9.29999 4.536 9.32499 4.511 9.34999 4.4985C9.37499 4.486 9.4 4.461 9.4375 4.4485C9.4625 4.436 9.49999 4.4235 9.52499 4.4235C9.68749 4.386 9.86249 4.4485 9.97499 4.561C10.075 4.6485 10.125 4.786 10.125 4.911C10.125 5.036 10.075 5.1735 9.97499 5.261C9.94999 5.286 9.92499 5.2985 9.89999 5.3235C9.87499 5.3485 9.8375 5.361 9.8125 5.3735C9.7875 5.386 9.74999 5.3985 9.71249 5.3985C9.68749 5.4235 9.6625 5.436 9.625 5.436Z" fill="#FFC44C"/>
<path d="M1.91211 8.54844C1.87461 8.54844 1.84962 8.54844 1.81212 8.53594C1.78712 8.52344 1.74961 8.52344 1.72461 8.51094C1.69961 8.49844 1.66212 8.48594 1.63712 8.46094C1.61212 8.43594 1.58712 8.42344 1.56212 8.39844C1.53712 8.37344 1.51212 8.34844 1.49962 8.32344C1.48712 8.29844 1.46212 8.26094 1.44962 8.23594C1.43712 8.21094 1.42462 8.17344 1.42462 8.14844C1.42462 8.11094 1.41211 8.08594 1.41211 8.04844C1.41211 8.01094 1.41212 7.98594 1.42462 7.94844C1.43712 7.92344 1.43712 7.88594 1.44962 7.84844C1.46212 7.82344 1.47462 7.78594 1.49962 7.76094C1.51212 7.73594 1.53712 7.71094 1.56212 7.68594C1.58712 7.66094 1.61212 7.63594 1.63712 7.62344C1.66212 7.61094 1.69961 7.58594 1.72461 7.57344C1.74961 7.56094 1.78712 7.54844 1.81212 7.54844C1.87462 7.53594 1.93712 7.53594 2.01212 7.54844C2.03712 7.54844 2.07462 7.56094 2.11212 7.57344C2.13712 7.58594 2.17462 7.59844 2.19962 7.62344C2.22462 7.63594 2.24961 7.66094 2.27461 7.68594C2.29961 7.71094 2.32461 7.73594 2.33711 7.76094C2.34961 7.78594 2.37462 7.82344 2.38712 7.84844C2.39962 7.87344 2.41211 7.91094 2.41211 7.94844C2.41211 7.98594 2.42462 8.01094 2.42462 8.04844C2.42462 8.08594 2.42461 8.11094 2.41211 8.14844C2.39961 8.17344 2.39962 8.21094 2.38712 8.23594C2.37462 8.26094 2.36211 8.29844 2.33711 8.32344C2.32461 8.34844 2.29961 8.37344 2.27461 8.39844C2.24961 8.42344 2.22462 8.43594 2.19962 8.46094C2.17462 8.47344 2.14962 8.49844 2.11212 8.51094C2.08712 8.52344 2.04962 8.53594 2.01212 8.53594C1.97462 8.54844 1.94961 8.54844 1.91211 8.54844Z" fill="#FFC44C"/>
<path d="M5.125 5.3859C4.9875 5.3859 4.86249 5.3359 4.77499 5.2359C4.74999 5.2109 4.72499 5.1859 4.71249 5.1609C4.69999 5.1359 4.67499 5.1109 4.66249 5.0734C4.64999 5.0484 4.6375 5.0109 4.6375 4.9859C4.625 4.9484 4.625 4.9234 4.625 4.8859C4.625 4.8484 4.625 4.8234 4.6375 4.7859C4.6375 4.7609 4.64999 4.7234 4.66249 4.6859C4.67499 4.6609 4.68749 4.6234 4.71249 4.5984C4.72499 4.5734 4.74999 4.5484 4.77499 4.5234C4.79999 4.4984 4.82499 4.4734 4.84999 4.4609C4.87499 4.4484 4.9125 4.4234 4.9375 4.4109C4.9625 4.3984 4.99999 4.3859 5.03749 4.3859C5.19999 4.3484 5.375 4.4109 5.4875 4.5234C5.5125 4.5484 5.525 4.5734 5.55 4.5984C5.5625 4.6234 5.58749 4.6609 5.59999 4.6859C5.61249 4.7109 5.625 4.7484 5.625 4.7859C5.625 4.8234 5.6375 4.8484 5.6375 4.8859C5.6375 4.9234 5.6375 4.9484 5.625 4.9859C5.625 5.0109 5.61249 5.0484 5.59999 5.0734C5.58749 5.0984 5.575 5.1359 5.55 5.1609C5.525 5.1859 5.5125 5.2109 5.4875 5.2359C5.3875 5.3359 5.25 5.3859 5.125 5.3859Z" fill="#FFC44C"/>
<path d="M1.875 13.0482C1.75 13.0482 1.61249 12.9982 1.52499 12.8982C1.43749 12.7982 1.375 12.6732 1.375 12.5482C1.375 12.4232 1.42499 12.2857 1.52499 12.1982C1.54999 12.1732 1.57499 12.1482 1.59999 12.1357C1.62499 12.1107 1.65 12.0982 1.6875 12.0857C1.7125 12.0732 1.74999 12.0607 1.78749 12.0607C1.94999 12.0232 2.125 12.0857 2.2375 12.1982C2.325 12.2982 2.3875 12.4232 2.3875 12.5482C2.3875 12.6732 2.3375 12.8107 2.2375 12.8982C2.2125 12.9232 2.18749 12.9357 2.16249 12.9607C2.13749 12.9732 2.1 12.9982 2.075 13.0107C2.05 13.0232 2.01249 13.0357 1.97499 13.0357C1.93749 13.0482 1.9 13.0482 1.875 13.0482Z" fill="#FFC44C"/>
<path d="M9.625 5.436C9.5 5.436 9.36249 5.386 9.27499 5.286C9.24999 5.261 9.23749 5.236 9.21249 5.211C9.19999 5.186 9.17499 5.1485 9.16249 5.1235C9.14999 5.0985 9.1375 5.061 9.1375 5.0235C9.125 4.986 9.125 4.961 9.125 4.9235C9.125 4.886 9.125 4.861 9.1375 4.8235C9.15 4.786 9.14999 4.761 9.16249 4.7235C9.17499 4.6985 9.18749 4.661 9.21249 4.636C9.23749 4.611 9.24999 4.586 9.27499 4.561C9.29999 4.536 9.32499 4.511 9.34999 4.4985C9.37499 4.486 9.4 4.461 9.4375 4.4485C9.4625 4.436 9.49999 4.4235 9.52499 4.4235C9.68749 4.386 9.86249 4.4485 9.97499 4.561C10.075 4.6485 10.125 4.786 10.125 4.911C10.125 5.036 10.075 5.1735 9.97499 5.261C9.94999 5.286 9.92499 5.2985 9.89999 5.3235C9.87499 5.3485 9.8375 5.361 9.8125 5.3735C9.7875 5.386 9.74999 5.3985 9.71249 5.3985C9.68749 5.4235 9.6625 5.436 9.625 5.436Z" fill="#FFC44C"/>
<path d="M1.91211 8.54844C1.87461 8.54844 1.84962 8.54844 1.81212 8.53594C1.78712 8.52344 1.74961 8.52344 1.72461 8.51094C1.69961 8.49844 1.66212 8.48594 1.63712 8.46094C1.61212 8.43594 1.58712 8.42344 1.56212 8.39844C1.53712 8.37344 1.51212 8.34844 1.49962 8.32344C1.48712 8.29844 1.46212 8.26094 1.44962 8.23594C1.43712 8.21094 1.42462 8.17344 1.42462 8.14844C1.42462 8.11094 1.41211 8.08594 1.41211 8.04844C1.41211 8.01094 1.41212 7.98594 1.42462 7.94844C1.43712 7.92344 1.43712 7.88594 1.44962 7.84844C1.46212 7.82344 1.47462 7.78594 1.49962 7.76094C1.51212 7.73594 1.53712 7.71094 1.56212 7.68594C1.58712 7.66094 1.61212 7.63594 1.63712 7.62344C1.66212 7.61094 1.69961 7.58594 1.72461 7.57344C1.74961 7.56094 1.78712 7.54844 1.81212 7.54844C1.87462 7.53594 1.93712 7.53594 2.01212 7.54844C2.03712 7.54844 2.07462 7.56094 2.11212 7.57344C2.13712 7.58594 2.17462 7.59844 2.19962 7.62344C2.22462 7.63594 2.24961 7.66094 2.27461 7.68594C2.29961 7.71094 2.32461 7.73594 2.33711 7.76094C2.34961 7.78594 2.37462 7.82344 2.38712 7.84844C2.39962 7.87344 2.41211 7.91094 2.41211 7.94844C2.41211 7.98594 2.42462 8.01094 2.42462 8.04844C2.42462 8.08594 2.42461 8.11094 2.41211 8.14844C2.39961 8.17344 2.39962 8.21094 2.38712 8.23594C2.37462 8.26094 2.36211 8.29844 2.33711 8.32344C2.32461 8.34844 2.29961 8.37344 2.27461 8.39844C2.24961 8.42344 2.22462 8.43594 2.19962 8.46094C2.17462 8.47344 2.14962 8.49844 2.11212 8.51094C2.08712 8.52344 2.04962 8.53594 2.01212 8.53594C1.97462 8.54844 1.94961 8.54844 1.91211 8.54844Z" fill="#FFC44C"/>
<path d="M5.68716 6.34847C7.86216 5.47347 10.3372 6.54847 11.2247 8.74847C12.1122 10.9485 11.0747 13.4485 8.89966 14.3235C6.72466 15.1985 4.24967 14.1235 3.36217 11.9235C2.48717 9.72347 3.52466 7.22347 5.68716 6.34847Z" fill="url(#paint0_linear_3783_14575)"/>
<path d="M8.27473 19.6486C8.26223 19.6486 8.26224 19.6486 8.24974 19.6486C5.96224 19.5486 4.18723 17.6111 4.28723 15.3236C4.38723 13.0361 6.32474 11.2611 8.61224 11.3611C8.61224 11.3611 8.61224 11.3611 8.62474 11.3611C8.73724 10.1611 9.27473 9.07361 10.1622 8.26111C11.1122 7.39861 12.3372 6.94861 13.6247 7.01111C15.9997 7.11111 17.9122 8.92361 18.1872 11.2361C18.3747 11.2236 18.5622 11.2111 18.7497 11.2236C21.0372 11.3236 22.8122 13.2611 22.7122 15.5486C22.6622 16.6611 22.1872 17.6736 21.3622 18.4236C20.5497 19.1736 19.4872 19.5486 18.3997 19.5111L8.27473 19.6486C8.27473 19.6486 8.28723 19.6486 8.27473 19.6486ZM8.43724 12.3611C6.76224 12.3611 5.37474 13.6861 5.29974 15.3736C5.22474 17.0986 6.56223 18.5736 8.28723 18.6611L18.3997 18.5111C18.4122 18.5111 18.4247 18.5111 18.4247 18.5111C19.2622 18.5486 20.0747 18.2611 20.6872 17.6861C21.3122 17.1236 21.6747 16.3486 21.7122 15.4986C21.7872 13.7611 20.4372 12.2861 18.7122 12.2111C18.4247 12.1986 18.1247 12.2236 17.8497 12.2986C17.6997 12.3361 17.5497 12.2986 17.4247 12.1986C17.2997 12.0986 17.2372 11.9611 17.2372 11.8111C17.2372 9.77361 15.6372 8.09861 13.5997 8.01111C11.5372 7.92361 9.78724 9.48611 9.63724 11.5361C10.6622 11.8361 11.5372 12.5236 12.0747 13.4861C12.2122 13.7236 12.1247 14.0361 11.8872 14.1611C11.6497 14.2986 11.3372 14.2111 11.2122 13.9736C10.6747 13.0111 9.69973 12.4111 8.59973 12.3611C8.53723 12.3611 8.48724 12.3611 8.43724 12.3611Z" fill="#2F2F2F"/>
<defs>
<linearGradient id="paint0_linear_3783_14575" x1="8.91521" y1="14.3216" x2="5.69397" y2="6.34873" gradientUnits="userSpaceOnUse">
<stop stop-color="#FFC14C"/>
<stop offset="1" stop-color="#FFD04D"/>
</linearGradient>
</defs>
</svg>
