<svg width="25" height="25" viewBox="0 0 25 25" fill="none" xmlns="http://www.w3.org/2000/svg">
<path d="M8.59405 14.4531C8.59405 13.1397 8.98352 11.8558 9.7132 10.7638C10.4429 9.67175 11.48 8.8206 12.6934 8.31799C13.9068 7.81538 15.242 7.68387 16.5302 7.9401C17.8184 8.19633 19.0016 8.82879 19.9303 9.7575C20.859 10.6862 21.4915 11.8695 21.7477 13.1576C22.0039 14.4458 21.8724 15.781 21.3698 16.9944C20.8672 18.2078 20.0161 19.2449 18.924 19.9746C17.832 20.7043 16.5481 21.0938 15.2347 21.0938H7.42217C6.79829 21.0932 6.182 20.9569 5.61614 20.6941C5.05028 20.4313 4.54842 20.0485 4.14545 19.5722C3.74249 19.0959 3.44807 18.5376 3.28266 17.9361C3.11726 17.3345 3.08484 16.7041 3.18766 16.0888C3.29047 15.4734 3.52605 14.8878 3.87803 14.3727C4.23001 13.8576 4.68994 13.4253 5.22586 13.1059C5.76178 12.7865 6.36082 12.5876 6.98137 12.523C7.60191 12.4585 8.22906 12.5299 8.81923 12.7322" stroke="#212224" stroke-width="2" stroke-linecap="round" stroke-linejoin="round"/>
<path d="M7.78004 5.54008L7.37305 3.23193" stroke="#212224" stroke-width="2" stroke-linecap="round" stroke-linejoin="round"/>
<path d="M4.75387 7.46664L2.83398 6.12231" stroke="#212224" stroke-width="2" stroke-linecap="round" stroke-linejoin="round"/>
<path d="M3.97807 10.968L1.66992 11.375" stroke="#212224" stroke-width="2" stroke-linecap="round" stroke-linejoin="round"/>
<path d="M11.2812 6.31686L12.6256 4.39697" stroke="#212224" stroke-width="2" stroke-linecap="round" stroke-linejoin="round"/>
<path d="M5.04268 13.2182C4.60288 12.7084 4.27805 12.1098 4.09029 11.4632C3.90252 10.8166 3.85623 10.1372 3.95457 9.47111C4.0529 8.80502 4.29355 8.16793 4.66014 7.60318C5.02673 7.03843 5.51067 6.55926 6.07903 6.19828C6.64738 5.8373 7.28682 5.60297 7.95385 5.51124C8.62087 5.41951 9.29983 5.47253 9.94453 5.66669C10.5892 5.86085 11.1845 6.19159 11.69 6.63642C12.1954 7.08125 12.5991 7.62973 12.8736 8.24454" stroke="#212224" stroke-width="2" stroke-linecap="round" stroke-linejoin="round"/>
</svg>
