<svg width="24" height="24" viewBox="0 0 24 24" fill="none" xmlns="http://www.w3.org/2000/svg">
<path d="M21.8034 9.34305C21.1784 11.9555 18.5659 13.5555 15.9659 12.943C13.3534 12.318 11.7534 9.70555 12.3659 7.10555C12.9909 4.49305 15.6034 2.89305 18.2034 3.50555C18.4159 3.55555 18.6159 3.61805 18.8159 3.69305C17.6284 5.21805 17.8909 7.41805 19.4159 8.60555C20.0909 9.13055 20.9409 9.39305 21.8034 9.34305Z" fill="url(#paint0_linear_3783_14217)"/>
<path d="M18.5275 16.4804C18.4275 16.4804 18.315 16.4429 18.2275 16.3804C18.0025 16.2179 17.965 15.9054 18.1275 15.6804C18.4775 15.2054 18.6775 14.6429 18.7025 14.0554C18.7775 12.4304 17.515 11.0554 15.89 10.9804C15.615 10.9679 15.34 10.9929 15.0775 11.0554C14.9275 11.0929 14.7775 11.0554 14.6525 10.9554C14.5275 10.8554 14.465 10.7179 14.465 10.5679C14.465 8.65539 12.965 7.09289 11.0525 7.00539C9.08998 6.91789 7.41498 8.44289 7.32748 10.4054L7.31498 10.6929C7.30248 10.9679 7.06498 11.1804 6.78998 11.1679C6.51498 11.1554 6.30248 10.9179 6.31498 10.6429L6.32748 10.3554C6.43998 7.84289 8.57748 5.88039 11.09 5.99289C13.34 6.09289 15.14 7.79289 15.415 9.98039C15.59 9.96789 15.7525 9.96789 15.9275 9.96789C18.1025 10.0679 19.79 11.9179 19.69 14.0804C19.6525 14.8679 19.39 15.6179 18.915 16.2554C18.84 16.4054 18.69 16.4804 18.5275 16.4804Z" fill="white"/>
<path d="M4.14045 17.3305C4.04045 17.3305 3.92795 17.293 3.84045 17.2305C2.79045 16.443 2.20295 15.193 2.25295 13.893C2.30295 12.843 2.75295 11.868 3.52795 11.1555C4.30295 10.443 5.31545 10.0805 6.37795 10.1305C7.74045 10.193 8.99045 10.968 9.65295 12.168C9.79045 12.4055 9.70295 12.718 9.45295 12.843C9.21545 12.9805 8.90295 12.893 8.77795 12.643C8.29045 11.7555 7.35295 11.168 6.32795 11.118C5.54045 11.0805 4.79045 11.3555 4.20295 11.893C3.62795 12.418 3.29045 13.143 3.25295 13.9305C3.20295 14.9055 3.65295 15.843 4.42795 16.418C4.65295 16.5805 4.69045 16.893 4.52795 17.118C4.44045 17.2555 4.29045 17.3305 4.14045 17.3305Z" fill="white"/>
<path d="M14.7158 20.5057C14.5908 20.5057 14.4658 20.4557 14.3658 20.3557C14.1658 20.1557 14.1658 19.8432 14.3658 19.6432L16.4283 17.5807C16.6283 17.3807 16.9408 17.3807 17.1408 17.5807C17.3408 17.7807 17.3408 18.0932 17.1408 18.2932L15.0783 20.3557C14.9658 20.4557 14.8408 20.5057 14.7158 20.5057Z" fill="#57AAFF"/>
<path d="M5.35254 20.0306C5.22754 20.0306 5.10254 19.9806 5.00254 19.8806C4.80254 19.6806 4.80254 19.3681 5.00254 19.1681L7.06504 17.1056C7.26504 16.9056 7.57754 16.9056 7.77754 17.1056C7.97754 17.3056 7.97754 17.6181 7.77754 17.8181L5.70254 19.8806C5.61504 19.9806 5.47754 20.0306 5.35254 20.0306Z" fill="#57AAFF"/>
<path d="M13.4909 17.8182C13.3659 17.8182 13.2409 17.7682 13.1409 17.6807C12.9409 17.4932 12.9409 17.1682 13.1284 16.9682L14.8034 15.2307C14.9909 15.0307 15.3159 15.0307 15.5159 15.2182C15.7159 15.4057 15.7159 15.7307 15.5284 15.9307L13.8534 17.6682C13.7409 17.7682 13.6159 17.8182 13.4909 17.8182Z" fill="#57AAFF"/>
<path d="M10.1526 20.5554C10.0276 20.5554 9.89008 20.5054 9.80258 20.4054C9.60258 20.2054 9.61508 19.8929 9.80258 19.6929L10.8651 18.6429C11.0651 18.4429 11.3776 18.4554 11.5776 18.6429C11.7776 18.8429 11.7651 19.1554 11.5776 19.3554L10.5151 20.4054C10.4026 20.5054 10.2776 20.5554 10.1526 20.5554Z" fill="#57AAFF"/>
<path d="M9.30336 18.1929C9.17836 18.1929 9.05336 18.1429 8.95336 18.0554C8.75336 17.8679 8.75336 17.5429 8.94086 17.3429L10.6284 15.6179C10.8159 15.4179 11.1409 15.4179 11.3409 15.6054C11.5409 15.7929 11.5409 16.1179 11.3534 16.3179L9.67836 18.0554C9.56586 18.1429 9.44086 18.1929 9.30336 18.1929Z" fill="#57AAFF"/>
<path d="M3.09082 8.19297C3.05332 8.19297 3.02832 8.19297 2.99082 8.18047C2.95332 8.18047 2.92832 8.16797 2.89082 8.15547C2.86582 8.14297 2.82832 8.13047 2.80332 8.10547C2.77832 8.09297 2.75332 8.06797 2.72832 8.04297C2.70332 8.01797 2.69082 7.99297 2.66582 7.96797C2.65332 7.94297 2.64082 7.90547 2.62832 7.88047C2.61582 7.85547 2.60332 7.81797 2.60332 7.78047C2.60332 7.74297 2.59082 7.71797 2.59082 7.68047C2.59082 7.54297 2.64082 7.41797 2.74082 7.33047C2.76582 7.30547 2.79082 7.29297 2.81582 7.26797C2.84082 7.25547 2.87832 7.23047 2.90332 7.21797C2.92832 7.20547 2.96582 7.19297 3.00332 7.19297C3.06582 7.18047 3.14082 7.18047 3.20332 7.19297C3.24082 7.19297 3.26582 7.20547 3.30332 7.21797C3.32832 7.23047 3.36582 7.24297 3.39082 7.26797C3.41582 7.29297 3.44082 7.30547 3.46582 7.33047C3.46582 7.35547 3.49082 7.38047 3.50332 7.41797C3.51582 7.44297 3.54082 7.48047 3.55332 7.50547C3.56582 7.53047 3.57832 7.56797 3.57832 7.60547C3.57832 7.63047 3.59082 7.66797 3.59082 7.70547C3.59082 7.74297 3.59082 7.76797 3.57832 7.80547C3.57832 7.83047 3.56582 7.86797 3.55332 7.90547C3.54082 7.93047 3.52832 7.96797 3.50332 7.99297C3.49082 8.01797 3.46582 8.04297 3.44082 8.06797C3.35332 8.13047 3.21582 8.19297 3.09082 8.19297Z" fill="white"/>
<path d="M5.17754 8.53072C5.14004 8.53072 5.11504 8.53072 5.07754 8.51822C5.05254 8.50572 5.01504 8.50572 4.97754 8.49322C4.95254 8.48072 4.91504 8.46822 4.89004 8.44322C4.86504 8.43072 4.84004 8.40572 4.81504 8.38072C4.79004 8.35572 4.76504 8.33072 4.75254 8.30572C4.74004 8.28072 4.71504 8.24322 4.70254 8.21822C4.69004 8.19322 4.67754 8.15572 4.67754 8.11822C4.67754 8.08072 4.66504 8.05572 4.66504 8.01822C4.66504 7.88072 4.71504 7.75572 4.81504 7.66822C4.84004 7.64322 4.86504 7.61822 4.89004 7.60572C4.91504 7.59322 4.95254 7.56822 4.97754 7.55572C5.00254 7.54322 5.04004 7.53072 5.07754 7.53072C5.24004 7.50572 5.41504 7.55572 5.52754 7.66822C5.62754 7.75572 5.67754 7.89322 5.67754 8.01822C5.67754 8.05572 5.67754 8.08072 5.66504 8.11822C5.65254 8.14322 5.65254 8.18072 5.64004 8.21822C5.62754 8.24322 5.61504 8.28072 5.59004 8.30572C5.56504 8.33072 5.55254 8.35572 5.52754 8.38072C5.44004 8.48072 5.31504 8.53072 5.17754 8.53072Z" fill="#9975FF"/>
<path d="M6.37793 6.05553C6.34043 6.05553 6.31543 6.05553 6.27793 6.04303C6.24043 6.04303 6.21543 6.03053 6.17793 6.01803C6.15293 6.00553 6.11543 5.99303 6.09043 5.96803C6.06543 5.95553 6.04043 5.93053 6.01543 5.90553C5.99043 5.88053 5.97793 5.85553 5.95293 5.83053C5.94043 5.80553 5.91543 5.76803 5.90293 5.74303C5.89043 5.71803 5.87793 5.68053 5.87793 5.64303C5.89043 5.63053 5.87793 5.59303 5.87793 5.55553C5.87793 5.43053 5.92793 5.29303 6.02793 5.20553C6.14043 5.09303 6.31543 5.03053 6.47793 5.06803C6.50293 5.06803 6.54043 5.08053 6.57793 5.09303C6.60293 5.10553 6.64043 5.11803 6.66543 5.14303C6.69043 5.16803 6.71543 5.18053 6.74043 5.20553C6.82793 5.30553 6.89043 5.43053 6.89043 5.55553C6.89043 5.59303 6.89043 5.61803 6.87793 5.65553C6.86543 5.69303 6.86543 5.71803 6.85293 5.75553C6.84043 5.78053 6.82793 5.81803 6.80293 5.84303C6.79043 5.86803 6.76543 5.89303 6.74043 5.91803C6.71543 5.94303 6.69043 5.96803 6.66543 5.98053C6.64043 5.99303 6.60293 6.01803 6.57793 6.03053C6.55293 6.04303 6.51543 6.05553 6.47793 6.05553C6.45293 6.05553 6.41543 6.05553 6.37793 6.05553Z" fill="#9975FF"/>
<defs>
<linearGradient id="paint0_linear_3783_14217" x1="14.9367" y1="3.83015" x2="18.4136" y2="12.8879" gradientUnits="userSpaceOnUse">
<stop stop-color="#B9A0FF"/>
<stop offset="1" stop-color="#855AFF"/>
</linearGradient>
</defs>
</svg>
