<svg width="20" height="20" viewBox="0 0 20 20" fill="none" xmlns="http://www.w3.org/2000/svg">
<path d="M6.3316 19.0298C6.20671 19.0298 6.08182 18.9799 5.98191 18.8799C5.78207 18.6801 5.78207 18.3679 5.98191 18.168L7.28082 16.8691C7.48065 16.6693 7.79288 16.6693 7.99271 16.8691C8.19255 17.0689 8.19255 17.3812 7.99271 17.581L6.6938 18.8799C6.59389 18.9799 6.4565 19.0298 6.3316 19.0298Z" fill="white"/>
<path d="M7.63051 19.0298C7.50562 19.0298 7.38073 18.9799 7.28082 18.8799L5.98191 17.581C5.78207 17.3812 5.78207 17.0689 5.98191 16.8691C6.18174 16.6693 6.49397 16.6693 6.6938 16.8691L7.99271 18.168C8.19255 18.3679 8.19255 18.6801 7.99271 18.8799C7.88031 18.9799 7.75541 19.0298 7.63051 19.0298Z" fill="white"/>
<path d="M10.1158 15.9824C9.9909 15.9824 9.866 15.9325 9.76609 15.8326C9.56625 15.6327 9.56625 15.3205 9.76609 15.1206L11.065 13.8217C11.2648 13.6219 11.5771 13.6219 11.7769 13.8217C11.9767 14.0216 11.9767 14.3338 11.7769 14.5336L10.478 15.8326C10.3781 15.945 10.2407 15.9824 10.1158 15.9824Z" fill="white"/>
<path d="M11.4147 15.9824C11.2898 15.9824 11.1649 15.9325 11.065 15.8326L9.76609 14.5336C9.56625 14.3338 9.56625 14.0216 9.76609 13.8217C9.96592 13.6219 10.2782 13.6219 10.478 13.8217L11.7769 15.1206C11.9767 15.3205 11.9767 15.6327 11.7769 15.8326C11.677 15.945 11.5396 15.9824 11.4147 15.9824Z" fill="white"/>
<path d="M14.4753 19.3799C14.3504 19.3799 14.2255 19.3299 14.1255 19.23L12.8266 17.9311C12.6268 17.7313 12.6268 17.419 12.8266 17.2192C13.0265 17.0194 13.3387 17.0194 13.5385 17.2192L14.8375 18.5181C15.0373 18.718 15.0373 19.0302 14.8375 19.23C14.725 19.3299 14.6002 19.3799 14.4753 19.3799Z" fill="white"/>
<path d="M13.1763 19.3799C13.0514 19.3799 12.9265 19.3299 12.8266 19.23C12.6268 19.0302 12.6268 18.718 12.8266 18.5181L14.1255 17.2192C14.3254 17.0194 14.6376 17.0194 14.8375 17.2192C15.0373 17.419 15.0373 17.7313 14.8375 17.9311L13.5385 19.23C13.4386 19.3299 13.3012 19.3799 13.1763 19.3799Z" fill="white"/>
<path d="M3.19668 8.75096C3.0593 8.75096 2.92191 8.68852 2.822 8.5886C2.16005 7.83923 1.82284 6.87753 1.88528 5.87837C1.94773 4.87921 2.38486 3.96748 3.13423 3.30553C4.65795 1.95667 6.94353 2.05659 8.32987 3.53035C8.51721 3.73018 8.50473 4.04242 8.30489 4.24225C8.10506 4.42959 7.79283 4.41711 7.593 4.21728C6.56886 3.13069 4.89526 3.06823 3.7837 4.05491C3.23416 4.542 2.90943 5.21643 2.87196 5.94082C2.83449 6.6777 3.07179 7.37711 3.55888 7.92665C3.74622 8.13897 3.72124 8.45121 3.52141 8.62606C3.43398 8.71349 3.30909 8.75096 3.19668 8.75096Z" fill="white"/>
<path d="M3.95856 1.63226C3.82118 1.63226 3.69629 1.5823 3.60887 1.48238C3.52144 1.38247 3.45898 1.25757 3.45898 1.13268C3.45898 1.09521 3.459 1.07023 3.47149 1.03277C3.48398 0.995297 3.48397 0.970312 3.49646 0.932843C3.50895 0.907864 3.52144 0.870402 3.54642 0.845423C3.55891 0.820444 3.58389 0.79546 3.60887 0.770481C3.70878 0.683055 3.83367 0.620605 3.95856 0.620605C4.09595 0.620605 4.22085 0.670565 4.30828 0.770481C4.33326 0.79546 4.34575 0.820444 4.37072 0.845423C4.38321 0.870402 4.4082 0.907864 4.42069 0.932843C4.43318 0.957822 4.44566 0.995297 4.44566 1.03277C4.45815 1.07023 4.45814 1.09521 4.45814 1.13268C4.45814 1.25757 4.40819 1.39496 4.30828 1.48238C4.22085 1.5823 4.08346 1.63226 3.95856 1.63226Z" fill="white"/>
<path d="M0.49958 7.58992C0.362196 7.58992 0.237295 7.53996 0.149868 7.44004C0.124889 7.41506 0.112399 7.39008 0.0874204 7.36511C0.0749309 7.34013 0.0499641 7.31515 0.0374746 7.27769C0.0249851 7.25271 0.0124865 7.21523 0.0124865 7.17776C0.0124865 7.14029 0 7.11532 0 7.07786C0 7.04039 -3.04938e-06 7.0154 0.0124865 6.97793C0.024976 6.94047 0.0249851 6.91548 0.0374746 6.87801C0.0499641 6.85303 0.0624414 6.81557 0.0874204 6.79059C0.112399 6.76561 0.124889 6.74064 0.149868 6.71566C0.262274 6.60325 0.437139 6.54081 0.599502 6.57828C0.636971 6.57828 0.661941 6.59076 0.699409 6.60325C0.724388 6.61574 0.761866 6.62823 0.786845 6.65321C0.811824 6.6657 0.8368 6.69068 0.861779 6.71566C0.886758 6.74064 0.911737 6.76561 0.924227 6.79059C0.936716 6.81557 0.961698 6.85303 0.974188 6.87801C0.986677 6.90299 0.999161 6.94047 0.999161 6.97793C1.01165 7.00291 1.01165 7.04039 1.01165 7.07786C1.01165 7.11532 1.01165 7.14029 0.999161 7.17776C0.986671 7.20274 0.986677 7.24022 0.974188 7.27769C0.961698 7.30266 0.949206 7.34013 0.924227 7.36511C0.911737 7.39008 0.886758 7.41506 0.861779 7.44004C0.8368 7.46502 0.811824 7.49 0.786845 7.50249C0.761866 7.51498 0.736878 7.53996 0.699409 7.55245C0.661941 7.56494 0.636971 7.57744 0.599502 7.57744C0.562034 7.57744 0.537049 7.58992 0.49958 7.58992Z" fill="white"/>
<path d="M7.64293 2.11963C7.60546 2.11963 7.58049 2.11963 7.54302 2.10714C7.50555 2.10714 7.48057 2.09465 7.4431 2.08216C7.41812 2.06967 7.38066 2.05719 7.35568 2.03221C7.3307 2.00723 7.30572 1.99474 7.28074 1.96976C7.19332 1.88234 7.13086 1.74494 7.13086 1.62005C7.13086 1.48267 7.18083 1.35777 7.28074 1.27035C7.39315 1.15794 7.568 1.0955 7.73036 1.13296C7.75534 1.13296 7.7928 1.14545 7.83027 1.15794C7.86774 1.17043 7.89273 1.18292 7.9177 1.2079C7.94268 1.22039 7.96766 1.24537 7.99264 1.27035C8.08006 1.37026 8.14251 1.49515 8.14251 1.62005C8.14251 1.74494 8.09255 1.88234 7.99264 1.96976C7.96766 1.99474 7.94268 2.00723 7.9177 2.03221C7.89273 2.0447 7.86774 2.06967 7.83027 2.08216C7.80529 2.09465 7.76783 2.10714 7.73036 2.10714C7.71787 2.11963 7.68039 2.11963 7.64293 2.11963Z" fill="white"/>
<path d="M0.998604 3.89259C0.861219 3.89259 0.736318 3.84262 0.648891 3.7427C0.548975 3.65528 0.499023 3.5179 0.499023 3.39301C0.499023 3.25562 0.548975 3.13072 0.648891 3.04329C0.761297 2.93089 0.936162 2.86844 1.09853 2.90591C1.13599 2.9184 1.16096 2.9184 1.19843 2.93089C1.22341 2.94338 1.26089 2.95587 1.28587 2.98085C1.31085 2.99334 1.33582 3.01832 1.3608 3.04329C1.46072 3.13072 1.51067 3.26811 1.51067 3.39301C1.51067 3.53039 1.46072 3.65528 1.3608 3.7427C1.33582 3.76768 1.31085 3.79266 1.28587 3.80515C1.26089 3.81764 1.2359 3.84262 1.19843 3.85511C1.16096 3.8676 1.13599 3.88009 1.09853 3.88009C1.06106 3.89257 1.02358 3.89259 0.998604 3.89259Z" fill="white"/>
<path d="M15.8494 15.0711C15.7869 15.0711 15.7245 15.0711 15.6621 15.0711C15.3873 15.0586 15.175 14.8213 15.1874 14.5465C15.1999 14.2717 15.4372 14.0594 15.712 14.0719C17.4481 14.1468 18.9093 12.798 18.9967 11.0744C19.0717 9.33839 17.7228 7.87711 15.9993 7.78968C15.712 7.77719 15.4123 7.80216 15.1375 7.8771C14.9876 7.91457 14.8377 7.87711 14.7129 7.77719C14.588 7.67728 14.5255 7.5399 14.5255 7.39002C14.5255 5.35423 12.9268 3.68064 10.8911 3.59321C8.79281 3.49329 7.01931 5.12942 6.9194 7.21517L6.90691 7.51492C6.89442 7.78969 6.65711 8.002 6.38234 7.98951C6.10757 7.97702 5.89526 7.73973 5.90775 7.46496L5.92024 7.1652C6.03264 4.51743 8.28075 2.46916 10.9285 2.58156C13.3015 2.68148 15.1999 4.49245 15.4747 6.80301C15.6621 6.79052 15.8494 6.77803 16.0367 6.79052C17.1483 6.84048 18.16 7.31507 18.9093 8.12689C19.6587 8.93871 20.0459 10.0003 19.9959 11.1119C19.9459 12.2235 19.4714 13.2351 18.6595 13.9845C17.8602 14.6964 16.886 15.0711 15.8494 15.0711Z" fill="white"/>
<path d="M5.57021 15.2211C5.55772 15.2211 5.55773 15.2211 5.54524 15.2211C3.25966 15.1212 1.48614 13.1853 1.58605 10.8997C1.68597 8.61415 3.62186 6.84063 5.90744 6.94055C7.33124 7.00299 8.60516 7.77736 9.31706 9.01382C9.45445 9.25112 9.36702 9.56335 9.12972 9.70074C8.89242 9.83812 8.58018 9.7507 8.4428 9.5134C7.90575 8.57668 6.94406 7.98966 5.85747 7.93971C4.12143 7.86477 2.64767 9.21364 2.57273 10.9372C2.49779 12.6732 3.84666 14.1345 5.57021 14.2219C5.84498 14.2344 6.05731 14.4717 6.04482 14.7465C6.05731 15.0088 5.83249 15.2211 5.57021 15.2211Z" fill="white"/>
</svg>
