<svg width="24" height="24" viewBox="0 0 24 24" fill="none" xmlns="http://www.w3.org/2000/svg">
<path d="M19.1302 16.6594C18.9274 16.6594 18.7247 16.5378 18.6436 16.3486C18.522 16.0782 18.6436 15.7539 18.9139 15.6322C20.0899 15.0915 20.8603 13.9696 20.9144 12.672C20.9955 10.7932 19.5357 9.18478 17.6569 9.10368C17.346 9.09016 17.0216 9.11719 16.7107 9.19829C16.5485 9.23884 16.3863 9.19828 16.2511 9.09015C16.116 8.98202 16.0484 8.83335 16.0484 8.67115C16.0484 6.45443 14.3183 4.6432 12.1015 4.54859C10.9932 4.49452 9.93889 4.8865 9.12789 5.62992C8.3169 6.37333 7.84383 7.38707 7.78976 8.49543L7.77623 8.81982C7.76272 9.11718 7.51942 9.34697 7.20854 9.33345C6.91118 9.31994 6.68139 9.06313 6.6949 8.76576L6.70843 8.44134C6.83008 5.56231 9.27658 3.33209 12.1421 3.46726C14.7238 3.58891 16.7918 5.5488 17.0892 8.04938C17.2919 8.03586 17.4947 8.02233 17.6974 8.03585C20.171 8.14398 22.1038 10.2526 21.9957 12.7261C21.9146 14.4292 20.9144 15.916 19.36 16.6189C19.2789 16.6459 19.2113 16.6594 19.1302 16.6594Z" fill="white"/>
<path d="M4.14026 16.4026C4.03213 16.4026 3.91046 16.362 3.81584 16.2945C2.61286 15.4024 1.93705 13.9831 2.00463 12.4828C2.11276 10.0092 4.22135 8.07637 6.69489 8.1845C8.26281 8.25208 9.65504 9.11715 10.4255 10.4823C10.5742 10.7391 10.4795 11.077 10.2227 11.2122C9.96592 11.3609 9.62798 11.2663 9.49282 11.0095C8.9116 9.96868 7.85732 9.3199 6.66786 9.26583C4.78905 9.18473 3.18059 10.6445 3.09949 12.5233C3.04542 13.6587 3.55904 14.7401 4.47817 15.4159C4.72147 15.5916 4.76203 15.9295 4.58631 16.1728C4.47818 16.3215 4.31598 16.4026 4.14026 16.4026Z" fill="white"/>
<path d="M14.7762 19.4717C14.6275 19.4717 14.4924 19.4176 14.3842 19.296C14.1815 19.0797 14.195 18.7283 14.4112 18.5255L16.6955 16.4169C16.9118 16.2142 17.2632 16.2277 17.466 16.444C17.6687 16.6602 17.6552 17.0117 17.439 17.2144L15.1547 19.323C15.033 19.4176 14.9114 19.4717 14.7762 19.4717Z" fill="white"/>
<path d="M5.58536 18.6599C5.45019 18.6599 5.30152 18.6059 5.19339 18.4977C4.99064 18.2815 4.99062 17.9436 5.20689 17.7273L7.4101 15.5781C7.62637 15.3754 7.96428 15.3754 8.18054 15.5917C8.38329 15.8079 8.38331 16.1458 8.16705 16.3621L5.96383 18.5112C5.8557 18.6059 5.72053 18.6599 5.58536 18.6599Z" fill="white"/>
<path d="M14.4262 16.4437C14.291 16.4437 14.1559 16.3897 14.0477 16.295C13.8315 16.0923 13.8314 15.7409 14.0342 15.5246L16.0211 13.4701C16.2239 13.2538 16.5753 13.2538 16.7916 13.4566C17.0078 13.6593 17.0078 14.0107 16.8051 14.227L14.8182 16.2815C14.71 16.3761 14.5613 16.4437 14.4262 16.4437Z" fill="white"/>
<path d="M10.1 20.5385C9.96483 20.5385 9.82969 20.4844 9.72155 20.3898C9.50529 20.187 9.50527 19.8356 9.70802 19.6193L11.695 17.5648C11.8977 17.3485 12.2491 17.3486 12.4654 17.5513C12.6817 17.7541 12.6817 18.1055 12.4789 18.3217L10.492 20.3763C10.3839 20.4844 10.2487 20.5385 10.1 20.5385Z" fill="white"/>
<path d="M9.88518 17.079C9.75002 17.079 9.61484 17.0249 9.50671 16.9303C9.29044 16.7276 9.29043 16.3761 9.49318 16.1599L11.4801 14.1053C11.6829 13.8891 12.0343 13.8891 12.2506 14.0918C12.4669 14.2946 12.4668 14.646 12.2641 14.8623L10.2772 16.9168C10.1555 17.0249 10.0203 17.079 9.88518 17.079Z" fill="white"/>
</svg>
