<svg width="24" height="24" viewBox="0 0 24 24" fill="none" xmlns="http://www.w3.org/2000/svg">
<path d="M2.49383 7.03691C2.3591 7.03691 2.23661 6.9879 2.15088 6.88991C2.06514 6.80418 2.00391 6.66947 2.00391 6.54699C2.00391 6.51025 2.0039 6.48575 2.01615 6.449C2.0284 6.41226 2.02841 6.38776 2.04066 6.35101C2.0529 6.32652 2.06514 6.28978 2.08964 6.26528C2.11413 6.24079 2.12638 6.21628 2.15088 6.19178C2.26111 6.08155 2.43259 6.02033 2.59182 6.05707C2.62856 6.05707 2.65305 6.06931 2.68979 6.08156C2.71429 6.09381 2.75104 6.10605 2.77554 6.13054C2.80003 6.14279 2.82453 6.16729 2.84902 6.19178C2.87352 6.21628 2.89802 6.24079 2.91026 6.26528C2.92251 6.28978 2.94701 6.32652 2.95926 6.35101C2.97151 6.37551 2.98375 6.41226 2.98375 6.449C2.996 6.48575 2.99599 6.51025 2.99599 6.54699C2.99599 6.66947 2.94701 6.80418 2.84902 6.88991C2.82453 6.91441 2.80003 6.92666 2.77554 6.95115C2.75104 6.9634 2.72654 6.98792 2.68979 7.00016C2.65305 7.01241 2.62856 7.02465 2.59182 7.02465C2.55507 7.0369 2.53057 7.03691 2.49383 7.03691Z" fill="white"/>
<path d="M4.77215 7.44121C4.63742 7.44121 4.51495 7.39222 4.42921 7.29424C4.40472 7.26974 4.38022 7.24526 4.36797 7.22077C4.35572 7.19627 4.33122 7.17175 4.31898 7.13501C4.30673 7.11051 4.29447 7.07379 4.29447 7.03705C4.28222 7.0003 4.28223 6.9758 4.28223 6.93906C4.28223 6.80433 4.33123 6.68184 4.42921 6.59611C4.45371 6.57161 4.4782 6.54711 4.5027 6.53486C4.52719 6.52262 4.56393 6.49813 4.58843 6.48588C4.61292 6.47364 4.64967 6.46136 4.68642 6.46136C4.84564 6.42462 5.01711 6.48587 5.12734 6.59611C5.21308 6.69409 5.27431 6.81658 5.27431 6.93906C5.27431 6.9758 5.27432 7.0003 5.26207 7.03705C5.24982 7.07379 5.24983 7.09826 5.23758 7.13501C5.22533 7.1595 5.21308 7.19627 5.18858 7.22077C5.17634 7.24526 5.15184 7.26974 5.12734 7.29424C5.01711 7.39222 4.89463 7.44121 4.77215 7.44121Z" fill="white"/>
<path d="M6.04514 4.80791C6.00839 4.80791 5.98389 4.80793 5.94715 4.79568C5.92265 4.78343 5.88591 4.78343 5.84917 4.77119C5.81243 4.75894 5.78792 4.74667 5.76342 4.72218C5.73893 4.70993 5.71444 4.68543 5.68994 4.66094C5.6042 4.5752 5.54297 4.44047 5.54297 4.31799C5.54297 4.28124 5.54297 4.25677 5.55521 4.22003C5.56746 4.18328 5.56746 4.15878 5.5797 4.12203C5.59195 4.09754 5.6042 4.0608 5.6287 4.0363C5.64095 4.01181 5.66544 3.9873 5.68994 3.9628C5.71444 3.93831 5.73893 3.91381 5.76342 3.90156C5.78792 3.88932 5.81243 3.86483 5.84917 3.85258C5.87367 3.84034 5.9104 3.82806 5.94715 3.82806C6.10637 3.79132 6.27785 3.85257 6.38809 3.9628C6.47382 4.06079 6.53506 4.18328 6.53506 4.30576C6.53506 4.42824 6.48607 4.56297 6.38809 4.64871C6.30235 4.75894 6.17986 4.80791 6.04514 4.80791Z" fill="white"/>
<path d="M15.9906 16.5906C15.9294 16.5906 15.8682 16.5906 15.8069 16.5906C15.5375 16.5783 15.3293 16.3456 15.3415 16.0761C15.3538 15.8067 15.5865 15.5985 15.8559 15.6107C16.6765 15.6475 17.4727 15.3657 18.0728 14.8023C18.6852 14.2512 19.0404 13.4918 19.0772 12.6589C19.1507 10.9564 17.8279 9.51117 16.1376 9.43768C15.8559 9.42543 15.562 9.44992 15.2925 9.52341C15.1455 9.56016 14.9986 9.52344 14.8761 9.42545C14.7536 9.32747 14.6924 9.19273 14.6924 9.04575C14.6924 7.04932 13.1246 5.40809 11.1282 5.32236C9.07051 5.23662 7.33128 6.82885 7.2333 8.88652L7.22105 9.18049L6.24121 9.14374L6.25346 8.84977C6.3147 7.58822 6.85361 6.43691 7.78446 5.57955C8.71531 4.73443 9.91563 4.2935 11.1772 4.35474C13.5043 4.45273 15.3783 6.2287 15.6477 8.49459C15.8314 8.48234 16.0152 8.47008 16.1989 8.48233C17.2889 8.53132 18.281 8.99675 19.0159 9.80512C19.7508 10.6012 20.1305 11.6423 20.0815 12.7324C20.0325 13.8225 19.5671 14.8146 18.7587 15.5495C17.9748 16.2109 17.0195 16.5906 15.9906 16.5906Z" fill="white"/>
<path d="M5.91107 16.7253C5.89882 16.7253 5.89882 16.7253 5.88657 16.7253C3.64518 16.6273 1.90596 14.7288 2.00395 12.4875C2.05294 11.3974 2.51837 10.4053 3.32674 9.6704C4.13511 8.93552 5.16393 8.55581 6.25401 8.6048C7.65029 8.66604 8.89959 9.42543 9.59773 10.638C9.73246 10.8707 9.64672 11.1769 9.41401 11.3116C9.1813 11.4464 8.8751 11.3606 8.74037 11.1279C8.2137 10.2093 7.25836 9.63363 6.20503 9.58464C5.38441 9.5479 4.58828 9.82961 3.98812 10.393C3.37572 10.9442 3.02053 11.7036 2.98379 12.5364C2.9103 14.2389 4.23309 15.6842 5.92332 15.7577C6.19277 15.7699 6.401 16.0026 6.38875 16.2721C6.38875 16.517 6.16828 16.7253 5.91107 16.7253Z" fill="white"/>
<path d="M6.60905 20.3137C6.48657 20.3137 6.3641 20.2648 6.26612 20.1668C6.07015 19.9708 6.07015 19.6646 6.26612 19.4686L7.5399 18.1948C7.73587 17.9989 8.04208 17.9989 8.23805 18.1948C8.43402 18.3908 8.43402 18.697 8.23805 18.893L6.96425 20.1668C6.86627 20.2648 6.74378 20.3137 6.60905 20.3137Z" fill="white"/>
<path d="M7.88285 20.3137C7.76037 20.3137 7.63789 20.2648 7.5399 20.1668L6.26612 18.893C6.07015 18.697 6.07015 18.3908 6.26612 18.1948C6.46209 17.9989 6.76828 17.9989 6.96425 18.1948L8.23805 19.4686C8.43402 19.6646 8.43402 19.9708 8.23805 20.1668C8.14006 20.2648 8.00533 20.3137 7.88285 20.3137Z" fill="white"/>
<path d="M10.321 17.325C10.1985 17.325 10.076 17.276 9.97803 17.178C9.78206 16.982 9.78206 16.6758 9.97803 16.4798L11.2518 15.2061C11.4478 15.0101 11.754 15.0101 11.95 15.2061C12.1459 15.402 12.1459 15.7082 11.95 15.9042L10.6762 17.178C10.5782 17.276 10.4557 17.325 10.321 17.325Z" fill="white"/>
<path d="M11.5948 17.325C11.4723 17.325 11.3498 17.276 11.2518 17.178L9.97803 15.9042C9.78206 15.7082 9.78206 15.402 9.97803 15.2061C10.174 15.0101 10.4802 15.0101 10.6762 15.2061L11.95 16.4798C12.1459 16.6758 12.1459 16.982 11.95 17.178C11.852 17.276 11.7173 17.325 11.5948 17.325Z" fill="white"/>
<path d="M14.5948 20.6565C14.4723 20.6565 14.3498 20.6075 14.2518 20.5095L12.978 19.2357C12.7821 19.0398 12.7821 18.7336 12.978 18.5376C13.174 18.3416 13.4802 18.3416 13.6762 18.5376L14.95 19.8114C15.1459 20.0074 15.1459 20.3136 14.95 20.5095C14.852 20.6075 14.7173 20.6565 14.5948 20.6565Z" fill="white"/>
<path d="M13.321 20.6565C13.1985 20.6565 13.076 20.6075 12.978 20.5095C12.7821 20.3136 12.7821 20.0074 12.978 19.8114L14.2518 18.5376C14.4478 18.3416 14.754 18.3416 14.95 18.5376C15.1459 18.7336 15.1459 19.0398 14.95 19.2357L13.6762 20.5095C13.5782 20.6075 13.4557 20.6565 13.321 20.6565Z" fill="white"/>
<path d="M19.6413 11.3238C19.4576 11.3238 19.2739 11.2135 19.2004 11.0421C19.0902 10.7971 19.2004 10.5031 19.4454 10.3929C20.0945 10.099 20.5844 9.53555 20.8662 8.80067C20.3272 8.73943 19.8006 8.5312 19.3596 8.21276C18.1348 7.31865 17.7307 5.70191 18.3063 4.35462C16.861 4.14641 15.4035 4.94254 14.8279 6.32657C14.7299 6.57153 14.4359 6.694 14.191 6.59602C13.946 6.49804 13.8235 6.20409 13.9215 5.95913C14.7789 3.90146 17.0938 2.84813 19.2004 3.57076C19.3474 3.61975 19.4576 3.74222 19.5066 3.88919C19.5556 4.03617 19.5311 4.1954 19.4331 4.33013C18.7105 5.32222 18.931 6.70626 19.9231 7.42889C20.364 7.74734 20.9029 7.89431 21.4541 7.84531C21.6133 7.83307 21.7603 7.88206 21.8705 8.00455C21.9807 8.11478 22.0175 8.274 21.993 8.43323C21.7235 9.75601 20.9519 10.8093 19.8618 11.3115C19.7761 11.3115 19.7026 11.3238 19.6413 11.3238Z" fill="white"/>
</svg>
