<svg width="24" height="24" viewBox="0 0 24 24" fill="none" xmlns="http://www.w3.org/2000/svg">
<path d="M5.21406 11.6667C5.07317 11.6667 4.93228 11.6027 4.82981 11.5002C3.44649 9.95038 3.60019 7.55518 5.15002 6.18467C6.67424 4.82697 8.97978 4.92943 10.3759 6.41522C10.568 6.62016 10.568 6.94037 10.3631 7.14531C10.1581 7.33744 9.83794 7.33744 9.633 7.1325C8.60832 6.05659 6.94322 5.97973 5.82888 6.96599C4.70173 7.96505 4.59925 9.70701 5.59832 10.8342C5.79045 11.0519 5.76482 11.3721 5.55989 11.5514C5.45742 11.6283 5.34215 11.6667 5.21406 11.6667Z" fill="black"/>
<path d="M5.98207 4.51954C5.84117 4.51954 5.71308 4.4683 5.62342 4.36583C5.59781 4.34022 5.57219 4.3146 5.55938 4.28899C5.54657 4.26337 5.52097 4.23775 5.50816 4.19933C5.49535 4.17371 5.48255 4.13528 5.48255 4.09686C5.46974 4.05843 5.46973 4.03282 5.46973 3.99439C5.46973 3.95597 5.46974 3.93034 5.48255 3.89192C5.48255 3.85349 5.49535 3.82788 5.50816 3.78945C5.52097 3.76383 5.53376 3.72541 5.55938 3.69979C5.57219 3.67417 5.59781 3.64856 5.62342 3.62294C5.71308 3.53328 5.85398 3.46924 5.98207 3.46924C6.11015 3.46924 6.25105 3.52047 6.34071 3.62294C6.43037 3.72541 6.49441 3.85349 6.49441 3.98158C6.49441 4.10966 6.44318 4.25056 6.34071 4.34022C6.25105 4.4683 6.11015 4.51954 5.98207 4.51954Z" fill="black"/>
<path d="M2.51234 10.5008C2.37145 10.5008 2.24339 10.4495 2.15373 10.3471C2.06407 10.2574 2 10.1165 2 9.98842C2 9.84752 2.05126 9.71944 2.15373 9.62978C2.24339 9.52731 2.38426 9.47607 2.51234 9.47607C2.65323 9.47607 2.78133 9.52731 2.87099 9.62978C2.96065 9.71944 3.02468 9.86033 3.02468 9.98842C3.02468 10.1165 2.97345 10.2574 2.87099 10.3471C2.78133 10.4367 2.65323 10.5008 2.51234 10.5008Z" fill="black"/>
<path d="M9.68431 5.01915C9.64588 5.01915 9.62029 5.01915 9.58187 5.00634C9.55625 5.00634 9.51782 4.99353 9.47939 4.98072C9.45378 4.96791 9.41536 4.95511 9.38974 4.92949C9.36412 4.91668 9.33849 4.89106 9.31288 4.86545C9.28726 4.83983 9.26164 4.81421 9.24883 4.78859C9.22322 4.76297 9.21042 4.72456 9.19761 4.69894C9.1848 4.67332 9.17197 4.63489 9.17197 4.59646C9.15916 4.55804 9.15918 4.53242 9.15918 4.494C9.15918 4.36591 9.21041 4.22502 9.31288 4.13536C9.33849 4.10974 9.36412 4.08413 9.38974 4.07132C9.41536 4.05851 9.45378 4.03289 9.47939 4.02008C9.50501 4.00727 9.54344 3.99447 9.58187 3.99447C9.64591 3.98166 9.72274 3.98166 9.78678 3.99447C9.82521 3.99447 9.85083 4.00727 9.88926 4.02008C9.91488 4.03289 9.9533 4.0457 9.97891 4.07132C10.0045 4.08413 10.0302 4.10974 10.0558 4.13536C10.1582 4.23783 10.2095 4.36591 10.2095 4.494C10.2095 4.53242 10.2095 4.55804 10.1967 4.59646C10.1838 4.63489 10.1838 4.66051 10.171 4.69894C10.1582 4.72456 10.1454 4.76297 10.1198 4.78859C10.107 4.81421 10.0814 4.83983 10.0558 4.86545C10.0302 4.89106 10.0045 4.91668 9.97891 4.92949C9.9533 4.95511 9.92768 4.96791 9.88926 4.98072C9.86364 4.99353 9.82521 5.00634 9.78678 5.00634C9.76117 5.00634 9.72274 5.01915 9.68431 5.01915Z" fill="black"/>
<path d="M3.01136 6.78652C2.87047 6.78652 2.74238 6.73528 2.65272 6.63281C2.6271 6.6072 2.60149 6.58158 2.58868 6.55597C2.57587 6.53035 2.55026 6.49192 2.53746 6.46631C2.52465 6.44069 2.51181 6.40226 2.51181 6.36384C2.499 6.33822 2.49902 6.29979 2.49902 6.26136C2.49902 6.13328 2.55025 5.99239 2.65272 5.90273C2.74238 5.81307 2.88328 5.74902 3.01136 5.74902C3.13945 5.74902 3.28035 5.80026 3.37001 5.90273C3.45967 6.0052 3.52371 6.13328 3.52371 6.26136C3.52371 6.29979 3.52369 6.32541 3.51088 6.36384C3.49808 6.40226 3.49808 6.42788 3.48527 6.46631C3.47247 6.49192 3.45967 6.53035 3.43405 6.55597C3.42124 6.58158 3.39563 6.6072 3.37001 6.63281C3.28035 6.73528 3.13945 6.78652 3.01136 6.78652Z" fill="black"/>
<path d="M15.0775 20.0431C14.9494 20.0431 14.8213 19.9918 14.7188 19.9022C14.5139 19.71 14.5011 19.377 14.7061 19.1721L17.05 16.7257C17.2421 16.5207 17.5752 16.5207 17.7801 16.7128C17.985 16.905 17.9978 17.238 17.7929 17.4429L15.4489 19.8894C15.3465 19.9918 15.2056 20.0431 15.0775 20.0431Z" fill="black"/>
<path d="M6.49643 19.3131C6.36835 19.3131 6.24025 19.2618 6.13779 19.1722C5.93285 18.9801 5.92006 18.647 6.125 18.4421L8.50736 15.9444C8.69949 15.7395 9.03251 15.7267 9.23744 15.9316C9.44238 16.1238 9.4552 16.4568 9.25026 16.6617L6.86787 19.1594C6.7654 19.2618 6.63732 19.3131 6.49643 19.3131Z" fill="black"/>
<path d="M14.9876 16.7394C14.8595 16.7394 14.7314 16.6881 14.629 16.5985C14.424 16.4063 14.424 16.0733 14.6162 15.8684L16.4478 13.9727C16.6399 13.7678 16.9729 13.7678 17.1779 13.9599C17.3828 14.152 17.3828 14.4851 17.1907 14.69L15.3591 16.5857C15.2566 16.6881 15.1285 16.7394 14.9876 16.7394Z" fill="black"/>
<path d="M11.0032 20.5299C10.8752 20.5299 10.7471 20.4787 10.6446 20.389C10.4397 20.1969 10.4397 19.8639 10.6318 19.6589L12.4634 17.7633C12.6556 17.5583 12.9886 17.5583 13.1935 17.7504C13.3984 17.9426 13.3984 18.2756 13.2063 18.4805L11.3747 20.3762C11.2722 20.4787 11.1441 20.5299 11.0032 20.5299Z" fill="black"/>
<path d="M10.8001 17.3282C10.672 17.3282 10.5439 17.277 10.4415 17.1873C10.2365 16.9952 10.2365 16.6622 10.4287 16.4573L12.2603 14.5616C12.4524 14.3567 12.7854 14.3567 12.9904 14.5488C13.1953 14.7409 13.1953 15.0739 13.0032 15.2789L11.1716 17.1745C11.0691 17.277 10.9282 17.3282 10.8001 17.3282Z" fill="black"/>
<path d="M19.3295 17.5718C19.1374 17.5718 18.9453 17.4565 18.8684 17.2772C18.7531 17.021 18.8684 16.7136 19.1246 16.5983C19.8931 16.2525 20.4694 15.6249 20.764 14.8435C21.0586 14.0622 21.033 13.2041 20.6744 12.4484C20.0596 11.0907 18.5482 10.3478 17.1008 10.6936C16.9471 10.732 16.7934 10.6936 16.6653 10.5911C16.5372 10.4887 16.4732 10.3478 16.4732 10.194C16.4732 9.18218 16.089 8.22154 15.3717 7.50426C14.6544 6.78698 13.7065 6.38992 12.6947 6.38992H12.6819C10.6453 6.38992 8.98021 7.97818 8.89055 10.0275L8.87776 10.3349C8.86495 10.6167 8.62156 10.8345 8.33978 10.8217C8.05799 10.8089 7.84027 10.5655 7.85308 10.2837L7.86587 9.9763C7.98114 7.38898 10.0946 5.36523 12.6819 5.36523H12.6947C13.9755 5.36523 15.1923 5.87758 16.1018 6.78699C16.8703 7.5555 17.3442 8.54175 17.4723 9.60486C19.2014 9.45116 20.8793 10.4118 21.6222 12.0257C22.0833 13.0375 22.1218 14.1647 21.7375 15.2022C21.3532 16.2397 20.5719 17.0722 19.5601 17.5333C19.4704 17.5589 19.3935 17.5718 19.3295 17.5718Z" fill="black"/>
<path d="M5.50975 17.328C5.40728 17.328 5.29198 17.2896 5.20232 17.2256C4.72841 16.8669 4.33134 16.4315 4.04956 15.9191C2.93522 13.921 3.65249 11.3721 5.65062 10.2577C6.62407 9.71978 7.73844 9.57889 8.81435 9.8863C9.87746 10.1937 10.7741 10.8854 11.312 11.8588C11.4529 12.1022 11.3633 12.4224 11.1199 12.5505C10.8765 12.6914 10.5563 12.6017 10.4282 12.3583C10.0183 11.6283 9.3523 11.1031 8.54536 10.8725C7.73842 10.642 6.89305 10.7445 6.16296 11.1543C5.43288 11.5642 4.90775 12.2303 4.67719 13.0372C4.44664 13.8441 4.5491 14.6895 4.95898 15.4196C5.17672 15.8038 5.47132 16.1369 5.82996 16.4058C6.06051 16.5723 6.09895 16.8926 5.93244 17.1231C5.82997 17.264 5.67626 17.328 5.50975 17.328Z" fill="black"/>
</svg>
