<svg width="86" height="364" viewBox="0 0 86 364" fill="none" xmlns="http://www.w3.org/2000/svg">
<path d="M32.5 2C32.5 2 19.701 43.4443 11.5 70M11.5 70C18.5 80.5 32.5 95 32.5 106M11.5 70C7.63971 82.5 13.184 90.8397 14 99C15 109 2 133 2 133M32.5 106C27.7061 133.267 10.1731 164 14.5 186.5M32.5 106C32.5 123.769 38.2751 144.325 41.5 154C44 161.5 61 171.5 61 171.5M14.5 186.5C26.6063 205.245 41.5 228 47.5 240M14.5 186.5C17.4289 201.73 23.5 225.5 23.5 235C23.5 244.5 2 263 2 263M47.5 240C41.6421 281.005 21 317.5 28.5 336.5C31.8049 344.872 47.5 362.5 47.5 362.5M47.5 240C55.1152 255.23 59.5 263 70.5 275.5C79.5793 285.817 84 308 84 308" stroke="white" stroke-width="3" stroke-linecap="round" stroke-linejoin="round"/>
</svg>
