<svg width="25" height="25" viewBox="0 0 25 25" fill="none" xmlns="http://www.w3.org/2000/svg">
<path d="M12.5 17.1875C15.0888 17.1875 17.1875 15.0888 17.1875 12.5C17.1875 9.91117 15.0888 7.8125 12.5 7.8125C9.91117 7.8125 7.8125 9.91117 7.8125 12.5C7.8125 15.0888 9.91117 17.1875 12.5 17.1875Z" stroke="black" stroke-width="2" stroke-linecap="round" stroke-linejoin="round"/>
<path d="M17.9362 6.35613C18.1863 6.57765 18.4229 6.81416 18.6444 7.06435L21.3126 7.44536C21.7453 8.19882 22.0789 9.00499 22.3051 9.84388L20.6885 11.9993C20.6885 11.9993 20.7088 12.6672 20.6885 13.0008L22.3058 15.1569C22.079 15.9956 21.7449 16.8016 21.3117 17.5547L18.6444 17.9357C18.6444 17.9357 18.1865 18.4224 17.9363 18.6439L17.5553 21.3121C16.8018 21.7448 15.9957 22.0784 15.1568 22.3046L13.0015 20.688C12.6679 20.7083 12.3334 20.7083 11.9999 20.6881L9.84377 22.3053C9.00503 22.0785 8.19909 21.7444 7.44592 21.3112L7.06499 18.644C6.81479 18.4225 6.57828 18.186 6.35676 17.9358L3.68857 17.5548C3.25587 16.8013 2.92226 15.9952 2.69601 15.1563L4.31266 13.0008C4.31266 13.0008 4.29233 12.3329 4.3126 11.9994L2.69531 9.84328C2.92213 9.00455 3.25628 8.1986 3.68949 7.44543L6.35662 7.0645C6.57814 6.8143 6.81465 6.57779 7.06484 6.35627L7.44585 3.68808C8.19931 3.25538 9.00548 2.92178 9.84437 2.69553L11.9997 4.31212C12.3332 4.29184 12.6677 4.29184 13.0013 4.31211L15.1574 2.69482C15.9961 2.92164 16.8021 3.25579 17.5552 3.689L17.9362 6.35613Z" stroke="black" stroke-width="2" stroke-linecap="round" stroke-linejoin="round"/>
</svg>
