<svg width="32" height="32" viewBox="0 0 32 32" fill="none" xmlns="http://www.w3.org/2000/svg">
<path d="M27.0828 19.0814C25.1198 19.6269 23.0471 19.6413 21.0767 19.123C19.1064 18.6048 17.3089 17.5726 15.8683 16.132C14.4276 14.6913 13.3954 12.8939 12.8772 10.9235C12.359 8.95316 12.3733 6.88049 12.9188 4.91748L12.9191 4.91758C10.983 5.4562 9.22171 6.49273 7.81085 7.92391C6.39998 9.3551 5.38873 11.131 4.87785 13.0746C4.36696 15.0183 4.37427 17.0619 4.89905 19.0019C5.42382 20.9418 6.44774 22.7104 7.86881 24.1315C9.28988 25.5526 11.0585 26.5765 12.9985 27.1012C14.9384 27.626 16.982 27.6333 18.9257 27.1224C20.8694 26.6115 22.6452 25.6002 24.0764 24.1893C25.5076 22.7784 26.5441 21.0172 27.0827 19.081L27.0828 19.0814Z" stroke="white" stroke-width="2" stroke-linecap="round" stroke-linejoin="round"/>
</svg>
