<svg width="25" height="25" viewBox="0 0 25 25" fill="none" xmlns="http://www.w3.org/2000/svg">
<path d="M12.645 18.7821C12.7935 19.1838 13.0493 19.5371 13.3845 19.8037C13.7197 20.0703 14.1216 20.2399 14.5464 20.2942C14.9713 20.3484 15.4029 20.2853 15.7943 20.1115C16.1858 19.9378 16.5222 19.6601 16.767 19.3087C17.0117 18.9572 17.1555 18.5454 17.1828 18.118C17.21 17.6906 17.1196 17.2638 16.9213 16.8842C16.7231 16.5045 16.4247 16.1864 16.0584 15.9644C15.6921 15.7424 15.272 15.6251 14.8438 15.625H3.90625" stroke="#212224" stroke-width="2" stroke-linecap="round" stroke-linejoin="round"/>
<path d="M9.51997 6.21799C9.66853 5.81628 9.92431 5.46296 10.2595 5.19639C10.5947 4.92982 10.9966 4.76018 11.4214 4.70591C11.8463 4.65164 12.2779 4.7148 12.6693 4.88854C13.0608 5.06228 13.3972 5.33995 13.642 5.6914C13.8867 6.04286 14.0305 6.45466 14.0578 6.88209C14.085 7.30951 13.9946 7.73623 13.7963 8.11589C13.5981 8.49555 13.2997 8.81365 12.9334 9.03564C12.5671 9.25762 12.147 9.37502 11.7188 9.37507H2.34375" stroke="#212224" stroke-width="2" stroke-linecap="round" stroke-linejoin="round"/>
<path d="M18.1137 9.34299C18.2623 8.94128 18.5181 8.58796 18.8533 8.32139C19.1885 8.05482 19.5903 7.88518 20.0152 7.83091C20.44 7.77664 20.8716 7.8398 21.2631 8.01354C21.6546 8.18728 21.9909 8.46495 22.2357 8.8164C22.4805 9.16786 22.6243 9.57966 22.6515 10.0071C22.6787 10.4345 22.5883 10.8612 22.3901 11.2409C22.1919 11.6206 21.8934 11.9386 21.5272 12.1606C21.1609 12.3826 20.7408 12.5 20.3125 12.5001H3.125" stroke="#212224" stroke-width="2" stroke-linecap="round" stroke-linejoin="round"/>
</svg>
