<svg width="133" height="374" viewBox="0 0 133 374" fill="none" xmlns="http://www.w3.org/2000/svg">
<path d="M45 2C45 2 43.3464 12.3595 44 17C44.8451 23 60 32.5 60 41M60 41C51.4085 44.9052 39.8551 43 38 51M60 41C60 48.6152 58.6126 55.6441 60 60.5C62 67.5 85.5 105 85.5 105M38 51C44.6389 64.4731 55.5 74.5 55 85.5M38 51C34.8758 64.4731 33 80 30 85.5C26.9558 91.081 19 97.5 19 97.5M55 85.5C55 108.346 60.5 124 55 144M55 85.5C51.0948 90.1863 46.5 93 45 97.5C42.1667 106 42.945 131.967 38 136.5C32 142 2 144 2 144M55 144C48.3611 164.698 38 176.5 39.5 196.5M55 144C66.911 158.84 82 173 85.5 182C87.25 186.5 85.5 210.5 85.5 210.5M39.5 196.5C58.0499 212.707 80 223 85.5 238.5M39.5 196.5C41.5 212 54.2341 221.702 57 230C59.5 237.5 60.3919 252.514 60 258C59.5 265 38 286.5 38 286.5M85.5 238.5C80.6184 265.251 73 307 73 307M85.5 238.5C92.1389 261.541 97.4192 286.5 102.5 297.5C108.735 311 131 342.5 131 342.5M73 307L102.5 372M73 307C73 307 60 333.5 60 342.5C60 349 66 362 66 362" stroke="white" stroke-width="3" stroke-linecap="round" stroke-linejoin="round"/>
</svg>
