<svg width="27" height="24" viewBox="0 0 27 24" fill="none" xmlns="http://www.w3.org/2000/svg">
<path fill-rule="evenodd" clip-rule="evenodd" d="M8.17316 2.76121C10.0004 2.00433 12.0111 1.8063 13.9509 2.19215C15.8907 2.578 17.6725 3.53041 19.0711 4.92894L21.6065 7.46436H19.0205C18.4682 7.46436 18.0205 7.91207 18.0205 8.46436C18.0205 9.01664 18.4682 9.46436 19.0205 9.46436H24.0056C24.2666 9.4683 24.5288 9.37071 24.7279 9.17158C24.9295 8.97001 25.027 8.7038 25.0205 8.43968V3.46436C25.0205 2.91207 24.5728 2.46436 24.0205 2.46436C23.4682 2.46436 23.0205 2.91207 23.0205 3.46436V6.04995L20.4853 3.51472C18.8071 1.83649 16.6689 0.693605 14.3411 0.230582C12.0133 -0.23244 9.60051 0.00519943 7.4078 0.913451C5.21509 1.8217 3.34094 3.35977 2.02236 5.33316C0.703788 7.30655 0 9.62663 0 12C0 14.3734 0.703788 16.6935 2.02236 18.6668C3.34094 20.6402 5.21509 22.1783 7.4078 23.0866C9.60051 23.9948 12.0133 24.2325 14.3411 23.7694C14.8828 23.6617 15.2345 23.1352 15.1268 22.5936C15.019 22.0519 14.4926 21.7001 13.9509 21.8079C12.0111 22.1937 10.0004 21.9957 8.17316 21.2388C6.3459 20.4819 4.78412 19.2002 3.6853 17.5557C2.58649 15.9112 2 13.9778 2 12C2 10.0222 2.58649 8.08879 3.6853 6.4443C4.78412 4.79981 6.3459 3.51809 8.17316 2.76121ZM24.627 20.123C24.1406 20.123 23.7891 19.8242 23.7891 19.2617V18.4473H20.6367C19.998 18.4473 19.5703 18.0488 19.5703 17.457C19.5703 17.0938 19.6758 16.7656 19.9395 16.3027C20.5195 15.2598 21.3633 13.9707 22.2832 12.6055C22.8691 11.709 23.2969 11.416 24.0117 11.416C24.9082 11.416 25.4707 11.9023 25.4707 12.6934V17.0352H25.9512C26.4199 17.0352 26.6777 17.3281 26.6777 17.7441C26.6777 18.1602 26.4141 18.4473 25.9512 18.4473H25.4707V19.2617C25.4707 19.8242 25.1133 20.123 24.627 20.123ZM23.8242 17.082V12.8281H23.7891C22.582 14.5684 21.8027 15.7578 21.1172 17.0352V17.082H23.8242ZM12.6562 19.2441C12.6562 19.6895 12.9316 20 13.4883 20H18.1699C18.627 20 18.9023 19.7129 18.9023 19.2969C18.9023 18.8691 18.627 18.5938 18.1699 18.5938H14.9824V18.5586L16.8105 16.8008C18.1934 15.4941 18.6973 14.8496 18.6973 13.8184C18.6973 12.3652 17.4902 11.3574 15.6973 11.3574C14.0977 11.3574 13.0371 12.2305 12.75 13.168C12.709 13.291 12.6855 13.4141 12.6855 13.5488C12.6855 13.9883 12.9668 14.2695 13.4414 14.2695C13.8223 14.2695 14.0273 14.1055 14.2266 13.7539C14.5312 13.0742 15 12.7344 15.6797 12.7344C16.4355 12.7344 16.9746 13.2324 16.9746 13.9297C16.9746 14.5391 16.7051 14.9492 15.6621 15.9512L13.1426 18.3594C12.7852 18.6875 12.6562 18.9102 12.6562 19.2441Z" fill="#212224"/>
</svg>
