<svg width="84" height="84" viewBox="0 0 84 84" fill="none" xmlns="http://www.w3.org/2000/svg">
<g filter="url(#filter0_d_84_1065)">
<path d="M74.023 41.9947C74.024 48.3237 72.1482 54.5108 68.6329 59.7738C65.1176 65.0368 60.1208 69.1392 54.2739 71.5622C48.4271 73.9852 41.9929 74.6199 35.7853 73.3863C29.5777 72.1526 23.8755 69.1059 19.3995 64.6314C14.9234 60.1569 11.8747 54.4555 10.6389 48.2483C9.40315 42.0411 10.0356 35.6069 12.4566 29.7592C14.8776 23.9116 18.9783 18.9131 24.2401 15.396C29.5019 11.8789 35.6884 10.0011 42.0174 10C50.5039 10 58.6431 13.3705 64.645 19.3704C70.6469 25.3702 74.0201 33.5082 74.023 41.9947V41.9947Z" fill="white"/>
</g>
<defs>
<filter id="filter0_d_84_1065" x="0.0229492" y="0" width="84" height="84.0001" filterUnits="userSpaceOnUse" color-interpolation-filters="sRGB">
<feFlood flood-opacity="0" result="BackgroundImageFix"/>
<feColorMatrix in="SourceAlpha" type="matrix" values="0 0 0 0 0 0 0 0 0 0 0 0 0 0 0 0 0 0 127 0" result="hardAlpha"/>
<feOffset/>
<feGaussianBlur stdDeviation="5"/>
<feComposite in2="hardAlpha" operator="out"/>
<feColorMatrix type="matrix" values="0 0 0 0 1 0 0 0 0 1 0 0 0 0 1 0 0 0 0.4 0"/>
<feBlend mode="normal" in2="BackgroundImageFix" result="effect1_dropShadow_84_1065"/>
<feBlend mode="normal" in="SourceGraphic" in2="effect1_dropShadow_84_1065" result="shape"/>
</filter>
</defs>
</svg>
