<svg width="84" height="84" viewBox="0 0 84 84" fill="none" xmlns="http://www.w3.org/2000/svg">
<path d="M73.9993 41.9946C74.0004 48.3236 72.1248 54.5107 68.6095 59.7737C65.0942 65.0367 60.0972 69.1391 54.2504 71.5621C48.4035 73.9851 41.9695 74.6198 35.7619 73.3862C29.5543 72.1525 23.852 69.1058 19.3759 64.6313C14.8999 60.1568 11.8512 54.4554 10.6154 48.2482C9.37964 42.0411 10.0123 35.6068 12.4333 29.7592C14.8543 23.9116 18.955 18.9131 24.2168 15.396C29.4785 11.8789 35.665 10.0011 41.994 10C50.4805 10 58.6196 13.3705 64.6214 19.3704C70.6233 25.3702 73.9965 33.5081 73.9993 41.9946V41.9946Z" fill="white" fill-opacity="0.1"/>
<g filter="url(#filter0_d_82_1046)">
<path d="M26.4449 41.9973C26.4488 34.9369 28.7893 28.0762 33.1012 22.4854C37.4131 16.8946 43.4541 12.8879 50.2818 11.0904C45.5407 9.81996 40.5707 9.65731 35.7566 10.6149C30.9425 11.5724 26.4132 13.6246 22.5191 16.6127C18.625 19.6007 15.4705 23.4445 13.2995 27.8467C11.1286 32.2489 9.99948 37.0915 9.99948 42C9.99948 46.9084 11.1286 51.751 13.2995 56.1532C15.4705 60.5554 18.625 64.3993 22.5191 67.3873C26.4132 70.3754 30.9425 72.4276 35.7566 73.3851C40.5707 74.3427 45.5407 74.18 50.2818 72.9095C43.4541 71.1101 37.4135 67.1022 33.1018 61.5107C28.7901 55.9192 26.4495 49.0582 26.4449 41.9973V41.9973Z" fill="white"/>
</g>
<defs>
<filter id="filter0_d_82_1046" x="-0.000518799" y="0" width="60.2823" height="83.9999" filterUnits="userSpaceOnUse" color-interpolation-filters="sRGB">
<feFlood flood-opacity="0" result="BackgroundImageFix"/>
<feColorMatrix in="SourceAlpha" type="matrix" values="0 0 0 0 0 0 0 0 0 0 0 0 0 0 0 0 0 0 127 0" result="hardAlpha"/>
<feOffset/>
<feGaussianBlur stdDeviation="5"/>
<feComposite in2="hardAlpha" operator="out"/>
<feColorMatrix type="matrix" values="0 0 0 0 1 0 0 0 0 1 0 0 0 0 1 0 0 0 0.4 0"/>
<feBlend mode="normal" in2="BackgroundImageFix" result="effect1_dropShadow_82_1046"/>
<feBlend mode="normal" in="SourceGraphic" in2="effect1_dropShadow_82_1046" result="shape"/>
</filter>
</defs>
</svg>
