<svg width="20" height="20" viewBox="0 0 20 20" fill="none" xmlns="http://www.w3.org/2000/svg">
<path d="M12.9167 12.4999C12.9167 11.5832 13.6667 10.8332 14.5834 10.8332H16.4167C17.5001 10.8332 18.3751 9.87486 18.2084 8.79152C18.2084 8.74986 18.2084 8.74985 18.2084 8.70819C17.6251 4.95819 14.5001 2.04152 10.7501 1.70819C5.66675 1.24985 1.41675 5.37485 1.66675 10.4165C1.87508 14.5415 5.20841 17.9999 9.33341 18.2915C11.6667 18.4582 13.7917 17.7082 15.3751 16.3332C16.2501 15.6249 15.7501 14.1665 14.5834 14.1665C13.6667 14.1665 12.9167 13.4165 12.9167 12.4999Z" fill="#7DEBF5"/>
<path d="M10 5.8335C10.6904 5.8335 11.25 5.27385 11.25 4.5835C11.25 3.89314 10.6904 3.3335 10 3.3335C9.30964 3.3335 8.75 3.89314 8.75 4.5835C8.75 5.27385 9.30964 5.8335 10 5.8335Z" fill="#00B3D7"/>
<path d="M4.58301 11.25C5.27336 11.25 5.83301 10.6904 5.83301 10C5.83301 9.30964 5.27336 8.75 4.58301 8.75C3.89265 8.75 3.33301 9.30964 3.33301 10C3.33301 10.6904 3.89265 11.25 4.58301 11.25Z" fill="#EB7900"/>
<path d="M6.25 7.5C6.94036 7.5 7.5 6.94036 7.5 6.25C7.5 5.55964 6.94036 5 6.25 5C5.55964 5 5 5.55964 5 6.25C5 6.94036 5.55964 7.5 6.25 7.5Z" fill="#00B569"/>
<path d="M13.75 7.5C14.4404 7.5 15 6.94036 15 6.25C15 5.55964 14.4404 5 13.75 5C13.0596 5 12.5 5.55964 12.5 6.25C12.5 6.94036 13.0596 7.5 13.75 7.5Z" fill="#2100C4"/>
<path d="M6.25 15C6.94036 15 7.5 14.4404 7.5 13.75C7.5 13.0596 6.94036 12.5 6.25 12.5C5.55964 12.5 5 13.0596 5 13.75C5 14.4404 5.55964 15 6.25 15Z" fill="#EB0000"/>
</svg>
