<svg width="110" height="387" viewBox="0 0 110 387" fill="none" xmlns="http://www.w3.org/2000/svg">
<path d="M51 2C51 2 53.25 29.3854 59.5 38.5M59.5 38.5C57.5 42 47 50.8081 47 56C47 67.5 63.1429 78.5 71.5 87.5M59.5 38.5C64.1863 45.3342 71.5 56 71.5 56M71.5 87.5C66.8137 100.387 59.5 119.5 59.5 119.5M71.5 87.5C78 94.5 91 119.5 91 119.5M59.5 119.5C59.5 119.5 39.4837 116.385 34.5 119.5C26.5 124.5 12.5 153 12.5 153M59.5 119.5C59.5 119.5 57.4408 127.666 55 134.5M83.5 154.5C77.2516 162.506 76.2484 165.494 70 173.5M83.5 154.5C74 146.5 67.0086 140.748 55 134.5M83.5 154.5C94 164 108.5 177.5 108.5 177.5M70 173.5C59.4558 187.461 53.25 191.788 40 203M70 173.5C68 190.5 71.5 213 71.5 213M40 203C50.5442 215.399 55.2316 223.293 59.5 239M40 203C33.5 208.5 24 215.5 24 215.5M59.5 239C70 245.5 86.125 256.5 91 263C95.5 269 108.5 303.5 108.5 303.5M59.5 239C56.5 249 54.1418 260.622 53 271M51 302C43 312.5 24 324.5 24 324.5M51 302C54.3195 313.423 54.4814 318.994 57.5 330.5M51 302C51.744 288.812 52.1213 284.18 53 271M97 385.5C97 385.5 75 364.5 68.5 356C63.4905 349.449 60.8195 340.556 57.5 330.5M55 134.5C52.5592 141.334 51.0322 153.541 50.5 157C49.5 163.5 28.5 169 28.5 169M2 230.5L24 215.5M24 215.5L41 248.5M57.5 330.5C39.1454 344.461 12.5 368.5 12.5 368.5M53 271C62.4702 279.299 74 286.818 77.5 291C82.1036 296.5 97 349 97 349" stroke="white" stroke-width="3" stroke-linecap="round" stroke-linejoin="round"/>
</svg>
