<svg width="32" height="33" viewBox="0 0 32 33" fill="none" xmlns="http://www.w3.org/2000/svg">
<path fill-rule="evenodd" clip-rule="evenodd" d="M21.3232 7.55152C19.6344 6.8572 17.8261 6.50005 16.0005 6.5L15.9506 6.50009C9.59021 6.52209 4.27328 10.8318 2.57117 16.645C2.53111 16.7164 2.49922 16.7939 2.47707 16.8765C2.45598 16.9552 2.4449 17.0342 2.44303 17.1122C2.15373 18.2424 2 19.4253 2 20.6411V23.5C2 24.0304 2.21071 24.5391 2.58579 24.9142C2.96086 25.2893 3.46957 25.5 4 25.5H12.9184C12.9261 25.5001 12.9338 25.5001 12.9415 25.5H28C28.5304 25.5 29.0391 25.2893 29.4142 24.9142C29.7893 24.5391 30 24.0304 30 23.5V20.5C30 19.2768 29.8397 18.0616 29.5252 16.885L29.523 16.8765L29.521 16.8691C29.3624 16.2787 29.165 15.698 28.9296 15.131C28.2229 13.4292 27.1872 11.8837 25.882 10.583C24.5767 9.28235 23.0275 8.25216 21.3232 7.55152ZM14.9585 23.5H28V20.5C28 19.7843 27.936 19.0718 27.8096 18.3709L24.9522 19.1365C24.4187 19.2795 23.8704 18.9629 23.7274 18.4294C23.5845 17.896 23.9011 17.3476 24.4345 17.2047L27.292 16.439C27.2266 16.2572 27.1567 16.0768 27.0825 15.898C26.4768 14.4393 25.5891 13.1146 24.4703 11.9997C23.3515 10.8849 22.0236 10.0019 20.5628 9.4013C19.4243 8.93327 18.2225 8.64397 17 8.54174V11.5C17 12.0523 16.5523 12.5 16 12.5C15.4477 12.5 15 12.0523 15 11.5V8.54168C10.2654 8.9383 6.31938 12.1273 4.73997 16.4476L7.56552 17.2047C8.09898 17.3476 8.41556 17.896 8.27262 18.4294C8.12968 18.9629 7.58134 19.2795 7.04788 19.1365L4.21019 18.3762C4.07219 19.1108 4 19.868 4 20.6411V23.5H12.4375L20.6855 12.7511C21.0217 12.3129 21.6494 12.2303 22.0876 12.5665C22.5257 12.9027 22.6084 13.5304 22.2722 13.9686L14.9585 23.5Z" fill="#9975FF"/>
</svg>
