<svg width="24" height="24" viewBox="0 0 24 24" fill="none" xmlns="http://www.w3.org/2000/svg">
<path d="M21.8024 8.84305C21.1774 11.4555 18.5649 13.0555 15.9649 12.443C13.3524 11.818 11.7524 9.20555 12.3649 6.60555C12.9899 3.99305 15.6024 2.39305 18.2024 3.00555C18.4149 3.05555 18.6149 3.11805 18.8149 3.19305C17.6274 4.71805 17.8899 6.91805 19.4149 8.10555C20.0899 8.63055 20.9399 8.89305 21.8024 8.84305Z" fill="url(#paint0_linear_3783_14584)"/>
<path d="M3.09082 7.69303C3.05332 7.69303 3.02832 7.69303 2.99082 7.68053C2.95332 7.68053 2.92832 7.66803 2.89082 7.65553C2.86582 7.64303 2.82832 7.63053 2.80332 7.60553C2.77832 7.59303 2.75332 7.56803 2.72832 7.54303C2.70332 7.51803 2.69082 7.49303 2.66582 7.46803C2.65332 7.44303 2.64082 7.40553 2.62832 7.38053C2.61582 7.35553 2.60332 7.31803 2.60332 7.28053C2.59082 7.24303 2.59082 7.21803 2.59082 7.18053C2.59082 7.14303 2.59082 7.11803 2.60332 7.08053C2.60332 7.05553 2.61582 7.01803 2.62832 6.99303C2.64082 6.96803 2.65332 6.93053 2.67832 6.90553C2.70332 6.88053 2.71582 6.85553 2.74082 6.83053C2.85332 6.71803 3.02832 6.65553 3.19082 6.69303C3.22832 6.69303 3.25332 6.70553 3.29082 6.71803C3.31582 6.73053 3.35332 6.74303 3.37832 6.76803C3.40332 6.79303 3.42832 6.80553 3.45332 6.83053C3.46582 6.85553 3.49082 6.88053 3.50332 6.91803C3.51582 6.94303 3.54082 6.98053 3.55332 7.00553C3.56582 7.03053 3.57832 7.06803 3.57832 7.09303C3.57832 7.13053 3.59082 7.15553 3.59082 7.19303C3.59082 7.23053 3.59082 7.25553 3.57832 7.29303C3.57832 7.31803 3.56582 7.35553 3.55332 7.39303C3.54082 7.41803 3.52832 7.45553 3.50332 7.48053C3.49082 7.50553 3.46582 7.53053 3.44082 7.55553C3.41582 7.58053 3.39082 7.60553 3.36582 7.61803C3.34082 7.64303 3.31582 7.65553 3.27832 7.66803C3.25332 7.68053 3.21582 7.69303 3.17832 7.69303C3.15332 7.69303 3.11582 7.69303 3.09082 7.69303Z" fill="#2F2F2F"/>
<path d="M5.17754 8.03043C5.14004 8.03043 5.11504 8.03043 5.07754 8.01793C5.05254 8.00543 5.01504 8.00543 4.97754 7.99293C4.95254 7.98043 4.91504 7.96793 4.89004 7.94293C4.86504 7.93043 4.84004 7.90543 4.81504 7.88043C4.79004 7.85543 4.76504 7.83043 4.75254 7.80543C4.74004 7.78043 4.71504 7.74293 4.70254 7.71793C4.69004 7.69293 4.67754 7.65543 4.67754 7.61793C4.67754 7.58043 4.66504 7.55543 4.66504 7.51793C4.66504 7.48043 4.66504 7.45543 4.67754 7.41793C4.67754 7.39293 4.69004 7.35543 4.70254 7.33043C4.71504 7.30543 4.72754 7.26793 4.75254 7.24293C4.76504 7.21793 4.79004 7.19293 4.81504 7.16793C4.92754 7.05543 5.10254 6.99293 5.26504 7.03043C5.30254 7.04293 5.32754 7.04293 5.36504 7.05543C5.39004 7.06793 5.42754 7.08043 5.45254 7.10543C5.47754 7.11793 5.50254 7.14293 5.52754 7.16793C5.55254 7.19293 5.56504 7.21793 5.59004 7.24293C5.60254 7.26793 5.62754 7.30543 5.64004 7.33043C5.65254 7.35543 5.66504 7.39293 5.66504 7.41793C5.67754 7.45543 5.67754 7.48043 5.67754 7.51793C5.67754 7.55543 5.67754 7.58043 5.66504 7.61793C5.65254 7.64293 5.65254 7.68043 5.64004 7.71793C5.62754 7.74293 5.61504 7.78043 5.59004 7.80543C5.56504 7.83043 5.55254 7.85543 5.52754 7.88043C5.50254 7.90543 5.47754 7.93043 5.45254 7.94293C5.42754 7.96793 5.40254 7.98043 5.36504 7.99293C5.34004 8.00543 5.30254 8.01793 5.26504 8.01793C5.25254 8.03043 5.21504 8.03043 5.17754 8.03043Z" fill="#9975FF"/>
<path d="M6.37793 5.55534C6.24043 5.55534 6.11543 5.50534 6.02793 5.40534C5.92793 5.31784 5.87793 5.18034 5.87793 5.05534C5.87793 5.01784 5.87793 4.99284 5.89043 4.95534C5.89043 4.91784 5.90293 4.89284 5.91543 4.85534C5.92793 4.83034 5.94043 4.79284 5.96543 4.76784C5.99043 4.74284 6.00293 4.71784 6.02793 4.69284C6.14043 4.58034 6.31543 4.51784 6.47793 4.55534C6.50293 4.55534 6.54043 4.56784 6.57793 4.58034C6.60293 4.59284 6.64043 4.60534 6.66543 4.63034C6.69043 4.65534 6.71543 4.66784 6.74043 4.69284C6.76543 4.71784 6.79043 4.74284 6.80293 4.76784C6.81543 4.79284 6.84043 4.83034 6.85293 4.85534C6.86543 4.88034 6.87793 4.91784 6.87793 4.95534C6.87793 4.99284 6.89043 5.01784 6.89043 5.05534C6.89043 5.19284 6.84043 5.31784 6.74043 5.40534C6.71543 5.43034 6.69043 5.45534 6.66543 5.46784C6.64043 5.48034 6.60293 5.50534 6.57793 5.51784C6.55293 5.53034 6.51543 5.54284 6.47793 5.54284C6.45293 5.55534 6.41543 5.55534 6.37793 5.55534Z" fill="#9975FF"/>
<path d="M17.3402 17.2255C17.1527 17.2255 16.9652 17.113 16.8902 16.938C16.7777 16.688 16.8902 16.388 17.1402 16.2755C18.1652 15.813 18.8277 14.8255 18.8777 13.7005C18.9152 12.9005 18.6402 12.138 18.1027 11.5505C17.5652 10.963 16.8277 10.6255 16.0402 10.588C15.7652 10.5755 15.4902 10.6005 15.2152 10.663C15.0652 10.7005 14.9152 10.663 14.7902 10.563C14.6652 10.463 14.6027 10.3255 14.6027 10.1755C14.5902 8.23804 13.0777 6.65054 11.1402 6.56304C10.1777 6.52554 9.25273 6.86304 8.55273 7.51304C7.84023 8.16304 7.42773 9.05054 7.37773 10.013L7.36523 10.3005L6.36523 10.263L6.37773 9.97554C6.42773 8.73804 6.96523 7.61304 7.86523 6.77554C8.76523 5.93804 9.95273 5.51304 11.1902 5.56304C13.4652 5.66304 15.2777 7.38804 15.5527 9.58804C15.7277 9.57554 15.9027 9.57554 16.0652 9.57554C17.1277 9.62554 18.1027 10.0755 18.8277 10.863C19.5402 11.6505 19.9152 12.663 19.8652 13.7255C19.8027 15.2255 18.9027 16.5505 17.5402 17.1755C17.4777 17.213 17.4027 17.2255 17.3402 17.2255Z" fill="#2F2F2F"/>
<path d="M4.1654 17.0004C4.0654 17.0004 3.9529 16.9629 3.8654 16.9004C2.8029 16.1129 2.2029 14.8504 2.2529 13.5254C2.3529 11.3379 4.2154 9.62536 6.4029 9.72536C7.7904 9.78786 9.0279 10.5504 9.7029 11.7629C9.8404 12.0004 9.7529 12.3129 9.5154 12.4379C9.2779 12.5754 8.9654 12.4879 8.8404 12.2504C8.3279 11.3379 7.4154 10.7754 6.3779 10.7254C4.7279 10.6504 3.3279 11.9254 3.2529 13.5629C3.2154 14.5629 3.6654 15.5004 4.4529 16.0879C4.6779 16.2504 4.7154 16.5629 4.5529 16.7879C4.4654 16.9254 4.3154 17.0004 4.1654 17.0004Z" fill="#2F2F2F"/>
<path d="M13.3906 18.4881C13.1156 18.4881 12.8906 18.2631 12.8906 17.9881V16.4131C12.8906 16.1381 13.1156 15.9131 13.3906 15.9131C13.6656 15.9131 13.8906 16.1381 13.8906 16.4131V17.9881C13.8906 18.2631 13.6656 18.4881 13.3906 18.4881Z" fill="#57AAFF"/>
<path d="M15.5527 20.4005C15.2777 20.4005 15.0527 20.1755 15.0527 19.9005V18.813C15.0527 18.538 15.2777 18.313 15.5527 18.313C15.8277 18.313 16.0527 18.538 16.0527 18.813V19.9005C16.0527 20.1755 15.8277 20.4005 15.5527 20.4005Z" fill="#57AAFF"/>
<path d="M10.665 17.1754C10.4025 17.1754 10.1775 16.9629 10.165 16.6879L10.1275 15.5379C10.115 15.2629 10.3275 15.0254 10.615 15.0254C10.89 15.0129 11.1275 15.2254 11.1275 15.5129L11.165 16.6754C11.1775 16.9504 10.965 17.1879 10.6775 17.1879C10.6775 17.1754 10.6775 17.1754 10.665 17.1754Z" fill="#57AAFF"/>
<path d="M11.54 21.1131C11.265 21.1131 11.04 20.8881 11.04 20.6131V19.5381C11.04 19.2631 11.265 19.0381 11.54 19.0381C11.815 19.0381 12.04 19.2631 12.04 19.5381V20.6131C12.04 20.8881 11.815 21.1131 11.54 21.1131Z" fill="#57AAFF"/>
<path d="M8.19043 19.5006C7.91543 19.5006 7.69043 19.2756 7.69043 19.0006V17.4756C7.69043 17.2006 7.91543 16.9756 8.19043 16.9756C8.46543 16.9756 8.69043 17.2006 8.69043 17.4756V19.0006C8.69043 19.2756 8.46543 19.5006 8.19043 19.5006Z" fill="#57AAFF"/>
<path d="M5.81543 20.5633C5.54043 20.5633 5.31543 20.3383 5.31543 20.0633V18.8008C5.31543 18.5258 5.54043 18.3008 5.81543 18.3008C6.09043 18.3008 6.31543 18.5258 6.31543 18.8008V20.0633C6.31543 20.3383 6.09043 20.5633 5.81543 20.5633Z" fill="#57AAFF"/>
<defs>
<linearGradient id="paint0_linear_3783_14584" x1="14.9372" y1="3.33232" x2="18.4141" y2="12.3901" gradientUnits="userSpaceOnUse">
<stop stop-color="#B9A0FF"/>
<stop offset="1" stop-color="#855AFF"/>
</linearGradient>
</defs>
</svg>
