<svg width="24" height="24" viewBox="0 0 24 24" fill="none" xmlns="http://www.w3.org/2000/svg">
<path d="M12.0605 18.8158C11.7855 18.8158 11.5605 18.5908 11.5605 18.3158V7.09082C11.5605 6.81582 11.7855 6.59082 12.0605 6.59082C12.3355 6.59082 12.5605 6.81582 12.5605 7.09082V18.3158C12.5605 18.5908 12.348 18.8158 12.0605 18.8158Z" fill="#57AAFF"/>
<path d="M7.2857 16.141C7.1232 16.141 6.9482 16.0535 6.8607 15.9035C6.7107 15.666 6.7857 15.366 7.0232 15.216L16.5857 9.32847C16.8232 9.17847 17.1232 9.25347 17.2732 9.49097C17.4232 9.72847 17.3482 10.0285 17.1107 10.1785L7.5482 16.0785C7.4732 16.1285 7.3732 16.141 7.2857 16.141Z" fill="#57AAFF"/>
<path d="M16.8482 16.1412C16.7607 16.1412 16.6732 16.1162 16.5857 16.0662L7.0232 10.1912C6.7857 10.0412 6.7107 9.74116 6.8607 9.50366C7.0107 9.26616 7.3107 9.19116 7.5482 9.34116L17.1107 15.2162C17.3482 15.3662 17.4232 15.6662 17.2732 15.9037C17.1732 16.0662 17.0107 16.1412 16.8482 16.1412Z" fill="#57AAFF"/>
<path d="M12.0609 9.84043C11.9359 9.84043 11.8109 9.79043 11.7109 9.69043L9.86094 7.86543C9.66094 7.66543 9.66094 7.35293 9.86094 7.15293C10.0609 6.96543 10.3734 6.96543 10.5734 7.15293L12.0609 8.64043L13.5484 7.15293C13.7484 6.95293 14.0609 6.95293 14.2609 7.15293C14.4609 7.35293 14.4609 7.66543 14.2609 7.86543L12.4109 9.70293C12.3109 9.80293 12.1859 9.84043 12.0609 9.84043Z" fill="#57AAFF"/>
<path d="M10.2227 18.3031C10.0977 18.3031 9.96016 18.2531 9.87266 18.1531C9.67266 17.9531 9.67266 17.6406 9.87266 17.4406L11.7102 15.6031C11.9102 15.4031 12.2227 15.4031 12.4102 15.6031L14.2477 17.4406C14.4477 17.6406 14.4477 17.9531 14.2477 18.1531C14.0477 18.3531 13.7352 18.3531 13.5352 18.1531L12.0602 16.6781L10.5727 18.1531C10.4727 18.2531 10.3477 18.3031 10.2227 18.3031Z" fill="#57AAFF"/>
<path d="M17.4233 12.0913C17.3858 12.0913 17.3358 12.0913 17.2983 12.0788L14.7733 11.4413C14.5108 11.3788 14.3483 11.1038 14.4108 10.8413L15.0358 8.31631C15.0983 8.05381 15.3733 7.89131 15.6483 7.95381C15.9108 8.01631 16.0733 8.29131 16.0108 8.55381L15.5108 10.5913L17.5483 11.1038C17.8108 11.1663 17.9733 11.4413 17.9108 11.7163C17.8483 11.9413 17.6483 12.0913 17.4233 12.0913Z" fill="#57AAFF"/>
<path d="M8.58564 17.3779C8.54814 17.3779 8.51064 17.3779 8.46064 17.3654C8.19814 17.3029 8.03564 17.0279 8.09814 16.7654L8.61064 14.7154L6.57314 14.2029C6.31064 14.1404 6.14814 13.8654 6.21064 13.5904C6.27314 13.3154 6.54814 13.1654 6.82314 13.2279L9.34814 13.8654C9.61064 13.9279 9.77314 14.2029 9.71064 14.4654L9.08564 16.9904C9.01064 17.2279 8.81064 17.3779 8.58564 17.3779Z" fill="#57AAFF"/>
<path d="M15.5233 17.3784C15.2983 17.3784 15.0983 17.2284 15.0358 17.0034L14.4108 14.4784C14.3483 14.2159 14.5108 13.9409 14.7733 13.8784L17.2983 13.2409C17.5608 13.1784 17.8358 13.3409 17.9108 13.6034C17.9733 13.8659 17.8108 14.1409 17.5483 14.2159L15.5108 14.7284L16.0108 16.7659C16.0733 17.0284 15.9108 17.3034 15.6483 17.3659C15.5983 17.3784 15.5608 17.3784 15.5233 17.3784Z" fill="#57AAFF"/>
<path d="M6.69814 12.0788C6.47314 12.0788 6.27314 11.9288 6.21064 11.7038C6.14814 11.4413 6.31064 11.1663 6.57314 11.0913L8.61064 10.5913L8.11064 8.55381C8.04814 8.29131 8.21064 8.01631 8.47314 7.95381C8.73564 7.89131 9.01064 8.05381 9.07314 8.31631L9.69814 10.8413C9.76064 11.1038 9.59814 11.3788 9.33564 11.4413L6.82314 12.0663C6.78564 12.0788 6.73564 12.0788 6.69814 12.0788Z" fill="#57AAFF"/>
<path d="M14.0496 4.14687C14.0121 4.14687 13.9871 4.14688 13.9496 4.13438C13.9121 4.13438 13.8871 4.12187 13.8496 4.10937C13.8246 4.09687 13.7871 4.08438 13.7621 4.05938C13.7371 4.03438 13.7121 4.02188 13.6871 3.99688C13.6621 3.97188 13.6371 3.94687 13.6246 3.92187C13.6121 3.89687 13.5871 3.85937 13.5746 3.83437C13.5621 3.80937 13.5496 3.77187 13.5496 3.73437C13.5496 3.69687 13.5371 3.67188 13.5371 3.63438C13.5371 3.59688 13.5371 3.57188 13.5496 3.53438C13.5621 3.49688 13.5621 3.47188 13.5746 3.43438C13.5871 3.40938 13.5996 3.37188 13.6246 3.34688C13.6371 3.32188 13.6621 3.29687 13.6871 3.27187C13.7121 3.24687 13.7371 3.22187 13.7621 3.20937C13.7871 3.18437 13.8246 3.17188 13.8496 3.15938C13.8746 3.14688 13.9121 3.13438 13.9496 3.13438C14.0121 3.12187 14.0871 3.12187 14.1496 3.13438C14.1871 3.13438 14.2121 3.14688 14.2496 3.15938C14.2746 3.17188 14.3121 3.18437 14.3371 3.20937C14.3621 3.22187 14.3871 3.24687 14.4121 3.27187C14.4371 3.29687 14.4621 3.32188 14.4746 3.34688C14.4871 3.37188 14.5121 3.40938 14.5246 3.43438C14.5371 3.45938 14.5496 3.49688 14.5496 3.53438C14.5496 3.57188 14.5621 3.59688 14.5621 3.63438C14.5621 3.67188 14.5621 3.69687 14.5496 3.73437C14.5371 3.77187 14.5371 3.79687 14.5246 3.83437C14.5121 3.85937 14.4996 3.89687 14.4746 3.92187C14.4621 3.94687 14.4371 3.97188 14.4121 3.99688C14.3121 4.09688 14.1871 4.14687 14.0496 4.14687Z" fill="#2D58FF"/>
<path d="M16.825 6.79648C16.7875 6.79648 16.7625 6.79649 16.725 6.78399C16.7 6.77149 16.6625 6.77149 16.625 6.75899C16.6 6.74649 16.5625 6.73398 16.5375 6.70898C16.5125 6.68398 16.4875 6.67148 16.4625 6.64648C16.375 6.54648 16.3125 6.42148 16.3125 6.29648C16.3125 6.25898 16.3125 6.23399 16.325 6.19649C16.3375 6.17149 16.3375 6.13399 16.35 6.09649C16.3625 6.05899 16.375 6.03399 16.4 6.00899C16.4125 5.98399 16.4375 5.95899 16.4625 5.93399C16.4875 5.90899 16.5125 5.89649 16.5375 5.87149C16.5625 5.85899 16.5875 5.83399 16.625 5.82149C16.65 5.80899 16.6875 5.79648 16.725 5.79648C16.7875 5.78398 16.85 5.78398 16.925 5.79648C16.9625 5.79648 16.9875 5.80899 17.025 5.82149C17.05 5.83399 17.0875 5.84649 17.1125 5.87149C17.1375 5.89649 17.1625 5.90899 17.1875 5.93399C17.2125 5.95899 17.2375 5.98399 17.25 6.00899C17.2625 6.03399 17.2875 6.05899 17.3 6.09649C17.3125 6.13399 17.325 6.15899 17.325 6.19649C17.3375 6.23399 17.3375 6.25898 17.3375 6.29648C17.3375 6.33398 17.3375 6.35898 17.325 6.39648C17.325 6.43398 17.3125 6.45899 17.3 6.49649C17.2875 6.52149 17.275 6.55898 17.25 6.58398C17.2375 6.60898 17.2125 6.63399 17.1875 6.65899C17.1625 6.68399 17.1375 6.69649 17.1125 6.72149C17.0875 6.73399 17.05 6.75898 17.025 6.77148C17 6.78398 16.9625 6.79648 16.925 6.79648C16.8875 6.79648 16.85 6.79648 16.825 6.79648Z" fill="#57AAFF"/>
<path d="M4.01251 13.1842C3.97501 13.1842 3.95001 13.1842 3.91251 13.1717C3.87501 13.1717 3.85 13.1592 3.8125 13.1467C3.7875 13.1342 3.75001 13.1217 3.72501 13.0967C3.70001 13.0717 3.67502 13.0592 3.65002 13.0342C3.62502 13.0092 3.60002 12.9842 3.58752 12.9592C3.57502 12.9342 3.55001 12.8967 3.53751 12.8717C3.52501 12.8467 3.51251 12.8092 3.51251 12.7717C3.50001 12.7467 3.5 12.7092 3.5 12.6717C3.5 12.6342 3.50001 12.6092 3.51251 12.5717C3.51251 12.5342 3.52501 12.5092 3.53751 12.4717C3.55001 12.4467 3.56252 12.4092 3.58752 12.3842C3.60002 12.3592 3.62502 12.3342 3.65002 12.3092C3.75002 12.2217 3.875 12.1592 4 12.1592C4.125 12.1592 4.26251 12.2092 4.35001 12.3092C4.37501 12.3342 4.38751 12.3592 4.41251 12.3842C4.42501 12.4092 4.45002 12.4467 4.46252 12.4717C4.47502 12.4967 4.48752 12.5342 4.48752 12.5717C4.48752 12.6092 4.5 12.6342 4.5 12.6717C4.5 12.8092 4.45001 12.9342 4.35001 13.0217C4.32501 13.0467 4.30002 13.0592 4.27502 13.0842C4.25002 13.0967 4.225 13.1217 4.1875 13.1342C4.1625 13.1467 4.12502 13.1592 4.08752 13.1592C4.07502 13.1842 4.05001 13.1842 4.01251 13.1842Z" fill="#2D58FF"/>
<path d="M5.41287 6.65934C5.37537 6.65934 5.35037 6.65934 5.31287 6.64684C5.27537 6.63434 5.25039 6.63434 5.21289 6.62184C5.18789 6.60934 5.15037 6.59684 5.12537 6.57184C5.10037 6.55934 5.07538 6.53434 5.05038 6.50934C5.02538 6.48434 5.00038 6.45934 4.98788 6.43434C4.97538 6.40934 4.95037 6.37184 4.93787 6.34684C4.92537 6.32184 4.91287 6.28434 4.91287 6.24684C4.91287 6.20934 4.90039 6.18434 4.90039 6.14684C4.90039 6.10934 4.90037 6.08434 4.91287 6.04684C4.92537 6.02184 4.92537 5.98434 4.93787 5.95934C4.95037 5.93434 4.96288 5.89684 4.98788 5.87184C5.00038 5.84684 5.02538 5.82184 5.05038 5.79684C5.16288 5.68434 5.33787 5.62184 5.50037 5.65934C5.53787 5.67184 5.56287 5.67184 5.60037 5.68434C5.62537 5.69684 5.66287 5.70934 5.68787 5.73434C5.71287 5.74684 5.73788 5.77184 5.76288 5.79684C5.78788 5.82184 5.81288 5.84684 5.82538 5.87184C5.83788 5.89684 5.86287 5.93434 5.87537 5.95934C5.88787 5.98434 5.90039 6.02184 5.90039 6.04684C5.91289 6.08434 5.91287 6.10934 5.91287 6.14684C5.91287 6.18434 5.91289 6.20934 5.90039 6.24684C5.88789 6.27184 5.88787 6.30934 5.87537 6.34684C5.86287 6.37184 5.85038 6.40934 5.82538 6.43434C5.81288 6.45934 5.78788 6.48434 5.76288 6.50934C5.73788 6.53434 5.71287 6.54684 5.68787 6.57184C5.66287 6.59684 5.62537 6.60934 5.60037 6.62184C5.57537 6.63434 5.53787 6.64684 5.50037 6.64684C5.47537 6.65934 5.43787 6.65934 5.41287 6.65934Z" fill="#57AAFF"/>
<path d="M19.9873 18.2721C19.9498 18.2721 19.9248 18.2721 19.8873 18.2596C19.8623 18.2596 19.8248 18.2471 19.7998 18.2346C19.7748 18.2221 19.7373 18.2096 19.7123 18.1846C19.6873 18.1721 19.6623 18.1471 19.6373 18.1221C19.6123 18.0971 19.5873 18.0721 19.5748 18.0471C19.5623 18.0221 19.5373 17.9971 19.5248 17.9596C19.5123 17.9346 19.4998 17.8971 19.4998 17.8596C19.4873 17.8221 19.4873 17.7971 19.4873 17.7596C19.4873 17.7221 19.4873 17.6971 19.4998 17.6596C19.5123 17.6346 19.5123 17.5971 19.5248 17.5721C19.5373 17.5471 19.5498 17.5096 19.5748 17.4846C19.5873 17.4596 19.6123 17.4346 19.6373 17.4096C19.6623 17.3846 19.6873 17.3721 19.7123 17.3471C19.7373 17.3346 19.7748 17.3096 19.7998 17.2971C19.8248 17.2846 19.8623 17.2721 19.8873 17.2721C19.9498 17.2596 20.0123 17.2596 20.0873 17.2721C20.1123 17.2846 20.1498 17.2846 20.1873 17.2971C20.2123 17.3096 20.2498 17.3221 20.2748 17.3471C20.2998 17.3721 20.3248 17.3846 20.3498 17.4096C20.3748 17.4346 20.3998 17.4596 20.4123 17.4846C20.4248 17.5096 20.4498 17.5471 20.4623 17.5721C20.4748 17.5971 20.4873 17.6346 20.4873 17.6596C20.4873 17.6971 20.4998 17.7221 20.4998 17.7596C20.4998 17.8846 20.4498 18.0221 20.3498 18.1096C20.3248 18.1346 20.2998 18.1596 20.2748 18.1721C20.2498 18.1846 20.2248 18.2096 20.1873 18.2221C20.1623 18.2346 20.1248 18.2471 20.0873 18.2471C20.0498 18.2596 20.0123 18.2721 19.9873 18.2721Z" fill="#57AAFF"/>
<path d="M8.625 20.7715C8.5 20.7715 8.36252 20.7215 8.27502 20.6215C8.18752 20.534 8.125 20.3965 8.125 20.2715C8.125 20.1465 8.17502 20.009 8.27502 19.9215C8.37502 19.834 8.5 19.7715 8.625 19.7715C8.7625 19.7715 8.88751 19.8215 8.97501 19.9215C9.06251 20.0215 9.125 20.1465 9.125 20.2715C9.125 20.409 9.07501 20.534 8.97501 20.6215C8.95001 20.6465 8.92502 20.659 8.90002 20.684C8.87502 20.6965 8.8375 20.7215 8.8125 20.734C8.7875 20.7465 8.75002 20.759 8.71252 20.759C8.70002 20.7715 8.6625 20.7715 8.625 20.7715Z" fill="#57AAFF"/>
</svg>
