<svg width="32" height="34" viewBox="0 0 32 34" fill="none" xmlns="http://www.w3.org/2000/svg">
<path d="M11.599 6.37537L10.6423 4.06567" stroke="#212224" stroke-width="2" stroke-linecap="round" stroke-linejoin="round"/>
<path d="M5.37537 12.599L3.06567 11.6423" stroke="#212224" stroke-width="2" stroke-linecap="round" stroke-linejoin="round"/>
<path d="M26.6245 12.599L28.9342 11.6423" stroke="#212224" stroke-width="2" stroke-linecap="round" stroke-linejoin="round"/>
<path d="M20.4009 6.37537L21.3576 4.06567" stroke="#212224" stroke-width="2" stroke-linecap="round" stroke-linejoin="round"/>
<path d="M8.63647 15.5834C8.85571 14.4494 9.33387 13.3815 10.0337 12.4627C10.7335 11.5439 11.636 10.7991 12.6709 10.2865C13.7058 9.77381 14.8452 9.50708 16.0001 9.50708C17.155 9.50708 18.2944 9.77381 19.3293 10.2865C20.3642 10.7991 21.2667 11.5439 21.9665 12.4627C22.6663 13.3815 23.1445 14.4494 23.3637 15.5834" stroke="#212224" stroke-width="2" stroke-linecap="round" stroke-linejoin="round"/>
<path d="M10.625 30.1875C7.77344 30.1875 5.99219 28.4844 5.99219 26.0234V19.6406C5.99219 18.9766 6.375 18.5938 7 18.5938C7.63281 18.5938 8.00781 18.9766 8.00781 19.6406V25.8438C8.00781 27.3828 8.95312 28.4297 10.625 28.4297C12.2969 28.4297 13.25 27.3828 13.25 25.8438V19.6406C13.25 18.9766 13.625 18.5938 14.2578 18.5938C14.8828 18.5938 15.2578 18.9766 15.2578 19.6406V26.0234C15.2578 28.4844 13.4844 30.1875 10.625 30.1875ZM21.5469 30.1328C20.7969 30.1328 20.3672 29.8125 20.0781 29.0312L16.7109 20.0859C16.6328 19.8906 16.6016 19.7031 16.6016 19.5234C16.6016 18.9688 17.0234 18.5938 17.6484 18.5938C18.1719 18.5938 18.4922 18.8281 18.6562 19.3594L21.5547 27.8359H21.6016L24.4922 19.3438C24.6641 18.8125 24.9531 18.5938 25.4766 18.5938C26.0859 18.5938 26.5078 18.9688 26.5078 19.5C26.5078 19.6797 26.4688 19.8594 26.3984 20.0469L23.0078 29.0391C22.7266 29.8125 22.2969 30.1328 21.5469 30.1328Z" fill="#212224"/>
</svg>
