<svg width="24" height="24" viewBox="0 0 24 24" fill="none" xmlns="http://www.w3.org/2000/svg">
<path d="M7.325 4.1359C7.2875 4.1359 7.26251 4.1359 7.22501 4.1234C7.18751 4.1234 7.1625 4.1109 7.125 4.0984C7.1 4.0859 7.06251 4.0734 7.03751 4.0484C7.01251 4.0234 6.98749 4.0109 6.96249 3.9859C6.93749 3.9609 6.92499 3.9359 6.89999 3.9109C6.88749 3.8859 6.86251 3.8484 6.85001 3.8234C6.83751 3.7984 6.825 3.7609 6.825 3.7234C6.825 3.6859 6.8125 3.6609 6.8125 3.6234C6.8125 3.4859 6.86249 3.3609 6.96249 3.2734C6.98749 3.2484 7.01251 3.2234 7.03751 3.2109C7.06251 3.1984 7.1 3.1734 7.125 3.1609C7.15 3.1484 7.18751 3.1359 7.22501 3.1359C7.38751 3.0984 7.5625 3.1609 7.675 3.2734C7.7625 3.3609 7.825 3.4984 7.825 3.6234C7.825 3.6609 7.825 3.6859 7.8125 3.7234C7.8125 3.7609 7.80001 3.7859 7.78751 3.8234C7.77501 3.8484 7.7625 3.8859 7.7375 3.9109C7.725 3.9359 7.7 3.9609 7.675 3.9859C7.5875 4.0859 7.4625 4.1359 7.325 4.1359Z" fill="#FFC44C"/>
<path d="M2.0125 9.44834C1.975 9.44834 1.95001 9.44834 1.91251 9.43584C1.87501 9.43584 1.85 9.42334 1.8125 9.41084C1.7875 9.39834 1.75001 9.38584 1.72501 9.36084C1.70001 9.34834 1.67499 9.32334 1.64999 9.29834C1.62499 9.27334 1.59999 9.24834 1.58749 9.22334C1.57499 9.19834 1.55001 9.16084 1.53751 9.13584C1.52501 9.11084 1.5125 9.07334 1.5125 9.03584C1.5125 8.99834 1.5 8.97334 1.5 8.93584C1.5 8.89834 1.5 8.87334 1.5125 8.83584C1.5125 8.79834 1.52501 8.77334 1.53751 8.73584C1.55001 8.71084 1.56249 8.67334 1.58749 8.64834C1.59999 8.62334 1.62499 8.59834 1.64999 8.57334C1.73749 8.48584 1.875 8.42334 2 8.42334C2.125 8.42334 2.26251 8.47334 2.35001 8.57334C2.37501 8.59834 2.38751 8.62334 2.41251 8.64834C2.42501 8.67334 2.44999 8.71084 2.46249 8.73584C2.47499 8.76084 2.4875 8.79834 2.4875 8.83584C2.4875 8.87334 2.5 8.89834 2.5 8.93584C2.5 8.97334 2.5 8.99834 2.4875 9.03584C2.475 9.07334 2.47499 9.09834 2.46249 9.13584C2.44999 9.16084 2.43751 9.19834 2.41251 9.22334C2.40001 9.24834 2.37501 9.27334 2.35001 9.29834C2.32501 9.32334 2.29999 9.34834 2.27499 9.36084C2.24999 9.37334 2.2125 9.39834 2.1875 9.41084C2.1625 9.42334 2.12499 9.43584 2.08749 9.43584C2.07499 9.44834 2.05 9.44834 2.0125 9.44834Z" fill="#FFC44C"/>
<path d="M11.0877 5.68613C11.0502 5.68613 11.0252 5.68613 10.9877 5.67363C10.9502 5.67363 10.9252 5.66113 10.8877 5.64863C10.8627 5.63613 10.8252 5.62364 10.8002 5.59864C10.7752 5.58614 10.7502 5.56114 10.7252 5.53614C10.7002 5.51114 10.6877 5.48613 10.6627 5.46113C10.6502 5.43613 10.6252 5.41113 10.6127 5.37363C10.6002 5.34863 10.5877 5.31114 10.5877 5.28614C10.5752 5.24864 10.5752 5.22363 10.5752 5.18613C10.5752 5.14863 10.5752 5.12363 10.5877 5.08613C10.5877 5.06113 10.6002 5.02363 10.6127 4.98613C10.6252 4.96113 10.6377 4.92363 10.6627 4.89863C10.6877 4.87363 10.7002 4.84863 10.7252 4.82363C10.7502 4.79863 10.7752 4.77363 10.8002 4.76113C10.8252 4.73613 10.8502 4.72363 10.8877 4.71113C10.9252 4.69863 10.9502 4.68613 10.9877 4.68613C11.0502 4.67363 11.1127 4.67363 11.1877 4.68613C11.2127 4.68613 11.2502 4.69863 11.2877 4.71113C11.3127 4.72363 11.3502 4.73613 11.3752 4.76113C11.4002 4.77363 11.4252 4.79863 11.4502 4.82363C11.5377 4.91113 11.6002 5.04863 11.6002 5.17363C11.6002 5.21113 11.6002 5.23613 11.5877 5.27363C11.5877 5.29863 11.5752 5.33613 11.5627 5.36113C11.5502 5.38613 11.5377 5.42363 11.5127 5.44863C11.5002 5.47363 11.4752 5.49863 11.4502 5.52363C11.3502 5.63613 11.2252 5.68613 11.0877 5.68613Z" fill="#FFC44C"/>
<path d="M3.5752 5.68584C3.4377 5.68584 3.3127 5.63584 3.2252 5.53584C3.2002 5.51084 3.1752 5.48584 3.1627 5.46084C3.1377 5.43584 3.1252 5.39834 3.1127 5.37334C3.1002 5.34834 3.08769 5.31084 3.08769 5.27334C3.07519 5.23584 3.0752 5.21084 3.0752 5.17334C3.0752 5.03584 3.1252 4.91084 3.2252 4.82334C3.3127 4.72334 3.4502 4.67334 3.5752 4.67334C3.7127 4.67334 3.8377 4.72334 3.9252 4.82334C4.0252 4.91084 4.0752 5.04834 4.0752 5.17334C4.0752 5.21084 4.0752 5.23584 4.0627 5.27334C4.0502 5.29834 4.0502 5.33584 4.0377 5.37334C4.0252 5.39834 4.0127 5.43584 3.9877 5.46084C3.9627 5.48584 3.9502 5.51084 3.9252 5.53584C3.8377 5.63584 3.7002 5.68584 3.5752 5.68584Z" fill="#FFC44C"/>
<path d="M7.325 4.1359C7.2875 4.1359 7.26251 4.1359 7.22501 4.1234C7.18751 4.1234 7.1625 4.1109 7.125 4.0984C7.1 4.0859 7.06251 4.0734 7.03751 4.0484C7.01251 4.0234 6.98749 4.0109 6.96249 3.9859C6.93749 3.9609 6.92499 3.9359 6.89999 3.9109C6.88749 3.8859 6.86251 3.8484 6.85001 3.8234C6.83751 3.7984 6.825 3.7609 6.825 3.7234C6.825 3.6859 6.8125 3.6609 6.8125 3.6234C6.8125 3.4859 6.86249 3.3609 6.96249 3.2734C6.98749 3.2484 7.01251 3.2234 7.03751 3.2109C7.06251 3.1984 7.1 3.1734 7.125 3.1609C7.15 3.1484 7.18751 3.1359 7.22501 3.1359C7.38751 3.0984 7.5625 3.1609 7.675 3.2734C7.7625 3.3609 7.825 3.4984 7.825 3.6234C7.825 3.6609 7.825 3.6859 7.8125 3.7234C7.8125 3.7609 7.80001 3.7859 7.78751 3.8234C7.77501 3.8484 7.7625 3.8859 7.7375 3.9109C7.725 3.9359 7.7 3.9609 7.675 3.9859C7.5875 4.0859 7.4625 4.1359 7.325 4.1359Z" fill="#FFC44C"/>
<path d="M2.0125 9.44834C1.975 9.44834 1.95001 9.44834 1.91251 9.43584C1.87501 9.43584 1.85 9.42334 1.8125 9.41084C1.7875 9.39834 1.75001 9.38584 1.72501 9.36084C1.70001 9.34834 1.67499 9.32334 1.64999 9.29834C1.62499 9.27334 1.59999 9.24834 1.58749 9.22334C1.57499 9.19834 1.55001 9.16084 1.53751 9.13584C1.52501 9.11084 1.5125 9.07334 1.5125 9.03584C1.5125 8.99834 1.5 8.97334 1.5 8.93584C1.5 8.89834 1.5 8.87334 1.5125 8.83584C1.5125 8.79834 1.52501 8.77334 1.53751 8.73584C1.55001 8.71084 1.56249 8.67334 1.58749 8.64834C1.59999 8.62334 1.62499 8.59834 1.64999 8.57334C1.73749 8.48584 1.875 8.42334 2 8.42334C2.125 8.42334 2.26251 8.47334 2.35001 8.57334C2.37501 8.59834 2.38751 8.62334 2.41251 8.64834C2.42501 8.67334 2.44999 8.71084 2.46249 8.73584C2.47499 8.76084 2.4875 8.79834 2.4875 8.83584C2.4875 8.87334 2.5 8.89834 2.5 8.93584C2.5 8.97334 2.5 8.99834 2.4875 9.03584C2.475 9.07334 2.47499 9.09834 2.46249 9.13584C2.44999 9.16084 2.43751 9.19834 2.41251 9.22334C2.40001 9.24834 2.37501 9.27334 2.35001 9.29834C2.32501 9.32334 2.29999 9.34834 2.27499 9.36084C2.24999 9.37334 2.2125 9.39834 2.1875 9.41084C2.1625 9.42334 2.12499 9.43584 2.08749 9.43584C2.07499 9.44834 2.05 9.44834 2.0125 9.44834Z" fill="#FFC44C"/>
<path d="M11.0877 5.68613C11.0502 5.68613 11.0252 5.68613 10.9877 5.67363C10.9502 5.67363 10.9252 5.66113 10.8877 5.64863C10.8627 5.63613 10.8252 5.62364 10.8002 5.59864C10.7752 5.58614 10.7502 5.56114 10.7252 5.53614C10.7002 5.51114 10.6877 5.48613 10.6627 5.46113C10.6502 5.43613 10.6252 5.41113 10.6127 5.37363C10.6002 5.34863 10.5877 5.31114 10.5877 5.28614C10.5752 5.24864 10.5752 5.22363 10.5752 5.18613C10.5752 5.14863 10.5752 5.12363 10.5877 5.08613C10.5877 5.06113 10.6002 5.02363 10.6127 4.98613C10.6252 4.96113 10.6377 4.92363 10.6627 4.89863C10.6877 4.87363 10.7002 4.84863 10.7252 4.82363C10.7502 4.79863 10.7752 4.77363 10.8002 4.76113C10.8252 4.73613 10.8502 4.72363 10.8877 4.71113C10.9252 4.69863 10.9502 4.68613 10.9877 4.68613C11.0502 4.67363 11.1127 4.67363 11.1877 4.68613C11.2127 4.68613 11.2502 4.69863 11.2877 4.71113C11.3127 4.72363 11.3502 4.73613 11.3752 4.76113C11.4002 4.77363 11.4252 4.79863 11.4502 4.82363C11.5377 4.91113 11.6002 5.04863 11.6002 5.17363C11.6002 5.21113 11.6002 5.23613 11.5877 5.27363C11.5877 5.29863 11.5752 5.33613 11.5627 5.36113C11.5502 5.38613 11.5377 5.42363 11.5127 5.44863C11.5002 5.47363 11.4752 5.49863 11.4502 5.52363C11.3502 5.63613 11.2252 5.68613 11.0877 5.68613Z" fill="#FFC44C"/>
<path d="M3.5752 5.68584C3.4377 5.68584 3.3127 5.63584 3.2252 5.53584C3.2002 5.51084 3.1752 5.48584 3.1627 5.46084C3.1377 5.43584 3.1252 5.39834 3.1127 5.37334C3.1002 5.34834 3.08769 5.31084 3.08769 5.27334C3.07519 5.23584 3.0752 5.21084 3.0752 5.17334C3.0752 5.03584 3.1252 4.91084 3.2252 4.82334C3.3127 4.72334 3.4502 4.67334 3.5752 4.67334C3.7127 4.67334 3.8377 4.72334 3.9252 4.82334C4.0252 4.91084 4.0752 5.04834 4.0752 5.17334C4.0752 5.21084 4.0752 5.23584 4.0627 5.27334C4.0502 5.29834 4.0502 5.33584 4.0377 5.37334C4.0252 5.39834 4.0127 5.43584 3.9877 5.46084C3.9627 5.48584 3.9502 5.51084 3.9252 5.53584C3.8377 5.63584 3.7002 5.68584 3.5752 5.68584Z" fill="#FFC44C"/>
<path d="M2.9502 13.086C2.9127 13.086 2.8877 13.086 2.8502 13.0735C2.8252 13.0735 2.7877 13.061 2.7627 13.0485C2.7377 13.036 2.7002 13.0235 2.6752 12.9985C2.6502 12.986 2.6252 12.961 2.6002 12.936C2.5752 12.911 2.5502 12.886 2.5377 12.861C2.5127 12.836 2.5002 12.7985 2.4877 12.7735C2.4752 12.7485 2.46269 12.711 2.46269 12.6735C2.45019 12.636 2.4502 12.611 2.4502 12.5735C2.4502 12.436 2.5002 12.311 2.6002 12.2235C2.6252 12.1985 2.6502 12.186 2.6752 12.161C2.7002 12.1485 2.7377 12.1235 2.7627 12.111C2.7877 12.0985 2.8252 12.086 2.8627 12.086C2.9252 12.0735 2.9877 12.0735 3.0627 12.086C3.0877 12.086 3.12519 12.0985 3.15019 12.111C3.17519 12.1235 3.2127 12.136 3.2377 12.161C3.2627 12.186 3.2877 12.1985 3.3127 12.2235C3.4127 12.3235 3.46269 12.4485 3.46269 12.5735C3.46269 12.611 3.4627 12.636 3.4502 12.6735C3.4502 12.6985 3.4377 12.736 3.4252 12.7735C3.4127 12.7985 3.4002 12.836 3.3752 12.861C3.3502 12.886 3.3377 12.911 3.3127 12.936C3.2877 12.961 3.2627 12.9735 3.2377 12.9985C3.2127 13.011 3.17519 13.036 3.15019 13.0485C3.12519 13.061 3.0877 13.0735 3.0627 13.0735C3.0127 13.086 2.9752 13.086 2.9502 13.086Z" fill="#FFC44C"/>
<path d="M7.3123 12.8233C9.42479 12.8233 11.1373 11.0828 11.1373 8.93584C11.1373 6.78883 9.42479 5.04834 7.3123 5.04834C5.19981 5.04834 3.4873 6.78883 3.4873 8.93584C3.4873 11.0828 5.19981 12.8233 7.3123 12.8233Z" fill="url(#paint0_linear_3783_14579)"/>
<path d="M18.6594 10.2936C18.4844 10.2811 18.2969 10.2936 18.1219 10.3061C17.8469 8.05608 15.9969 6.30608 13.6844 6.20608C12.4344 6.14358 11.2344 6.58108 10.3094 7.43108C9.44694 8.21858 8.92194 9.28108 8.80944 10.4436C6.58444 10.3436 4.68444 12.0686 4.58444 14.2936C4.52194 15.6436 5.13444 16.9186 6.22194 17.7311C6.30944 17.7936 6.40944 17.8311 6.52194 17.8311C6.67194 17.8311 6.82194 17.7561 6.92194 17.6311C7.08444 17.4061 7.03444 17.0936 6.82194 16.9311C5.99694 16.3186 5.54694 15.3561 5.58444 14.3436C5.65944 12.6686 7.08444 11.3561 8.75944 11.4311C9.82194 11.4811 10.7594 12.0561 11.2844 12.9936C11.4219 13.2311 11.7219 13.3186 11.9594 13.1811C12.1969 13.0436 12.2844 12.7436 12.1469 12.5061C11.6219 11.5686 10.7719 10.9061 9.78444 10.6061C9.94694 8.63108 11.6469 7.10608 13.6344 7.19358C15.6094 7.28108 17.1594 8.90608 17.1594 10.8811C17.1594 11.0311 17.2344 11.1811 17.3469 11.2686C17.4719 11.3686 17.6219 11.3936 17.7719 11.3686C18.0469 11.3061 18.3344 11.2811 18.6094 11.2936C20.2844 11.3686 21.5969 12.7936 21.5219 14.4686C21.4719 15.6186 20.7844 16.6311 19.7469 17.1061C19.4969 17.2186 19.3844 17.5186 19.4969 17.7686C19.5844 17.9561 19.7594 18.0561 19.9469 18.0561C20.0219 18.0561 20.0844 18.0436 20.1594 18.0061C21.5469 17.3686 22.4594 16.0311 22.5219 14.5061C22.6219 12.2811 20.8844 10.3936 18.6594 10.2936Z" fill="#2F2F2F"/>
<path d="M15.5342 20.6311C15.4092 20.6311 15.2717 20.5811 15.1842 20.4811C14.9842 20.2811 14.9842 19.9686 15.1842 19.7686L17.7467 17.2186C17.9467 17.0186 18.2592 17.0311 18.4592 17.2186C18.6592 17.4186 18.6592 17.7311 18.4592 17.9311L15.8967 20.4811C15.7842 20.5811 15.6592 20.6311 15.5342 20.6311Z" fill="#57AAFF"/>
<path d="M7.32227 19.8187C7.19727 19.8187 7.07227 19.7687 6.97227 19.6687C6.77227 19.4687 6.77227 19.1562 6.97227 18.9562L9.43477 16.4562C9.63477 16.2562 9.94727 16.2562 10.1473 16.4562C10.3473 16.6562 10.3473 16.9687 10.1473 17.1687L7.68477 19.6687C7.58477 19.7687 7.45977 19.8187 7.32227 19.8187Z" fill="#57AAFF"/>
<path d="M15.734 17.2561C15.609 17.2561 15.484 17.2061 15.384 17.1186C15.184 16.9311 15.184 16.6061 15.3715 16.4061L17.1465 14.5686C17.334 14.3686 17.659 14.3686 17.859 14.5561C18.059 14.7436 18.059 15.0686 17.8715 15.2686L16.0965 17.1061C15.9965 17.2061 15.859 17.2561 15.734 17.2561Z" fill="#57AAFF"/>
<path d="M11.859 20.9309C11.734 20.9309 11.609 20.8809 11.509 20.7934C11.309 20.6059 11.309 20.2809 11.4965 20.0809L13.2715 18.2434C13.459 18.0434 13.784 18.0434 13.984 18.2309C14.184 18.4184 14.184 18.7434 13.9965 18.9434L12.2215 20.7809C12.1215 20.8809 11.9965 20.9309 11.859 20.9309Z" fill="#57AAFF"/>
<path d="M11.6598 17.8313C11.5348 17.8313 11.4098 17.7813 11.3098 17.6938C11.1098 17.5063 11.1098 17.1813 11.2973 16.9813L13.0723 15.1438C13.2598 14.9438 13.5848 14.9438 13.7848 15.1313C13.9848 15.3188 13.9848 15.6438 13.7973 15.8438L12.0223 17.6813C11.9223 17.7813 11.7848 17.8313 11.6598 17.8313Z" fill="#57AAFF"/>
<defs>
<linearGradient id="paint0_linear_3783_14579" x1="7.31344" y1="12.8164" x2="7.31344" y2="5.04864" gradientUnits="userSpaceOnUse">
<stop stop-color="#FFC14C"/>
<stop offset="1" stop-color="#FFD04D"/>
</linearGradient>
</defs>
</svg>
