<svg width="24" height="24" viewBox="0 0 24 24" fill="none" xmlns="http://www.w3.org/2000/svg">
<path d="M6.54315 18.4829C6.53054 18.4829 6.51794 18.4829 6.51794 18.4829C5.38341 18.4198 4.33711 17.9156 3.58076 17.0584C2.8244 16.2138 2.43362 15.1171 2.50925 13.97C2.57228 12.8354 3.07653 11.7891 3.93373 11.0328C4.77832 10.2764 5.87504 9.88563 7.02218 9.96127C7.03478 9.96127 7.03478 9.96127 7.04738 9.96127C7.31211 7.35184 9.60638 5.38533 12.241 5.52399C14.6866 5.66266 16.6279 7.55355 16.88 9.93606C17.0817 9.92346 17.2708 9.92346 17.4725 9.92346C19.8172 10.0621 21.6198 12.0791 21.4938 14.4238C21.3677 16.6928 19.4768 18.4451 17.233 18.4451C17.1573 18.4451 17.0817 18.4451 17.0061 18.4451L6.54315 18.4829ZM6.74485 10.9697C5.03045 10.9697 3.59337 12.3186 3.49252 14.0456C3.39167 15.8356 4.76571 17.3736 6.54315 17.487L16.9808 17.4618C16.9935 17.4618 17.0061 17.4618 17.0061 17.4618C18.7961 17.5626 20.3466 16.1886 20.4475 14.3986C20.5483 12.6085 19.1743 11.058 17.3842 10.9571C17.0817 10.9445 16.7792 10.9697 16.4892 11.0328C16.338 11.0706 16.1867 11.0328 16.0606 10.9319C15.9346 10.8311 15.8715 10.6924 15.8715 10.5285C15.8967 8.41074 14.2706 6.67113 12.1528 6.54507C10.0224 6.41901 8.18193 8.03256 8.00544 10.1504C9.03913 10.4655 9.92152 11.1714 10.4762 12.1421C10.6148 12.3816 10.5266 12.6968 10.2871 12.8228C10.0476 12.9615 9.73245 12.8732 9.60639 12.6337C9.06433 11.6631 8.06845 11.0328 6.94653 10.9697C6.87089 10.9697 6.80788 10.9697 6.74485 10.9697Z" fill="white"/>
</svg>
