<svg width="24" height="25" viewBox="0 0 24 25" fill="none" xmlns="http://www.w3.org/2000/svg">
<path d="M12.2052 18.2962C11.0345 18.2962 9.86371 17.9567 8.82173 17.2542C6.09385 15.381 5.39139 11.6463 7.25291 8.90669C9.12613 6.17881 12.8609 5.47635 15.6005 7.33787C15.8229 7.49007 16.0219 7.65397 16.221 7.82958C16.3263 7.92324 16.3849 8.07544 16.3732 8.22764C16.3614 8.37984 16.2795 8.50863 16.1507 8.57887C15.3429 9.05889 14.7692 9.83159 14.5468 10.7448C14.3126 11.658 14.4531 12.6063 14.9448 13.4141C15.3897 14.1634 16.0922 14.7137 16.9234 14.9712C17.0639 15.0181 17.181 15.1234 17.2278 15.2639C17.2746 15.4044 17.2512 15.5566 17.1693 15.6854C16.0102 17.383 14.1253 18.2962 12.2052 18.2962ZM12.2287 7.23249C10.613 7.23249 9.02076 8.0052 8.03731 9.43354C6.45678 11.7399 7.05388 14.901 9.36028 16.4815C11.5028 17.945 14.3712 17.5352 16.0336 15.6269C15.2492 15.2522 14.5936 14.6551 14.137 13.8941C13.5282 12.8756 13.3526 11.6697 13.6336 10.5106C13.8677 9.57402 14.3946 8.75449 15.1321 8.1457C15.1087 8.13399 15.097 8.12228 15.0736 8.11057C14.2072 7.51348 13.2121 7.23249 12.2287 7.23249Z" fill="black"/>
<path d="M19.7808 8.80131C19.652 8.80131 19.5349 8.75449 19.453 8.66083C19.371 8.57888 19.3125 8.45009 19.3125 8.33301C19.3125 8.29789 19.3125 8.27447 19.3242 8.23934C19.3359 8.21593 19.3359 8.18081 19.3476 8.14569C19.3593 8.12227 19.371 8.08714 19.3944 8.06373C19.4062 8.04031 19.4296 8.0169 19.453 7.99348C19.5584 7.88812 19.7223 7.82958 19.8745 7.8647C19.9096 7.87641 19.933 7.87641 19.9681 7.88811C19.9915 7.89982 20.0267 7.91153 20.0501 7.93495C20.0735 7.95836 20.0969 7.97007 20.1203 7.99348C20.1437 8.0169 20.1554 8.04031 20.1789 8.06373C20.1906 8.08714 20.214 8.12227 20.2257 8.14569C20.2374 8.1691 20.2491 8.20422 20.2491 8.23934C20.2608 8.27447 20.2608 8.29789 20.2608 8.33301C20.2608 8.45009 20.214 8.57888 20.1203 8.66083C20.0969 8.68424 20.0735 8.70766 20.0501 8.71937C20.0267 8.74278 20.0032 8.75448 19.9681 8.76619C19.9447 8.77789 19.9096 8.78961 19.8745 8.78961C19.8393 8.80132 19.8042 8.80131 19.7808 8.80131Z" fill="black"/>
<path d="M17.9771 12.7584C17.8483 12.7584 17.7312 12.7115 17.6493 12.6179C17.5556 12.5242 17.5088 12.4072 17.5088 12.2901C17.5088 12.1613 17.5556 12.0442 17.6493 11.9623C17.7312 11.8803 17.86 11.8218 17.9771 11.8218C18.0942 11.8218 18.223 11.8686 18.3049 11.9623C18.3869 12.0442 18.4454 12.173 18.4454 12.2901C18.4454 12.4072 18.3986 12.5359 18.3049 12.6179C18.223 12.6998 18.1059 12.7584 17.9771 12.7584Z" fill="black"/>
<path d="M7.37064 6.24959C7.33552 6.24959 7.3121 6.24959 7.27698 6.23789C7.24185 6.22618 7.21844 6.22618 7.18332 6.21448C7.1599 6.20277 7.12478 6.19106 7.10136 6.16764C7.07795 6.14423 7.05453 6.13252 7.03112 6.1091C6.94916 6.01544 6.89062 5.89836 6.89062 5.78129C6.89062 5.6525 6.93746 5.53543 7.03112 5.45348C7.05453 5.43006 7.07795 5.40665 7.10136 5.39494C7.12478 5.38323 7.14819 5.35982 7.18332 5.34811C7.20673 5.3364 7.24185 5.3247 7.27698 5.3247C7.33551 5.31299 7.39406 5.31299 7.4643 5.3247C7.49943 5.3247 7.52284 5.3364 7.55796 5.34811C7.58138 5.35982 7.6165 5.37153 7.63992 5.39494C7.66333 5.40665 7.68674 5.43006 7.71016 5.45348C7.79211 5.54714 7.85065 5.66421 7.85065 5.78129C7.85065 5.89836 7.80382 6.02715 7.71016 6.1091C7.68674 6.13252 7.66333 6.14423 7.63992 6.16764C7.6165 6.17935 7.58138 6.20277 7.55796 6.21448C7.53455 6.22618 7.49943 6.23789 7.4643 6.23789C7.42918 6.23789 7.40577 6.24959 7.37064 6.24959Z" fill="black"/>
<path d="M4.22024 15.6265C4.18512 15.6265 4.16171 15.6265 4.12658 15.6148C4.09146 15.6031 4.06805 15.6031 4.03293 15.5914C4.00951 15.5797 3.97439 15.568 3.95097 15.5446C3.92756 15.5329 3.90414 15.5095 3.88072 15.486C3.85731 15.4626 3.8456 15.4392 3.82218 15.4158C3.81047 15.3924 3.78706 15.3573 3.77536 15.3339C3.76365 15.3104 3.75194 15.2753 3.75194 15.2402C3.74023 15.2051 3.74023 15.1816 3.74023 15.1465C3.74023 15.1114 3.74023 15.088 3.75194 15.0529C3.76365 15.0177 3.76365 14.9943 3.77536 14.9592C3.78706 14.9358 3.79877 14.9007 3.82218 14.8773C3.8456 14.8538 3.85731 14.8304 3.88072 14.807C3.90414 14.7836 3.92756 14.7602 3.95097 14.7485C3.97439 14.7368 4.00951 14.7133 4.03293 14.7016C4.05634 14.6899 4.09146 14.6782 4.12658 14.6782C4.18512 14.6665 4.25537 14.6665 4.3139 14.6782C4.34903 14.6899 4.37244 14.6899 4.40756 14.7016C4.43098 14.7133 4.4661 14.7251 4.48952 14.7485C4.51293 14.7602 4.53635 14.7836 4.55977 14.807C4.64172 14.9007 4.70025 15.0177 4.70025 15.1348C4.70025 15.1699 4.70026 15.1934 4.68855 15.2285C4.68855 15.2636 4.67684 15.287 4.66513 15.3221C4.65343 15.3455 4.64172 15.3807 4.61831 15.4041C4.59489 15.4275 4.58318 15.4509 4.55977 15.4743C4.53635 15.4978 4.51293 15.5212 4.48952 15.5329C4.4661 15.5446 4.44269 15.568 4.40756 15.5797C4.38415 15.5914 4.34903 15.6031 4.3139 15.6031C4.27878 15.6148 4.25537 15.6265 4.22024 15.6265Z" fill="black"/>
<path d="M16.9927 19.3736C16.9576 19.3736 16.9342 19.3736 16.899 19.3619C16.8639 19.3502 16.8405 19.3502 16.8054 19.3385C16.782 19.3268 16.7468 19.315 16.7234 19.2916C16.7 19.2799 16.6766 19.2565 16.6532 19.2331C16.5712 19.1511 16.5127 19.0224 16.5127 18.9053C16.5127 18.7765 16.5595 18.6594 16.6532 18.5775C16.6766 18.5541 16.7 18.5306 16.7234 18.5189C16.7468 18.5072 16.7703 18.4838 16.8054 18.4721C16.8405 18.4604 16.8639 18.4487 16.899 18.4487C17.0512 18.4136 17.2152 18.4721 17.3205 18.5775C17.4025 18.6594 17.461 18.7882 17.461 18.9053C17.461 19.0341 17.4142 19.1511 17.3205 19.2331C17.2386 19.3268 17.1098 19.3736 16.9927 19.3736Z" fill="black"/>
<path d="M6.67827 19.3966C6.54948 19.3966 6.43241 19.3497 6.35045 19.2561C6.25679 19.1741 6.20996 19.0453 6.20996 18.9283C6.20996 18.8112 6.25679 18.6824 6.35045 18.6004C6.43241 18.5068 6.56119 18.46 6.67827 18.46C6.80705 18.46 6.92413 18.5068 7.00608 18.6004C7.08803 18.6824 7.14657 18.8112 7.14657 18.9283C7.14657 19.0571 7.09974 19.1741 7.00608 19.2561C6.92413 19.3497 6.80705 19.3966 6.67827 19.3966Z" fill="black"/>
</svg>
