<svg width="25" height="25" viewBox="0 0 25 25" fill="none" xmlns="http://www.w3.org/2000/svg">
<path d="M7.81255 12.5C7.81255 10.9548 8.27075 9.44437 9.1292 8.15961C9.98764 6.87485 11.2078 5.8735 12.6353 5.28219C14.0629 4.69089 15.6337 4.53617 17.1492 4.83762C18.6647 5.13907 20.0567 5.88313 21.1493 6.97573C22.2419 8.06833 22.986 9.46038 23.2874 10.9759C23.5889 12.4913 23.4342 14.0622 22.8429 15.4897C22.2516 16.9173 21.2502 18.1374 19.9654 18.9959C18.6807 19.8543 17.1702 20.3125 15.6251 20.3125H7.0313C6.25575 20.3117 5.48923 20.146 4.78262 19.8264C4.07601 19.5067 3.44547 19.0405 2.93284 18.4585C2.42022 17.8765 2.03725 17.1922 1.80934 16.4508C1.58143 15.7095 1.5138 14.9282 1.61094 14.1588C1.70807 13.3894 1.96776 12.6494 2.37275 11.988C2.77774 11.3266 3.31878 10.7589 3.95996 10.3225C4.60113 9.88623 5.32778 9.59127 6.09166 9.45727C6.85555 9.32326 7.6392 9.35326 8.3906 9.54527" stroke="black" stroke-width="2" stroke-linecap="round" stroke-linejoin="round"/>
</svg>
