<svg width="33" height="33" viewBox="0 0 33 33" fill="none" xmlns="http://www.w3.org/2000/svg">
<path fill-rule="evenodd" clip-rule="evenodd" d="M13.3787 4.37868C13.9413 3.81607 14.7044 3.5 15.5 3.5C16.2956 3.5 17.0587 3.81607 17.6213 4.37868C18.1839 4.94129 18.5 5.70435 18.5 6.5V18.8782C18.5 19.2103 18.6641 19.514 18.9271 19.6979C19.8083 20.3999 20.453 21.3559 20.7733 22.4369C21.0987 23.5349 21.0732 24.707 20.7005 25.7898C20.3278 26.8727 19.6263 27.8121 18.694 28.4771C17.7618 29.1422 16.6452 29.4996 15.5 29.4996C14.3548 29.4996 13.2382 29.1422 12.306 28.4771C11.3737 27.8121 10.6722 26.8727 10.2995 25.7898C9.92676 24.707 9.9013 23.5349 10.2267 22.4369C10.547 21.3559 11.1917 20.3999 12.0729 19.6979C12.3359 19.514 12.5 19.2103 12.5 18.8782V6.5C12.5 5.70435 12.8161 4.94129 13.3787 4.37868ZM20.5 6.5V18.4095C21.5346 19.3348 22.2947 20.5316 22.6909 21.8687C23.1346 23.3659 23.0999 24.9643 22.5916 26.4408C22.0833 27.9174 21.1268 29.1985 19.8555 30.1053C18.5842 31.0122 17.0616 31.4996 15.5 31.4996C13.9384 31.4996 12.4158 31.0122 11.1445 30.1053C9.87321 29.1985 8.9167 27.9174 8.40842 26.4408C7.90013 24.9643 7.86541 23.3659 8.30911 21.8687C8.70533 20.5316 9.46544 19.3348 10.5 18.4095V6.5C10.5 5.17392 11.0268 3.90215 11.9645 2.96447C12.9021 2.02678 14.1739 1.5 15.5 1.5C16.8261 1.5 18.0979 2.02678 19.0355 2.96447C19.9732 3.90215 20.5 5.17392 20.5 6.5ZM27 5.5L27.8228 4.93166C27.6361 4.66136 27.3285 4.5 27 4.5C26.6715 4.5 26.3639 4.66136 26.1772 4.93166L27 5.5ZM27 5.5C27.8228 4.93166 27.8229 4.93175 27.8229 4.93185L27.8231 4.93211L27.8236 4.9329L27.8254 4.93545L27.8316 4.94444L27.8542 4.9775C27.8737 5.00606 27.9018 5.04744 27.9373 5.10021C28.0082 5.2057 28.1088 5.35695 28.2293 5.54242C28.4696 5.9125 28.7916 6.42295 29.115 6.98045C29.4365 7.53468 29.7694 8.15246 30.0249 8.73403C30.2624 9.27454 30.5 9.9277 30.5 10.5C30.5 12.433 28.933 14 27 14C25.067 14 23.5 12.433 23.5 10.5C23.5 9.9277 23.7376 9.27454 23.9751 8.73403C24.2306 8.15246 24.5635 7.53468 24.885 6.98045C25.2084 6.42295 25.5304 5.9125 25.7707 5.54242C25.8912 5.35695 25.9918 5.2057 26.0627 5.10021C26.0982 5.04744 26.1263 5.00606 26.1458 4.9775L26.1684 4.94444L26.1746 4.93545L26.1764 4.9329L26.1769 4.93211L26.1771 4.93185C26.1771 4.93175 26.1772 4.93166 27 5.5ZM26.615 7.98401C26.7451 7.75973 26.8755 7.54276 27 7.34029C27.1245 7.54276 27.2549 7.75973 27.385 7.98401C27.6885 8.5072 27.9806 9.05312 28.1938 9.53849C28.4251 10.0649 28.5 10.3819 28.5 10.5C28.5 11.3284 27.8284 12 27 12C26.1716 12 25.5 11.3284 25.5 10.5C25.5 10.3819 25.5749 10.0649 25.8062 9.53849C26.0194 9.05312 26.3115 8.5072 26.615 7.98401ZM15.5 22.5C14.6716 22.5 14 23.1716 14 24C14 24.8284 14.6716 25.5 15.5 25.5C16.3284 25.5 17 24.8284 17 24C17 23.1716 16.3284 22.5 15.5 22.5ZM16.5 20.6449V14.5C16.5 13.9477 16.0523 13.5 15.5 13.5C14.9477 13.5 14.5 13.9477 14.5 14.5L14.5 20.6449C13.0543 21.0752 12 22.4145 12 24C12 25.933 13.567 27.5 15.5 27.5C17.433 27.5 19 25.933 19 24C19 22.4145 17.9457 21.0752 16.5 20.6449Z" fill="#9975FF"/>
</svg>
