<svg width="24" height="24" viewBox="0 0 24 24" fill="none" xmlns="http://www.w3.org/2000/svg">
<path d="M22.0377 10.0279C21.5377 12.5279 19.1001 14.1529 16.6001 13.6529C14.1001 13.1529 12.4751 10.7154 12.9751 8.21538C13.4751 5.71538 15.9127 4.09038 18.4127 4.59038C18.6127 4.62788 18.8126 4.67788 19.0001 4.75288C17.9126 6.24038 18.2376 8.32788 19.7376 9.41538C20.4001 9.87788 21.2252 10.1029 22.0377 10.0279Z" fill="url(#paint0_linear_3783_14576)"/>
<path d="M6.43746 19.4154C6.38746 19.4154 6.32496 19.4154 6.27496 19.4154C3.99996 19.3279 2.21246 17.4029 2.29996 15.1154C2.39996 12.8404 4.33746 11.0654 6.61246 11.1654C6.61246 11.1654 6.61246 11.1654 6.62496 11.1654C6.86246 8.64043 9.04996 6.71543 11.6 6.82793C13.975 6.92793 15.8625 8.72793 16.1375 11.0279C16.325 11.0154 16.5125 11.0029 16.6875 11.0154C18.9625 11.1154 20.7375 13.0529 20.6375 15.3279C20.575 16.6029 19.95 17.7529 18.925 18.5029C17.8375 19.2904 16.4875 19.3029 15.3125 19.3029H15.0625C14.1 19.3154 13.1375 19.3279 12.175 19.3404C10.2875 19.3779 8.34996 19.4029 6.43746 19.4154ZM6.42496 12.1654C4.76246 12.1654 3.37496 13.4779 3.29996 15.1529C3.23746 16.8779 4.58746 18.3404 6.32496 18.4029C6.36246 18.4029 6.39995 18.4029 6.44995 18.4029C8.34995 18.3904 10.2875 18.3654 12.1625 18.3404C13.125 18.3279 14.0875 18.3154 15.05 18.3029H15.3125C16.4 18.2904 17.5125 18.2904 18.35 17.6904C19.1375 17.1279 19.6125 16.2529 19.65 15.2779C19.725 13.5529 18.3875 12.0904 16.6625 12.0154C16.375 12.0029 16.0875 12.0279 15.8 12.1029C15.65 12.1404 15.5 12.1029 15.375 12.0029C15.25 11.9029 15.1875 11.7654 15.1875 11.6154C15.1875 9.57793 13.6 7.91543 11.575 7.82793C9.49995 7.74043 7.76246 9.30293 7.61246 11.3404C8.62496 11.6404 9.49996 12.3279 10.0375 13.2779C10.175 13.5154 10.0875 13.8279 9.84996 13.9529C9.61246 14.0904 9.29996 14.0029 9.17496 13.7654C8.63746 12.8154 7.67496 12.2154 6.57495 12.1654C6.52495 12.1654 6.47496 12.1654 6.42496 12.1654Z" fill="#2F2F2F"/>
<path d="M2.375 9.37773C2.2375 9.37773 2.1125 9.32773 2.025 9.22773C2 9.20273 1.975 9.17773 1.9625 9.15273C1.95 9.12773 1.925 9.09023 1.9125 9.06523C1.9 9.04023 1.8875 9.00273 1.8875 8.96523C1.8875 8.92773 1.875 8.90273 1.875 8.86523C1.875 8.72773 1.925 8.60273 2.025 8.51523C2.125 8.41523 2.25 8.36523 2.375 8.36523C2.5 8.36523 2.6375 8.41523 2.725 8.51523C2.825 8.62773 2.875 8.75273 2.875 8.87773C2.875 8.91523 2.875 8.94023 2.8625 8.97773C2.85 9.00273 2.85 9.04023 2.8375 9.07773C2.825 9.10273 2.8125 9.14023 2.7875 9.16523C2.775 9.19023 2.75 9.21523 2.725 9.24023C2.6375 9.32773 2.5 9.37773 2.375 9.37773Z" fill="#9975FF"/>
<path d="M4.7002 9.79033C4.5752 9.79033 4.4377 9.74033 4.3502 9.64033C4.2627 9.55283 4.2002 9.41533 4.2002 9.29033C4.2002 9.25283 4.2002 9.22783 4.2127 9.19033C4.2127 9.15283 4.2252 9.12783 4.2377 9.09033C4.2502 9.06533 4.2627 9.02783 4.2877 9.00283C4.3002 8.97783 4.3252 8.95283 4.3502 8.92783C4.4502 8.82783 4.5752 8.77783 4.7002 8.77783C4.8252 8.77783 4.9627 8.82783 5.0502 8.92783C5.0752 8.95283 5.1002 8.97783 5.1127 9.00283C5.1377 9.02783 5.1502 9.05283 5.1627 9.09033C5.1752 9.11533 5.1877 9.15283 5.1877 9.19033C5.2002 9.21533 5.2002 9.25283 5.2002 9.29033C5.2002 9.42783 5.1502 9.55283 5.0502 9.64033C4.9502 9.74033 4.8252 9.79033 4.7002 9.79033Z" fill="#2F2F2F"/>
<path d="M6 7.1027C5.875 7.1027 5.7375 7.0527 5.65 6.9527C5.55 6.8652 5.5 6.7402 5.5 6.6027C5.5 6.5652 5.5 6.5402 5.5125 6.5027C5.5125 6.4777 5.525 6.4402 5.5375 6.4027C5.55 6.3777 5.5625 6.3402 5.5875 6.3152C5.6 6.2902 5.625 6.2652 5.65 6.2402C5.675 6.2152 5.7 6.2027 5.725 6.1777C5.75 6.1652 5.775 6.1402 5.8125 6.1277C5.8375 6.1152 5.875 6.1027 5.9125 6.1027C6.075 6.0652 6.25 6.1277 6.3625 6.2402C6.3875 6.2652 6.4125 6.2902 6.425 6.3152C6.4375 6.3402 6.4625 6.3777 6.475 6.4027C6.4875 6.4277 6.5 6.4652 6.5 6.5027C6.5 6.5402 6.5125 6.5652 6.5125 6.6027C6.5125 6.7402 6.4625 6.8652 6.3625 6.9527C6.2625 7.0527 6.1375 7.1027 6 7.1027Z" fill="#9975FF"/>
<defs>
<linearGradient id="paint0_linear_3783_14576" x1="15.3335" y1="5.01928" x2="18.946" y2="13.5297" gradientUnits="userSpaceOnUse">
<stop stop-color="#B9A0FF"/>
<stop offset="1" stop-color="#855AFF"/>
</linearGradient>
</defs>
</svg>
