<svg width="24" height="24" viewBox="0 0 24 24" fill="none" xmlns="http://www.w3.org/2000/svg">
<path d="M2.52781 6.51285C2.48919 6.51285 2.46344 6.51283 2.42482 6.49996C2.3862 6.48709 2.36045 6.48709 2.32183 6.47422C2.28321 6.46135 2.25747 6.44845 2.23172 6.42271C2.20598 6.39696 2.18025 6.38409 2.1545 6.35834C2.12876 6.3326 2.10301 6.30687 2.09014 6.28112C2.07726 6.25538 2.0515 6.22964 2.03863 6.19102C2.02575 6.16527 2.01289 6.12664 2.01289 6.08802C2.01289 6.0494 2 6.02365 2 5.98503C2 5.94641 2.00001 5.92066 2.01289 5.88204C2.02576 5.84342 2.02575 5.81767 2.03863 5.77905C2.0515 5.7533 2.06439 5.71469 2.09014 5.68894C2.10301 5.6632 2.12876 5.63747 2.1545 5.61172C2.18025 5.58598 2.20598 5.56023 2.23172 5.54736C2.25747 5.53448 2.28321 5.50872 2.32183 5.49584C2.34758 5.48297 2.3862 5.4701 2.42482 5.4701C2.48919 5.45723 2.56644 5.45723 2.63081 5.4701C2.66943 5.4701 2.69518 5.48297 2.7338 5.49584C2.75954 5.50872 2.79816 5.52161 2.8239 5.54736C2.84965 5.56023 2.87538 5.58598 2.90112 5.61172C2.92687 5.63747 2.95262 5.6632 2.96549 5.68894C2.97836 5.71469 3.00413 5.7533 3.017 5.77905C3.02987 5.80479 3.04274 5.84342 3.04274 5.88204C3.05562 5.92066 3.05563 5.94641 3.05563 5.98503C3.05563 6.02365 3.05562 6.0494 3.04274 6.08802C3.02987 6.12664 3.02987 6.1524 3.017 6.19102C3.00413 6.21676 2.99124 6.25538 2.96549 6.28112C2.95262 6.30687 2.92687 6.3326 2.90112 6.35834C2.87538 6.38409 2.84965 6.39696 2.8239 6.42271C2.79816 6.43558 2.77242 6.46135 2.7338 6.47422C2.69518 6.48709 2.66943 6.49996 2.63081 6.49996C2.59219 6.51283 2.56643 6.51285 2.52781 6.51285Z" fill="black"/>
<path d="M4.92215 6.93773C4.78055 6.93773 4.65181 6.88624 4.5617 6.78326C4.53595 6.75751 4.51021 6.73178 4.49733 6.70604C4.48446 6.68029 4.45869 6.65452 4.44582 6.6159C4.43295 6.59015 4.42008 6.55156 4.42008 6.51294C4.40721 6.47432 4.40723 6.44857 4.40723 6.40995C4.40723 6.26834 4.45871 6.1396 4.5617 6.04949C4.65181 5.95938 4.79342 5.89502 4.92215 5.89502C5.06376 5.89502 5.19247 5.94651 5.28258 6.04949C5.37269 6.1396 5.43708 6.28122 5.43708 6.40995C5.43708 6.44857 5.43707 6.47432 5.4242 6.51294C5.41132 6.55156 5.41133 6.57728 5.39846 6.6159C5.38558 6.64165 5.37269 6.68029 5.34695 6.70604C5.33407 6.73178 5.30833 6.75751 5.28258 6.78326C5.17959 6.88624 5.05089 6.93773 4.92215 6.93773Z" fill="black"/>
<path d="M6.26121 4.16999C6.22259 4.16999 6.19684 4.17001 6.15822 4.15713C6.13247 4.14426 6.09385 4.14427 6.05523 4.13139C6.01661 4.11852 5.99087 4.10563 5.96512 4.07988C5.93938 4.06701 5.91365 4.04126 5.8879 4.01552C5.78492 3.91253 5.7334 3.78379 5.7334 3.65506C5.7334 3.61644 5.73341 3.59072 5.74628 3.5521C5.75916 3.51348 5.75915 3.48773 5.77202 3.44911C5.7849 3.42336 5.79779 3.38475 5.82354 3.359C5.83641 3.33326 5.86216 3.3075 5.8879 3.28175C5.91365 3.256 5.93938 3.23026 5.96512 3.21738C5.99087 3.20451 6.01661 3.17878 6.05523 3.1659C6.08097 3.15303 6.1196 3.14013 6.15822 3.14013C6.32557 3.10151 6.50581 3.16589 6.62167 3.28175C6.64741 3.3075 6.67316 3.33326 6.68603 3.359C6.69891 3.38475 6.72464 3.42336 6.73751 3.44911C6.75039 3.47485 6.76325 3.51348 6.76325 3.5521C6.77613 3.59072 6.77614 3.61644 6.77614 3.65506C6.77614 3.78379 6.72465 3.9254 6.62167 4.01552C6.53156 4.1185 6.40282 4.16999 6.26121 4.16999Z" fill="black"/>
<path d="M16.6877 17.0571C16.6233 17.0571 16.5589 17.0571 16.4946 17.0571C16.2114 17.0442 15.9925 16.7996 16.0054 16.5164C16.0183 16.2332 16.2628 16.0144 16.5461 16.0272C18.3226 16.1045 19.8416 14.727 19.9189 12.9377C19.9961 11.1612 18.6187 9.64214 16.8293 9.5649C16.5332 9.55202 16.2242 9.57776 15.941 9.655C15.7865 9.69362 15.6321 9.655 15.5033 9.55201C15.3746 9.44902 15.3102 9.30744 15.3102 9.15296C15.3102 7.00314 13.5595 5.23949 11.4097 5.23949C9.31133 5.23949 7.59918 6.87438 7.50907 8.97272L7.49622 9.28169C7.48334 9.5649 7.23873 9.78372 6.95552 9.77085C6.67231 9.75798 6.45349 9.51339 6.46636 9.23018L6.47921 8.92124C6.59507 6.26936 8.75778 4.19678 11.4097 4.19678C13.9328 4.19678 16.0183 6.102 16.3144 8.53504C16.5075 8.52217 16.7006 8.50928 16.8937 8.52215C19.2366 8.62514 21.0646 10.6205 20.9616 12.9763C20.8328 15.2677 18.9405 17.0571 16.6877 17.0571Z" fill="black"/>
<path d="M6.10593 17.2112C6.09306 17.2112 6.09307 17.2112 6.08019 17.2112C4.61265 17.1468 3.31243 16.3487 2.57866 15.0871C1.4072 13.0532 2.10236 10.4399 4.13633 9.26844C5.12756 8.70202 6.27329 8.54753 7.36751 8.84361C8.46174 9.1397 9.38859 9.84774 9.95501 10.8261C10.0966 11.0707 10.0065 11.3925 9.76191 11.5341C9.51732 11.6757 9.19549 11.5856 9.05388 11.341C8.16563 9.79625 6.18315 9.26842 4.63837 10.1567C3.09359 11.0449 2.56579 13.0274 3.45404 14.5722C4.00759 15.5377 4.99884 16.1427 6.10593 16.1813C6.38914 16.1942 6.60799 16.4388 6.59512 16.722C6.60799 16.9923 6.37627 17.2112 6.10593 17.2112Z" fill="black"/>
<path d="M9.81505 21.4979C9.73781 21.4979 9.6477 21.4851 9.58333 21.4336C9.36448 21.3177 9.2615 21.0731 9.32587 20.8414L10.0983 17.8934H9.10703C8.9268 17.8934 8.7723 17.8033 8.66932 17.6617C8.57921 17.5201 8.55345 17.327 8.63069 17.1725L10.2141 13.5809C10.2913 13.4007 10.4844 13.272 10.6904 13.272H13.5483C13.7414 13.272 13.9216 13.375 14.0117 13.5552C14.1018 13.7225 14.0889 13.9414 13.9731 14.0958L12.763 15.7436H13.8315C14.0375 15.7436 14.2177 15.8595 14.2949 16.0397C14.385 16.2199 14.3464 16.4388 14.2177 16.5932L10.2141 21.3048C10.1111 21.4336 9.95666 21.4979 9.81505 21.4979ZM9.87942 16.8765H10.7548C10.9092 16.8765 11.0638 16.9537 11.1667 17.0824C11.2697 17.2112 11.2955 17.3785 11.2568 17.533L10.8964 18.9362L12.7244 16.7863H11.746C11.5529 16.7863 11.3727 16.6834 11.2826 16.5031C11.1925 16.3358 11.2054 16.1169 11.3212 15.9625L12.5313 14.3147H11.0251L9.87942 16.8765Z" fill="black"/>
<path d="M19.52 10.8903C19.3269 10.8903 19.1338 10.7744 19.0565 10.5942C18.9407 10.3367 19.0565 10.0278 19.314 9.91192C19.9963 9.60296 20.5112 9.01079 20.8073 8.2384C20.2409 8.17404 19.6873 7.95519 19.2239 7.62048C17.9366 6.68074 17.5118 4.98148 18.1168 3.56542C16.5978 3.34658 15.0659 4.18335 14.4608 5.63802C14.3578 5.89549 14.0489 6.02421 13.7914 5.92123C13.5339 5.81824 13.4052 5.50929 13.5082 5.25183C14.4093 3.08913 16.8423 1.98203 19.0565 2.74155C19.211 2.79305 19.3269 2.92176 19.3784 3.07624C19.4299 3.23072 19.4041 3.39808 19.3011 3.53968C18.5416 4.58241 18.7733 6.03709 19.8161 6.79661C20.2795 7.13131 20.8459 7.28578 21.4252 7.23429C21.5926 7.22141 21.747 7.27291 21.8629 7.40164C21.9788 7.53038 22.0174 7.68485 21.9916 7.85221C21.7084 9.24251 20.8974 10.3496 19.7517 10.8774C19.6616 10.8774 19.5844 10.8903 19.52 10.8903Z" fill="black"/>
</svg>
