<svg width="24" height="24" viewBox="0 0 24 24" fill="none" xmlns="http://www.w3.org/2000/svg">
<path d="M14.1206 10.4933C13.6081 9.5683 12.6456 8.9683 11.5956 8.9183C9.88308 8.8183 8.42058 10.1183 8.32058 11.8308C8.23308 13.5308 9.53308 15.0058 11.2456 15.0933L19.8456 15.0683C21.5581 15.1683 23.0206 13.8558 23.1206 12.1558C23.2206 10.4558 21.9081 8.9808 20.1956 8.8933C19.9081 8.8808 19.6206 8.9058 19.3456 8.9683C19.3706 7.0058 17.8456 5.3683 15.8956 5.2558C13.8831 5.1433 12.1456 6.6808 12.0331 8.7058L12.0206 8.9558" fill="#50495B"/>
<path d="M4.76993 18.8183C4.75743 18.8183 4.74493 18.8183 4.74493 18.8183C2.40743 18.6808 0.61993 16.6808 0.75743 14.3558C0.81993 13.2308 1.31993 12.1933 2.16993 11.4433C3.00743 10.6933 4.09493 10.3058 5.23243 10.3808C5.24493 10.3808 5.24493 10.3808 5.25743 10.3808C5.50743 7.78076 7.76993 5.83076 10.3949 5.98076C12.8199 6.11826 14.7449 7.99326 14.9949 10.3558C15.1949 10.3433 15.3824 10.3433 15.5824 10.3433C17.9074 10.4808 19.6949 12.4808 19.5699 14.8058C19.4324 17.1308 17.4449 18.9183 15.1199 18.7933L4.76993 18.8183ZM4.96993 11.3683C4.16993 11.3683 3.41993 11.6558 2.81993 12.1933C2.18243 12.7558 1.79493 13.5433 1.74493 14.4058C1.64493 16.1808 3.00743 17.7058 4.78243 17.8183L15.1324 17.7933C15.1449 17.7933 15.1574 17.7933 15.1574 17.7933C16.9324 17.8933 18.4699 16.5308 18.5699 14.7558C18.6699 12.9808 17.3074 11.4433 15.5324 11.3433C15.2324 11.3308 14.9324 11.3558 14.6449 11.4183C14.4949 11.4558 14.3449 11.4183 14.2199 11.3183C14.0949 11.2183 14.0324 11.0808 14.0324 10.9183C14.0449 8.83076 12.4324 7.09326 10.3324 6.98076C8.21993 6.85576 6.39493 8.45576 6.21993 10.5433C7.24493 10.8558 8.11993 11.5558 8.66993 12.5183C8.80743 12.7558 8.71993 13.0683 8.48243 13.1933C8.24493 13.3308 7.93243 13.2433 7.80743 13.0058C7.26993 12.0433 6.28243 11.4183 5.16993 11.3558C5.09493 11.3683 5.03243 11.3683 4.96993 11.3683Z" fill="white"/>
</svg>
