<svg width="24" height="24" viewBox="0 0 24 24" fill="none" xmlns="http://www.w3.org/2000/svg">
<path d="M7.0623 2.5109C7.0248 2.5109 6.99981 2.5109 6.96231 2.4984C6.92481 2.4984 6.8998 2.4859 6.8623 2.4734C6.8373 2.4609 6.79981 2.4484 6.77481 2.4234C6.74981 2.4109 6.7248 2.3859 6.6998 2.3609C6.6123 2.2609 6.5498 2.1359 6.5498 2.0109C6.5498 1.9734 6.5498 1.9484 6.5623 1.9109C6.5748 1.8734 6.57481 1.8484 6.58731 1.8109C6.59981 1.7859 6.6123 1.7484 6.6373 1.7234C6.6498 1.6984 6.6748 1.6734 6.6998 1.6484C6.8123 1.5359 6.98731 1.4734 7.14981 1.5109C7.18731 1.5109 7.2123 1.5234 7.2498 1.5359C7.2748 1.5484 7.31231 1.5609 7.33731 1.5859C7.36231 1.5984 7.38731 1.6234 7.41231 1.6484C7.43731 1.6734 7.46231 1.6984 7.47481 1.7234C7.48731 1.7484 7.51231 1.7734 7.52481 1.8109C7.53731 1.8484 7.5498 1.8734 7.5498 1.9109C7.5498 1.9484 7.5623 1.9734 7.5623 2.0109C7.5623 2.1359 7.51231 2.2734 7.41231 2.3609C7.38731 2.3859 7.36231 2.3984 7.33731 2.4234C7.31231 2.4484 7.2873 2.4609 7.2498 2.4734C7.2248 2.4859 7.18731 2.4984 7.14981 2.4984C7.13731 2.5109 7.0998 2.5109 7.0623 2.5109Z" fill="#FFC44C"/>
<path d="M1.75 7.82383C1.6125 7.82383 1.48751 7.77383 1.40001 7.67383C1.37501 7.64883 1.35001 7.62383 1.33751 7.59883C1.32501 7.57383 1.30001 7.53633 1.28751 7.51133C1.27501 7.48633 1.2625 7.44883 1.2625 7.41133C1.2625 7.38633 1.25 7.34883 1.25 7.31133C1.25 7.18633 1.30001 7.04883 1.40001 6.96133C1.42501 6.93633 1.45001 6.92383 1.47501 6.89883C1.50001 6.88633 1.5375 6.86133 1.5625 6.84883C1.5875 6.83633 1.62501 6.82383 1.66251 6.82383C1.72501 6.81133 1.8 6.81133 1.8625 6.82383C1.9 6.82383 1.92501 6.83633 1.96251 6.84883C1.98751 6.86133 2.025 6.87383 2.05 6.89883C2.075 6.92383 2.1 6.93633 2.125 6.96133C2.15 6.98633 2.175 7.01133 2.1875 7.03633C2.2 7.06133 2.225 7.09883 2.2375 7.12383C2.25 7.14883 2.2625 7.18633 2.2625 7.22383C2.2625 7.26133 2.27501 7.28633 2.27501 7.32383C2.27501 7.36133 2.275 7.38633 2.2625 7.42383C2.25 7.46133 2.25 7.48633 2.2375 7.52383C2.225 7.56133 2.2125 7.58633 2.1875 7.61133C2.175 7.63633 2.15 7.66133 2.125 7.68633C2.1 7.71133 2.075 7.73633 2.05 7.74883C2.025 7.76133 2.00001 7.78633 1.96251 7.79883C1.93751 7.81133 1.9 7.82383 1.8625 7.82383C1.8125 7.82383 1.7875 7.82383 1.75 7.82383Z" fill="#FFC44C"/>
<path d="M10.825 4.0734C10.7875 4.0734 10.7625 4.0734 10.725 4.0609C10.6875 4.0484 10.6625 4.0484 10.625 4.0359C10.6 4.0234 10.5625 4.0109 10.5375 3.9859C10.5125 3.9609 10.4875 3.9484 10.4625 3.9234C10.3625 3.8359 10.3125 3.6984 10.3125 3.5734C10.3125 3.5359 10.3125 3.5109 10.325 3.4734C10.325 3.4484 10.3375 3.4109 10.35 3.3734C10.3625 3.3484 10.375 3.3109 10.4 3.2859C10.4125 3.2609 10.4375 3.2359 10.4625 3.2109C10.4875 3.1859 10.5125 3.1609 10.5375 3.1484C10.5625 3.1234 10.6 3.1109 10.625 3.0984C10.65 3.0859 10.6875 3.0734 10.725 3.0734C10.8875 3.0359 11.0625 3.0984 11.175 3.2109C11.2 3.2359 11.225 3.2609 11.2375 3.2859C11.2625 3.3109 11.275 3.3484 11.2875 3.3734C11.3 3.3984 11.3125 3.4359 11.3125 3.4734C11.325 3.5109 11.325 3.5359 11.325 3.5734C11.325 3.6984 11.275 3.8359 11.175 3.9234C11.0875 4.0109 10.9625 4.0734 10.825 4.0734Z" fill="#FFC44C"/>
<path d="M3.3125 4.07305C3.275 4.07305 3.25001 4.07305 3.21251 4.06055C3.18751 4.04805 3.15 4.04805 3.125 4.03555C3.1 4.02305 3.06251 4.01054 3.03751 3.98554C3.01251 3.96054 2.98751 3.94804 2.96251 3.92304C2.86251 3.83554 2.8125 3.69805 2.8125 3.57305C2.8125 3.43555 2.86251 3.31055 2.96251 3.22305C2.98751 3.19805 3.01251 3.17305 3.03751 3.16055C3.06251 3.13555 3.0875 3.12304 3.125 3.11054C3.15 3.09804 3.18751 3.08555 3.22501 3.08555C3.28751 3.07305 3.35 3.07305 3.425 3.08555C3.45 3.08555 3.48751 3.09804 3.52501 3.11054C3.55001 3.12304 3.5875 3.13555 3.6125 3.16055C3.6375 3.17305 3.6625 3.19805 3.6875 3.22305C3.7125 3.24805 3.7375 3.27304 3.75 3.29804C3.7625 3.32304 3.7875 3.36055 3.8 3.38555C3.8125 3.41055 3.825 3.44804 3.825 3.48554C3.825 3.52304 3.83751 3.54805 3.83751 3.58555C3.83751 3.71055 3.7875 3.84805 3.6875 3.93555C3.575 4.01055 3.4375 4.07305 3.3125 4.07305Z" fill="#FFC44C"/>
<path d="M7.0623 2.5109C7.0248 2.5109 6.99981 2.5109 6.96231 2.4984C6.92481 2.4984 6.8998 2.4859 6.8623 2.4734C6.8373 2.4609 6.79981 2.4484 6.77481 2.4234C6.74981 2.4109 6.7248 2.3859 6.6998 2.3609C6.6123 2.2609 6.5498 2.1359 6.5498 2.0109C6.5498 1.9734 6.5498 1.9484 6.5623 1.9109C6.5748 1.8734 6.57481 1.8484 6.58731 1.8109C6.59981 1.7859 6.6123 1.7484 6.6373 1.7234C6.6498 1.6984 6.6748 1.6734 6.6998 1.6484C6.8123 1.5359 6.98731 1.4734 7.14981 1.5109C7.18731 1.5109 7.2123 1.5234 7.2498 1.5359C7.2748 1.5484 7.31231 1.5609 7.33731 1.5859C7.36231 1.5984 7.38731 1.6234 7.41231 1.6484C7.43731 1.6734 7.46231 1.6984 7.47481 1.7234C7.48731 1.7484 7.51231 1.7734 7.52481 1.8109C7.53731 1.8484 7.5498 1.8734 7.5498 1.9109C7.5498 1.9484 7.5623 1.9734 7.5623 2.0109C7.5623 2.1359 7.51231 2.2734 7.41231 2.3609C7.38731 2.3859 7.36231 2.3984 7.33731 2.4234C7.31231 2.4484 7.2873 2.4609 7.2498 2.4734C7.2248 2.4859 7.18731 2.4984 7.14981 2.4984C7.13731 2.5109 7.0998 2.5109 7.0623 2.5109Z" fill="#FFC44C"/>
<path d="M1.75 7.82383C1.6125 7.82383 1.48751 7.77383 1.40001 7.67383C1.37501 7.64883 1.35001 7.62383 1.33751 7.59883C1.32501 7.57383 1.30001 7.53633 1.28751 7.51133C1.27501 7.48633 1.2625 7.44883 1.2625 7.41133C1.2625 7.38633 1.25 7.34883 1.25 7.31133C1.25 7.18633 1.30001 7.04883 1.40001 6.96133C1.42501 6.93633 1.45001 6.92383 1.47501 6.89883C1.50001 6.88633 1.5375 6.86133 1.5625 6.84883C1.5875 6.83633 1.62501 6.82383 1.66251 6.82383C1.72501 6.81133 1.8 6.81133 1.8625 6.82383C1.9 6.82383 1.92501 6.83633 1.96251 6.84883C1.98751 6.86133 2.025 6.87383 2.05 6.89883C2.075 6.92383 2.1 6.93633 2.125 6.96133C2.15 6.98633 2.175 7.01133 2.1875 7.03633C2.2 7.06133 2.225 7.09883 2.2375 7.12383C2.25 7.14883 2.2625 7.18633 2.2625 7.22383C2.2625 7.26133 2.27501 7.28633 2.27501 7.32383C2.27501 7.36133 2.275 7.38633 2.2625 7.42383C2.25 7.46133 2.25 7.48633 2.2375 7.52383C2.225 7.56133 2.2125 7.58633 2.1875 7.61133C2.175 7.63633 2.15 7.66133 2.125 7.68633C2.1 7.71133 2.075 7.73633 2.05 7.74883C2.025 7.76133 2.00001 7.78633 1.96251 7.79883C1.93751 7.81133 1.9 7.82383 1.8625 7.82383C1.8125 7.82383 1.7875 7.82383 1.75 7.82383Z" fill="#FFC44C"/>
<path d="M10.825 4.0734C10.7875 4.0734 10.7625 4.0734 10.725 4.0609C10.6875 4.0484 10.6625 4.0484 10.625 4.0359C10.6 4.0234 10.5625 4.0109 10.5375 3.9859C10.5125 3.9609 10.4875 3.9484 10.4625 3.9234C10.3625 3.8359 10.3125 3.6984 10.3125 3.5734C10.3125 3.5359 10.3125 3.5109 10.325 3.4734C10.325 3.4484 10.3375 3.4109 10.35 3.3734C10.3625 3.3484 10.375 3.3109 10.4 3.2859C10.4125 3.2609 10.4375 3.2359 10.4625 3.2109C10.4875 3.1859 10.5125 3.1609 10.5375 3.1484C10.5625 3.1234 10.6 3.1109 10.625 3.0984C10.65 3.0859 10.6875 3.0734 10.725 3.0734C10.8875 3.0359 11.0625 3.0984 11.175 3.2109C11.2 3.2359 11.225 3.2609 11.2375 3.2859C11.2625 3.3109 11.275 3.3484 11.2875 3.3734C11.3 3.3984 11.3125 3.4359 11.3125 3.4734C11.325 3.5109 11.325 3.5359 11.325 3.5734C11.325 3.6984 11.275 3.8359 11.175 3.9234C11.0875 4.0109 10.9625 4.0734 10.825 4.0734Z" fill="#FFC44C"/>
<path d="M3.3125 4.07305C3.275 4.07305 3.25001 4.07305 3.21251 4.06055C3.18751 4.04805 3.15 4.04805 3.125 4.03555C3.1 4.02305 3.06251 4.01054 3.03751 3.98554C3.01251 3.96054 2.98751 3.94804 2.96251 3.92304C2.86251 3.83554 2.8125 3.69805 2.8125 3.57305C2.8125 3.43555 2.86251 3.31055 2.96251 3.22305C2.98751 3.19805 3.01251 3.17305 3.03751 3.16055C3.06251 3.13555 3.0875 3.12304 3.125 3.11054C3.15 3.09804 3.18751 3.08555 3.22501 3.08555C3.28751 3.07305 3.35 3.07305 3.425 3.08555C3.45 3.08555 3.48751 3.09804 3.52501 3.11054C3.55001 3.12304 3.5875 3.13555 3.6125 3.16055C3.6375 3.17305 3.6625 3.19805 3.6875 3.22305C3.7125 3.24805 3.7375 3.27304 3.75 3.29804C3.7625 3.32304 3.7875 3.36055 3.8 3.38555C3.8125 3.41055 3.825 3.44804 3.825 3.48554C3.825 3.52304 3.83751 3.54805 3.83751 3.58555C3.83751 3.71055 3.7875 3.84805 3.6875 3.93555C3.575 4.01055 3.4375 4.07305 3.3125 4.07305Z" fill="#FFC44C"/>
<path d="M2.6873 11.4605C2.6498 11.4605 2.62481 11.4605 2.58731 11.448C2.56231 11.448 2.5248 11.4355 2.4873 11.423C2.4623 11.4105 2.42481 11.398 2.39981 11.373C2.37481 11.3605 2.3498 11.3355 2.3248 11.3105C2.2998 11.2855 2.2748 11.2605 2.2623 11.2355C2.2498 11.2105 2.22481 11.173 2.21231 11.148C2.19981 11.123 2.1873 11.0855 2.1873 11.048C2.1873 11.0105 2.1748 10.9855 2.1748 10.948C2.1748 10.9105 2.1748 10.8855 2.1873 10.848C2.1998 10.823 2.19981 10.7855 2.21231 10.7605C2.22481 10.7355 2.2373 10.698 2.2623 10.673C2.2748 10.648 2.2998 10.623 2.3248 10.598C2.3498 10.573 2.37481 10.5605 2.39981 10.5355C2.42481 10.523 2.4498 10.498 2.4873 10.4855C2.5123 10.473 2.54981 10.4605 2.58731 10.4605C2.64981 10.448 2.71231 10.448 2.78731 10.4605C2.81231 10.4605 2.8498 10.473 2.8748 10.4855C2.8998 10.498 2.93731 10.5105 2.96231 10.5355C2.98731 10.5605 3.01231 10.573 3.03731 10.598C3.06231 10.623 3.08731 10.648 3.09981 10.673C3.11231 10.698 3.13731 10.723 3.14981 10.7605C3.16231 10.7855 3.1748 10.823 3.1748 10.848C3.1748 10.8855 3.1873 10.9105 3.1873 10.948C3.1873 10.9855 3.1873 11.0105 3.1748 11.048C3.1623 11.073 3.16231 11.1105 3.14981 11.148C3.13731 11.173 3.12481 11.2105 3.09981 11.2355C3.08731 11.2605 3.06231 11.2855 3.03731 11.3105C2.94981 11.4105 2.8123 11.4605 2.6873 11.4605Z" fill="#FFC44C"/>
<path d="M7.04961 11.1988C9.1621 11.1988 10.8746 9.45834 10.8746 7.31133C10.8746 5.16432 9.1621 3.42383 7.04961 3.42383C4.93712 3.42383 3.22461 5.16432 3.22461 7.31133C3.22461 9.45834 4.93712 11.1988 7.04961 11.1988Z" fill="url(#paint0_linear_3783_14445)"/>
<path d="M18.6027 17.2232C18.5402 17.2232 18.4777 17.2232 18.4152 17.2232C18.1402 17.2107 17.9277 16.9732 17.9402 16.6982C17.9527 16.4232 18.1777 16.2107 18.4652 16.2232C20.1902 16.2982 21.6527 14.9607 21.7402 13.2357C21.7777 12.3982 21.4902 11.5982 20.9277 10.9857C20.3652 10.3732 19.5902 10.0107 18.7527 9.97319C18.4652 9.96069 18.1777 9.98569 17.8902 10.0607C17.7402 10.0982 17.5902 10.0607 17.4652 9.96069C17.3402 9.86069 17.2777 9.72319 17.2777 9.57319C17.2527 7.52319 15.6652 5.86069 13.6402 5.76069C12.6277 5.72319 11.6527 6.07319 10.9152 6.74819C10.1652 7.43569 9.72773 8.36069 9.69023 9.37319L9.67773 9.67319L8.67773 9.63569L8.69023 9.33569C8.74023 8.06069 9.29023 6.87319 10.2402 6.01069C11.1777 5.14819 12.4027 4.71069 13.6777 4.76069C16.0527 4.86069 17.9402 6.66069 18.2152 8.96069C18.4027 8.94819 18.5902 8.93569 18.7777 8.94819C19.8777 8.99819 20.9027 9.47319 21.6402 10.2857C22.3902 11.0982 22.7652 12.1607 22.7152 13.2607C22.6652 14.3607 22.1902 15.3857 21.3777 16.1232C20.6152 16.8357 19.6277 17.2232 18.6027 17.2232Z" fill="white"/>
<path d="M8.35266 17.3603C8.34016 17.3603 8.34016 17.3603 8.32766 17.3603C7.22766 17.3103 6.20266 16.8353 5.46516 16.0228C4.71516 15.2103 4.34016 14.1478 4.39016 13.0478C4.49016 10.7728 6.42766 8.99778 8.70266 9.09778C10.1152 9.16028 11.3902 9.93528 12.1027 11.1603C12.2402 11.3978 12.1527 11.7103 11.9152 11.8478C11.6777 11.9853 11.3652 11.8978 11.2277 11.6603C10.6902 10.7228 9.72766 10.1478 8.65266 10.0978C6.92766 10.0228 5.45266 11.3728 5.37766 13.0978C5.34016 13.9353 5.62766 14.7353 6.19016 15.3478C6.75266 15.9603 7.52766 16.3228 8.36516 16.3603C8.64016 16.3728 8.85266 16.6103 8.84016 16.8853C8.84016 17.1478 8.61516 17.3603 8.35266 17.3603Z" fill="white"/>
<path d="M12.7148 13.9229H16.0898L13.9648 16.8479H16.4273L11.7023 22.4104L12.8023 18.1729H10.8398L12.7148 13.9229Z" fill="url(#paint1_linear_3783_14445)"/>
<defs>
<linearGradient id="paint0_linear_3783_14445" x1="7.05094" y1="11.1918" x2="7.05094" y2="3.42405" gradientUnits="userSpaceOnUse">
<stop stop-color="#FFC14C"/>
<stop offset="1" stop-color="#FFD04D"/>
</linearGradient>
<linearGradient id="paint1_linear_3783_14445" x1="13.6338" y1="13.9277" x2="13.6338" y2="22.4091" gradientUnits="userSpaceOnUse">
<stop stop-color="#FF8D55"/>
<stop offset="1" stop-color="#FF6B57"/>
</linearGradient>
</defs>
</svg>
