<svg width="84" height="84" viewBox="0 0 84 84" fill="none" xmlns="http://www.w3.org/2000/svg">
<path d="M74.0228 41.9946C74.0239 48.3236 72.1483 54.5107 68.633 59.7737C65.1177 65.0367 60.1206 69.1391 54.2738 71.5621C48.427 73.9851 41.993 74.6198 35.7854 73.3862C29.5778 72.1525 23.8754 69.1058 19.3994 64.6313C14.9234 60.1568 11.8747 54.4554 10.6389 48.2482C9.40311 42.0411 10.0357 35.6068 12.4568 29.7592C14.8778 23.9116 18.9785 18.9131 24.2402 15.396C29.502 11.8789 35.6885 10.0011 42.0175 10C50.504 10 58.643 13.3705 64.6449 19.3704C70.6468 25.3702 74.0199 33.5081 74.0228 41.9946V41.9946Z" fill="white" fill-opacity="0.1"/>
<g filter="url(#filter0_d_84_1066)">
<path d="M69.6042 41.9946C69.6042 59.6642 59.6952 73.9945 42.0201 73.9945C33.5339 73.9945 25.3952 70.6234 19.3946 64.6227C13.3939 58.6221 10.0229 50.4835 10.0229 41.9973C10.0229 33.5111 13.3939 25.3724 19.3946 19.3718C25.3952 13.3711 33.5339 10 42.0201 10C59.668 10 69.6042 24.3196 69.6042 41.9946Z" fill="white"/>
</g>
<defs>
<filter id="filter0_d_84_1066" x="0.0229492" y="0" width="79.5813" height="83.9945" filterUnits="userSpaceOnUse" color-interpolation-filters="sRGB">
<feFlood flood-opacity="0" result="BackgroundImageFix"/>
<feColorMatrix in="SourceAlpha" type="matrix" values="0 0 0 0 0 0 0 0 0 0 0 0 0 0 0 0 0 0 127 0" result="hardAlpha"/>
<feOffset/>
<feGaussianBlur stdDeviation="5"/>
<feComposite in2="hardAlpha" operator="out"/>
<feColorMatrix type="matrix" values="0 0 0 0 1 0 0 0 0 1 0 0 0 0 1 0 0 0 0.4 0"/>
<feBlend mode="normal" in2="BackgroundImageFix" result="effect1_dropShadow_84_1066"/>
<feBlend mode="normal" in="SourceGraphic" in2="effect1_dropShadow_84_1066" result="shape"/>
</filter>
</defs>
</svg>
