<svg width="24" height="24" viewBox="0 0 24 24" fill="none" xmlns="http://www.w3.org/2000/svg">
<path d="M19.2373 12.5485C19.0998 12.5485 18.9748 12.4985 18.8873 12.3985C18.7873 12.311 18.7373 12.1735 18.7373 12.0485C18.7373 12.011 18.7373 11.986 18.7498 11.9485C18.7623 11.9235 18.7623 11.886 18.7748 11.8485C18.7873 11.8235 18.7998 11.786 18.8248 11.761C18.8373 11.736 18.8623 11.711 18.8873 11.686C18.9123 11.661 18.9373 11.6485 18.9623 11.6235C18.9873 11.611 19.0248 11.586 19.0498 11.5735C19.0748 11.561 19.1123 11.5485 19.1498 11.5485C19.3123 11.511 19.4873 11.5735 19.5998 11.686C19.6248 11.711 19.6498 11.736 19.6623 11.761C19.6748 11.786 19.6998 11.8235 19.7123 11.8485C19.7248 11.8735 19.7373 11.911 19.7373 11.9485C19.7373 11.986 19.7498 12.011 19.7498 12.0485C19.7498 12.1735 19.6998 12.311 19.5998 12.3985C19.4873 12.4985 19.3623 12.5485 19.2373 12.5485Z" fill="#FFC44C"/>
<path d="M11.9248 5.2484C11.7998 5.2484 11.6623 5.1984 11.5748 5.0984C11.5498 5.0734 11.5373 5.0484 11.5123 5.0234C11.4998 4.9984 11.4748 4.9734 11.4623 4.9359C11.4498 4.9109 11.4373 4.8734 11.4373 4.8359C11.4373 4.7984 11.4248 4.7734 11.4248 4.7359C11.4248 4.6109 11.4748 4.4734 11.5748 4.3859C11.5998 4.3734 11.6248 4.3484 11.6498 4.3359C11.6748 4.3234 11.6998 4.2984 11.7373 4.2859C11.7623 4.2734 11.7998 4.2609 11.8373 4.2609C11.9998 4.2234 12.1748 4.2859 12.2873 4.3984C12.3748 4.4859 12.4248 4.6234 12.4248 4.7484C12.4248 4.7859 12.4248 4.8109 12.4123 4.8484C12.4123 4.8859 12.3998 4.9109 12.3873 4.9484C12.3748 4.9734 12.3623 4.9984 12.3498 5.0234C12.3373 5.0484 12.3123 5.0734 12.2873 5.0984C12.2623 5.1234 12.2373 5.1359 12.2123 5.1609C12.1873 5.1859 12.1498 5.1984 12.1248 5.2109C12.0998 5.2234 12.0623 5.2359 12.0248 5.2359C11.9998 5.2484 11.9623 5.2484 11.9248 5.2484Z" fill="#FFC44C"/>
<path d="M11.9246 19.8607C11.8871 19.8607 11.8621 19.8607 11.8246 19.8482C11.7996 19.8357 11.7621 19.8357 11.7246 19.8232C11.6996 19.8107 11.6621 19.7982 11.6371 19.7732C11.6121 19.7607 11.5871 19.7357 11.5621 19.7107C11.5371 19.6857 11.5246 19.6607 11.4996 19.6357C11.4871 19.6107 11.4621 19.5857 11.4496 19.5482C11.4371 19.5232 11.4246 19.4857 11.4246 19.4607C11.4246 19.4232 11.4121 19.3982 11.4121 19.3607C11.4121 19.2357 11.4621 19.0982 11.5621 19.0107C11.5871 18.9857 11.6121 18.9607 11.6371 18.9482C11.6621 18.9232 11.6871 18.9107 11.7246 18.8982C11.7496 18.8857 11.7871 18.8732 11.8246 18.8732C11.9871 18.8357 12.1621 18.8982 12.2746 19.0107C12.2996 19.0357 12.3246 19.0607 12.3371 19.0857C12.3496 19.1107 12.3746 19.1482 12.3871 19.1732C12.3996 19.1982 12.4121 19.2357 12.4121 19.2732C12.4246 19.3107 12.4246 19.3357 12.4246 19.3732C12.4246 19.4107 12.4246 19.4357 12.4121 19.4732C12.4121 19.4982 12.3996 19.5357 12.3871 19.5607C12.3746 19.5857 12.3621 19.6232 12.3371 19.6482C12.3246 19.6732 12.2996 19.6982 12.2746 19.7232C12.1871 19.7982 12.0621 19.8607 11.9246 19.8607Z" fill="#FFC44C"/>
<path d="M4.625 12.5485C4.4875 12.5485 4.3625 12.4985 4.275 12.3985C4.175 12.311 4.125 12.186 4.125 12.0485C4.125 12.011 4.125 11.986 4.1375 11.9485C4.1375 11.9235 4.15 11.886 4.1625 11.8485C4.175 11.8235 4.1875 11.786 4.2125 11.761C4.225 11.736 4.25 11.711 4.275 11.686C4.3 11.661 4.325 11.6485 4.35 11.6235C4.375 11.611 4.4125 11.586 4.4375 11.5735C4.4625 11.561 4.5 11.5485 4.5375 11.5485C4.7 11.511 4.875 11.5735 4.9875 11.686C5 11.7235 5.025 11.7485 5.0375 11.7735C5.05 11.7985 5.075 11.836 5.0875 11.861C5.1 11.886 5.1125 11.9235 5.1125 11.961C5.125 11.986 5.125 12.0235 5.125 12.0485C5.125 12.1735 5.075 12.311 4.975 12.3985C4.8875 12.4985 4.75 12.5485 4.625 12.5485Z" fill="#FFC44C"/>
<path d="M17.1004 7.3859C17.0629 7.3859 17.0379 7.3859 17.0004 7.3734C16.9629 7.3609 16.9379 7.3609 16.9004 7.3484C16.8754 7.3359 16.8379 7.3234 16.8129 7.2984C16.7879 7.2859 16.7629 7.2609 16.7379 7.2359C16.6504 7.1484 16.5879 7.0109 16.5879 6.8859C16.5879 6.8484 16.5879 6.8234 16.6004 6.7859C16.6004 6.7609 16.6129 6.7234 16.6254 6.6859C16.6379 6.6609 16.6504 6.6234 16.6754 6.5984C16.6879 6.5734 16.7129 6.5484 16.7379 6.5234C16.7629 6.4984 16.7879 6.4734 16.8129 6.4609C16.8379 6.4359 16.8754 6.4234 16.9004 6.4109C16.9254 6.3984 16.9629 6.3859 17.0004 6.3859C17.1629 6.3484 17.3379 6.4109 17.4504 6.5234C17.4754 6.5484 17.4879 6.5734 17.5129 6.5984C17.5254 6.6234 17.5504 6.6609 17.5629 6.6859C17.5754 6.7109 17.5879 6.7484 17.5879 6.7859C17.5879 6.8234 17.6004 6.8484 17.6004 6.8859C17.6004 7.0234 17.5504 7.1484 17.4504 7.2359C17.3504 7.3359 17.2254 7.3859 17.1004 7.3859Z" fill="#FFC44C"/>
<path d="M6.7627 17.7234C6.6377 17.7234 6.5002 17.6734 6.4127 17.5734C6.3127 17.4734 6.2627 17.3484 6.2627 17.2234C6.2627 17.0984 6.3127 16.9609 6.4127 16.8734C6.4377 16.8484 6.4627 16.8234 6.4877 16.8109C6.5127 16.7984 6.5502 16.7734 6.5752 16.7609C6.6002 16.7484 6.6377 16.7359 6.6752 16.7359C6.7377 16.7234 6.8002 16.7234 6.8752 16.7359C6.9002 16.7359 6.9377 16.7484 6.9627 16.7609C6.9877 16.7734 7.0252 16.7859 7.0502 16.8109C7.0752 16.8234 7.1002 16.8484 7.1252 16.8734C7.2252 16.9734 7.2752 17.0984 7.2752 17.2234C7.2752 17.3484 7.2252 17.4859 7.1252 17.5734C7.0252 17.6609 6.9002 17.7234 6.7627 17.7234Z" fill="#FFC44C"/>
<path d="M17.0996 17.7232C16.9621 17.7232 16.8371 17.6732 16.7496 17.5732C16.6621 17.4732 16.5996 17.3482 16.5996 17.2232C16.5996 17.1857 16.5996 17.1607 16.6121 17.1232C16.6121 17.0857 16.6246 17.0607 16.6371 17.0232C16.6496 16.9982 16.6621 16.9607 16.6871 16.9357C16.6996 16.9107 16.7246 16.8857 16.7496 16.8607C16.7746 16.8357 16.7996 16.8107 16.8246 16.7982C16.8496 16.7857 16.8871 16.7607 16.9121 16.7482C16.9371 16.7357 16.9746 16.7232 17.0121 16.7232C17.0746 16.7107 17.1496 16.7107 17.2121 16.7232C17.2496 16.7232 17.2746 16.7357 17.3121 16.7482C17.3371 16.7607 17.3746 16.7732 17.3996 16.7982C17.4246 16.8107 17.4496 16.8357 17.4746 16.8607C17.4996 16.8857 17.5121 16.9107 17.5371 16.9357C17.5496 16.9607 17.5746 16.9857 17.5871 17.0232C17.5996 17.0607 17.6121 17.0857 17.6121 17.1232C17.6121 17.1607 17.6246 17.1857 17.6246 17.2232C17.6246 17.3482 17.5746 17.4857 17.4746 17.5732C17.3496 17.6607 17.2246 17.7232 17.0996 17.7232Z" fill="#FFC44C"/>
<path d="M6.7627 7.38584C6.6252 7.38584 6.5002 7.33584 6.4127 7.23584C6.3127 7.14834 6.2627 7.01084 6.2627 6.88584C6.2627 6.84834 6.2627 6.82334 6.2752 6.78584C6.2752 6.76084 6.2877 6.72334 6.3002 6.68584C6.3127 6.66084 6.3252 6.62334 6.3502 6.59834C6.3627 6.57334 6.3877 6.54834 6.4127 6.52334C6.4377 6.49834 6.4627 6.47334 6.4877 6.46084C6.5127 6.43584 6.5502 6.42334 6.5752 6.41084C6.6002 6.39834 6.6377 6.38584 6.6627 6.38584C6.7252 6.37334 6.7877 6.37334 6.8627 6.38584C6.8877 6.39834 6.9252 6.39834 6.9502 6.41084C6.9752 6.42334 7.0127 6.43584 7.0377 6.46084C7.0627 6.47334 7.0877 6.49834 7.1127 6.52334C7.1377 6.54834 7.1627 6.57334 7.1752 6.59834C7.1877 6.62334 7.2127 6.66084 7.2252 6.68584C7.2377 6.71084 7.2502 6.74834 7.2502 6.78584C7.2502 6.82334 7.2627 6.84834 7.2627 6.88584C7.2627 7.02334 7.2127 7.14834 7.1127 7.23584C7.0252 7.33584 6.9002 7.38584 6.7627 7.38584Z" fill="#FFC44C"/>
<path d="M19.2373 12.5485C19.0998 12.5485 18.9748 12.4985 18.8873 12.3985C18.7873 12.311 18.7373 12.1735 18.7373 12.0485C18.7373 12.011 18.7373 11.986 18.7498 11.9485C18.7623 11.9235 18.7623 11.886 18.7748 11.8485C18.7873 11.8235 18.7998 11.786 18.8248 11.761C18.8373 11.736 18.8623 11.711 18.8873 11.686C18.9123 11.661 18.9373 11.6485 18.9623 11.6235C18.9873 11.611 19.0248 11.586 19.0498 11.5735C19.0748 11.561 19.1123 11.5485 19.1498 11.5485C19.3123 11.511 19.4873 11.5735 19.5998 11.686C19.6248 11.711 19.6498 11.736 19.6623 11.761C19.6748 11.786 19.6998 11.8235 19.7123 11.8485C19.7248 11.8735 19.7373 11.911 19.7373 11.9485C19.7373 11.986 19.7498 12.011 19.7498 12.0485C19.7498 12.1735 19.6998 12.311 19.5998 12.3985C19.4873 12.4985 19.3623 12.5485 19.2373 12.5485Z" fill="#FFC44C"/>
<path d="M11.9248 5.2484C11.7998 5.2484 11.6623 5.1984 11.5748 5.0984C11.5498 5.0734 11.5373 5.0484 11.5123 5.0234C11.4998 4.9984 11.4748 4.9734 11.4623 4.9359C11.4498 4.9109 11.4373 4.8734 11.4373 4.8359C11.4373 4.7984 11.4248 4.7734 11.4248 4.7359C11.4248 4.6109 11.4748 4.4734 11.5748 4.3859C11.5998 4.3734 11.6248 4.3484 11.6498 4.3359C11.6748 4.3234 11.6998 4.2984 11.7373 4.2859C11.7623 4.2734 11.7998 4.2609 11.8373 4.2609C11.9998 4.2234 12.1748 4.2859 12.2873 4.3984C12.3748 4.4859 12.4248 4.6234 12.4248 4.7484C12.4248 4.7859 12.4248 4.8109 12.4123 4.8484C12.4123 4.8859 12.3998 4.9109 12.3873 4.9484C12.3748 4.9734 12.3623 4.9984 12.3498 5.0234C12.3373 5.0484 12.3123 5.0734 12.2873 5.0984C12.2623 5.1234 12.2373 5.1359 12.2123 5.1609C12.1873 5.1859 12.1498 5.1984 12.1248 5.2109C12.0998 5.2234 12.0623 5.2359 12.0248 5.2359C11.9998 5.2484 11.9623 5.2484 11.9248 5.2484Z" fill="#FFC44C"/>
<path d="M11.9246 19.8607C11.8871 19.8607 11.8621 19.8607 11.8246 19.8482C11.7996 19.8357 11.7621 19.8357 11.7246 19.8232C11.6996 19.8107 11.6621 19.7982 11.6371 19.7732C11.6121 19.7607 11.5871 19.7357 11.5621 19.7107C11.5371 19.6857 11.5246 19.6607 11.4996 19.6357C11.4871 19.6107 11.4621 19.5857 11.4496 19.5482C11.4371 19.5232 11.4246 19.4857 11.4246 19.4607C11.4246 19.4232 11.4121 19.3982 11.4121 19.3607C11.4121 19.2357 11.4621 19.0982 11.5621 19.0107C11.5871 18.9857 11.6121 18.9607 11.6371 18.9482C11.6621 18.9232 11.6871 18.9107 11.7246 18.8982C11.7496 18.8857 11.7871 18.8732 11.8246 18.8732C11.9871 18.8357 12.1621 18.8982 12.2746 19.0107C12.2996 19.0357 12.3246 19.0607 12.3371 19.0857C12.3496 19.1107 12.3746 19.1482 12.3871 19.1732C12.3996 19.1982 12.4121 19.2357 12.4121 19.2732C12.4246 19.3107 12.4246 19.3357 12.4246 19.3732C12.4246 19.4107 12.4246 19.4357 12.4121 19.4732C12.4121 19.4982 12.3996 19.5357 12.3871 19.5607C12.3746 19.5857 12.3621 19.6232 12.3371 19.6482C12.3246 19.6732 12.2996 19.6982 12.2746 19.7232C12.1871 19.7982 12.0621 19.8607 11.9246 19.8607Z" fill="#FFC44C"/>
<path d="M4.625 12.5485C4.4875 12.5485 4.3625 12.4985 4.275 12.3985C4.175 12.311 4.125 12.186 4.125 12.0485C4.125 12.011 4.125 11.986 4.1375 11.9485C4.1375 11.9235 4.15 11.886 4.1625 11.8485C4.175 11.8235 4.1875 11.786 4.2125 11.761C4.225 11.736 4.25 11.711 4.275 11.686C4.3 11.661 4.325 11.6485 4.35 11.6235C4.375 11.611 4.4125 11.586 4.4375 11.5735C4.4625 11.561 4.5 11.5485 4.5375 11.5485C4.7 11.511 4.875 11.5735 4.9875 11.686C5 11.7235 5.025 11.7485 5.0375 11.7735C5.05 11.7985 5.075 11.836 5.0875 11.861C5.1 11.886 5.1125 11.9235 5.1125 11.961C5.125 11.986 5.125 12.0235 5.125 12.0485C5.125 12.1735 5.075 12.311 4.975 12.3985C4.8875 12.4985 4.75 12.5485 4.625 12.5485Z" fill="#FFC44C"/>
<path d="M17.1004 7.3859C17.0629 7.3859 17.0379 7.3859 17.0004 7.3734C16.9629 7.3609 16.9379 7.3609 16.9004 7.3484C16.8754 7.3359 16.8379 7.3234 16.8129 7.2984C16.7879 7.2859 16.7629 7.2609 16.7379 7.2359C16.6504 7.1484 16.5879 7.0109 16.5879 6.8859C16.5879 6.8484 16.5879 6.8234 16.6004 6.7859C16.6004 6.7609 16.6129 6.7234 16.6254 6.6859C16.6379 6.6609 16.6504 6.6234 16.6754 6.5984C16.6879 6.5734 16.7129 6.5484 16.7379 6.5234C16.7629 6.4984 16.7879 6.4734 16.8129 6.4609C16.8379 6.4359 16.8754 6.4234 16.9004 6.4109C16.9254 6.3984 16.9629 6.3859 17.0004 6.3859C17.1629 6.3484 17.3379 6.4109 17.4504 6.5234C17.4754 6.5484 17.4879 6.5734 17.5129 6.5984C17.5254 6.6234 17.5504 6.6609 17.5629 6.6859C17.5754 6.7109 17.5879 6.7484 17.5879 6.7859C17.5879 6.8234 17.6004 6.8484 17.6004 6.8859C17.6004 7.0234 17.5504 7.1484 17.4504 7.2359C17.3504 7.3359 17.2254 7.3859 17.1004 7.3859Z" fill="#FFC44C"/>
<path d="M6.7627 17.7234C6.6377 17.7234 6.5002 17.6734 6.4127 17.5734C6.3127 17.4734 6.2627 17.3484 6.2627 17.2234C6.2627 17.0984 6.3127 16.9609 6.4127 16.8734C6.4377 16.8484 6.4627 16.8234 6.4877 16.8109C6.5127 16.7984 6.5502 16.7734 6.5752 16.7609C6.6002 16.7484 6.6377 16.7359 6.6752 16.7359C6.7377 16.7234 6.8002 16.7234 6.8752 16.7359C6.9002 16.7359 6.9377 16.7484 6.9627 16.7609C6.9877 16.7734 7.0252 16.7859 7.0502 16.8109C7.0752 16.8234 7.1002 16.8484 7.1252 16.8734C7.2252 16.9734 7.2752 17.0984 7.2752 17.2234C7.2752 17.3484 7.2252 17.4859 7.1252 17.5734C7.0252 17.6609 6.9002 17.7234 6.7627 17.7234Z" fill="#FFC44C"/>
<path d="M17.0996 17.7232C16.9621 17.7232 16.8371 17.6732 16.7496 17.5732C16.6621 17.4732 16.5996 17.3482 16.5996 17.2232C16.5996 17.1857 16.5996 17.1607 16.6121 17.1232C16.6121 17.0857 16.6246 17.0607 16.6371 17.0232C16.6496 16.9982 16.6621 16.9607 16.6871 16.9357C16.6996 16.9107 16.7246 16.8857 16.7496 16.8607C16.7746 16.8357 16.7996 16.8107 16.8246 16.7982C16.8496 16.7857 16.8871 16.7607 16.9121 16.7482C16.9371 16.7357 16.9746 16.7232 17.0121 16.7232C17.0746 16.7107 17.1496 16.7107 17.2121 16.7232C17.2496 16.7232 17.2746 16.7357 17.3121 16.7482C17.3371 16.7607 17.3746 16.7732 17.3996 16.7982C17.4246 16.8107 17.4496 16.8357 17.4746 16.8607C17.4996 16.8857 17.5121 16.9107 17.5371 16.9357C17.5496 16.9607 17.5746 16.9857 17.5871 17.0232C17.5996 17.0607 17.6121 17.0857 17.6121 17.1232C17.6121 17.1607 17.6246 17.1857 17.6246 17.2232C17.6246 17.3482 17.5746 17.4857 17.4746 17.5732C17.3496 17.6607 17.2246 17.7232 17.0996 17.7232Z" fill="#FFC44C"/>
<path d="M6.7627 7.38584C6.6252 7.38584 6.5002 7.33584 6.4127 7.23584C6.3127 7.14834 6.2627 7.01084 6.2627 6.88584C6.2627 6.84834 6.2627 6.82334 6.2752 6.78584C6.2752 6.76084 6.2877 6.72334 6.3002 6.68584C6.3127 6.66084 6.3252 6.62334 6.3502 6.59834C6.3627 6.57334 6.3877 6.54834 6.4127 6.52334C6.4377 6.49834 6.4627 6.47334 6.4877 6.46084C6.5127 6.43584 6.5502 6.42334 6.5752 6.41084C6.6002 6.39834 6.6377 6.38584 6.6627 6.38584C6.7252 6.37334 6.7877 6.37334 6.8627 6.38584C6.8877 6.39834 6.9252 6.39834 6.9502 6.41084C6.9752 6.42334 7.0127 6.43584 7.0377 6.46084C7.0627 6.47334 7.0877 6.49834 7.1127 6.52334C7.1377 6.54834 7.1627 6.57334 7.1752 6.59834C7.1877 6.62334 7.2127 6.66084 7.2252 6.68584C7.2377 6.71084 7.2502 6.74834 7.2502 6.78584C7.2502 6.82334 7.2627 6.84834 7.2627 6.88584C7.2627 7.02334 7.2127 7.14834 7.1127 7.23584C7.0252 7.33584 6.9002 7.38584 6.7627 7.38584Z" fill="#FFC44C"/>
<path d="M11.8746 17.2486C14.8224 17.2486 17.2121 14.8925 17.2121 11.9861C17.2121 9.07973 14.8224 6.72363 11.8746 6.72363C8.92679 6.72363 6.53711 9.07973 6.53711 11.9861C6.53711 14.8925 8.92679 17.2486 11.8746 17.2486Z" fill="url(#paint0_linear_3783_14489)"/>
<defs>
<linearGradient id="paint0_linear_3783_14489" x1="11.8793" y1="17.2452" x2="11.8793" y2="6.71674" gradientUnits="userSpaceOnUse">
<stop stop-color="#FFC14C"/>
<stop offset="1" stop-color="#FFD04D"/>
</linearGradient>
</defs>
</svg>
