<svg width="20" height="20" viewBox="0 0 20 20" fill="none" xmlns="http://www.w3.org/2000/svg">
<path d="M6.8557 1.25C3.7607 1.25 1.25195 3.75875 1.25195 6.85375C1.25195 8.32042 1.81987 9.65125 2.74195 10.65L1.27654 12.4579C1.27654 12.4579 6.84445 12.4579 6.8557 12.4579C9.9507 12.4579 12.4595 9.94917 12.4595 6.85417C12.4595 3.75917 9.9507 1.25 6.8557 1.25Z" fill="#6C19FF"/>
<path d="M17.5358 14.7471H8.51538C7.88121 14.7471 7.36621 14.2321 7.36621 13.5979C7.36621 12.9637 7.88121 12.4487 8.51538 12.4487H17.5358C18.17 12.4487 18.685 12.9637 18.685 13.5979C18.685 14.2321 18.1708 14.7471 17.5358 14.7471Z" fill="#3DD9EB"/>
<path d="M13.0261 18.7502C10.6295 18.7502 8.61156 16.9597 8.32572 14.5802L8.09364 12.6435C7.73906 9.686 10.0474 7.0835 13.0261 7.0835C16.0049 7.0835 18.3132 9.68683 17.9595 12.6435L17.7274 14.5793C17.4411 16.9589 15.4224 18.7502 13.0261 18.7502Z" fill="#3DD9EB"/>
<path d="M10.0068 4.57194V3.73861H7.50684V2.90527H6.6735V3.73861H3.75684V4.57194H8.13142C7.76934 5.39944 7.31684 6.17694 6.77475 6.88736C6.47559 6.54527 6.17767 6.20152 5.89475 5.84777L5.33225 5.14444L4.68142 5.66527L5.24392 6.36861C5.56309 6.76736 5.89767 7.15611 6.23642 7.54069C5.68142 8.16361 5.056 8.72694 4.366 9.21986L4.34642 9.23402L4.85184 9.89652C5.56809 9.38486 6.21892 8.80069 6.80017 8.15736C7.07392 8.45236 7.34559 8.75027 7.6285 9.03319L8.21767 8.44402C7.91767 8.14402 7.6285 7.82944 7.33892 7.51527C8.03684 6.62527 8.60517 5.63569 9.0335 4.57194H10.0068Z" fill="#DDBAFF"/>
<path d="M13.7063 10.4141H12.3801L10.8301 14.1232V15.8307H12.0801V14.5807L12.5159 13.3307L13.0726 11.9986L13.7022 13.3307L14.1809 14.5841V15.8307H15.4113V14.1061L13.7063 10.4141Z" fill="#C2FFFF"/>
<path d="M11.6621 13.339V14.589L14.5846 14.584V13.334L11.6621 13.339Z" fill="white"/>
<path d="M12.4465 7.10352C9.80028 7.30977 7.80611 9.64935 8.05986 12.3243C10.4965 11.7902 12.3332 9.67227 12.4465 7.10352Z" fill="#00B3D7"/>
<path d="M13.7038 13.3354L12.5134 13.3375L12.0801 14.5809V14.5884L14.1809 14.585V14.5842L13.7038 13.3354Z" fill="#C2FFFF"/>
</svg>
