<svg width="18" height="18" viewBox="0 0 18 18" fill="none" xmlns="http://www.w3.org/2000/svg">
<g clip-path="url(#clip0_4189_13977)">
<path fill-rule="evenodd" clip-rule="evenodd" d="M4.20557 2.23541C4.89452 1.55562 6.01354 1.01144 7.13552 0.810706C7.92958 0.668558 10.0625 0.665328 10.8026 0.805034C12.7496 1.17249 14.2522 2.29628 14.8787 3.85321C15.2593 4.79903 15.2913 5.00079 15.2892 6.44235C15.2866 8.26955 15.0975 9.09425 14.2622 10.9219C14.0566 11.3716 13.9067 11.7864 13.929 11.8437C13.9513 11.901 14.1226 12.025 14.3099 12.1192C14.9375 12.4351 15.4858 12.898 15.5642 13.1781C15.6902 13.6282 15.4281 14.6941 14.9728 15.5832C14.7176 16.0817 13.8326 16.9742 13.3865 17.1831C12.9462 17.3892 12.6152 17.3187 11.7382 16.8321C10.8719 16.3514 10.5631 16.0808 10.4944 15.7419C10.4193 15.3713 10.308 15.329 9.90406 15.5178C9.39375 15.7564 8.55132 15.7543 8.08771 15.5132C7.89957 15.4154 7.7151 15.354 7.67766 15.3768C7.64023 15.3997 7.58659 15.5396 7.55841 15.6877C7.49168 16.0387 7.14981 16.3617 6.32181 16.8561C5.342 17.4413 4.77766 17.4446 4.08472 16.8694C3.46978 16.3588 2.40639 14.4386 2.40431 13.835C2.40208 13.153 2.64218 12.817 3.54058 12.2454C4.10667 11.8852 4.12511 11.7372 3.71275 10.867C3.33543 10.0708 3.22576 9.77206 2.99723 8.91752C2.53147 7.17639 2.56811 5.23539 3.09182 3.91165C3.28091 3.4337 3.83232 2.60381 4.20557 2.23541ZM11.8695 6.60583C13.5958 6.84272 14.0697 7.45093 13.5366 8.74537C13.2978 9.32523 12.9653 9.68953 12.4208 9.96823C12.1 10.1324 11.8777 10.1792 11.2879 10.2067C10.3816 10.2489 9.9937 10.0984 9.60441 9.55353C9.38857 9.25135 9.31059 9.19867 9.07918 9.19867C8.86582 9.19867 8.74856 9.26301 8.53312 9.49824C7.95178 10.1331 7.41681 10.322 6.52496 10.2073C5.2712 10.0461 4.44608 9.24939 4.34023 8.09779C4.25969 7.22144 4.55248 6.9236 5.73632 6.67734C6.32141 6.55567 6.82333 6.53126 8.84298 6.52661C10.1678 6.52362 11.5298 6.55921 11.8695 6.60583ZM6.58985 9.02124C5.79794 8.9332 5.4927 7.98053 6.10406 7.50503C6.84887 6.92573 7.84801 7.65316 7.4849 8.51045C7.31543 8.91059 7.03478 9.07078 6.58985 9.02124ZM10.4971 7.99195C10.5462 7.73388 10.7837 7.45085 11.0239 7.36422C11.3555 7.24467 11.73 7.31279 11.9733 7.53708C12.1826 7.73002 12.2212 7.82318 12.2212 8.13559C12.2212 8.45147 12.1815 8.54487 11.9498 8.77341C11.7325 8.98785 11.6154 9.04117 11.3619 9.04117C10.805 9.04117 10.3927 8.54093 10.4971 7.99195ZM12.2096 5.26823C11.8741 5.18357 11.3353 5.07812 11.0123 5.03386C10.3297 4.94046 8.51276 4.86959 7.99065 4.91605C7.13871 4.99189 5.91081 5.21185 5.35653 5.38794C4.42828 5.68286 3.78667 6.13569 4.54234 5.96259C5.60269 5.71964 6.84464 5.6249 9.02833 5.62025C11.0087 5.61608 11.4621 5.63884 12.53 5.79634C13.2048 5.89589 13.7759 5.95849 13.7992 5.93558C13.8741 5.86163 12.8388 5.42692 12.2096 5.26823ZM9.4818 11.5307C9.70682 11.5902 9.78424 11.7942 9.63705 11.9395C9.51636 12.0586 8.57023 12.1045 8.3983 11.9996C8.25614 11.9129 8.29341 11.5771 8.44962 11.5367C8.66083 11.4823 9.28504 11.4786 9.4818 11.5307ZM9.82655 13.0248C10.1793 12.8992 10.1992 12.6706 9.87094 12.5154C9.49857 12.3393 8.64942 12.324 8.23674 12.486C8.04277 12.5621 7.86956 12.6676 7.85168 12.7205C7.83388 12.7733 7.93868 12.8884 8.0846 12.9761C8.39646 13.1637 9.36079 13.1907 9.82655 13.0248ZM9.66371 13.5656C9.71663 13.6286 9.74761 13.7437 9.7326 13.8216C9.71017 13.9373 9.61119 13.9675 9.18965 13.987C8.49153 14.0194 8.30994 13.9667 8.30994 13.732C8.30994 13.4941 8.3868 13.4651 9.03855 13.4575C9.4098 13.4532 9.59618 13.4854 9.66371 13.5656ZM6.52352 12.9214C6.26857 12.5796 6.05545 12.3928 5.74853 12.2419C5.22841 11.9862 5.05384 11.9804 4.96316 12.2157C4.9041 12.3691 4.84822 12.3925 4.60756 12.3647C4.39994 12.3409 4.22369 12.3888 3.96124 12.5405C3.63102 12.7315 3.49524 12.9 3.67165 12.9C3.82953 12.9 4.57667 13.6525 4.88334 14.1203C5.24174 14.6671 5.4223 14.7609 5.84591 14.6206C6.25045 14.4866 6.39421 14.3285 6.39421 14.0175C6.39421 13.7454 6.39629 13.7438 6.55633 13.8866C6.70488 14.0192 6.72914 14.0208 6.84608 13.9055C7.02393 13.7301 6.94314 13.4837 6.52352 12.9214ZM13.1703 12.1564C13.1876 12.1735 13.154 12.2443 13.0955 12.3139C13.0003 12.4271 13.0187 12.4348 13.2729 12.3877C13.5933 12.3284 14.3764 12.6085 14.3764 12.7824C14.3764 12.8369 14.2238 12.9974 14.0372 13.139C13.699 13.3957 13.4629 13.6634 13.0151 14.2979C12.8152 14.5812 12.737 14.6326 12.5053 14.6326C11.9148 14.6326 11.4779 14.2641 11.6633 13.9223C11.7978 13.6744 11.6768 13.6178 11.5007 13.8462C11.3769 14.007 11.3243 14.0262 11.2068 13.9537C10.8178 13.7138 11.5518 12.5913 12.3409 12.2195C12.693 12.0537 13.0395 12.0273 13.1703 12.1564ZM14.5728 14.3963C14.7336 14.3963 15.025 14.073 14.9966 13.9261C14.9588 13.7298 14.612 13.7244 14.5604 13.9192C14.5251 14.0524 14.4943 14.0664 14.4026 13.9913C14.2682 13.8813 14.108 14.0098 14.0204 14.2979C13.9777 14.4384 13.9981 14.4751 14.1194 14.4751C14.2034 14.4751 14.3112 14.3953 14.3588 14.2979C14.4277 14.1568 14.4465 14.1488 14.4508 14.2585C14.4538 14.3343 14.5087 14.3963 14.5728 14.3963ZM15.0635 14.4295C15.1293 14.5985 14.9503 14.8688 14.7727 14.8688C14.5839 14.8688 14.5718 14.7297 14.7402 14.4926C14.883 14.2914 15.0009 14.2684 15.0635 14.4295ZM13.8805 15.5776C14.165 15.5776 14.4562 15.2211 14.4562 14.8728C14.4562 14.6782 14.1312 14.6465 13.9799 14.8264C13.8501 14.9806 13.7711 15.5776 13.8805 15.5776ZM13.8975 14.6365C13.8975 14.7857 13.6664 15.1638 13.5479 15.2087C13.3719 15.2753 13.3247 15.0451 13.4611 14.7851C13.5773 14.5633 13.8975 14.4543 13.8975 14.6365ZM13.1955 15.942C13.3132 16.0137 13.5827 15.681 13.5257 15.5344C13.4711 15.394 13.3832 15.3883 13.2811 15.5185C13.143 15.6946 13.1042 15.8864 13.1955 15.942ZM13.7378 16.0941C13.7378 16.2234 13.4591 16.5226 13.3387 16.5226C13.199 16.5226 13.2528 16.2136 13.4214 16.0473C13.5917 15.8793 13.7378 15.901 13.7378 16.0941ZM13.9346 16.2864C14.0628 16.2864 14.2168 16.0528 14.2168 15.8584C14.2168 15.6819 14.0866 15.7064 13.9419 15.9102C13.7858 16.13 13.7827 16.2864 13.9346 16.2864ZM14.7532 15.2359C14.7908 15.3472 14.4843 15.7098 14.4124 15.6392C14.3313 15.5595 14.54 15.0933 14.6417 15.1267C14.6879 15.1419 14.738 15.191 14.7532 15.2359ZM4.60524 15.1781C4.76912 15.044 4.74341 14.8196 4.54322 14.6356C4.33201 14.4414 4.07937 14.4251 4.07937 14.6055C4.07937 14.6771 4.17237 14.8561 4.28595 15.0031C4.4519 15.2177 4.5148 15.2522 4.60524 15.1781ZM4.0334 14.1809C4.14267 14.4875 3.98502 14.6365 3.762 14.4373C3.60028 14.293 3.55119 14.0774 3.6564 13.9736C3.76727 13.8642 3.95789 13.969 4.0334 14.1809ZM3.42715 14.3963C3.54281 14.3963 3.54904 14.1233 3.43801 13.9186C3.3174 13.6963 3.04169 13.7188 3.04169 13.951C3.04169 14.1415 3.26224 14.3963 3.42715 14.3963ZM3.2786 14.549C3.33599 14.6549 3.33575 14.7174 3.27788 14.7527C3.17355 14.8163 2.96187 14.6503 2.96187 14.5048C2.96187 14.3429 3.18353 14.3739 3.2786 14.549ZM4.18665 15.7113C4.40792 15.6275 4.34973 15.224 4.07107 14.911C3.8071 14.6143 3.62431 14.5582 3.54944 14.7509C3.42787 15.0634 3.92372 15.8109 4.18665 15.7113ZM3.50466 15.1996C3.63237 15.3256 3.62702 15.5776 3.49668 15.5776C3.34861 15.5776 3.20133 15.4127 3.20133 15.2468C3.20133 15.0849 3.36289 15.0597 3.50466 15.1996ZM3.98087 16.2864C4.05279 16.2864 4.08137 16.2126 4.06469 16.0698C4.03411 15.8073 3.68026 15.6972 3.68026 15.9501C3.68026 16.123 3.82626 16.2864 3.98087 16.2864ZM4.75786 16.2172C4.75786 16.484 4.47809 16.4639 4.32188 16.1859C4.21324 15.9925 4.21284 15.9589 4.31836 15.8938C4.4887 15.7886 4.75786 15.9867 4.75786 16.2172ZM4.82611 15.8685C4.9796 15.8104 4.99916 15.5715 4.86163 15.4358C4.71484 15.291 4.47848 15.3205 4.47848 15.4838C4.47848 15.7059 4.6766 15.9251 4.82611 15.8685Z" fill="#212224"/>
</g>
<defs>
<clipPath id="clip0_4189_13977">
<rect width="18" height="18" fill="white"/>
</clipPath>
</defs>
</svg>
