<svg width="24" height="24" viewBox="0 0 24 24" fill="none" xmlns="http://www.w3.org/2000/svg">
<path d="M9.75 3.75L12 1.5L14.25 3.75" stroke="white" stroke-width="2" stroke-linecap="round" stroke-linejoin="round"/>
<path d="M12 6.75V1.5" stroke="white" stroke-width="2" stroke-linecap="round" stroke-linejoin="round"/>
<path fill-rule="evenodd" clip-rule="evenodd" d="M20.1318 6.86833C20.5223 7.25886 20.5223 7.89202 20.1318 8.28255L19.0711 9.34321C18.6806 9.73373 18.0474 9.73373 17.6569 9.34321C17.2664 8.95268 17.2664 8.31952 17.6569 7.92899L18.7175 6.86833C19.1081 6.47781 19.7412 6.47781 20.1318 6.86833ZM9.947 10.8609C10.5852 10.5448 11.2878 10.3803 12 10.3803C12.7122 10.3803 13.4148 10.5448 14.053 10.8609C14.6912 11.1771 15.2478 11.6363 15.6793 12.2029C16.1108 12.7695 16.4057 13.4281 16.5409 14.1274C16.6286 14.5809 16.6476 15.0435 16.5985 15.5H7.40153C7.35243 15.0435 7.37141 14.5809 7.45909 14.1274C7.59429 13.4281 7.88915 12.7695 8.32069 12.2029C8.75224 11.6363 9.3088 11.1771 9.947 10.8609ZM6.55451 17.5C6.56923 17.5003 6.58399 17.5003 6.59879 17.5H17.4016C17.4161 17.5003 17.4307 17.5003 17.4451 17.5H22.5C23.0523 17.5 23.5 17.0523 23.5 16.5C23.5 15.9477 23.0523 15.5 22.5 15.5H18.6065C18.6502 14.9158 18.6165 14.3266 18.5045 13.7477C18.3109 12.7461 17.8885 11.8027 17.2704 10.9911C16.6522 10.1795 15.855 9.52163 14.9408 9.06878C14.0266 8.61592 13.0202 8.38031 12 8.38031C10.9798 8.38031 9.97339 8.61592 9.05921 9.06878C8.14504 9.52164 7.3478 10.1795 6.72964 10.9911C6.11149 11.8027 5.68912 12.7461 5.49546 13.7477C5.38354 14.3266 5.34976 14.9158 5.3935 15.5H1.5C0.947715 15.5 0.5 15.9477 0.5 16.5C0.5 17.0523 0.947715 17.5 1.5 17.5H6.55451ZM3.5 20.25C3.5 19.6977 3.94772 19.25 4.5 19.25H19.5C20.0523 19.25 20.5 19.6977 20.5 20.25C20.5 20.8023 20.0523 21.25 19.5 21.25H4.5C3.94772 21.25 3.5 20.8023 3.5 20.25ZM0.891862 12.0235C1.0348 11.4901 1.58314 11.1735 2.11661 11.3164L3.5655 11.7047C4.09896 11.8476 4.41554 12.3959 4.2726 12.9294C4.12966 13.4629 3.58132 13.7794 3.04786 13.6365L1.59897 13.2483C1.0655 13.1053 0.74892 12.557 0.891862 12.0235ZM22.401 13.2483C22.9345 13.1053 23.2511 12.557 23.1081 12.0235C22.9652 11.4901 22.4169 11.1735 21.8834 11.3164L20.4345 11.7047C19.901 11.8476 19.5845 12.3959 19.7274 12.9294C19.8703 13.4629 20.4187 13.7794 20.9521 13.6365L22.401 13.2483ZM5.28255 6.86833C4.89202 6.47781 4.25886 6.47781 3.86833 6.86833C3.47781 7.25886 3.47781 7.89202 3.86833 8.28255L4.92899 9.34321C5.31952 9.73373 5.95268 9.73373 6.34321 9.34321C6.73373 8.95268 6.73373 8.31952 6.34321 7.92899L5.28255 6.86833Z" fill="white"/>
</svg>
