<svg width="18" height="18" viewBox="0 0 18 18" fill="none" xmlns="http://www.w3.org/2000/svg">
<g clip-path="url(#clip0_4189_13982)">
<path d="M0.901195 7.21367C0.942649 6.89916 1.00792 6.77616 1.25759 6.54199C1.61555 6.20615 1.93559 6.16778 2.40977 6.40378C2.79476 6.59543 2.96717 6.85918 2.96717 7.25656C2.96717 7.63116 3.19105 8.02571 3.47528 8.15208C3.66727 8.2374 3.6722 8.25728 3.62432 8.75985C3.58255 9.19821 3.6023 9.34178 3.7508 9.67861C3.84766 9.8981 3.95015 10.0778 3.97868 10.0778C4.03243 10.0778 4.29934 10.4863 4.29934 10.5686C4.29934 10.6257 3.65637 10.3138 2.96717 9.92226C2.31495 9.55178 2.06239 9.50255 1.62716 9.66095C1.43752 9.72998 1.19004 9.80369 1.0772 9.82463C0.660539 9.90215 0.123126 9.44988 0.0171009 8.9324C-0.058363 8.5646 0.124612 8.1173 0.3952 8.00798C0.705049 7.88276 0.84109 7.66923 0.901195 7.21367Z" fill="#212224"/>
<path d="M15.0573 7.26894C15.115 6.79366 15.2711 6.54108 15.6071 6.37947C15.745 6.31311 15.9637 6.25814 16.093 6.25737C16.5925 6.25424 17.1661 6.81568 17.1452 7.28737C17.1281 7.67451 17.1414 7.70004 17.4622 7.89758C17.8712 8.14948 18.0417 8.47607 17.9915 8.9113C17.9479 9.28788 17.6782 9.62227 17.2918 9.7783C17.0998 9.85597 16.9879 9.85024 16.6477 9.74566C15.9113 9.51922 15.6482 9.5647 14.7 10.0827C14.2332 10.3378 13.8168 10.5352 13.7747 10.5215C13.7325 10.5079 13.8051 10.3546 13.936 10.181C14.2952 9.70437 14.4282 9.27435 14.3722 8.7701C14.3249 8.34389 14.3264 8.33992 14.667 8.00293C14.956 7.71693 15.0168 7.60257 15.0573 7.26894Z" fill="#212224"/>
<path d="M2.15595 13.6991C1.34825 13.3233 1.54009 12.0417 2.435 11.8349C2.8287 11.7439 2.87227 11.7483 3.20226 11.9125C3.56187 12.0915 3.79343 12.1018 4.06425 11.9507C4.40498 11.7607 4.4969 11.8061 4.60504 12.2176C4.6787 12.4979 4.80196 12.6927 5.07044 12.9528C5.41085 13.2826 5.42543 13.3125 5.28563 13.3931C4.85009 13.6445 4.68897 13.8643 4.60575 14.3207C4.46508 15.0916 3.95721 15.454 3.27051 15.2736C2.85244 15.1638 2.57535 14.8548 2.57535 14.4984C2.57535 14.0732 2.45114 13.8364 2.15595 13.6991Z" fill="#212224"/>
<path d="M12.7817 13.1046C13.1578 12.7722 13.3895 12.3718 13.3895 12.0547C13.3895 11.7125 13.4282 11.7021 13.8677 11.9256C14.1483 12.0683 14.2339 12.0797 14.4775 12.0072C15.4516 11.717 15.3853 11.7235 15.7055 11.8857C16.5316 12.3039 16.5715 13.294 15.7796 13.7241C15.4722 13.891 15.466 13.9028 15.4606 14.3311C15.4554 14.7375 15.4346 14.7852 15.1634 15.0139C14.703 15.4021 14.1269 15.4162 13.7059 15.0495C13.5131 14.8815 13.446 14.7398 13.376 14.3524C13.2886 13.8681 13.1291 13.6332 12.7204 13.3872C12.5715 13.2975 12.5733 13.2888 12.7817 13.1046Z" fill="#212224"/>
<path fill-rule="evenodd" clip-rule="evenodd" d="M7.51224 2.82054C6.53568 3.08268 5.97107 3.39498 5.31611 4.03524C4.42245 4.90874 4.07844 5.74364 4.16613 6.82577C4.19011 7.1217 4.27246 7.52658 4.34926 7.7255C4.48655 8.08152 4.48608 8.09253 4.31572 8.43471C4.12679 8.81398 4.09097 9.30424 4.23289 9.56677C4.28257 9.65858 4.4911 9.91385 4.69634 10.134L5.06942 10.5343L5.09582 11.4185L5.12216 12.3027L5.67141 12.8148C7.49226 14.5124 7.73267 14.6997 8.30457 14.8655C8.80986 15.0121 9.47846 14.9657 9.97975 14.7494C10.1652 14.6694 10.7173 14.2452 11.2067 13.8068C11.6961 13.3683 12.216 12.909 12.362 12.786C12.762 12.449 12.9156 12.0538 12.9176 11.3558C12.9195 10.7057 13.0369 10.3383 13.3363 10.0463C13.7428 9.64972 13.8597 9.41769 13.8597 9.00747C13.8597 8.72644 13.8115 8.54457 13.6946 8.38449C13.5217 8.1475 13.5224 8.13244 13.7431 7.40204C13.8935 6.90451 13.8522 6.02941 13.6506 5.44457C13.2616 4.31588 12.2897 3.46929 10.8035 2.96434C10.1427 2.73981 9.94903 2.70862 9.07951 2.68706C8.27738 2.66719 7.99355 2.69134 7.51224 2.82054ZM12.4544 4.81616C12.0314 4.29692 11.3853 3.89044 10.56 3.6244C9.7481 3.36256 8.50714 3.29009 7.80861 3.46363C6.84607 3.70276 5.74233 4.43491 5.27889 5.14168C4.73747 5.96733 4.70848 6.84595 5.19104 7.79881C5.34714 8.1069 5.47479 8.39626 5.47479 8.44182C5.47479 8.48731 5.33374 8.56583 5.16134 8.61621C4.76474 8.7321 4.75205 8.90625 5.10257 9.42266C5.42582 9.89886 5.65401 10.0596 6.12811 10.1451C6.33664 10.1826 6.54735 10.2526 6.59641 10.3004C6.64546 10.3483 6.70823 10.6721 6.73597 11.0199C6.80352 11.867 6.84208 11.9582 7.22355 12.1733C7.97051 12.5944 8.80296 12.6935 9.89002 12.4906C10.9867 12.2859 11.1953 12.0653 11.1953 11.1101C11.1953 10.5956 11.2172 10.5082 11.3877 10.3419C11.4935 10.2387 11.6711 10.1542 11.7826 10.1542C12.1513 10.1542 12.5922 9.86614 12.8875 9.4323C13.042 9.20532 13.156 8.95755 13.1411 8.88171C13.1254 8.80243 12.9784 8.69411 12.7956 8.62714L12.4773 8.51055L12.7336 7.97541C13.3483 6.69176 13.2711 5.81863 12.4544 4.81616ZM10.0074 7.90829C9.50956 8.10996 9.51481 8.7441 10.0184 9.23536C10.3246 9.53413 10.5843 9.61906 11.1915 9.61906C11.6988 9.61906 11.8834 9.41953 11.9499 8.79938C11.9956 8.37172 11.9837 8.31714 11.8063 8.14406C11.4694 7.81533 10.5382 7.69331 10.0074 7.90829ZM6.35474 7.9949C6.04606 8.14474 5.94607 8.43945 6.03697 8.93102C6.15349 9.56103 6.68653 9.77494 7.52736 9.52915C8.20168 9.33207 8.56137 8.45268 8.15513 7.99452C7.99206 7.81059 6.73394 7.81089 6.35474 7.9949ZM8.58809 9.58558C8.29415 9.99075 8.236 10.1514 8.22535 10.5879C8.21524 10.9987 8.56231 11.3775 8.94841 11.3771C9.28036 11.3767 9.69019 11.1231 9.75289 10.8792C9.90585 10.2849 9.37839 9.23682 8.92631 9.23682C8.87953 9.23682 8.72734 9.39377 8.58809 9.58558Z" fill="#212224"/>
</g>
<defs>
<clipPath id="clip0_4189_13982">
<rect width="18" height="18" fill="white"/>
</clipPath>
</defs>
</svg>
