<svg width="53" height="395" viewBox="0 0 53 395" fill="none" xmlns="http://www.w3.org/2000/svg">
<path d="M12.5435 2C12.5435 2 19.2477 20.589 23.5435 32.5C12.9994 37.9673 2.67307 40.334 2.04351 46C1.54351 50.5 5.51796 61.8185 5.51796 66.3185C12.7427 69.4427 19.9372 71.1456 21.5435 76.5C23.0435 81.5 14.1487 86.3185 14.2935 90.5C14.5013 96.5 28.4959 95 29.5435 106C30.3246 114.201 29.3595 124.159 30.5435 128.5C32.0435 134 39.2935 143 39.2935 143C39.2935 143 33.0435 157.5 29.5435 162.5C25.083 168.872 16.5435 172.5 14.2935 179.75C10.6812 189.025 11.0435 194.419 5.04351 203.5C12.2682 211.896 19.0435 213 23.5435 225C28.6203 237.106 30.9317 249.354 33.0435 254C35.5435 259.5 46.5135 257 50.5435 263.5C47.2241 270.139 45.0435 277.5 42.0435 280.5C39.1931 283.35 25.5435 282 25.0435 292.5C25.0435 302.654 29.5435 312 26.5435 318.5C23.8116 324.419 21.0435 332.5 17.0435 336.5C22.7061 343.139 29.5435 348.842 29.5435 354C29.5435 357.5 29.5435 369 29.5435 369L50.5435 393.5" stroke="white" stroke-width="3" stroke-linecap="round" stroke-linejoin="round"/>
</svg>
