<svg width="24" height="24" viewBox="0 0 24 24" fill="none" xmlns="http://www.w3.org/2000/svg">
<path d="M7.3123 3.5109C7.2748 3.5109 7.24981 3.5109 7.21231 3.4984C7.17481 3.4984 7.1498 3.4859 7.1123 3.4734C7.0873 3.4609 7.04981 3.4484 7.02481 3.4234C6.99981 3.3984 6.9748 3.3859 6.9498 3.3609C6.8623 3.2609 6.7998 3.1359 6.7998 3.0109C6.7998 2.9734 6.7998 2.9484 6.8123 2.9109C6.8248 2.8734 6.82481 2.8484 6.83731 2.8109C6.84981 2.7859 6.8623 2.7484 6.8873 2.7234C6.9123 2.6984 6.9248 2.6734 6.9498 2.6484C6.9748 2.6234 6.99981 2.5984 7.02481 2.5859C7.04981 2.5734 7.0873 2.5484 7.1123 2.5359C7.1373 2.5234 7.17481 2.5109 7.21231 2.5109C7.37481 2.4734 7.54981 2.5359 7.66231 2.6484C7.74981 2.7359 7.8123 2.8734 7.8123 2.9984C7.8123 3.1359 7.76231 3.2609 7.66231 3.3484C7.57481 3.4609 7.4498 3.5109 7.3123 3.5109Z" fill="#FFC44C"/>
<path d="M2 8.82353C1.875 8.82353 1.73751 8.77353 1.65001 8.67353C1.56251 8.58603 1.5 8.44853 1.5 8.32353C1.5 8.19853 1.55001 8.06104 1.65001 7.97354C1.67501 7.94854 1.70001 7.93604 1.72501 7.91104C1.75001 7.88604 1.775 7.87353 1.8125 7.86103C1.8375 7.84853 1.87501 7.83604 1.91251 7.83604C1.97501 7.82354 2.0375 7.82354 2.1125 7.83604C2.15 7.83604 2.17501 7.84853 2.21251 7.86103C2.23751 7.87353 2.275 7.88604 2.3 7.91104C2.325 7.92354 2.35 7.94854 2.375 7.97354C2.4625 8.07354 2.52501 8.19853 2.52501 8.32353C2.52501 8.46103 2.475 8.58603 2.375 8.67353C2.35 8.69853 2.325 8.72353 2.3 8.73603C2.275 8.74853 2.23751 8.77354 2.21251 8.78604C2.18751 8.79854 2.15 8.81103 2.1125 8.81103C2.0625 8.82353 2.0375 8.82353 2 8.82353Z" fill="#FFC44C"/>
<path d="M11.075 5.07353C11.0375 5.07353 11.0125 5.07353 10.975 5.06103C10.9375 5.06103 10.9125 5.04854 10.875 5.03604C10.85 5.02354 10.8125 5.01103 10.7875 4.98603C10.7625 4.97353 10.7375 4.94853 10.7125 4.92353C10.6125 4.83603 10.5625 4.69853 10.5625 4.57353C10.5625 4.43603 10.6125 4.31104 10.7125 4.22354C10.7375 4.19854 10.7625 4.18604 10.7875 4.16104C10.8125 4.14854 10.8375 4.12353 10.875 4.11103C10.9125 4.09853 10.9375 4.08604 10.975 4.08604C11.0375 4.07354 11.1 4.07354 11.175 4.08604C11.2 4.09854 11.2375 4.09853 11.275 4.11103C11.3 4.12353 11.3375 4.13604 11.3625 4.16104C11.3875 4.18604 11.4125 4.19854 11.4375 4.22354C11.525 4.31104 11.5875 4.44853 11.5875 4.57353C11.5875 4.71103 11.5375 4.83603 11.4375 4.92353C11.4125 4.94853 11.3875 4.97353 11.3625 4.98603C11.3375 4.99853 11.3 5.02354 11.275 5.03604C11.25 5.04854 11.2125 5.06103 11.175 5.06103C11.1375 5.06103 11.1125 5.07353 11.075 5.07353Z" fill="#FFC44C"/>
<path d="M3.5625 5.07324C3.425 5.07324 3.30001 5.02324 3.21251 4.92324C3.11251 4.83574 3.0625 4.69824 3.0625 4.57324C3.0625 4.43574 3.11251 4.31074 3.21251 4.22324C3.30001 4.12324 3.4375 4.07324 3.5625 4.07324C3.7 4.07324 3.82501 4.12324 3.91251 4.22324C4.01251 4.31074 4.0625 4.44824 4.0625 4.57324C4.0625 4.71074 4.01251 4.83574 3.91251 4.92324C3.82501 5.01074 3.6875 5.07324 3.5625 5.07324Z" fill="#FFC44C"/>
<path d="M7.3123 3.5109C7.2748 3.5109 7.24981 3.5109 7.21231 3.4984C7.17481 3.4984 7.1498 3.4859 7.1123 3.4734C7.0873 3.4609 7.04981 3.4484 7.02481 3.4234C6.99981 3.3984 6.9748 3.3859 6.9498 3.3609C6.8623 3.2609 6.7998 3.1359 6.7998 3.0109C6.7998 2.9734 6.7998 2.9484 6.8123 2.9109C6.8248 2.8734 6.82481 2.8484 6.83731 2.8109C6.84981 2.7859 6.8623 2.7484 6.8873 2.7234C6.9123 2.6984 6.9248 2.6734 6.9498 2.6484C6.9748 2.6234 6.99981 2.5984 7.02481 2.5859C7.04981 2.5734 7.0873 2.5484 7.1123 2.5359C7.1373 2.5234 7.17481 2.5109 7.21231 2.5109C7.37481 2.4734 7.54981 2.5359 7.66231 2.6484C7.74981 2.7359 7.8123 2.8734 7.8123 2.9984C7.8123 3.1359 7.76231 3.2609 7.66231 3.3484C7.57481 3.4609 7.4498 3.5109 7.3123 3.5109Z" fill="#FFC44C"/>
<path d="M2 8.82353C1.875 8.82353 1.73751 8.77353 1.65001 8.67353C1.56251 8.58603 1.5 8.44853 1.5 8.32353C1.5 8.19853 1.55001 8.06104 1.65001 7.97354C1.67501 7.94854 1.70001 7.93604 1.72501 7.91104C1.75001 7.88604 1.775 7.87353 1.8125 7.86103C1.8375 7.84853 1.87501 7.83604 1.91251 7.83604C1.97501 7.82354 2.0375 7.82354 2.1125 7.83604C2.15 7.83604 2.17501 7.84853 2.21251 7.86103C2.23751 7.87353 2.275 7.88604 2.3 7.91104C2.325 7.92354 2.35 7.94854 2.375 7.97354C2.4625 8.07354 2.52501 8.19853 2.52501 8.32353C2.52501 8.46103 2.475 8.58603 2.375 8.67353C2.35 8.69853 2.325 8.72353 2.3 8.73603C2.275 8.74853 2.23751 8.77354 2.21251 8.78604C2.18751 8.79854 2.15 8.81103 2.1125 8.81103C2.0625 8.82353 2.0375 8.82353 2 8.82353Z" fill="#FFC44C"/>
<path d="M11.075 5.07353C11.0375 5.07353 11.0125 5.07353 10.975 5.06103C10.9375 5.06103 10.9125 5.04854 10.875 5.03604C10.85 5.02354 10.8125 5.01103 10.7875 4.98603C10.7625 4.97353 10.7375 4.94853 10.7125 4.92353C10.6125 4.83603 10.5625 4.69853 10.5625 4.57353C10.5625 4.43603 10.6125 4.31104 10.7125 4.22354C10.7375 4.19854 10.7625 4.18604 10.7875 4.16104C10.8125 4.14854 10.8375 4.12353 10.875 4.11103C10.9125 4.09853 10.9375 4.08604 10.975 4.08604C11.0375 4.07354 11.1 4.07354 11.175 4.08604C11.2 4.09854 11.2375 4.09853 11.275 4.11103C11.3 4.12353 11.3375 4.13604 11.3625 4.16104C11.3875 4.18604 11.4125 4.19854 11.4375 4.22354C11.525 4.31104 11.5875 4.44853 11.5875 4.57353C11.5875 4.71103 11.5375 4.83603 11.4375 4.92353C11.4125 4.94853 11.3875 4.97353 11.3625 4.98603C11.3375 4.99853 11.3 5.02354 11.275 5.03604C11.25 5.04854 11.2125 5.06103 11.175 5.06103C11.1375 5.06103 11.1125 5.07353 11.075 5.07353Z" fill="#FFC44C"/>
<path d="M3.5625 5.07324C3.425 5.07324 3.30001 5.02324 3.21251 4.92324C3.11251 4.83574 3.0625 4.69824 3.0625 4.57324C3.0625 4.43574 3.11251 4.31074 3.21251 4.22324C3.30001 4.12324 3.4375 4.07324 3.5625 4.07324C3.7 4.07324 3.82501 4.12324 3.91251 4.22324C4.01251 4.31074 4.0625 4.44824 4.0625 4.57324C4.0625 4.71074 4.01251 4.83574 3.91251 4.92324C3.82501 5.01074 3.6875 5.07324 3.5625 5.07324Z" fill="#FFC44C"/>
<path d="M2.9373 12.461C2.8998 12.461 2.87481 12.461 2.83731 12.4485C2.81231 12.4485 2.7748 12.436 2.7373 12.4235C2.7123 12.411 2.67481 12.3985 2.64981 12.3735C2.62481 12.361 2.5998 12.336 2.5748 12.311C2.4748 12.211 2.4248 12.086 2.4248 11.961C2.4248 11.9235 2.4248 11.8985 2.4373 11.861C2.4373 11.8235 2.44981 11.7985 2.46231 11.761C2.47481 11.736 2.4873 11.6985 2.5123 11.6735C2.5248 11.6485 2.5498 11.6235 2.5748 11.5985C2.5998 11.5735 2.62481 11.561 2.64981 11.536C2.67481 11.5235 2.7123 11.4985 2.7373 11.486C2.7623 11.4735 2.79981 11.461 2.83731 11.461C2.89981 11.4485 2.96231 11.4485 3.03731 11.461C3.06231 11.4735 3.0998 11.4735 3.1248 11.486C3.1498 11.4985 3.18731 11.511 3.21231 11.536C3.23731 11.561 3.26231 11.5735 3.28731 11.5985C3.38731 11.686 3.4373 11.8235 3.4373 11.9485C3.4373 12.0735 3.38731 12.211 3.28731 12.2985C3.26231 12.3235 3.23731 12.336 3.21231 12.361C3.18731 12.3735 3.1623 12.3985 3.1248 12.411C3.0998 12.4235 3.06231 12.436 3.03731 12.436C2.99981 12.461 2.9623 12.461 2.9373 12.461Z" fill="#FFC44C"/>
<path d="M7.29961 12.1983C9.4121 12.1983 11.1246 10.4578 11.1246 8.31084C11.1246 6.16383 9.4121 4.42334 7.29961 4.42334C5.18712 4.42334 3.47461 6.16383 3.47461 8.31084C3.47461 10.4578 5.18712 12.1983 7.29961 12.1983Z" fill="url(#paint0_linear_3783_14240)"/>
<path d="M21.4525 10.9857C20.715 10.1857 19.7025 9.71074 18.615 9.66074C18.4275 9.64824 18.2525 9.66074 18.065 9.67324C17.79 7.39824 15.915 5.62324 13.5775 5.51074C13.5025 5.51074 13.44 5.51074 13.365 5.51074C10.9275 5.51074 8.87747 7.37324 8.65247 9.79824C7.56497 9.74824 6.51497 10.1232 5.71497 10.8607C4.91497 11.5982 4.42747 12.6107 4.37747 13.7107C4.32747 14.7982 4.70247 15.8482 5.43997 16.6482C6.17747 17.4482 7.18997 17.9232 8.27747 17.9732C8.28997 17.9732 8.28997 17.9732 8.30247 17.9732C8.56497 17.9732 8.78997 17.7607 8.80247 17.4982C8.81497 17.2232 8.60247 16.9857 8.32747 16.9732C7.50247 16.9357 6.73997 16.5857 6.18997 15.9732C5.62747 15.3607 5.33997 14.5732 5.37747 13.7482C5.41497 12.9232 5.76497 12.1607 6.37747 11.6107C6.98997 11.0482 7.77747 10.7607 8.60247 10.7982C9.66497 10.8482 10.615 11.4232 11.14 12.3357C11.2775 12.5732 11.5775 12.6607 11.8275 12.5232C12.065 12.3857 12.1525 12.0857 12.015 11.8357C11.49 10.9107 10.64 10.2482 9.63997 9.96074C9.78997 7.96074 11.515 6.41074 13.5275 6.51074C15.5275 6.59824 17.1025 8.23574 17.1025 10.2482C17.1025 10.3982 17.1775 10.5482 17.29 10.6357C17.415 10.7357 17.565 10.7607 17.715 10.7357C17.99 10.6732 18.2775 10.6357 18.565 10.6607C19.39 10.6982 20.1525 11.0482 20.7025 11.6607C21.265 12.2732 21.54 13.0607 21.515 13.8857C21.4525 15.2232 20.5525 16.3732 19.2525 16.7232C18.99 16.7982 18.8275 17.0732 18.9025 17.3357C18.965 17.5607 19.165 17.6982 19.39 17.6982C19.44 17.6982 19.4775 17.6982 19.5275 17.6857C21.24 17.2107 22.44 15.6982 22.515 13.9232C22.565 12.8357 22.19 11.7857 21.4525 10.9857Z" fill="white"/>
<path d="M11.1148 18.1982L12.1148 19.1982C12.6648 19.7482 12.6648 20.6357 12.1148 21.1857C11.5648 21.7357 10.6773 21.7357 10.1273 21.1857C9.57734 20.6357 9.57734 19.7482 10.1273 19.1982L11.1148 18.1982Z" fill="url(#paint1_linear_3783_14240)"/>
<path d="M13.7398 15.0356L14.7398 16.0356C15.2898 16.5856 15.2898 17.4731 14.7398 18.0231C14.1898 18.5731 13.3023 18.5731 12.7523 18.0231C12.2023 17.4731 12.2023 16.5856 12.7523 16.0356L13.7398 15.0356Z" fill="url(#paint2_linear_3783_14240)"/>
<path d="M16.2896 18.1982L17.2896 19.1982C17.8396 19.7482 17.8396 20.6357 17.2896 21.1857C16.7396 21.7357 15.8521 21.7357 15.3021 21.1857C14.7521 20.6357 14.7521 19.7482 15.3021 19.1982L16.2896 18.1982Z" fill="url(#paint3_linear_3783_14240)"/>
<defs>
<linearGradient id="paint0_linear_3783_14240" x1="7.30084" y1="12.1914" x2="7.30084" y2="4.42368" gradientUnits="userSpaceOnUse">
<stop stop-color="#FFC14C"/>
<stop offset="1" stop-color="#FFD04D"/>
</linearGradient>
<linearGradient id="paint1_linear_3783_14240" x1="11.1432" y1="21.248" x2="11.0316" y2="18.5877" gradientUnits="userSpaceOnUse">
<stop stop-color="#409FFF"/>
<stop offset="1" stop-color="#86C2FF"/>
</linearGradient>
<linearGradient id="paint2_linear_3783_14240" x1="13.7765" y1="18.0746" x2="13.6649" y2="15.4143" gradientUnits="userSpaceOnUse">
<stop stop-color="#409FFF"/>
<stop offset="1" stop-color="#86C2FF"/>
</linearGradient>
<linearGradient id="paint3_linear_3783_14240" x1="16.3185" y1="21.248" x2="16.207" y2="18.5877" gradientUnits="userSpaceOnUse">
<stop stop-color="#409FFF"/>
<stop offset="1" stop-color="#86C2FF"/>
</linearGradient>
</defs>
</svg>
