<svg width="24" height="24" viewBox="0 0 24 24" fill="none" xmlns="http://www.w3.org/2000/svg">
<path d="M7.27004 13.0098C6.74004 12.7398 6.15004 12.5998 5.55004 12.5998C0.870039 12.9298 0.870039 19.7398 5.55004 20.0698H16.64C17.99 20.0798 19.29 19.5798 20.28 18.6698C23.57 15.7998 21.81 10.0298 17.48 9.47976C15.92 0.109757 2.39004 3.66976 5.60004 12.5998" stroke="#9975FF" stroke-width="2" stroke-miterlimit="10" stroke-linecap="round" stroke-linejoin="round"/>
<circle cx="13.8154" cy="12.8013" r="1" fill="#9975FF"/>
<circle cx="2.72339" cy="9.82104" r="0.64624" fill="#9975FF"/>
<circle cx="23.3857" cy="18.3169" r="0.569336" fill="#9975FF"/>
<circle cx="10.125" cy="7.875" r="0.625" stroke="#9975FF"/>
<mask id="path-6-inside-1_6047_5800" fill="white">
<ellipse cx="19.1108" cy="15.8208" rx="0.699707" ry="0.699707"/>
</mask>
<path d="M18.8105 15.8208C18.8105 15.655 18.945 15.5205 19.1108 15.5205V17.5205C20.0496 17.5205 20.8105 16.7595 20.8105 15.8208H18.8105ZM19.1108 15.5205C19.2767 15.5205 19.4111 15.655 19.4111 15.8208H17.4111C17.4111 16.7595 18.1721 17.5205 19.1108 17.5205V15.5205ZM19.4111 15.8208C19.4111 15.9866 19.2767 16.1211 19.1108 16.1211V14.1211C18.1721 14.1211 17.4111 14.8821 17.4111 15.8208H19.4111ZM19.1108 16.1211C18.945 16.1211 18.8105 15.9866 18.8105 15.8208H20.8105C20.8105 14.8821 20.0496 14.1211 19.1108 14.1211V16.1211Z" fill="#9975FF" mask="url(#path-6-inside-1_6047_5800)"/>
<path d="M9.04004 16.4697C9.04004 17.022 8.59232 17.4697 8.04004 17.4697C7.48775 17.4697 7.04004 17.022 7.04004 16.4697C7.04004 15.9174 7.48775 15.4697 8.04004 15.4697C8.59232 15.4697 9.04004 15.9174 9.04004 16.4697Z" stroke="#9975FF"/>
<path d="M22.4502 6.76807C22.4502 7.42337 21.919 7.95459 21.2637 7.95459C20.6084 7.95459 20.0771 7.42337 20.0771 6.76807C20.0771 6.11277 20.6084 5.58154 21.2637 5.58154C21.919 5.58154 22.4502 6.11277 22.4502 6.76807Z" stroke="#9975FF"/>
</svg>
