<svg width="24" height="24" viewBox="0 0 24 24" fill="none" xmlns="http://www.w3.org/2000/svg">
<path d="M17.5083 16.4463C17.4403 16.4463 17.3723 16.4463 17.3044 16.4463C17.0052 16.4327 16.774 16.1744 16.7876 15.8752C16.8012 15.576 17.0596 15.3449 17.3587 15.3585C19.2353 15.4401 20.8399 13.9851 20.9215 12.0949C20.9623 11.1838 20.6495 10.3136 20.024 9.63365C19.3985 8.95374 18.569 8.57301 17.6579 8.53222C17.3452 8.51862 17.0188 8.54581 16.7196 8.6274C16.5565 8.66819 16.3933 8.62739 16.2573 8.51861C16.1213 8.40982 16.0533 8.26026 16.0533 8.09709C16.0533 6.99564 15.6318 5.96218 14.8431 5.17349C14.068 4.3984 13.0209 3.96324 11.9195 3.96324C9.703 3.96324 7.89448 5.6902 7.7993 7.90669L7.78568 8.23307C7.77209 8.53223 7.51373 8.76337 7.21457 8.74977C6.91541 8.73617 6.68424 8.47781 6.69784 8.17866L6.71145 7.85231C6.83383 5.0511 9.11829 2.86182 11.9195 2.86182C13.3065 2.86182 14.6255 3.40573 15.6046 4.3848C16.4341 5.21428 16.9508 6.28853 17.0868 7.44437C17.2907 7.43077 17.4947 7.41716 17.6987 7.43076C20.1735 7.53954 22.1045 9.64726 21.9957 12.1357C21.8869 14.5562 19.888 16.4463 17.5083 16.4463Z" fill="white"/>
<path d="M6.33024 16.6096C6.31664 16.6096 6.31665 16.6096 6.30305 16.6096C4.75287 16.5416 3.37943 15.6986 2.60434 14.3659C2.00602 13.3189 1.84287 12.1087 2.15563 10.9528C2.46839 9.79699 3.21627 8.81792 4.24972 8.2196C5.28318 7.62128 6.50702 7.4581 7.66286 7.77086C8.8187 8.08361 9.79775 8.83153 10.3961 9.86498C10.5456 10.1233 10.4505 10.4633 10.1921 10.6129C9.93373 10.7625 9.59377 10.6673 9.44419 10.4089C8.98186 9.62022 8.24757 9.04907 7.37729 8.8179C6.49341 8.58674 5.58233 8.69552 4.78004 9.15786C3.99135 9.62019 3.42023 10.3545 3.18907 11.2248C2.9579 12.1087 3.06668 13.0197 3.52902 13.822C4.11374 14.8419 5.1608 15.481 6.33024 15.5218C6.6294 15.5354 6.86057 15.7937 6.84698 16.0929C6.86057 16.3784 6.6158 16.6096 6.33024 16.6096Z" fill="white"/>
<path d="M10.2476 21.1384C10.166 21.1384 10.0708 21.1248 10.0028 21.0704C9.77166 20.948 9.66288 20.6896 9.73087 20.4449L10.5468 17.3309H9.49971C9.30933 17.3309 9.14614 17.2357 9.03735 17.0862C8.94216 16.9366 8.91496 16.7326 8.99655 16.5694L10.6691 12.7756C10.7507 12.5852 10.9547 12.4492 11.1722 12.4492H14.1911C14.395 12.4492 14.5854 12.558 14.6806 12.7484C14.7758 12.9387 14.7621 13.1563 14.6398 13.3195L13.3616 15.06H14.4902C14.7078 15.06 14.8981 15.1824 14.9797 15.3728C15.0613 15.5632 15.0341 15.7943 14.8981 15.9575L10.6691 20.9344C10.5603 21.0704 10.3972 21.1384 10.2476 21.1384ZM10.3156 16.2567H11.2402C11.4034 16.2567 11.5666 16.3383 11.6754 16.4742C11.7842 16.6102 11.8114 16.787 11.7706 16.9502L11.3898 18.4324L13.3208 16.1615H12.2873C12.0833 16.1615 11.893 16.0527 11.7978 15.8623C11.7026 15.672 11.7162 15.4544 11.8386 15.2912L13.1168 13.5506H11.5258L10.3156 16.2567Z" fill="white"/>
</svg>
