<svg width="24" height="25" viewBox="0 0 24 25" fill="none" xmlns="http://www.w3.org/2000/svg">
<path d="M15.0173 12.8193C14.7371 12.8193 14.4691 12.8071 14.2011 12.8071C13.9453 12.8071 13.6894 12.795 13.458 12.795C13.19 12.795 12.9707 12.5757 12.9707 12.3077C12.9707 12.0397 13.19 11.8204 13.458 11.8204C13.7138 11.8204 13.9696 11.8204 14.2255 11.8326C15.5046 11.8569 16.8203 11.8935 17.807 11.2356C18.3552 10.8702 18.6598 10.2611 18.5867 9.6276C18.5258 9.09158 18.209 8.6652 17.7096 8.48247C17.1857 8.31192 16.6863 8.38503 16.333 8.6774C15.9919 8.96977 15.8335 9.43268 15.931 9.93215C15.9797 10.2002 15.797 10.4438 15.529 10.4925C15.2609 10.5413 15.0173 10.3585 14.9686 10.0905C14.8224 9.24996 15.1026 8.44593 15.6995 7.93428C16.3208 7.39826 17.1735 7.26426 18.0263 7.55663H18.0385C18.8791 7.87337 19.4516 8.59211 19.5491 9.50578C19.6587 10.5047 19.1958 11.4793 18.343 12.0397C17.3441 12.7219 16.1502 12.8193 15.0173 12.8193Z" fill="white"/>
<path d="M11.5342 12.9414H7.01463C6.74662 12.9414 6.52734 12.7221 6.52734 12.4541C6.52734 12.1861 6.74662 11.9668 7.01463 11.9668H11.5342C11.8022 11.9668 12.0215 12.1861 12.0215 12.4541C12.0215 12.7221 11.8022 12.9414 11.5342 12.9414Z" fill="white"/>
<path d="M12.8854 18.7032C12.7514 18.7032 12.6052 18.691 12.4712 18.6544C11.9717 18.5204 11.5454 18.155 11.3505 17.6799C11.253 17.4362 11.3626 17.1439 11.6185 17.0464C11.8621 16.9489 12.1545 17.0586 12.2519 17.3144C12.3372 17.5093 12.5078 17.6677 12.7148 17.7286C13.0559 17.8139 13.397 17.6311 13.5189 17.29C13.6407 16.9368 13.458 16.5348 13.263 16.2911C12.9341 15.8769 12.2276 15.6211 11.1921 15.5358C8.93839 15.3409 6.63597 15.6942 4.65028 16.0475C4.38227 16.0962 4.13863 15.9135 4.08991 15.6454C4.04118 15.3774 4.2239 15.1338 4.49191 15.0851C6.53851 14.7318 8.91403 14.3663 11.2895 14.5734C12.6052 14.6831 13.5311 15.0607 14.0427 15.6942C14.5056 16.2789 14.664 17.0098 14.4447 17.6189C14.2011 18.2768 13.5676 18.7032 12.8854 18.7032Z" fill="white"/>
<path d="M19.5129 15.5117H16.2724C16.0044 15.5117 15.7852 15.2924 15.7852 15.0244C15.7852 14.7564 16.0044 14.5371 16.2724 14.5371H19.5129C19.7809 14.5371 20.0002 14.7564 20.0002 15.0244C20.0002 15.2924 19.7809 15.5117 19.5129 15.5117Z" fill="white"/>
<path d="M8.81679 10.2246C8.14677 10.2246 7.47676 10.0662 6.85547 9.92002L6.624 9.85911C6.12454 9.73728 5.77125 9.63983 5.41797 9.54237C5.11342 9.4571 4.79668 9.35964 4.37031 9.26218C4.11448 9.20127 3.94393 8.93327 4.01702 8.67744C4.07793 8.42162 4.34595 8.25107 4.60177 8.32416C5.04033 8.4338 5.36925 8.53126 5.68599 8.61653C6.03927 8.71399 6.36819 8.81145 6.84329 8.92109L7.08693 8.982C7.83004 9.16473 8.59752 9.34746 9.26754 9.22564C9.91319 9.116 10.571 8.57998 10.571 7.80032C10.571 7.02066 9.93755 6.39938 9.17007 6.39938C8.57315 6.39938 8.09804 6.88667 8.09804 7.47141V7.49577C8.09804 7.76378 7.87876 7.98305 7.61075 7.98305C7.34275 7.98305 7.12347 7.76378 7.12347 7.49577V7.47141C7.12347 6.33847 8.04932 5.4248 9.17007 5.4248C10.4857 5.4248 11.5456 6.49683 11.5456 7.80032C11.5456 8.96981 10.6563 9.96874 9.4259 10.188C9.23098 10.2124 9.02389 10.2246 8.81679 10.2246Z" fill="white"/>
</svg>
