<svg width="18" height="18" viewBox="0 0 18 18" fill="none" xmlns="http://www.w3.org/2000/svg">
<g clip-path="url(#clip0_4189_13957)">
<path fill-rule="evenodd" clip-rule="evenodd" d="M7.03095 0.806309C5.59252 1.10213 4.04535 2.20597 3.23034 3.51778C2.82932 4.16329 2.48 5.05696 2.34786 5.77508C2.19693 6.59598 2.19595 11.2657 2.34657 12.0049C3.02681 15.3432 5.95701 17.6113 9.13866 17.2626C9.51546 17.2213 9.92561 17.1556 10.0501 17.1165C12.0563 16.4876 13.6181 15.0455 14.3078 13.1846C14.7266 12.0547 14.7667 11.6886 14.766 8.99491C14.7655 6.46173 14.72 5.88178 14.454 5.01566C13.8295 2.98243 12.1185 1.33813 10.1236 0.854199C9.3794 0.673628 7.7951 0.649133 7.03095 0.806309ZM10.0561 6.13269C10.9115 6.99794 11.8539 7.52537 13.1342 7.85542C13.4717 7.94241 13.7904 8.07007 13.8422 8.13908C13.9834 8.32687 13.9682 10.8497 13.8205 11.7375C13.6965 12.4835 13.2167 13.6354 12.8433 14.0835C12.4847 14.514 11.7233 15.3004 11.6652 15.3004C11.6337 15.3004 11.5603 15.3499 11.5021 15.4105C11.3322 15.5873 10.3882 16.0546 9.93693 16.1854C9.28733 16.3737 8.74814 16.4125 8.01259 16.3238C6.02803 16.0846 4.55519 15.0901 3.76387 13.4548C3.16929 12.226 3.06967 11.6875 3.06967 9.70212V8.17974L4.03184 8.13319C6.01135 8.03749 7.70031 7.32305 8.88043 6.08229C9.10871 5.84229 9.35781 5.64547 9.43403 5.64484C9.51025 5.64421 9.79015 5.8638 10.0561 6.13269ZM5.37134 8.9259C4.92594 9.12217 4.69329 9.3062 4.47354 9.63601C4.20239 10.0432 4.22292 10.1664 4.59315 10.3525C5.00065 10.5573 5.06035 10.5528 5.18607 10.3084C5.53456 9.63099 6.3658 9.5849 6.86892 10.2151L7.13003 10.5421L7.45807 10.3945C7.63859 10.3133 7.81751 10.219 7.85585 10.185C8.04006 10.0212 7.44079 9.25579 6.90877 8.97536C6.47183 8.74501 5.8288 8.72429 5.37134 8.9259ZM10.1633 8.94733C9.61552 9.205 9.03324 9.88465 9.13172 10.1515C9.15142 10.2049 9.32476 10.311 9.51689 10.3874L9.86622 10.5262L10.0267 10.314C10.2903 9.96528 10.4639 9.82459 10.6879 9.77804C11.0448 9.70377 11.4178 9.86298 11.7053 10.2124L11.9718 10.5364L12.2939 10.3917C12.471 10.3121 12.6472 10.219 12.6856 10.185C12.8698 10.0212 12.2705 9.25579 11.7385 8.97536C11.2742 8.73057 10.6478 8.71942 10.1633 8.94733ZM5.19633 12.1318C5.15158 12.215 5.15905 12.4072 5.21701 12.6626C5.62059 14.4403 7.5964 15.6664 9.29548 15.1935C10.5788 14.8363 11.7385 13.5331 11.7742 12.4077L11.7858 12.0422L8.5262 12.0218C5.55335 12.0031 5.26033 12.0128 5.19633 12.1318Z" fill="#212224"/>
</g>
<defs>
<clipPath id="clip0_4189_13957">
<rect width="18" height="18" fill="white"/>
</clipPath>
</defs>
</svg>
